<?xml version="1.0" encoding="UTF-8" standalone="no"?>
<!DOCTYPE svg PUBLIC "-//W3C//DTD SVG 1.1//EN"
 "http://www.w3.org/Graphics/SVG/1.1/DTD/svg11.dtd">
<!-- Generated by graphviz version 2.43.0 (0)
 -->
<!-- Title: shpxx::shpfile_t::shpfile_t Pages: 1 -->
<svg width="305pt" height="127pt"
 viewBox="0.00 0.00 305.00 126.50" xmlns="http://www.w3.org/2000/svg" xmlns:xlink="http://www.w3.org/1999/xlink">
<g id="graph0" class="graph" transform="scale(1 1) rotate(0) translate(4 122.5)">
<title>shpxx::shpfile_t::shpfile_t</title>
<polygon fill="white" stroke="transparent" points="-4,4 -4,-122.5 301,-122.5 301,4 -4,4"/>
<!-- Node1 -->
<g id="node1" class="node">
<title>Node1</title>
<g id="a_node1"><a xlink:title="Construct a shpfile_t for a specific file handle.">
<polygon fill="#bfbfbf" stroke="black" points="0,-55 0,-74 140,-74 140,-55 0,-55"/>
<text text-anchor="middle" x="70" y="-62" font-family="Helvetica,sans-Serif" font-size="10.00">shpxx::shpfile_t::shpfile_t</text>
</a>
</g>
</g>
<!-- Node2 -->
<g id="node2" class="node">
<title>Node2</title>
<g id="a_node2"><a xlink:href="namespaceshpxx.html#a719f9dffebf14979c289b00dec46fd59" target="_top" xlink:title="Cast shpxx::shp_info type to the SHPInfo struct.">
<polygon fill="white" stroke="black" points="177,-99 177,-118 296,-118 296,-99 177,-99"/>
<text text-anchor="middle" x="236.5" y="-106" font-family="Helvetica,sans-Serif" font-size="10.00">shpxx::cast_shp_info</text>
</a>
</g>
</g>
<!-- Node1&#45;&gt;Node2 -->
<g id="edge1" class="edge">
<title>Node1&#45;&gt;Node2</title>
<path fill="none" stroke="midnightblue" d="M106.69,-74.05C131.16,-80.59 163.82,-89.33 190.13,-96.37"/>
<polygon fill="midnightblue" stroke="midnightblue" points="189.31,-99.77 199.88,-98.97 191.12,-93.01 189.31,-99.77"/>
</g>
<!-- Node3 -->
<g id="node3" class="node">
<title>Node3</title>
<g id="a_node3"><a xlink:href="classshpxx_1_1shpfile__t.html#aa9bba900a42b0b3687bd1d412462e0b7" target="_top" xlink:title="Maximum x, y, z, m values of the file.">
<polygon fill="white" stroke="black" points="176,-49.5 176,-79.5 297,-79.5 297,-49.5 176,-49.5"/>
<text text-anchor="start" x="184" y="-67.5" font-family="Helvetica,sans-Serif" font-size="10.00">shpxx::shpfile_t::max</text>
<text text-anchor="middle" x="236.5" y="-56.5" font-family="Helvetica,sans-Serif" font-size="10.00">_bound</text>
</a>
</g>
</g>
<!-- Node1&#45;&gt;Node3 -->
<g id="edge2" class="edge">
<title>Node1&#45;&gt;Node3</title>
<path fill="none" stroke="midnightblue" d="M140.29,-64.5C148.71,-64.5 157.33,-64.5 165.76,-64.5"/>
<polygon fill="midnightblue" stroke="midnightblue" points="165.93,-68 175.93,-64.5 165.93,-61 165.93,-68"/>
</g>
<!-- Node4 -->
<g id="node4" class="node">
<title>Node4</title>
<g id="a_node4"><a xlink:href="classshpxx_1_1shpfile__t.html#a81da9496bea6300b5c3914f4015262fb" target="_top" xlink:title="Minimum x, y, z, m values of the file.">
<polygon fill="white" stroke="black" points="177.5,-0.5 177.5,-30.5 295.5,-30.5 295.5,-0.5 177.5,-0.5"/>
<text text-anchor="start" x="185.5" y="-18.5" font-family="Helvetica,sans-Serif" font-size="10.00">shpxx::shpfile_t::min</text>
<text text-anchor="middle" x="236.5" y="-7.5" font-family="Helvetica,sans-Serif" font-size="10.00">_bound</text>
</a>
</g>
</g>
<!-- Node1&#45;&gt;Node4 -->
<g id="edge3" class="edge">
<title>Node1&#45;&gt;Node4</title>
<path fill="none" stroke="midnightblue" d="M103.11,-54.94C123.57,-48.84 150.73,-40.75 175.12,-33.49"/>
<polygon fill="midnightblue" stroke="midnightblue" points="176.43,-36.75 185.02,-30.54 174.44,-30.04 176.43,-36.75"/>
</g>
</g>
</svg>
