<?xml version="1.0" encoding="UTF-8" standalone="no"?>
<!DOCTYPE svg PUBLIC "-//W3C//DTD SVG 1.1//EN"
 "http://www.w3.org/Graphics/SVG/1.1/DTD/svg11.dtd">
<!-- Generated by graphviz version 2.43.0 (0)
 -->
<!-- Title: shpxx::invalid_file_error_t Pages: 1 -->
<svg width="113pt" height="207pt"
 viewBox="0.00 0.00 113.00 207.00" xmlns="http://www.w3.org/2000/svg" xmlns:xlink="http://www.w3.org/1999/xlink">
<g id="graph0" class="graph" transform="scale(1 1) rotate(0) translate(4 203)">
<title>shpxx::invalid_file_error_t</title>
<polygon fill="white" stroke="transparent" points="-4,4 -4,-203 109,-203 109,4 -4,4"/>
<!-- Node1 -->
<g id="node1" class="node">
<title>Node1</title>
<g id="a_node1"><a xlink:title="Indicates that the file data was not readable.">
<polygon fill="#bfbfbf" stroke="black" points="0,-0.5 0,-30.5 105,-30.5 105,-0.5 0,-0.5"/>
<text text-anchor="start" x="8" y="-18.5" font-family="Helvetica,sans-Serif" font-size="10.00">shpxx::invalid_file</text>
<text text-anchor="middle" x="52.5" y="-7.5" font-family="Helvetica,sans-Serif" font-size="10.00">_error_t</text>
</a>
</g>
</g>
<!-- Node2 -->
<g id="node2" class="node">
<title>Node2</title>
<g id="a_node2"><a xlink:href="classshpxx_1_1error__t.html" target="_top" xlink:title="Base type for shpxx errors.">
<polygon fill="white" stroke="black" points="10.5,-67.5 10.5,-86.5 94.5,-86.5 94.5,-67.5 10.5,-67.5"/>
<text text-anchor="middle" x="52.5" y="-74.5" font-family="Helvetica,sans-Serif" font-size="10.00">shpxx::error_t</text>
</a>
</g>
</g>
<!-- Node2&#45;&gt;Node1 -->
<g id="edge1" class="edge">
<title>Node2&#45;&gt;Node1</title>
<path fill="none" stroke="midnightblue" d="M52.5,-57.23C52.5,-48.59 52.5,-38.5 52.5,-30.52"/>
<polygon fill="midnightblue" stroke="midnightblue" points="49,-57.48 52.5,-67.48 56,-57.48 49,-57.48"/>
</g>
<!-- Node3 -->
<g id="node3" class="node">
<title>Node3</title>
<g id="a_node3"><a xlink:title=" ">
<polygon fill="white" stroke="#bfbfbf" points="0.5,-123.5 0.5,-142.5 104.5,-142.5 104.5,-123.5 0.5,-123.5"/>
<text text-anchor="middle" x="52.5" y="-130.5" font-family="Helvetica,sans-Serif" font-size="10.00">std::runtime_error</text>
</a>
</g>
</g>
<!-- Node3&#45;&gt;Node2 -->
<g id="edge2" class="edge">
<title>Node3&#45;&gt;Node2</title>
<path fill="none" stroke="midnightblue" d="M52.5,-112.8C52.5,-103.91 52.5,-93.78 52.5,-86.75"/>
<polygon fill="midnightblue" stroke="midnightblue" points="49,-113.08 52.5,-123.08 56,-113.08 49,-113.08"/>
</g>
<!-- Node4 -->
<g id="node4" class="node">
<title>Node4</title>
<g id="a_node4"><a xlink:title=" ">
<polygon fill="white" stroke="#bfbfbf" points="9.5,-179.5 9.5,-198.5 95.5,-198.5 95.5,-179.5 9.5,-179.5"/>
<text text-anchor="middle" x="52.5" y="-186.5" font-family="Helvetica,sans-Serif" font-size="10.00">std::exception</text>
</a>
</g>
</g>
<!-- Node4&#45;&gt;Node3 -->
<g id="edge3" class="edge">
<title>Node4&#45;&gt;Node3</title>
<path fill="none" stroke="midnightblue" d="M52.5,-168.8C52.5,-159.91 52.5,-149.78 52.5,-142.75"/>
<polygon fill="midnightblue" stroke="midnightblue" points="49,-169.08 52.5,-179.08 56,-169.08 49,-169.08"/>
</g>
</g>
</svg>
