<?xml version="1.0" encoding="UTF-8" standalone="no"?>
<!DOCTYPE svg PUBLIC "-//W3C//DTD SVG 1.1//EN"
 "http://www.w3.org/Graphics/SVG/1.1/DTD/svg11.dtd">
<!-- Generated by graphviz version 2.43.0 (0)
 -->
<!-- Title: shpxx::error_t Pages: 1 -->
<svg width="254pt" height="207pt"
 viewBox="0.00 0.00 253.50 207.00" xmlns="http://www.w3.org/2000/svg" xmlns:xlink="http://www.w3.org/1999/xlink">
<g id="graph0" class="graph" transform="scale(1 1) rotate(0) translate(4 203)">
<title>shpxx::error_t</title>
<polygon fill="white" stroke="transparent" points="-4,4 -4,-203 249.5,-203 249.5,4 -4,4"/>
<!-- Node1 -->
<g id="node1" class="node">
<title>Node1</title>
<g id="a_node1"><a xlink:title="Base type for shpxx errors.">
<polygon fill="#bfbfbf" stroke="black" points="85,-67.5 85,-86.5 169,-86.5 169,-67.5 85,-67.5"/>
<text text-anchor="middle" x="127" y="-74.5" font-family="Helvetica,sans-Serif" font-size="10.00">shpxx::error_t</text>
</a>
</g>
</g>
<!-- Node4 -->
<g id="node4" class="node">
<title>Node4</title>
<g id="a_node4"><a xlink:href="classshpxx_1_1incompatible__feature__type__error__t.html" target="_top" xlink:title=" ">
<polygon fill="white" stroke="black" points="0,-0.5 0,-30.5 122,-30.5 122,-0.5 0,-0.5"/>
<text text-anchor="start" x="8" y="-18.5" font-family="Helvetica,sans-Serif" font-size="10.00">shpxx::incompatible</text>
<text text-anchor="middle" x="61" y="-7.5" font-family="Helvetica,sans-Serif" font-size="10.00">_feature_type_error_t</text>
</a>
</g>
</g>
<!-- Node1&#45;&gt;Node4 -->
<g id="edge3" class="edge">
<title>Node1&#45;&gt;Node4</title>
<path fill="none" stroke="midnightblue" d="M109.97,-60.65C99.65,-51.35 86.59,-39.57 76.55,-30.52"/>
<polygon fill="midnightblue" stroke="midnightblue" points="107.77,-63.38 117.54,-67.48 112.46,-58.18 107.77,-63.38"/>
</g>
<!-- Node5 -->
<g id="node5" class="node">
<title>Node5</title>
<g id="a_node5"><a xlink:href="classshpxx_1_1invalid__file__error__t.html" target="_top" xlink:title="Indicates that the file data was not readable.">
<polygon fill="white" stroke="black" points="140.5,-0.5 140.5,-30.5 245.5,-30.5 245.5,-0.5 140.5,-0.5"/>
<text text-anchor="start" x="148.5" y="-18.5" font-family="Helvetica,sans-Serif" font-size="10.00">shpxx::invalid_file</text>
<text text-anchor="middle" x="193" y="-7.5" font-family="Helvetica,sans-Serif" font-size="10.00">_error_t</text>
</a>
</g>
</g>
<!-- Node1&#45;&gt;Node5 -->
<g id="edge4" class="edge">
<title>Node1&#45;&gt;Node5</title>
<path fill="none" stroke="midnightblue" d="M144.03,-60.65C154.35,-51.35 167.41,-39.57 177.45,-30.52"/>
<polygon fill="midnightblue" stroke="midnightblue" points="141.54,-58.18 136.46,-67.48 146.23,-63.38 141.54,-58.18"/>
</g>
<!-- Node2 -->
<g id="node2" class="node">
<title>Node2</title>
<g id="a_node2"><a xlink:title=" ">
<polygon fill="white" stroke="#bfbfbf" points="75,-123.5 75,-142.5 179,-142.5 179,-123.5 75,-123.5"/>
<text text-anchor="middle" x="127" y="-130.5" font-family="Helvetica,sans-Serif" font-size="10.00">std::runtime_error</text>
</a>
</g>
</g>
<!-- Node2&#45;&gt;Node1 -->
<g id="edge1" class="edge">
<title>Node2&#45;&gt;Node1</title>
<path fill="none" stroke="midnightblue" d="M127,-112.8C127,-103.91 127,-93.78 127,-86.75"/>
<polygon fill="midnightblue" stroke="midnightblue" points="123.5,-113.08 127,-123.08 130.5,-113.08 123.5,-113.08"/>
</g>
<!-- Node3 -->
<g id="node3" class="node">
<title>Node3</title>
<g id="a_node3"><a xlink:title=" ">
<polygon fill="white" stroke="#bfbfbf" points="84,-179.5 84,-198.5 170,-198.5 170,-179.5 84,-179.5"/>
<text text-anchor="middle" x="127" y="-186.5" font-family="Helvetica,sans-Serif" font-size="10.00">std::exception</text>
</a>
</g>
</g>
<!-- Node3&#45;&gt;Node2 -->
<g id="edge2" class="edge">
<title>Node3&#45;&gt;Node2</title>
<path fill="none" stroke="midnightblue" d="M127,-168.8C127,-159.91 127,-149.78 127,-142.75"/>
<polygon fill="midnightblue" stroke="midnightblue" points="123.5,-169.08 127,-179.08 130.5,-169.08 123.5,-169.08"/>
</g>
</g>
</svg>
