<?xml version="1.0" encoding="UTF-8" standalone="no"?>
<!DOCTYPE svg PUBLIC "-//W3C//DTD SVG 1.1//EN"
 "http://www.w3.org/Graphics/SVG/1.1/DTD/svg11.dtd">
<!-- Generated by graphviz version 2.43.0 (0)
 -->
<!-- Title: shpxx::incompatible_feature_type_error_t Pages: 1 -->
<svg width="130pt" height="207pt"
 viewBox="0.00 0.00 130.00 207.00" xmlns="http://www.w3.org/2000/svg" xmlns:xlink="http://www.w3.org/1999/xlink">
<g id="graph0" class="graph" transform="scale(1 1) rotate(0) translate(4 203)">
<title>shpxx::incompatible_feature_type_error_t</title>
<polygon fill="white" stroke="transparent" points="-4,4 -4,-203 126,-203 126,4 -4,4"/>
<!-- Node1 -->
<g id="node1" class="node">
<title>Node1</title>
<g id="a_node1"><a xlink:title=" ">
<polygon fill="#bfbfbf" stroke="black" points="0,-0.5 0,-30.5 122,-30.5 122,-0.5 0,-0.5"/>
<text text-anchor="start" x="8" y="-18.5" font-family="Helvetica,sans-Serif" font-size="10.00">shpxx::incompatible</text>
<text text-anchor="middle" x="61" y="-7.5" font-family="Helvetica,sans-Serif" font-size="10.00">_feature_type_error_t</text>
</a>
</g>
</g>
<!-- Node2 -->
<g id="node2" class="node">
<title>Node2</title>
<g id="a_node2"><a xlink:href="classshpxx_1_1error__t.html" target="_top" xlink:title="Base type for shpxx errors.">
<polygon fill="white" stroke="black" points="19,-67.5 19,-86.5 103,-86.5 103,-67.5 19,-67.5"/>
<text text-anchor="middle" x="61" y="-74.5" font-family="Helvetica,sans-Serif" font-size="10.00">shpxx::error_t</text>
</a>
</g>
</g>
<!-- Node2&#45;&gt;Node1 -->
<g id="edge1" class="edge">
<title>Node2&#45;&gt;Node1</title>
<path fill="none" stroke="midnightblue" d="M61,-57.23C61,-48.59 61,-38.5 61,-30.52"/>
<polygon fill="midnightblue" stroke="midnightblue" points="57.5,-57.48 61,-67.48 64.5,-57.48 57.5,-57.48"/>
</g>
<!-- Node3 -->
<g id="node3" class="node">
<title>Node3</title>
<g id="a_node3"><a xlink:title=" ">
<polygon fill="white" stroke="#bfbfbf" points="9,-123.5 9,-142.5 113,-142.5 113,-123.5 9,-123.5"/>
<text text-anchor="middle" x="61" y="-130.5" font-family="Helvetica,sans-Serif" font-size="10.00">std::runtime_error</text>
</a>
</g>
</g>
<!-- Node3&#45;&gt;Node2 -->
<g id="edge2" class="edge">
<title>Node3&#45;&gt;Node2</title>
<path fill="none" stroke="midnightblue" d="M61,-112.8C61,-103.91 61,-93.78 61,-86.75"/>
<polygon fill="midnightblue" stroke="midnightblue" points="57.5,-113.08 61,-123.08 64.5,-113.08 57.5,-113.08"/>
</g>
<!-- Node4 -->
<g id="node4" class="node">
<title>Node4</title>
<g id="a_node4"><a xlink:title=" ">
<polygon fill="white" stroke="#bfbfbf" points="18,-179.5 18,-198.5 104,-198.5 104,-179.5 18,-179.5"/>
<text text-anchor="middle" x="61" y="-186.5" font-family="Helvetica,sans-Serif" font-size="10.00">std::exception</text>
</a>
</g>
</g>
<!-- Node4&#45;&gt;Node3 -->
<g id="edge3" class="edge">
<title>Node4&#45;&gt;Node3</title>
<path fill="none" stroke="midnightblue" d="M61,-168.8C61,-159.91 61,-149.78 61,-142.75"/>
<polygon fill="midnightblue" stroke="midnightblue" points="57.5,-169.08 61,-179.08 64.5,-169.08 57.5,-169.08"/>
</g>
</g>
</svg>
