<?xml version="1.0" encoding="UTF-8" standalone="no"?>
<!DOCTYPE svg PUBLIC "-//W3C//DTD SVG 1.1//EN"
 "http://www.w3.org/Graphics/SVG/1.1/DTD/svg11.dtd">
<!-- Generated by graphviz version 2.43.0 (0)
 -->
<!-- Title: /home/runner/work/shpxx/shpxx/include/shpxx/coordinate_cast.hpp Pages: 1 -->
<svg width="528pt" height="418pt"
 viewBox="0.00 0.00 527.50 418.00" xmlns="http://www.w3.org/2000/svg" xmlns:xlink="http://www.w3.org/1999/xlink">
<g id="graph0" class="graph" transform="scale(1 1) rotate(0) translate(4 414)">
<title>/home/runner/work/shpxx/shpxx/include/shpxx/coordinate_cast.hpp</title>
<polygon fill="white" stroke="transparent" points="-4,4 -4,-414 523.5,-414 523.5,4 -4,4"/>
<!-- Node1 -->
<g id="node1" class="node">
<title>Node1</title>
<g id="a_node1"><a xlink:title=" ">
<polygon fill="#bfbfbf" stroke="black" points="0,-368.5 0,-409.5 174,-409.5 174,-368.5 0,-368.5"/>
<text text-anchor="start" x="8" y="-397.5" font-family="Helvetica,sans-Serif" font-size="10.00">/home/runner/work/shpxx</text>
<text text-anchor="start" x="8" y="-386.5" font-family="Helvetica,sans-Serif" font-size="10.00">/shpxx/include/shpxx/coordinate</text>
<text text-anchor="middle" x="87" y="-375.5" font-family="Helvetica,sans-Serif" font-size="10.00">_cast.hpp</text>
</a>
</g>
</g>
<!-- Node2 -->
<g id="node2" class="node">
<title>Node2</title>
<g id="a_node2"><a xlink:href="coordinate__cast__impl_8hpp.html" target="_top" xlink:title=" ">
<polygon fill="white" stroke="black" points="0,-290.5 0,-331.5 174,-331.5 174,-290.5 0,-290.5"/>
<text text-anchor="start" x="8" y="-319.5" font-family="Helvetica,sans-Serif" font-size="10.00">/home/runner/work/shpxx</text>
<text text-anchor="start" x="8" y="-308.5" font-family="Helvetica,sans-Serif" font-size="10.00">/shpxx/include/shpxx/coordinate</text>
<text text-anchor="middle" x="87" y="-297.5" font-family="Helvetica,sans-Serif" font-size="10.00">_cast_impl.hpp</text>
</a>
</g>
</g>
<!-- Node1&#45;&gt;Node2 -->
<g id="edge1" class="edge">
<title>Node1&#45;&gt;Node2</title>
<path fill="none" stroke="midnightblue" d="M80.4,-358.3C80.08,-349.3 80.28,-339.65 81.02,-331.51"/>
<polygon fill="midnightblue" stroke="midnightblue" points="76.91,-358.66 81.01,-368.43 83.9,-358.23 76.91,-358.66"/>
</g>
<!-- Node3 -->
<g id="node3" class="node">
<title>Node3</title>
<g id="a_node3"><a xlink:href="point_8hpp.html" target="_top" xlink:title=" ">
<polygon fill="white" stroke="black" points="192,-290.5 192,-331.5 350,-331.5 350,-290.5 192,-290.5"/>
<text text-anchor="start" x="200" y="-319.5" font-family="Helvetica,sans-Serif" font-size="10.00">/home/runner/work/shpxx</text>
<text text-anchor="start" x="200" y="-308.5" font-family="Helvetica,sans-Serif" font-size="10.00">/shpxx/include/shpxx/feature</text>
<text text-anchor="middle" x="271" y="-297.5" font-family="Helvetica,sans-Serif" font-size="10.00">/point.hpp</text>
</a>
</g>
</g>
<!-- Node1&#45;&gt;Node3 -->
<g id="edge3" class="edge">
<title>Node1&#45;&gt;Node3</title>
<path fill="none" stroke="midnightblue" d="M143.63,-364.61C169.31,-354 199.33,-341.6 223.78,-331.51"/>
<polygon fill="midnightblue" stroke="midnightblue" points="142.29,-361.38 134.38,-368.43 144.96,-367.85 142.29,-361.38"/>
</g>
<!-- Node2&#45;&gt;Node1 -->
<g id="edge2" class="edge">
<title>Node2&#45;&gt;Node1</title>
<path fill="none" stroke="midnightblue" d="M93.6,-341.63C93.92,-350.62 93.72,-360.27 92.99,-368.43"/>
<polygon fill="midnightblue" stroke="midnightblue" points="97.09,-341.27 92.98,-331.51 90.1,-341.7 97.09,-341.27"/>
</g>
<!-- Node4 -->
<g id="node4" class="node">
<title>Node4</title>
<g id="a_node4"><a xlink:href="point_8cpp.html" target="_top" xlink:title=" ">
<polygon fill="white" stroke="black" points="106,-218 106,-248 258,-248 258,-218 106,-218"/>
<text text-anchor="start" x="114" y="-236" font-family="Helvetica,sans-Serif" font-size="10.00">/home/runner/work/shpxx</text>
<text text-anchor="middle" x="182" y="-225" font-family="Helvetica,sans-Serif" font-size="10.00">/shpxx/src/feature/point.cpp</text>
</a>
</g>
</g>
<!-- Node3&#45;&gt;Node4 -->
<g id="edge4" class="edge">
<title>Node3&#45;&gt;Node4</title>
<path fill="none" stroke="midnightblue" d="M240.15,-283.66C226.22,-271.76 210.31,-258.18 198.66,-248.23"/>
<polygon fill="midnightblue" stroke="midnightblue" points="238.2,-286.6 248.08,-290.43 242.75,-281.27 238.2,-286.6"/>
</g>
<!-- Node5 -->
<g id="node5" class="node">
<title>Node5</title>
<g id="a_node5"><a xlink:href="is__feature_8hpp.html" target="_top" xlink:title=" ">
<polygon fill="white" stroke="black" points="276,-212.5 276,-253.5 442,-253.5 442,-212.5 276,-212.5"/>
<text text-anchor="start" x="284" y="-241.5" font-family="Helvetica,sans-Serif" font-size="10.00">/home/runner/work/shpxx</text>
<text text-anchor="start" x="284" y="-230.5" font-family="Helvetica,sans-Serif" font-size="10.00">/shpxx/include/shpxx/concepts</text>
<text text-anchor="middle" x="359" y="-219.5" font-family="Helvetica,sans-Serif" font-size="10.00">/is_feature.hpp</text>
</a>
</g>
</g>
<!-- Node3&#45;&gt;Node5 -->
<g id="edge5" class="edge">
<title>Node3&#45;&gt;Node5</title>
<path fill="none" stroke="midnightblue" d="M301.36,-283.78C312.87,-273.84 325.75,-262.72 336.41,-253.51"/>
<polygon fill="midnightblue" stroke="midnightblue" points="298.94,-281.24 293.66,-290.43 303.52,-286.54 298.94,-281.24"/>
</g>
<!-- Node6 -->
<g id="node6" class="node">
<title>Node6</title>
<g id="a_node6"><a xlink:href="shpfile_8hpp.html" target="_top" xlink:title=" ">
<polygon fill="white" stroke="black" points="271,-145.5 271,-175.5 447,-175.5 447,-145.5 271,-145.5"/>
<text text-anchor="start" x="279" y="-163.5" font-family="Helvetica,sans-Serif" font-size="10.00">/home/runner/work/shpxx</text>
<text text-anchor="middle" x="359" y="-152.5" font-family="Helvetica,sans-Serif" font-size="10.00">/shpxx/include/shpxx/shpfile.hpp</text>
</a>
</g>
</g>
<!-- Node5&#45;&gt;Node6 -->
<g id="edge6" class="edge">
<title>Node5&#45;&gt;Node6</title>
<path fill="none" stroke="midnightblue" d="M359,-202.08C359,-193.01 359,-183.45 359,-175.89"/>
<polygon fill="midnightblue" stroke="midnightblue" points="355.5,-202.36 359,-212.36 362.5,-202.36 355.5,-202.36"/>
</g>
<!-- Node7 -->
<g id="node7" class="node">
<title>Node7</title>
<g id="a_node7"><a xlink:href="shpfile_8cpp.html" target="_top" xlink:title=" ">
<polygon fill="white" stroke="black" points="46.5,-73 46.5,-103 187.5,-103 187.5,-73 46.5,-73"/>
<text text-anchor="start" x="54.5" y="-91" font-family="Helvetica,sans-Serif" font-size="10.00">/home/runner/work/shpxx</text>
<text text-anchor="middle" x="117" y="-80" font-family="Helvetica,sans-Serif" font-size="10.00">/shpxx/src/shpfile.cpp</text>
</a>
</g>
</g>
<!-- Node6&#45;&gt;Node7 -->
<g id="edge7" class="edge">
<title>Node6&#45;&gt;Node7</title>
<path fill="none" stroke="midnightblue" d="M301.21,-142.66C259.77,-130.59 204.56,-114.51 165.42,-103.11"/>
<polygon fill="midnightblue" stroke="midnightblue" points="300.32,-146.05 310.9,-145.49 302.28,-139.33 300.32,-146.05"/>
</g>
<!-- Node8 -->
<g id="node8" class="node">
<title>Node8</title>
<g id="a_node8"><a xlink:href="file_8hpp.html" target="_top" xlink:title=" ">
<polygon fill="white" stroke="black" points="205.5,-67.5 205.5,-108.5 346.5,-108.5 346.5,-67.5 205.5,-67.5"/>
<text text-anchor="start" x="213.5" y="-96.5" font-family="Helvetica,sans-Serif" font-size="10.00">/home/runner/work/shpxx</text>
<text text-anchor="start" x="213.5" y="-85.5" font-family="Helvetica,sans-Serif" font-size="10.00">/shpxx/include/shpxx/io</text>
<text text-anchor="middle" x="276" y="-74.5" font-family="Helvetica,sans-Serif" font-size="10.00">/file.hpp</text>
</a>
</g>
</g>
<!-- Node6&#45;&gt;Node8 -->
<g id="edge8" class="edge">
<title>Node6&#45;&gt;Node8</title>
<path fill="none" stroke="midnightblue" d="M334.46,-138.66C323.26,-129.15 310.07,-117.94 299.06,-108.59"/>
<polygon fill="midnightblue" stroke="midnightblue" points="332.32,-141.43 342.2,-145.23 336.85,-136.09 332.32,-141.43"/>
</g>
<!-- Node10 -->
<g id="node10" class="node">
<title>Node10</title>
<g id="a_node10"><a xlink:href="shpfile__impl_8hpp.html" target="_top" xlink:title=" ">
<polygon fill="white" stroke="black" points="364.5,-67.5 364.5,-108.5 519.5,-108.5 519.5,-67.5 364.5,-67.5"/>
<text text-anchor="start" x="372.5" y="-96.5" font-family="Helvetica,sans-Serif" font-size="10.00">/home/runner/work/shpxx</text>
<text text-anchor="start" x="372.5" y="-85.5" font-family="Helvetica,sans-Serif" font-size="10.00">/shpxx/include/shpxx/shpfile</text>
<text text-anchor="middle" x="442" y="-74.5" font-family="Helvetica,sans-Serif" font-size="10.00">_impl.hpp</text>
</a>
</g>
</g>
<!-- Node6&#45;&gt;Node10 -->
<g id="edge10" class="edge">
<title>Node6&#45;&gt;Node10</title>
<path fill="none" stroke="midnightblue" d="M377.62,-138.38C388.03,-128.93 401.12,-117.85 412.82,-108.59"/>
<polygon fill="midnightblue" stroke="midnightblue" points="375.19,-135.86 370.25,-145.23 379.96,-140.99 375.19,-135.86"/>
</g>
<!-- Node9 -->
<g id="node9" class="node">
<title>Node9</title>
<g id="a_node9"><a xlink:href="file_8cpp.html" target="_top" xlink:title=" ">
<polygon fill="white" stroke="black" points="205.5,-0.5 205.5,-30.5 346.5,-30.5 346.5,-0.5 205.5,-0.5"/>
<text text-anchor="start" x="213.5" y="-18.5" font-family="Helvetica,sans-Serif" font-size="10.00">/home/runner/work/shpxx</text>
<text text-anchor="middle" x="276" y="-7.5" font-family="Helvetica,sans-Serif" font-size="10.00">/shpxx/src/io/file.cpp</text>
</a>
</g>
</g>
<!-- Node8&#45;&gt;Node9 -->
<g id="edge9" class="edge">
<title>Node8&#45;&gt;Node9</title>
<path fill="none" stroke="midnightblue" d="M276,-57.08C276,-48.01 276,-38.45 276,-30.89"/>
<polygon fill="midnightblue" stroke="midnightblue" points="272.5,-57.36 276,-67.36 279.5,-57.36 272.5,-57.36"/>
</g>
<!-- Node10&#45;&gt;Node6 -->
<g id="edge11" class="edge">
<title>Node10&#45;&gt;Node6</title>
<path fill="none" stroke="midnightblue" d="M417.49,-115.38C406.03,-125.5 392.55,-136.67 381.34,-145.23"/>
<polygon fill="midnightblue" stroke="midnightblue" points="419.96,-117.88 425.06,-108.59 415.28,-112.67 419.96,-117.88"/>
</g>
</g>
</svg>
