<?xml version="1.0" encoding="UTF-8" standalone="no"?>
<!DOCTYPE svg PUBLIC "-//W3C//DTD SVG 1.1//EN"
 "http://www.w3.org/Graphics/SVG/1.1/DTD/svg11.dtd">
<!-- Generated by graphviz version 2.43.0 (0)
 -->
<!-- Title: /home/runner/work/shpxx/shpxx/include/shpxx/coordinate.hpp Pages: 1 -->
<svg width="611pt" height="719pt"
 viewBox="0.00 0.00 610.50 719.00" xmlns="http://www.w3.org/2000/svg" xmlns:xlink="http://www.w3.org/1999/xlink">
<g id="graph0" class="graph" transform="scale(1 1) rotate(0) translate(4 715)">
<title>/home/runner/work/shpxx/shpxx/include/shpxx/coordinate.hpp</title>
<polygon fill="white" stroke="transparent" points="-4,4 -4,-715 606.5,-715 606.5,4 -4,4"/>
<!-- Node1 -->
<g id="node1" class="node">
<title>Node1</title>
<g id="a_node1"><a xlink:title=" ">
<polygon fill="#bfbfbf" stroke="black" points="162,-680.5 162,-710.5 357,-710.5 357,-680.5 162,-680.5"/>
<text text-anchor="start" x="170" y="-698.5" font-family="Helvetica,sans-Serif" font-size="10.00">/home/runner/work/shpxx</text>
<text text-anchor="middle" x="259.5" y="-687.5" font-family="Helvetica,sans-Serif" font-size="10.00">/shpxx/include/shpxx/coordinate.hpp</text>
</a>
</g>
</g>
<!-- Node2 -->
<g id="node2" class="node">
<title>Node2</title>
<g id="a_node2"><a xlink:href="point_8cpp.html" target="_top" xlink:title=" ">
<polygon fill="white" stroke="black" points="200.5,-218 200.5,-248 352.5,-248 352.5,-218 200.5,-218"/>
<text text-anchor="start" x="208.5" y="-236" font-family="Helvetica,sans-Serif" font-size="10.00">/home/runner/work/shpxx</text>
<text text-anchor="middle" x="276.5" y="-225" font-family="Helvetica,sans-Serif" font-size="10.00">/shpxx/src/feature/point.cpp</text>
</a>
</g>
</g>
<!-- Node1&#45;&gt;Node2 -->
<g id="edge1" class="edge">
<title>Node1&#45;&gt;Node2</title>
<path fill="none" stroke="midnightblue" d="M249.54,-670.86C238.28,-641.95 221.5,-591.27 221.5,-546 221.5,-546 221.5,-546 221.5,-388 221.5,-333.77 252.12,-274.74 267.66,-248.26"/>
<polygon fill="midnightblue" stroke="midnightblue" points="246.42,-672.49 253.39,-680.47 252.92,-669.89 246.42,-672.49"/>
</g>
<!-- Node3 -->
<g id="node3" class="node">
<title>Node3</title>
<g id="a_node3"><a xlink:href="is__coordinate_8hpp.html" target="_top" xlink:title=" ">
<polygon fill="white" stroke="black" points="436.5,-602.5 436.5,-643.5 602.5,-643.5 602.5,-602.5 436.5,-602.5"/>
<text text-anchor="start" x="444.5" y="-631.5" font-family="Helvetica,sans-Serif" font-size="10.00">/home/runner/work/shpxx</text>
<text text-anchor="start" x="444.5" y="-620.5" font-family="Helvetica,sans-Serif" font-size="10.00">/shpxx/include/shpxx/concepts</text>
<text text-anchor="middle" x="519.5" y="-609.5" font-family="Helvetica,sans-Serif" font-size="10.00">/is_coordinate.hpp</text>
</a>
</g>
</g>
<!-- Node1&#45;&gt;Node3 -->
<g id="edge2" class="edge">
<title>Node1&#45;&gt;Node3</title>
<path fill="none" stroke="midnightblue" d="M321.05,-677.81C358.9,-667.55 407.57,-654.35 447.25,-643.59"/>
<polygon fill="midnightblue" stroke="midnightblue" points="319.91,-674.49 311.18,-680.49 321.75,-681.25 319.91,-674.49"/>
</g>
<!-- Node5 -->
<g id="node5" class="node">
<title>Node5</title>
<g id="a_node5"><a xlink:href="coordinate__cast__impl_8hpp.html" target="_top" xlink:title=" ">
<polygon fill="white" stroke="black" points="338.5,-446.5 338.5,-487.5 512.5,-487.5 512.5,-446.5 338.5,-446.5"/>
<text text-anchor="start" x="346.5" y="-475.5" font-family="Helvetica,sans-Serif" font-size="10.00">/home/runner/work/shpxx</text>
<text text-anchor="start" x="346.5" y="-464.5" font-family="Helvetica,sans-Serif" font-size="10.00">/shpxx/include/shpxx/coordinate</text>
<text text-anchor="middle" x="425.5" y="-453.5" font-family="Helvetica,sans-Serif" font-size="10.00">_cast_impl.hpp</text>
</a>
</g>
</g>
<!-- Node1&#45;&gt;Node5 -->
<g id="edge19" class="edge">
<title>Node1&#45;&gt;Node5</title>
<path fill="none" stroke="midnightblue" d="M266.37,-670.7C279.27,-626.56 306.69,-535.43 316.5,-524 330.08,-508.18 349.24,-496.27 367.71,-487.59"/>
<polygon fill="midnightblue" stroke="midnightblue" points="263,-669.76 263.56,-680.34 269.72,-671.72 263,-669.76"/>
</g>
<!-- Node7 -->
<g id="node7" class="node">
<title>Node7</title>
<g id="a_node7"><a xlink:href="point_8hpp.html" target="_top" xlink:title=" ">
<polygon fill="white" stroke="black" points="346.5,-290.5 346.5,-331.5 504.5,-331.5 504.5,-290.5 346.5,-290.5"/>
<text text-anchor="start" x="354.5" y="-319.5" font-family="Helvetica,sans-Serif" font-size="10.00">/home/runner/work/shpxx</text>
<text text-anchor="start" x="354.5" y="-308.5" font-family="Helvetica,sans-Serif" font-size="10.00">/shpxx/include/shpxx/feature</text>
<text text-anchor="middle" x="425.5" y="-297.5" font-family="Helvetica,sans-Serif" font-size="10.00">/point.hpp</text>
</a>
</g>
</g>
<!-- Node1&#45;&gt;Node7 -->
<g id="edge20" class="edge">
<title>Node1&#45;&gt;Node7</title>
<path fill="none" stroke="midnightblue" d="M259.5,-669.99C259.5,-640.55 259.5,-589.66 259.5,-546 259.5,-546 259.5,-546 259.5,-466 259.5,-400.74 329.3,-355.36 378.38,-331.52"/>
<polygon fill="midnightblue" stroke="midnightblue" points="256,-670.16 259.5,-680.16 263,-670.16 256,-670.16"/>
</g>
<!-- Node9 -->
<g id="node9" class="node">
<title>Node9</title>
<g id="a_node9"><a xlink:href="shpfile_8hpp.html" target="_top" xlink:title=" ">
<polygon fill="white" stroke="black" points="224.5,-145.5 224.5,-175.5 400.5,-175.5 400.5,-145.5 224.5,-145.5"/>
<text text-anchor="start" x="232.5" y="-163.5" font-family="Helvetica,sans-Serif" font-size="10.00">/home/runner/work/shpxx</text>
<text text-anchor="middle" x="312.5" y="-152.5" font-family="Helvetica,sans-Serif" font-size="10.00">/shpxx/include/shpxx/shpfile.hpp</text>
</a>
</g>
</g>
<!-- Node1&#45;&gt;Node9 -->
<g id="edge21" class="edge">
<title>Node1&#45;&gt;Node9</title>
<path fill="none" stroke="midnightblue" d="M236.73,-672.78C210.96,-645.73 172.5,-596.86 172.5,-546 172.5,-546 172.5,-546 172.5,-310 172.5,-265.63 163.48,-246.4 191.5,-212 205.66,-194.61 226.84,-183.13 247.53,-175.58"/>
<polygon fill="midnightblue" stroke="midnightblue" points="234.44,-675.44 243.95,-680.13 239.44,-670.54 234.44,-675.44"/>
</g>
<!-- Node4 -->
<g id="node4" class="node">
<title>Node4</title>
<g id="a_node4"><a xlink:href="has__zm_8hpp.html" target="_top" xlink:title=" ">
<polygon fill="white" stroke="black" points="325.5,-524.5 325.5,-565.5 491.5,-565.5 491.5,-524.5 325.5,-524.5"/>
<text text-anchor="start" x="333.5" y="-553.5" font-family="Helvetica,sans-Serif" font-size="10.00">/home/runner/work/shpxx</text>
<text text-anchor="start" x="333.5" y="-542.5" font-family="Helvetica,sans-Serif" font-size="10.00">/shpxx/include/shpxx/concepts</text>
<text text-anchor="middle" x="408.5" y="-531.5" font-family="Helvetica,sans-Serif" font-size="10.00">/has_zm.hpp</text>
</a>
</g>
</g>
<!-- Node3&#45;&gt;Node4 -->
<g id="edge3" class="edge">
<title>Node3&#45;&gt;Node4</title>
<path fill="none" stroke="midnightblue" d="M482.45,-596.64C467.63,-586.49 450.83,-574.98 436.99,-565.51"/>
<polygon fill="midnightblue" stroke="midnightblue" points="480.69,-599.67 490.91,-602.43 484.64,-593.89 480.69,-599.67"/>
</g>
<!-- Node3&#45;&gt;Node5 -->
<g id="edge17" class="edge">
<title>Node3&#45;&gt;Node5</title>
<path fill="none" stroke="midnightblue" d="M519.27,-592.38C517.85,-571.8 513.37,-544.5 500.5,-524 491.17,-509.13 476.36,-496.85 462.36,-487.6"/>
<polygon fill="midnightblue" stroke="midnightblue" points="515.77,-592.64 519.76,-602.45 522.77,-592.3 515.77,-592.64"/>
</g>
<!-- Node6 -->
<g id="node6" class="node">
<title>Node6</title>
<g id="a_node6"><a xlink:href="coordinate__cast_8hpp.html" target="_top" xlink:title=" ">
<polygon fill="white" stroke="black" points="338.5,-368.5 338.5,-409.5 512.5,-409.5 512.5,-368.5 338.5,-368.5"/>
<text text-anchor="start" x="346.5" y="-397.5" font-family="Helvetica,sans-Serif" font-size="10.00">/home/runner/work/shpxx</text>
<text text-anchor="start" x="346.5" y="-386.5" font-family="Helvetica,sans-Serif" font-size="10.00">/shpxx/include/shpxx/coordinate</text>
<text text-anchor="middle" x="425.5" y="-375.5" font-family="Helvetica,sans-Serif" font-size="10.00">_cast.hpp</text>
</a>
</g>
</g>
<!-- Node3&#45;&gt;Node6 -->
<g id="edge16" class="edge">
<title>Node3&#45;&gt;Node6</title>
<path fill="none" stroke="midnightblue" d="M528.46,-592.32C537.77,-555.37 547.68,-491.58 521.5,-446 512.32,-430.02 496.63,-418.17 480.57,-409.59"/>
<polygon fill="midnightblue" stroke="midnightblue" points="524.95,-591.87 525.75,-602.44 531.72,-593.68 524.95,-591.87"/>
</g>
<!-- Node3&#45;&gt;Node7 -->
<g id="edge18" class="edge">
<title>Node3&#45;&gt;Node7</title>
<path fill="none" stroke="midnightblue" d="M538.23,-593.5C542.84,-585 547.13,-575.43 549.5,-566 571.14,-479.8 575.49,-438.6 521.5,-368 509.66,-352.52 492.22,-340.54 475.44,-331.7"/>
<polygon fill="midnightblue" stroke="midnightblue" points="535.15,-591.84 533.18,-602.25 541.21,-595.34 535.15,-591.84"/>
</g>
<!-- Node4&#45;&gt;Node5 -->
<g id="edge4" class="edge">
<title>Node4&#45;&gt;Node5</title>
<path fill="none" stroke="midnightblue" d="M415.08,-514.59C417.11,-505.51 419.29,-495.74 421.14,-487.51"/>
<polygon fill="midnightblue" stroke="midnightblue" points="411.65,-513.91 412.88,-524.43 418.48,-515.43 411.65,-513.91"/>
</g>
<!-- Node5&#45;&gt;Node6 -->
<g id="edge5" class="edge">
<title>Node5&#45;&gt;Node6</title>
<path fill="none" stroke="midnightblue" d="M418.9,-436.3C418.58,-427.3 418.78,-417.65 419.52,-409.51"/>
<polygon fill="midnightblue" stroke="midnightblue" points="415.41,-436.66 419.51,-446.43 422.4,-436.23 415.41,-436.66"/>
</g>
<!-- Node6&#45;&gt;Node5 -->
<g id="edge6" class="edge">
<title>Node6&#45;&gt;Node5</title>
<path fill="none" stroke="midnightblue" d="M432.1,-419.63C432.42,-428.62 432.22,-438.27 431.49,-446.43"/>
<polygon fill="midnightblue" stroke="midnightblue" points="435.59,-419.27 431.48,-409.51 428.6,-419.7 435.59,-419.27"/>
</g>
<!-- Node6&#45;&gt;Node7 -->
<g id="edge7" class="edge">
<title>Node6&#45;&gt;Node7</title>
<path fill="none" stroke="midnightblue" d="M425.5,-358.3C425.5,-349.3 425.5,-339.65 425.5,-331.51"/>
<polygon fill="midnightblue" stroke="midnightblue" points="422,-358.43 425.5,-368.43 429,-358.43 422,-358.43"/>
</g>
<!-- Node7&#45;&gt;Node2 -->
<g id="edge8" class="edge">
<title>Node7&#45;&gt;Node2</title>
<path fill="none" stroke="midnightblue" d="M378.07,-285.81C353.79,-273.43 325.08,-258.78 304.39,-248.23"/>
<polygon fill="midnightblue" stroke="midnightblue" points="376.63,-289 387.13,-290.43 379.81,-282.77 376.63,-289"/>
</g>
<!-- Node8 -->
<g id="node8" class="node">
<title>Node8</title>
<g id="a_node8"><a xlink:href="is__feature_8hpp.html" target="_top" xlink:title=" ">
<polygon fill="white" stroke="black" points="370.5,-212.5 370.5,-253.5 536.5,-253.5 536.5,-212.5 370.5,-212.5"/>
<text text-anchor="start" x="378.5" y="-241.5" font-family="Helvetica,sans-Serif" font-size="10.00">/home/runner/work/shpxx</text>
<text text-anchor="start" x="378.5" y="-230.5" font-family="Helvetica,sans-Serif" font-size="10.00">/shpxx/include/shpxx/concepts</text>
<text text-anchor="middle" x="453.5" y="-219.5" font-family="Helvetica,sans-Serif" font-size="10.00">/is_feature.hpp</text>
</a>
</g>
</g>
<!-- Node7&#45;&gt;Node8 -->
<g id="edge9" class="edge">
<title>Node7&#45;&gt;Node8</title>
<path fill="none" stroke="midnightblue" d="M436.23,-280.88C439.6,-271.72 443.25,-261.83 446.31,-253.51"/>
<polygon fill="midnightblue" stroke="midnightblue" points="432.88,-279.83 432.71,-290.43 439.45,-282.25 432.88,-279.83"/>
</g>
<!-- Node8&#45;&gt;Node9 -->
<g id="edge10" class="edge">
<title>Node8&#45;&gt;Node9</title>
<path fill="none" stroke="midnightblue" d="M405.24,-207.87C383.79,-197.15 359.28,-184.89 340.84,-175.67"/>
<polygon fill="midnightblue" stroke="midnightblue" points="403.71,-211.02 414.22,-212.36 406.84,-204.76 403.71,-211.02"/>
</g>
<!-- Node10 -->
<g id="node10" class="node">
<title>Node10</title>
<g id="a_node10"><a xlink:href="shpfile_8cpp.html" target="_top" xlink:title=" ">
<polygon fill="white" stroke="black" points="0,-73 0,-103 141,-103 141,-73 0,-73"/>
<text text-anchor="start" x="8" y="-91" font-family="Helvetica,sans-Serif" font-size="10.00">/home/runner/work/shpxx</text>
<text text-anchor="middle" x="70.5" y="-80" font-family="Helvetica,sans-Serif" font-size="10.00">/shpxx/src/shpfile.cpp</text>
</a>
</g>
</g>
<!-- Node9&#45;&gt;Node10 -->
<g id="edge11" class="edge">
<title>Node9&#45;&gt;Node10</title>
<path fill="none" stroke="midnightblue" d="M254.71,-142.66C213.27,-130.59 158.06,-114.51 118.92,-103.11"/>
<polygon fill="midnightblue" stroke="midnightblue" points="253.82,-146.05 264.4,-145.49 255.78,-139.33 253.82,-146.05"/>
</g>
<!-- Node11 -->
<g id="node11" class="node">
<title>Node11</title>
<g id="a_node11"><a xlink:href="file_8hpp.html" target="_top" xlink:title=" ">
<polygon fill="white" stroke="black" points="159,-67.5 159,-108.5 300,-108.5 300,-67.5 159,-67.5"/>
<text text-anchor="start" x="167" y="-96.5" font-family="Helvetica,sans-Serif" font-size="10.00">/home/runner/work/shpxx</text>
<text text-anchor="start" x="167" y="-85.5" font-family="Helvetica,sans-Serif" font-size="10.00">/shpxx/include/shpxx/io</text>
<text text-anchor="middle" x="229.5" y="-74.5" font-family="Helvetica,sans-Serif" font-size="10.00">/file.hpp</text>
</a>
</g>
</g>
<!-- Node9&#45;&gt;Node11 -->
<g id="edge12" class="edge">
<title>Node9&#45;&gt;Node11</title>
<path fill="none" stroke="midnightblue" d="M287.96,-138.66C276.76,-129.15 263.57,-117.94 252.56,-108.59"/>
<polygon fill="midnightblue" stroke="midnightblue" points="285.82,-141.43 295.7,-145.23 290.35,-136.09 285.82,-141.43"/>
</g>
<!-- Node13 -->
<g id="node13" class="node">
<title>Node13</title>
<g id="a_node13"><a xlink:href="shpfile__impl_8hpp.html" target="_top" xlink:title=" ">
<polygon fill="white" stroke="black" points="318,-67.5 318,-108.5 473,-108.5 473,-67.5 318,-67.5"/>
<text text-anchor="start" x="326" y="-96.5" font-family="Helvetica,sans-Serif" font-size="10.00">/home/runner/work/shpxx</text>
<text text-anchor="start" x="326" y="-85.5" font-family="Helvetica,sans-Serif" font-size="10.00">/shpxx/include/shpxx/shpfile</text>
<text text-anchor="middle" x="395.5" y="-74.5" font-family="Helvetica,sans-Serif" font-size="10.00">_impl.hpp</text>
</a>
</g>
</g>
<!-- Node9&#45;&gt;Node13 -->
<g id="edge14" class="edge">
<title>Node9&#45;&gt;Node13</title>
<path fill="none" stroke="midnightblue" d="M331.12,-138.38C341.53,-128.93 354.62,-117.85 366.32,-108.59"/>
<polygon fill="midnightblue" stroke="midnightblue" points="328.69,-135.86 323.75,-145.23 333.46,-140.99 328.69,-135.86"/>
</g>
<!-- Node12 -->
<g id="node12" class="node">
<title>Node12</title>
<g id="a_node12"><a xlink:href="file_8cpp.html" target="_top" xlink:title=" ">
<polygon fill="white" stroke="black" points="159,-0.5 159,-30.5 300,-30.5 300,-0.5 159,-0.5"/>
<text text-anchor="start" x="167" y="-18.5" font-family="Helvetica,sans-Serif" font-size="10.00">/home/runner/work/shpxx</text>
<text text-anchor="middle" x="229.5" y="-7.5" font-family="Helvetica,sans-Serif" font-size="10.00">/shpxx/src/io/file.cpp</text>
</a>
</g>
</g>
<!-- Node11&#45;&gt;Node12 -->
<g id="edge13" class="edge">
<title>Node11&#45;&gt;Node12</title>
<path fill="none" stroke="midnightblue" d="M229.5,-57.08C229.5,-48.01 229.5,-38.45 229.5,-30.89"/>
<polygon fill="midnightblue" stroke="midnightblue" points="226,-57.36 229.5,-67.36 233,-57.36 226,-57.36"/>
</g>
<!-- Node13&#45;&gt;Node9 -->
<g id="edge15" class="edge">
<title>Node13&#45;&gt;Node9</title>
<path fill="none" stroke="midnightblue" d="M370.99,-115.38C359.53,-125.5 346.05,-136.67 334.84,-145.23"/>
<polygon fill="midnightblue" stroke="midnightblue" points="373.46,-117.88 378.56,-108.59 368.78,-112.67 373.46,-117.88"/>
</g>
</g>
</svg>
