<?xml version="1.0" encoding="UTF-8" standalone="no"?>
<!DOCTYPE svg PUBLIC "-//W3C//DTD SVG 1.1//EN"
 "http://www.w3.org/Graphics/SVG/1.1/DTD/svg11.dtd">
<!-- Generated by graphviz version 2.43.0 (0)
 -->
<!-- Title: /home/runner/work/shpxx/shpxx/include/shpxx/coordinate_cast.hpp Pages: 1 -->
<svg width="240pt" height="352pt"
 viewBox="0.00 0.00 239.57 352.00" xmlns="http://www.w3.org/2000/svg" xmlns:xlink="http://www.w3.org/1999/xlink">
<g id="graph0" class="graph" transform="scale(1 1) rotate(0) translate(4 348)">
<title>/home/runner/work/shpxx/shpxx/include/shpxx/coordinate_cast.hpp</title>
<polygon fill="white" stroke="transparent" points="-4,4 -4,-348 235.57,-348 235.57,4 -4,4"/>
<!-- Node1 -->
<g id="node1" class="node">
<title>Node1</title>
<g id="a_node1"><a xlink:title=" ">
<polygon fill="#bfbfbf" stroke="black" points="57.57,-302.5 57.57,-343.5 231.57,-343.5 231.57,-302.5 57.57,-302.5"/>
<text text-anchor="start" x="65.57" y="-331.5" font-family="Helvetica,sans-Serif" font-size="10.00">/home/runner/work/shpxx</text>
<text text-anchor="start" x="65.57" y="-320.5" font-family="Helvetica,sans-Serif" font-size="10.00">/shpxx/include/shpxx/coordinate</text>
<text text-anchor="middle" x="144.57" y="-309.5" font-family="Helvetica,sans-Serif" font-size="10.00">_cast.hpp</text>
</a>
</g>
</g>
<!-- Node2 -->
<g id="node2" class="node">
<title>Node2</title>
<g id="a_node2"><a xlink:href="is__coordinate_8hpp.html" target="_top" xlink:title=" ">
<polygon fill="white" stroke="black" points="12.57,-112.5 12.57,-131.5 194.57,-131.5 194.57,-112.5 12.57,-112.5"/>
<text text-anchor="middle" x="103.57" y="-119.5" font-family="Helvetica,sans-Serif" font-size="10.00">shpxx/concepts/is_coordinate.hpp</text>
</a>
</g>
</g>
<!-- Node1&#45;&gt;Node2 -->
<g id="edge1" class="edge">
<title>Node1&#45;&gt;Node2</title>
<path fill="none" stroke="midnightblue" d="M113.95,-302.29C100.22,-292.48 84.48,-279.78 72.57,-266 50.19,-240.1 43.31,-232.1 34.57,-199 31.06,-185.68 28.01,-180.11 34.57,-168 42.32,-153.7 56.81,-143.22 70.51,-135.99"/>
<polygon fill="midnightblue" stroke="midnightblue" points="72.31,-139.01 79.79,-131.5 69.26,-132.71 72.31,-139.01"/>
</g>
<!-- Node6 -->
<g id="node6" class="node">
<title>Node6</title>
<g id="a_node6"><a xlink:href="coordinate__cast__impl_8hpp.html" target="_top" xlink:title=" ">
<polygon fill="white" stroke="black" points="81.57,-235.5 81.57,-265.5 207.57,-265.5 207.57,-235.5 81.57,-235.5"/>
<text text-anchor="start" x="89.57" y="-253.5" font-family="Helvetica,sans-Serif" font-size="10.00">shpxx/coordinate_cast</text>
<text text-anchor="middle" x="144.57" y="-242.5" font-family="Helvetica,sans-Serif" font-size="10.00">_impl.hpp</text>
</a>
</g>
</g>
<!-- Node1&#45;&gt;Node6 -->
<g id="edge5" class="edge">
<title>Node1&#45;&gt;Node6</title>
<path fill="none" stroke="midnightblue" d="M138.45,-302.36C137.75,-294.23 137.64,-284.7 138.11,-276.11"/>
<polygon fill="midnightblue" stroke="midnightblue" points="141.61,-276.16 139.01,-265.89 134.64,-275.54 141.61,-276.16"/>
</g>
<!-- Node3 -->
<g id="node3" class="node">
<title>Node3</title>
<g id="a_node3"><a xlink:href="coordinate_8hpp.html" target="_top" xlink:title=" ">
<polygon fill="white" stroke="black" points="99.57,-56.5 99.57,-75.5 221.57,-75.5 221.57,-56.5 99.57,-56.5"/>
<text text-anchor="middle" x="160.57" y="-63.5" font-family="Helvetica,sans-Serif" font-size="10.00">shpxx/coordinate.hpp</text>
</a>
</g>
</g>
<!-- Node2&#45;&gt;Node3 -->
<g id="edge2" class="edge">
<title>Node2&#45;&gt;Node3</title>
<path fill="none" stroke="midnightblue" d="M112.73,-112.32C121.08,-104.42 133.61,-92.55 143.75,-82.94"/>
<polygon fill="midnightblue" stroke="midnightblue" points="146.4,-85.25 151.25,-75.83 141.58,-80.17 146.4,-85.25"/>
</g>
<!-- Node5 -->
<g id="node5" class="node">
<title>Node5</title>
<g id="a_node5"><a xlink:title=" ">
<polygon fill="white" stroke="#bfbfbf" points="16.57,-56.5 16.57,-75.5 76.57,-75.5 76.57,-56.5 16.57,-56.5"/>
<text text-anchor="middle" x="46.57" y="-63.5" font-family="Helvetica,sans-Serif" font-size="10.00">concepts</text>
</a>
</g>
</g>
<!-- Node2&#45;&gt;Node5 -->
<g id="edge4" class="edge">
<title>Node2&#45;&gt;Node5</title>
<path fill="none" stroke="midnightblue" d="M94.42,-112.32C86.07,-104.42 73.54,-92.55 63.4,-82.94"/>
<polygon fill="midnightblue" stroke="midnightblue" points="65.57,-80.17 55.9,-75.83 60.75,-85.25 65.57,-80.17"/>
</g>
<!-- Node4 -->
<g id="node4" class="node">
<title>Node4</title>
<g id="a_node4"><a xlink:title=" ">
<polygon fill="white" stroke="#bfbfbf" points="137.07,-0.5 137.07,-19.5 184.07,-19.5 184.07,-0.5 137.07,-0.5"/>
<text text-anchor="middle" x="160.57" y="-7.5" font-family="Helvetica,sans-Serif" font-size="10.00">cmath</text>
</a>
</g>
</g>
<!-- Node3&#45;&gt;Node4 -->
<g id="edge3" class="edge">
<title>Node3&#45;&gt;Node4</title>
<path fill="none" stroke="midnightblue" d="M160.57,-56.08C160.57,-49.01 160.57,-38.86 160.57,-29.99"/>
<polygon fill="midnightblue" stroke="midnightblue" points="164.07,-29.75 160.57,-19.75 157.07,-29.75 164.07,-29.75"/>
</g>
<!-- Node6&#45;&gt;Node1 -->
<g id="edge11" class="edge">
<title>Node6&#45;&gt;Node1</title>
<path fill="none" stroke="midnightblue" d="M150.14,-265.89C151.13,-273.53 151.5,-283.21 151.25,-292.38"/>
<polygon fill="midnightblue" stroke="midnightblue" points="147.75,-292.18 150.7,-302.36 154.74,-292.57 147.75,-292.18"/>
</g>
<!-- Node6&#45;&gt;Node2 -->
<g id="edge9" class="edge">
<title>Node6&#45;&gt;Node2</title>
<path fill="none" stroke="midnightblue" d="M154.09,-235.28C164.05,-218.47 176.79,-190 165.57,-168 158.57,-154.27 145.21,-143.75 132.67,-136.35"/>
<polygon fill="midnightblue" stroke="midnightblue" points="134.25,-133.22 123.8,-131.51 130.9,-139.37 134.25,-133.22"/>
</g>
<!-- Node6&#45;&gt;Node3 -->
<g id="edge10" class="edge">
<title>Node6&#45;&gt;Node3</title>
<path fill="none" stroke="midnightblue" d="M156.89,-235.28C164.8,-225.58 174.82,-212.15 181.57,-199 195.9,-171.12 198.62,-162.95 203.57,-132 204.98,-123.22 206.88,-120.25 203.57,-112 198.89,-100.33 189.58,-89.97 180.82,-82.14"/>
<polygon fill="midnightblue" stroke="midnightblue" points="183,-79.4 173.07,-75.7 178.52,-84.78 183,-79.4"/>
</g>
<!-- Node7 -->
<g id="node7" class="node">
<title>Node7</title>
<g id="a_node7"><a xlink:href="has__zm_8hpp.html" target="_top" xlink:title=" ">
<polygon fill="white" stroke="black" points="43.07,-168.5 43.07,-198.5 156.07,-198.5 156.07,-168.5 43.07,-168.5"/>
<text text-anchor="start" x="51.07" y="-186.5" font-family="Helvetica,sans-Serif" font-size="10.00">shpxx/concepts/has</text>
<text text-anchor="middle" x="99.57" y="-175.5" font-family="Helvetica,sans-Serif" font-size="10.00">_zm.hpp</text>
</a>
</g>
</g>
<!-- Node6&#45;&gt;Node7 -->
<g id="edge6" class="edge">
<title>Node6&#45;&gt;Node7</title>
<path fill="none" stroke="midnightblue" d="M134.81,-235.4C129.03,-227.05 121.58,-216.29 115.02,-206.81"/>
<polygon fill="midnightblue" stroke="midnightblue" points="117.89,-204.81 109.32,-198.58 112.13,-208.79 117.89,-204.81"/>
</g>
<!-- Node7&#45;&gt;Node2 -->
<g id="edge7" class="edge">
<title>Node7&#45;&gt;Node2</title>
<path fill="none" stroke="midnightblue" d="M100.52,-168.4C101.06,-160.47 101.73,-150.46 102.31,-141.86"/>
<polygon fill="midnightblue" stroke="midnightblue" points="105.81,-141.87 102.99,-131.66 98.83,-141.4 105.81,-141.87"/>
</g>
<!-- Node7&#45;&gt;Node5 -->
<g id="edge8" class="edge">
<title>Node7&#45;&gt;Node5</title>
<path fill="none" stroke="midnightblue" d="M49.95,-168.4C32.13,-160.68 13.89,-149.09 3.57,-132 -7.03,-114.44 10,-94.89 25.66,-81.86"/>
<polygon fill="midnightblue" stroke="midnightblue" points="27.84,-84.6 33.56,-75.68 23.53,-79.08 27.84,-84.6"/>
</g>
</g>
</svg>
