<?xml version="1.0" encoding="UTF-8" standalone="no"?>
<!DOCTYPE svg PUBLIC "-//W3C//DTD SVG 1.1//EN"
 "http://www.w3.org/Graphics/SVG/1.1/DTD/svg11.dtd">
<!-- Generated by graphviz version 2.43.0 (0)
 -->
<!-- Title: /home/runner/work/shpxx/shpxx/include/shpxx/coordinate_cast_impl.hpp Pages: 1 -->
<svg width="339pt" height="285pt"
 viewBox="0.00 0.00 338.98 285.00" xmlns="http://www.w3.org/2000/svg" xmlns:xlink="http://www.w3.org/1999/xlink">
<g id="graph0" class="graph" transform="scale(1 1) rotate(0) translate(4 281)">
<title>/home/runner/work/shpxx/shpxx/include/shpxx/coordinate_cast_impl.hpp</title>
<polygon fill="white" stroke="transparent" points="-4,4 -4,-281 334.98,-281 334.98,4 -4,4"/>
<!-- Node1 -->
<g id="node1" class="node">
<title>Node1</title>
<g id="a_node1"><a xlink:title=" ">
<polygon fill="#bfbfbf" stroke="black" points="156.5,-235.5 156.5,-276.5 330.5,-276.5 330.5,-235.5 156.5,-235.5"/>
<text text-anchor="start" x="164.5" y="-264.5" font-family="Helvetica,sans-Serif" font-size="10.00">/home/runner/work/shpxx</text>
<text text-anchor="start" x="164.5" y="-253.5" font-family="Helvetica,sans-Serif" font-size="10.00">/shpxx/include/shpxx/coordinate</text>
<text text-anchor="middle" x="243.5" y="-242.5" font-family="Helvetica,sans-Serif" font-size="10.00">_cast_impl.hpp</text>
</a>
</g>
</g>
<!-- Node2 -->
<g id="node2" class="node">
<title>Node2</title>
<g id="a_node2"><a xlink:href="has__zm_8hpp.html" target="_top" xlink:title=" ">
<polygon fill="white" stroke="black" points="0,-168.5 0,-198.5 113,-198.5 113,-168.5 0,-168.5"/>
<text text-anchor="start" x="8" y="-186.5" font-family="Helvetica,sans-Serif" font-size="10.00">shpxx/concepts/has</text>
<text text-anchor="middle" x="56.5" y="-175.5" font-family="Helvetica,sans-Serif" font-size="10.00">_zm.hpp</text>
</a>
</g>
</g>
<!-- Node1&#45;&gt;Node2 -->
<g id="edge1" class="edge">
<title>Node1&#45;&gt;Node2</title>
<path fill="none" stroke="midnightblue" d="M191.41,-235.36C163.79,-224.95 130.12,-212.25 103.33,-202.15"/>
<polygon fill="midnightblue" stroke="midnightblue" points="104.38,-198.81 93.79,-198.56 101.92,-205.36 104.38,-198.81"/>
</g>
<!-- Node3 -->
<g id="node3" class="node">
<title>Node3</title>
<g id="a_node3"><a xlink:href="is__coordinate_8hpp.html" target="_top" xlink:title=" ">
<polygon fill="white" stroke="black" points="84.5,-112.5 84.5,-131.5 266.5,-131.5 266.5,-112.5 84.5,-112.5"/>
<text text-anchor="middle" x="175.5" y="-119.5" font-family="Helvetica,sans-Serif" font-size="10.00">shpxx/concepts/is_coordinate.hpp</text>
</a>
</g>
</g>
<!-- Node1&#45;&gt;Node3 -->
<g id="edge7" class="edge">
<title>Node1&#45;&gt;Node3</title>
<path fill="none" stroke="midnightblue" d="M199.09,-235.47C184.4,-226.6 169.71,-214.55 161.5,-199 151.84,-180.7 158.9,-156.87 166.04,-140.81"/>
<polygon fill="midnightblue" stroke="midnightblue" points="169.33,-142.04 170.57,-131.52 163.04,-138.97 169.33,-142.04"/>
</g>
<!-- Node4 -->
<g id="node4" class="node">
<title>Node4</title>
<g id="a_node4"><a xlink:href="coordinate_8hpp.html" target="_top" xlink:title=" ">
<polygon fill="white" stroke="black" points="171.5,-56.5 171.5,-75.5 293.5,-75.5 293.5,-56.5 171.5,-56.5"/>
<text text-anchor="middle" x="232.5" y="-63.5" font-family="Helvetica,sans-Serif" font-size="10.00">shpxx/coordinate.hpp</text>
</a>
</g>
</g>
<!-- Node1&#45;&gt;Node4 -->
<g id="edge8" class="edge">
<title>Node1&#45;&gt;Node4</title>
<path fill="none" stroke="midnightblue" d="M288.87,-235.32C303.6,-226.49 318.26,-214.5 326.5,-199 332.97,-186.83 331.47,-180.85 326.5,-168 312.08,-130.76 276.58,-99.19 253.57,-81.7"/>
<polygon fill="midnightblue" stroke="midnightblue" points="255.56,-78.82 245.43,-75.7 251.41,-84.45 255.56,-78.82"/>
</g>
<!-- Node7 -->
<g id="node7" class="node">
<title>Node7</title>
<g id="a_node7"><a xlink:href="coordinate__cast_8hpp.html" target="_top" xlink:title=" ">
<polygon fill="white" stroke="black" points="170,-174 170,-193 317,-193 317,-174 170,-174"/>
<text text-anchor="middle" x="243.5" y="-181" font-family="Helvetica,sans-Serif" font-size="10.00">shpxx/coordinate_cast.hpp</text>
</a>
</g>
</g>
<!-- Node1&#45;&gt;Node7 -->
<g id="edge9" class="edge">
<title>Node1&#45;&gt;Node7</title>
<path fill="none" stroke="midnightblue" d="M237.38,-235.36C236.51,-225.3 236.54,-213.1 237.46,-203.18"/>
<polygon fill="midnightblue" stroke="midnightblue" points="240.94,-203.57 238.88,-193.17 234.01,-202.58 240.94,-203.57"/>
</g>
<!-- Node2&#45;&gt;Node3 -->
<g id="edge2" class="edge">
<title>Node2&#45;&gt;Node3</title>
<path fill="none" stroke="midnightblue" d="M84.7,-168.4C104.22,-158.64 130.03,-145.74 149.13,-136.18"/>
<polygon fill="midnightblue" stroke="midnightblue" points="150.81,-139.26 158.18,-131.66 147.67,-133 150.81,-139.26"/>
</g>
<!-- Node6 -->
<g id="node6" class="node">
<title>Node6</title>
<g id="a_node6"><a xlink:title=" ">
<polygon fill="white" stroke="#bfbfbf" points="88.5,-56.5 88.5,-75.5 148.5,-75.5 148.5,-56.5 88.5,-56.5"/>
<text text-anchor="middle" x="118.5" y="-63.5" font-family="Helvetica,sans-Serif" font-size="10.00">concepts</text>
</a>
</g>
</g>
<!-- Node2&#45;&gt;Node6 -->
<g id="edge6" class="edge">
<title>Node2&#45;&gt;Node6</title>
<path fill="none" stroke="midnightblue" d="M58.19,-168.48C60.43,-153.66 65.36,-130 75.5,-112 81.83,-100.75 91.62,-90.21 100.25,-82.15"/>
<polygon fill="midnightblue" stroke="midnightblue" points="102.58,-84.77 107.73,-75.51 97.93,-79.54 102.58,-84.77"/>
</g>
<!-- Node3&#45;&gt;Node4 -->
<g id="edge3" class="edge">
<title>Node3&#45;&gt;Node4</title>
<path fill="none" stroke="midnightblue" d="M184.66,-112.32C193,-104.42 205.53,-92.55 215.68,-82.94"/>
<polygon fill="midnightblue" stroke="midnightblue" points="218.32,-85.25 223.18,-75.83 213.51,-80.17 218.32,-85.25"/>
</g>
<!-- Node3&#45;&gt;Node6 -->
<g id="edge5" class="edge">
<title>Node3&#45;&gt;Node6</title>
<path fill="none" stroke="midnightblue" d="M166.34,-112.32C158,-104.42 145.47,-92.55 135.32,-82.94"/>
<polygon fill="midnightblue" stroke="midnightblue" points="137.49,-80.17 127.82,-75.83 132.68,-85.25 137.49,-80.17"/>
</g>
<!-- Node5 -->
<g id="node5" class="node">
<title>Node5</title>
<g id="a_node5"><a xlink:title=" ">
<polygon fill="white" stroke="#bfbfbf" points="209,-0.5 209,-19.5 256,-19.5 256,-0.5 209,-0.5"/>
<text text-anchor="middle" x="232.5" y="-7.5" font-family="Helvetica,sans-Serif" font-size="10.00">cmath</text>
</a>
</g>
</g>
<!-- Node4&#45;&gt;Node5 -->
<g id="edge4" class="edge">
<title>Node4&#45;&gt;Node5</title>
<path fill="none" stroke="midnightblue" d="M232.5,-56.08C232.5,-49.01 232.5,-38.86 232.5,-29.99"/>
<polygon fill="midnightblue" stroke="midnightblue" points="236,-29.75 232.5,-19.75 229,-29.75 236,-29.75"/>
</g>
<!-- Node7&#45;&gt;Node1 -->
<g id="edge11" class="edge">
<title>Node7&#45;&gt;Node1</title>
<path fill="none" stroke="midnightblue" d="M248.12,-193.17C249.8,-201.18 250.48,-213.53 250.18,-225.1"/>
<polygon fill="midnightblue" stroke="midnightblue" points="246.67,-225.19 249.62,-235.36 253.66,-225.57 246.67,-225.19"/>
</g>
<!-- Node7&#45;&gt;Node3 -->
<g id="edge10" class="edge">
<title>Node7&#45;&gt;Node3</title>
<path fill="none" stroke="midnightblue" d="M233.76,-173.98C223.15,-164.7 205.98,-149.67 193.02,-138.33"/>
<polygon fill="midnightblue" stroke="midnightblue" points="195.06,-135.46 185.22,-131.51 190.45,-140.73 195.06,-135.46"/>
</g>
</g>
</svg>
