<?xml version="1.0" encoding="UTF-8" standalone="no"?>
<!DOCTYPE svg PUBLIC "-//W3C//DTD SVG 1.1//EN"
 "http://www.w3.org/Graphics/SVG/1.1/DTD/svg11.dtd">
<!-- Generated by graphviz version 2.43.0 (0)
 -->
<!-- Title: /home/runner/work/shpxx/shpxx/tests Pages: 1 -->
<svg width="89pt" height="188pt"
 viewBox="0.00 0.00 89.00 188.00" xmlns="http://www.w3.org/2000/svg" xmlns:xlink="http://www.w3.org/1999/xlink">
<g id="graph0" class="graph" transform="scale(1 1) rotate(0) translate(4 184)">
<title>/home/runner/work/shpxx/shpxx/tests</title>
<polygon fill="white" stroke="transparent" points="-4,4 -4,-184 85,-184 85,4 -4,4"/>
<!-- dir_59425e443f801f1f2fd8bbe4959a3ccf -->
<g id="node1" class="node">
<title>dir_59425e443f801f1f2fd8bbe4959a3ccf</title>
<g id="a_node1"><a xlink:href="dir_59425e443f801f1f2fd8bbe4959a3ccf.html" target="_top" xlink:title="tests">
<polygon fill="#eeeeff" stroke="black" points="81,-180 27,-180 27,-144 81,-144 81,-180"/>
<text text-anchor="middle" x="54" y="-159.5" font-family="Helvetica,sans-Serif" font-size="10.00">tests</text>
</a>
</g>
</g>
<!-- dir_68267d1309a1af8e8297ef4c3efbcdba -->
<g id="node2" class="node">
<title>dir_68267d1309a1af8e8297ef4c3efbcdba</title>
<g id="a_node2"><a xlink:href="dir_68267d1309a1af8e8297ef4c3efbcdba.html" target="_top" xlink:title="src">
<polygon fill="white" stroke="red" points="54,-108 0,-108 0,-72 54,-72 54,-108"/>
<text text-anchor="middle" x="27" y="-87.5" font-family="Helvetica,sans-Serif" font-size="10.00">src</text>
</a>
</g>
</g>
<!-- dir_59425e443f801f1f2fd8bbe4959a3ccf&#45;&gt;dir_68267d1309a1af8e8297ef4c3efbcdba -->
<g id="edge2" class="edge">
<title>dir_59425e443f801f1f2fd8bbe4959a3ccf&#45;&gt;dir_68267d1309a1af8e8297ef4c3efbcdba</title>
<path fill="none" stroke="black" d="M47.33,-143.7C44.29,-135.81 40.62,-126.3 37.24,-117.55"/>
<polygon fill="black" stroke="black" points="40.46,-116.17 33.6,-108.1 33.93,-118.69 40.46,-116.17"/>
<g id="a_edge2&#45;headlabel"><a xlink:href="dir_000008_000005.html" target="_top" xlink:title="2">
<text text-anchor="middle" x="44.4" y="-116.01" font-family="Helvetica,sans-Serif" font-size="10.00">2</text>
</a>
</g>
</g>
<!-- dir_d44c64559bbebec7f509842c48db8b23 -->
<g id="node3" class="node">
<title>dir_d44c64559bbebec7f509842c48db8b23</title>
<g id="a_node3"><a xlink:href="dir_d44c64559bbebec7f509842c48db8b23.html" target="_top" xlink:title="include">
<polygon fill="white" stroke="red" points="81,-36 27,-36 27,0 81,0 81,-36"/>
<text text-anchor="middle" x="54" y="-15.5" font-family="Helvetica,sans-Serif" font-size="10.00">include</text>
</a>
</g>
</g>
<!-- dir_59425e443f801f1f2fd8bbe4959a3ccf&#45;&gt;dir_d44c64559bbebec7f509842c48db8b23 -->
<g id="edge3" class="edge">
<title>dir_59425e443f801f1f2fd8bbe4959a3ccf&#45;&gt;dir_d44c64559bbebec7f509842c48db8b23</title>
<path fill="none" stroke="black" d="M57.65,-143.91C59.68,-133.57 61.98,-120.09 63,-108 64.34,-92.06 64.34,-87.94 63,-72 62.28,-63.5 60.93,-54.31 59.49,-46.01"/>
<polygon fill="black" stroke="black" points="62.91,-45.29 57.65,-36.09 56.03,-46.56 62.91,-45.29"/>
<g id="a_edge3&#45;headlabel"><a xlink:href="dir_000008_000000.html" target="_top" xlink:title="1">
<text text-anchor="middle" x="66.36" y="-45.81" font-family="Helvetica,sans-Serif" font-size="10.00">1</text>
</a>
</g>
</g>
<!-- dir_68267d1309a1af8e8297ef4c3efbcdba&#45;&gt;dir_d44c64559bbebec7f509842c48db8b23 -->
<g id="edge1" class="edge">
<title>dir_68267d1309a1af8e8297ef4c3efbcdba&#45;&gt;dir_d44c64559bbebec7f509842c48db8b23</title>
<path fill="none" stroke="black" d="M33.67,-71.7C36.71,-63.81 40.38,-54.3 43.76,-45.55"/>
<polygon fill="black" stroke="black" points="47.07,-46.69 47.4,-36.1 40.54,-44.17 47.07,-46.69"/>
<g id="a_edge1&#45;headlabel"><a xlink:href="dir_000005_000000.html" target="_top" xlink:title="17">
<text text-anchor="middle" x="48.42" y="-48.57" font-family="Helvetica,sans-Serif" font-size="10.00">17</text>
</a>
</g>
</g>
</g>
</svg>
