<?xml version="1.0" encoding="UTF-8" standalone="no"?>
<!DOCTYPE svg PUBLIC "-//W3C//DTD SVG 1.1//EN"
 "http://www.w3.org/Graphics/SVG/1.1/DTD/svg11.dtd">
<!-- Generated by graphviz version 2.43.0 (0)
 -->
<!-- Title: /home/runner/work/shpxx/shpxx/include/shpxx Pages: 1 -->
<svg width="260pt" height="183pt"
 viewBox="0.00 0.00 260.00 183.00" xmlns="http://www.w3.org/2000/svg" xmlns:xlink="http://www.w3.org/1999/xlink">
<g id="graph0" class="graph" transform="scale(1 1) rotate(0) translate(4 179)">
<title>/home/runner/work/shpxx/shpxx/include/shpxx</title>
<polygon fill="white" stroke="transparent" points="-4,4 -4,-179 256,-179 256,4 -4,4"/>
<g id="clust1" class="cluster">
<title>clusterdir_d44c64559bbebec7f509842c48db8b23</title>
<g id="a_clust1"><a xlink:href="dir_d44c64559bbebec7f509842c48db8b23.html" target="_top" xlink:title="include">
<polygon fill="#ddddee" stroke="black" points="8,-8 8,-167 244,-167 244,-8 8,-8"/>
<text text-anchor="middle" x="126" y="-155" font-family="Helvetica,sans-Serif" font-size="10.00">include</text>
</a>
</g>
</g>
<g id="clust2" class="cluster">
<title>clusterdir_18089f4c9cb429535ebcf66e2251638b</title>
<g id="a_clust2"><a xlink:href="dir_18089f4c9cb429535ebcf66e2251638b.html" target="_top">
<polygon fill="#eeeeff" stroke="black" points="16,-16 16,-140 236,-140 236,-16 16,-16"/>
</a>
</g>
</g>
<!-- dir_18089f4c9cb429535ebcf66e2251638b -->
<g id="node1" class="node">
<title>dir_18089f4c9cb429535ebcf66e2251638b</title>
<text text-anchor="middle" x="201" y="-111.5" font-family="Helvetica,sans-Serif" font-size="10.00">shpxx</text>
</g>
<!-- dir_e85ef1f7cb3341ab7811a61728d802a5 -->
<g id="node2" class="node">
<title>dir_e85ef1f7cb3341ab7811a61728d802a5</title>
<g id="a_node2"><a xlink:href="dir_e85ef1f7cb3341ab7811a61728d802a5.html" target="_top" xlink:title="concepts">
<polygon fill="white" stroke="black" points="156,-132 96,-132 96,-96 156,-96 156,-132"/>
<text text-anchor="middle" x="126" y="-111.5" font-family="Helvetica,sans-Serif" font-size="10.00">concepts</text>
</a>
</g>
</g>
<!-- dir_e7f11c34f69fd4960a6464ec8c7a463b -->
<g id="node3" class="node">
<title>dir_e7f11c34f69fd4960a6464ec8c7a463b</title>
<g id="a_node3"><a xlink:href="dir_e7f11c34f69fd4960a6464ec8c7a463b.html" target="_top" xlink:title="feature">
<polygon fill="white" stroke="black" points="153,-60 99,-60 99,-24 153,-24 153,-60"/>
<text text-anchor="middle" x="126" y="-39.5" font-family="Helvetica,sans-Serif" font-size="10.00">feature</text>
</a>
</g>
</g>
<!-- dir_e85ef1f7cb3341ab7811a61728d802a5&#45;&gt;dir_e7f11c34f69fd4960a6464ec8c7a463b -->
<g id="edge2" class="edge">
<title>dir_e85ef1f7cb3341ab7811a61728d802a5&#45;&gt;dir_e7f11c34f69fd4960a6464ec8c7a463b</title>
<path fill="none" stroke="black" d="M120.08,-95.7C119.29,-87.98 119.06,-78.71 119.4,-70.11"/>
<polygon fill="black" stroke="black" points="122.9,-70.32 120.1,-60.1 115.92,-69.84 122.9,-70.32"/>
<g id="a_edge2&#45;headlabel"><a xlink:href="dir_000002_000003.html" target="_top" xlink:title="5">
<text text-anchor="middle" x="125.48" y="-71.61" font-family="Helvetica,sans-Serif" font-size="10.00">5</text>
</a>
</g>
</g>
<!-- dir_e7f11c34f69fd4960a6464ec8c7a463b&#45;&gt;dir_e85ef1f7cb3341ab7811a61728d802a5 -->
<g id="edge1" class="edge">
<title>dir_e7f11c34f69fd4960a6464ec8c7a463b&#45;&gt;dir_e85ef1f7cb3341ab7811a61728d802a5</title>
<path fill="none" stroke="black" d="M131.9,-60.1C132.7,-67.79 132.94,-77.05 132.6,-85.67"/>
<polygon fill="black" stroke="black" points="129.11,-85.48 131.92,-95.7 136.09,-85.96 129.11,-85.48"/>
<g id="a_edge1&#45;headlabel"><a xlink:href="dir_000003_000002.html" target="_top" xlink:title="1">
<text text-anchor="middle" x="126.52" y="-79.2" font-family="Helvetica,sans-Serif" font-size="10.00">1</text>
</a>
</g>
</g>
<!-- dir_09cc97f65bb9180f270251705dcdae1e -->
<g id="node4" class="node">
<title>dir_09cc97f65bb9180f270251705dcdae1e</title>
<g id="a_node4"><a xlink:href="dir_09cc97f65bb9180f270251705dcdae1e.html" target="_top" xlink:title="io">
<polygon fill="white" stroke="black" points="78,-132 24,-132 24,-96 78,-96 78,-132"/>
<text text-anchor="middle" x="51" y="-111.5" font-family="Helvetica,sans-Serif" font-size="10.00">io</text>
</a>
</g>
</g>
</g>
</svg>
