<?xml version="1.0" encoding="UTF-8" standalone="no"?>
<!DOCTYPE svg PUBLIC "-//W3C//DTD SVG 1.1//EN"
 "http://www.w3.org/Graphics/SVG/1.1/DTD/svg11.dtd">
<!-- Generated by graphviz version 2.43.0 (0)
 -->
<!-- Title: /home/runner/work/shpxx/shpxx/include/shpxx/feature Pages: 1 -->
<svg width="100pt" height="167pt"
 viewBox="0.00 0.00 100.00 167.00" xmlns="http://www.w3.org/2000/svg" xmlns:xlink="http://www.w3.org/1999/xlink">
<g id="graph0" class="graph" transform="scale(1 1) rotate(0) translate(4 163)">
<title>/home/runner/work/shpxx/shpxx/include/shpxx/feature</title>
<polygon fill="white" stroke="transparent" points="-4,4 -4,-163 96,-163 96,4 -4,4"/>
<g id="clust1" class="cluster">
<title>clusterdir_18089f4c9cb429535ebcf66e2251638b</title>
<g id="a_clust1"><a xlink:href="dir_18089f4c9cb429535ebcf66e2251638b.html" target="_top" xlink:title="shpxx">
<polygon fill="#ddddee" stroke="black" points="8,-8 8,-151 84,-151 84,-8 8,-8"/>
<text text-anchor="middle" x="46" y="-139" font-family="Helvetica,sans-Serif" font-size="10.00">shpxx</text>
</a>
</g>
</g>
<!-- dir_e85ef1f7cb3341ab7811a61728d802a5 -->
<g id="node1" class="node">
<title>dir_e85ef1f7cb3341ab7811a61728d802a5</title>
<g id="a_node1"><a xlink:href="dir_e85ef1f7cb3341ab7811a61728d802a5.html" target="_top" xlink:title="concepts">
<polygon fill="none" stroke="black" points="76,-124 16,-124 16,-88 76,-88 76,-124"/>
<text text-anchor="middle" x="46" y="-103.5" font-family="Helvetica,sans-Serif" font-size="10.00">concepts</text>
</a>
</g>
</g>
<!-- dir_e7f11c34f69fd4960a6464ec8c7a463b -->
<g id="node2" class="node">
<title>dir_e7f11c34f69fd4960a6464ec8c7a463b</title>
<g id="a_node2"><a xlink:href="dir_e7f11c34f69fd4960a6464ec8c7a463b.html" target="_top" xlink:title="feature">
<polygon fill="#eeeeff" stroke="black" points="73,-52 19,-52 19,-16 73,-16 73,-52"/>
<text text-anchor="middle" x="46" y="-31.5" font-family="Helvetica,sans-Serif" font-size="10.00">feature</text>
</a>
</g>
</g>
<!-- dir_e85ef1f7cb3341ab7811a61728d802a5&#45;&gt;dir_e7f11c34f69fd4960a6464ec8c7a463b -->
<g id="edge2" class="edge">
<title>dir_e85ef1f7cb3341ab7811a61728d802a5&#45;&gt;dir_e7f11c34f69fd4960a6464ec8c7a463b</title>
<path fill="none" stroke="black" d="M40.08,-87.7C39.29,-79.98 39.06,-70.71 39.4,-62.11"/>
<polygon fill="black" stroke="black" points="42.9,-62.32 40.1,-52.1 35.92,-61.84 42.9,-62.32"/>
<g id="a_edge2&#45;headlabel"><a xlink:href="dir_000002_000003.html" target="_top" xlink:title="5">
<text text-anchor="middle" x="45.48" y="-63.61" font-family="Helvetica,sans-Serif" font-size="10.00">5</text>
</a>
</g>
</g>
<!-- dir_e7f11c34f69fd4960a6464ec8c7a463b&#45;&gt;dir_e85ef1f7cb3341ab7811a61728d802a5 -->
<g id="edge1" class="edge">
<title>dir_e7f11c34f69fd4960a6464ec8c7a463b&#45;&gt;dir_e85ef1f7cb3341ab7811a61728d802a5</title>
<path fill="none" stroke="black" d="M51.9,-52.1C52.7,-59.79 52.94,-69.05 52.6,-77.67"/>
<polygon fill="black" stroke="black" points="49.11,-77.48 51.92,-87.7 56.09,-77.96 49.11,-77.48"/>
<g id="a_edge1&#45;headlabel"><a xlink:href="dir_000003_000002.html" target="_top" xlink:title="1">
<text text-anchor="middle" x="46.52" y="-71.2" font-family="Helvetica,sans-Serif" font-size="10.00">1</text>
</a>
</g>
</g>
</g>
</svg>
