<?xml version="1.0" encoding="UTF-8" standalone="no"?>
<!DOCTYPE svg PUBLIC "-//W3C//DTD SVG 1.1//EN"
 "http://www.w3.org/Graphics/SVG/1.1/DTD/svg11.dtd">
<!-- Generated by graphviz version 2.43.0 (0)
 -->
<!-- Title: /home/runner/work/shpxx/shpxx/include/shpxx/exceptions.hpp Pages: 1 -->
<svg width="407pt" height="329pt"
 viewBox="0.00 0.00 407.00 329.00" xmlns="http://www.w3.org/2000/svg" xmlns:xlink="http://www.w3.org/1999/xlink">
<g id="graph0" class="graph" transform="scale(1 1) rotate(0) translate(4 325)">
<title>/home/runner/work/shpxx/shpxx/include/shpxx/exceptions.hpp</title>
<polygon fill="white" stroke="transparent" points="-4,4 -4,-325 403,-325 403,4 -4,4"/>
<!-- Node1 -->
<g id="node1" class="node">
<title>Node1</title>
<g id="a_node1"><a xlink:title=" ">
<polygon fill="#bfbfbf" stroke="black" points="5,-290.5 5,-320.5 202,-320.5 202,-290.5 5,-290.5"/>
<text text-anchor="start" x="13" y="-308.5" font-family="Helvetica,sans-Serif" font-size="10.00">/home/runner/work/shpxx</text>
<text text-anchor="middle" x="103.5" y="-297.5" font-family="Helvetica,sans-Serif" font-size="10.00">/shpxx/include/shpxx/exceptions.hpp</text>
</a>
</g>
</g>
<!-- Node2 -->
<g id="node2" class="node">
<title>Node2</title>
<g id="a_node2"><a xlink:href="file_8cpp.html" target="_top" xlink:title=" ">
<polygon fill="white" stroke="black" points="0,-0.5 0,-30.5 141,-30.5 141,-0.5 0,-0.5"/>
<text text-anchor="start" x="8" y="-18.5" font-family="Helvetica,sans-Serif" font-size="10.00">/home/runner/work/shpxx</text>
<text text-anchor="middle" x="70.5" y="-7.5" font-family="Helvetica,sans-Serif" font-size="10.00">/shpxx/src/io/file.cpp</text>
</a>
</g>
</g>
<!-- Node1&#45;&gt;Node2 -->
<g id="edge1" class="edge">
<title>Node1&#45;&gt;Node2</title>
<path fill="none" stroke="midnightblue" d="M80.5,-283.14C56.96,-259.55 21.84,-219.16 7.5,-176 -10.62,-121.47 34.39,-58.51 57.64,-30.82"/>
<polygon fill="midnightblue" stroke="midnightblue" points="78.11,-285.69 87.7,-290.19 83.01,-280.69 78.11,-285.69"/>
</g>
<!-- Node3 -->
<g id="node3" class="node">
<title>Node3</title>
<g id="a_node3"><a xlink:href="safile__wrapper_8hpp.html" target="_top" xlink:title=" ">
<polygon fill="white" stroke="black" points="17,-145.5 17,-175.5 190,-175.5 190,-145.5 17,-145.5"/>
<text text-anchor="start" x="25" y="-163.5" font-family="Helvetica,sans-Serif" font-size="10.00">/home/runner/work/shpxx</text>
<text text-anchor="middle" x="103.5" y="-152.5" font-family="Helvetica,sans-Serif" font-size="10.00">/shpxx/src/io/safile_wrapper.hpp</text>
</a>
</g>
</g>
<!-- Node1&#45;&gt;Node3 -->
<g id="edge2" class="edge">
<title>Node1&#45;&gt;Node3</title>
<path fill="none" stroke="midnightblue" d="M103.5,-280.19C103.5,-250.16 103.5,-200.05 103.5,-175.68"/>
<polygon fill="midnightblue" stroke="midnightblue" points="100,-280.27 103.5,-290.27 107,-280.27 100,-280.27"/>
</g>
<!-- Node4 -->
<g id="node4" class="node">
<title>Node4</title>
<g id="a_node4"><a xlink:href="shpfile__impl_8hpp.html" target="_top" xlink:title=" ">
<polygon fill="white" stroke="black" points="219,-212.5 219,-253.5 374,-253.5 374,-212.5 219,-212.5"/>
<text text-anchor="start" x="227" y="-241.5" font-family="Helvetica,sans-Serif" font-size="10.00">/home/runner/work/shpxx</text>
<text text-anchor="start" x="227" y="-230.5" font-family="Helvetica,sans-Serif" font-size="10.00">/shpxx/include/shpxx/shpfile</text>
<text text-anchor="middle" x="296.5" y="-219.5" font-family="Helvetica,sans-Serif" font-size="10.00">_impl.hpp</text>
</a>
</g>
</g>
<!-- Node1&#45;&gt;Node4 -->
<g id="edge4" class="edge">
<title>Node1&#45;&gt;Node4</title>
<path fill="none" stroke="midnightblue" d="M151.59,-286.93C179.36,-276.79 214.35,-264.01 242.99,-253.55"/>
<polygon fill="midnightblue" stroke="midnightblue" points="150.28,-283.68 142.09,-290.4 152.69,-290.26 150.28,-283.68"/>
</g>
<!-- Node3&#45;&gt;Node2 -->
<g id="edge3" class="edge">
<title>Node3&#45;&gt;Node2</title>
<path fill="none" stroke="midnightblue" d="M96.5,-135.55C94.15,-127.18 91.6,-117.71 89.5,-109 82.85,-81.43 76.51,-48.88 73.1,-30.67"/>
<polygon fill="midnightblue" stroke="midnightblue" points="93.21,-136.76 99.32,-145.42 99.94,-134.84 93.21,-136.76"/>
</g>
<!-- Node5 -->
<g id="node5" class="node">
<title>Node5</title>
<g id="a_node5"><a xlink:href="shpfile_8hpp.html" target="_top" xlink:title=" ">
<polygon fill="white" stroke="black" points="208.5,-145.5 208.5,-175.5 384.5,-175.5 384.5,-145.5 208.5,-145.5"/>
<text text-anchor="start" x="216.5" y="-163.5" font-family="Helvetica,sans-Serif" font-size="10.00">/home/runner/work/shpxx</text>
<text text-anchor="middle" x="296.5" y="-152.5" font-family="Helvetica,sans-Serif" font-size="10.00">/shpxx/include/shpxx/shpfile.hpp</text>
</a>
</g>
</g>
<!-- Node4&#45;&gt;Node5 -->
<g id="edge5" class="edge">
<title>Node4&#45;&gt;Node5</title>
<path fill="none" stroke="midnightblue" d="M289.83,-202.38C289.57,-193.21 289.94,-183.53 290.94,-175.89"/>
<polygon fill="midnightblue" stroke="midnightblue" points="286.33,-202.57 290.38,-212.36 293.32,-202.18 286.33,-202.57"/>
</g>
<!-- Node5&#45;&gt;Node4 -->
<g id="edge9" class="edge">
<title>Node5&#45;&gt;Node4</title>
<path fill="none" stroke="midnightblue" d="M302.97,-186.11C303.44,-194.7 303.32,-204.23 302.62,-212.36"/>
<polygon fill="midnightblue" stroke="midnightblue" points="306.43,-185.54 302.06,-175.89 299.46,-186.16 306.43,-185.54"/>
</g>
<!-- Node6 -->
<g id="node6" class="node">
<title>Node6</title>
<g id="a_node6"><a xlink:href="shpfile_8cpp.html" target="_top" xlink:title=" ">
<polygon fill="white" stroke="black" points="99,-73 99,-103 240,-103 240,-73 99,-73"/>
<text text-anchor="start" x="107" y="-91" font-family="Helvetica,sans-Serif" font-size="10.00">/home/runner/work/shpxx</text>
<text text-anchor="middle" x="169.5" y="-80" font-family="Helvetica,sans-Serif" font-size="10.00">/shpxx/src/shpfile.cpp</text>
</a>
</g>
</g>
<!-- Node5&#45;&gt;Node6 -->
<g id="edge6" class="edge">
<title>Node5&#45;&gt;Node6</title>
<path fill="none" stroke="midnightblue" d="M262.09,-140.4C240.88,-128.62 214.13,-113.78 194.85,-103.07"/>
<polygon fill="midnightblue" stroke="midnightblue" points="260.66,-143.61 271.1,-145.4 264.06,-137.49 260.66,-143.61"/>
</g>
<!-- Node7 -->
<g id="node7" class="node">
<title>Node7</title>
<g id="a_node7"><a xlink:href="file_8hpp.html" target="_top" xlink:title=" ">
<polygon fill="white" stroke="black" points="258,-67.5 258,-108.5 399,-108.5 399,-67.5 258,-67.5"/>
<text text-anchor="start" x="266" y="-96.5" font-family="Helvetica,sans-Serif" font-size="10.00">/home/runner/work/shpxx</text>
<text text-anchor="start" x="266" y="-85.5" font-family="Helvetica,sans-Serif" font-size="10.00">/shpxx/include/shpxx/io</text>
<text text-anchor="middle" x="328.5" y="-74.5" font-family="Helvetica,sans-Serif" font-size="10.00">/file.hpp</text>
</a>
</g>
</g>
<!-- Node5&#45;&gt;Node7 -->
<g id="edge7" class="edge">
<title>Node5&#45;&gt;Node7</title>
<path fill="none" stroke="midnightblue" d="M307.11,-136.13C311.16,-127.2 315.73,-117.13 319.61,-108.59"/>
<polygon fill="midnightblue" stroke="midnightblue" points="303.92,-134.68 302.98,-145.23 310.3,-137.57 303.92,-134.68"/>
</g>
<!-- Node7&#45;&gt;Node2 -->
<g id="edge8" class="edge">
<title>Node7&#45;&gt;Node2</title>
<path fill="none" stroke="midnightblue" d="M247.92,-64.98C206.79,-53.74 157.96,-40.4 121.95,-30.56"/>
<polygon fill="midnightblue" stroke="midnightblue" points="247.09,-68.38 257.66,-67.64 248.94,-61.63 247.09,-68.38"/>
</g>
</g>
</svg>
