<?xml version="1.0" encoding="UTF-8" standalone="no"?>
<!DOCTYPE svg PUBLIC "-//W3C//DTD SVG 1.1//EN"
 "http://www.w3.org/Graphics/SVG/1.1/DTD/svg11.dtd">
<!-- Generated by graphviz version 2.43.0 (0)
 -->
<!-- Title: /home/runner/work/shpxx/shpxx/include/shpxx/io/file.hpp Pages: 1 -->
<svg width="1797pt" height="598pt"
 viewBox="0.00 0.00 1797.00 598.00" xmlns="http://www.w3.org/2000/svg" xmlns:xlink="http://www.w3.org/1999/xlink">
<g id="graph0" class="graph" transform="scale(1 1) rotate(0) translate(4 594)">
<title>/home/runner/work/shpxx/shpxx/include/shpxx/io/file.hpp</title>
<polygon fill="white" stroke="transparent" points="-4,4 -4,-594 1793,-594 1793,4 -4,4"/>
<!-- Node1 -->
<g id="node1" class="node">
<title>Node1</title>
<g id="a_node1"><a xlink:title=" ">
<polygon fill="#bfbfbf" stroke="black" points="24.5,-548.5 24.5,-589.5 165.5,-589.5 165.5,-548.5 24.5,-548.5"/>
<text text-anchor="start" x="32.5" y="-577.5" font-family="Helvetica,sans-Serif" font-size="10.00">/home/runner/work/shpxx</text>
<text text-anchor="start" x="32.5" y="-566.5" font-family="Helvetica,sans-Serif" font-size="10.00">/shpxx/include/shpxx/io</text>
<text text-anchor="middle" x="95" y="-555.5" font-family="Helvetica,sans-Serif" font-size="10.00">/file.hpp</text>
</a>
</g>
</g>
<!-- Node2 -->
<g id="node2" class="node">
<title>Node2</title>
<g id="a_node2"><a xlink:href="openmode_8hpp.html" target="_top" xlink:title=" ">
<polygon fill="white" stroke="black" points="28,-492.5 28,-511.5 162,-511.5 162,-492.5 28,-492.5"/>
<text text-anchor="middle" x="95" y="-499.5" font-family="Helvetica,sans-Serif" font-size="10.00">shpxx/io/openmode.hpp</text>
</a>
</g>
</g>
<!-- Node1&#45;&gt;Node2 -->
<g id="edge1" class="edge">
<title>Node1&#45;&gt;Node2</title>
<path fill="none" stroke="midnightblue" d="M95,-548.5C95,-540.07 95,-530.24 95,-521.87"/>
<polygon fill="midnightblue" stroke="midnightblue" points="98.5,-521.65 95,-511.65 91.5,-521.65 98.5,-521.65"/>
</g>
<!-- Node4 -->
<g id="node4" class="node">
<title>Node4</title>
<g id="a_node4"><a xlink:href="shpfile_8hpp.html" target="_top" xlink:title=" ">
<polygon fill="white" stroke="black" points="275,-492.5 275,-511.5 377,-511.5 377,-492.5 275,-492.5"/>
<text text-anchor="middle" x="326" y="-499.5" font-family="Helvetica,sans-Serif" font-size="10.00">shpxx/shpfile.hpp</text>
</a>
</g>
</g>
<!-- Node1&#45;&gt;Node4 -->
<g id="edge3" class="edge">
<title>Node1&#45;&gt;Node4</title>
<path fill="none" stroke="midnightblue" d="M164.31,-548.5C203.93,-537.35 252.24,-523.76 285.68,-514.35"/>
<polygon fill="midnightblue" stroke="midnightblue" points="286.88,-517.64 295.55,-511.57 284.98,-510.91 286.88,-517.64"/>
</g>
<!-- Node7 -->
<g id="node7" class="node">
<title>Node7</title>
<g id="a_node7"><a xlink:title=" ">
<polygon fill="white" stroke="#bfbfbf" points="410,-241 410,-260 454,-260 454,-241 410,-241"/>
<text text-anchor="middle" x="432" y="-248" font-family="Helvetica,sans-Serif" font-size="10.00">string</text>
</a>
</g>
</g>
<!-- Node1&#45;&gt;Node7 -->
<g id="edge59" class="edge">
<title>Node1&#45;&gt;Node7</title>
<path fill="none" stroke="midnightblue" d="M58.73,-548.29C44.53,-538.97 29.24,-526.64 19,-512 1.76,-487.33 0,-477.1 0,-447 0,-447 0,-447 0,-383.5 0,-299.89 299.71,-263.98 399.86,-254.32"/>
<polygon fill="midnightblue" stroke="midnightblue" points="400.35,-257.79 409.98,-253.37 399.7,-250.82 400.35,-257.79"/>
</g>
<!-- Node3 -->
<g id="node3" class="node">
<title>Node3</title>
<g id="a_node3"><a xlink:title=" ">
<polygon fill="white" stroke="#bfbfbf" points="28,-436.5 28,-455.5 78,-455.5 78,-436.5 28,-436.5"/>
<text text-anchor="middle" x="53" y="-443.5" font-family="Helvetica,sans-Serif" font-size="10.00">cstdint</text>
</a>
</g>
</g>
<!-- Node2&#45;&gt;Node3 -->
<g id="edge2" class="edge">
<title>Node2&#45;&gt;Node3</title>
<path fill="none" stroke="midnightblue" d="M88.06,-492.08C82.07,-484.38 73.25,-473.03 65.95,-463.65"/>
<polygon fill="midnightblue" stroke="midnightblue" points="68.71,-461.5 59.81,-455.75 63.18,-465.79 68.71,-461.5"/>
</g>
<!-- Node4&#45;&gt;Node3 -->
<g id="edge46" class="edge">
<title>Node4&#45;&gt;Node3</title>
<path fill="none" stroke="midnightblue" d="M278.84,-492.46C231.51,-483.76 156.56,-469.65 92,-456 90.74,-455.73 89.45,-455.46 88.16,-455.18"/>
<polygon fill="midnightblue" stroke="midnightblue" points="88.67,-451.7 78.15,-452.95 87.14,-458.54 88.67,-451.7"/>
</g>
<!-- Node5 -->
<g id="node5" class="node">
<title>Node5</title>
<g id="a_node5"><a xlink:href="has__class__name_8hpp.html" target="_top" xlink:title=" ">
<polygon fill="white" stroke="black" points="325.5,-302.5 325.5,-332.5 438.5,-332.5 438.5,-302.5 325.5,-302.5"/>
<text text-anchor="start" x="333.5" y="-320.5" font-family="Helvetica,sans-Serif" font-size="10.00">shpxx/concepts/has</text>
<text text-anchor="middle" x="382" y="-309.5" font-family="Helvetica,sans-Serif" font-size="10.00">_class_name.hpp</text>
</a>
</g>
</g>
<!-- Node4&#45;&gt;Node5 -->
<g id="edge4" class="edge">
<title>Node4&#45;&gt;Node5</title>
<path fill="none" stroke="midnightblue" d="M274.77,-492.58C189.7,-476.48 33.98,-436.76 91,-369 119.08,-335.63 238.34,-324.31 315.2,-320.47"/>
<polygon fill="midnightblue" stroke="midnightblue" points="315.45,-323.96 325.28,-320 315.13,-316.97 315.45,-323.96"/>
</g>
<!-- Node8 -->
<g id="node8" class="node">
<title>Node8</title>
<g id="a_node8"><a xlink:href="has__compatibility__check_8hpp.html" target="_top" xlink:title=" ">
<polygon fill="white" stroke="black" points="100.5,-369.5 100.5,-399.5 241.5,-399.5 241.5,-369.5 100.5,-369.5"/>
<text text-anchor="start" x="108.5" y="-387.5" font-family="Helvetica,sans-Serif" font-size="10.00">shpxx/concepts/has</text>
<text text-anchor="middle" x="171" y="-376.5" font-family="Helvetica,sans-Serif" font-size="10.00">_compatibility_check.hpp</text>
</a>
</g>
</g>
<!-- Node4&#45;&gt;Node8 -->
<g id="edge7" class="edge">
<title>Node4&#45;&gt;Node8</title>
<path fill="none" stroke="midnightblue" d="M311.45,-492.36C297.05,-483.64 274.54,-469.57 256,-456 234.46,-440.23 211.21,-420.77 194.48,-406.29"/>
<polygon fill="midnightblue" stroke="midnightblue" points="196.67,-403.55 186.83,-399.62 192.07,-408.82 196.67,-403.55"/>
</g>
<!-- Node9 -->
<g id="node9" class="node">
<title>Node9</title>
<g id="a_node9"><a xlink:href="shape__type_8hpp.html" target="_top" xlink:title=" ">
<polygon fill="white" stroke="black" points="776,-308 776,-327 902,-327 902,-308 776,-308"/>
<text text-anchor="middle" x="839" y="-315" font-family="Helvetica,sans-Serif" font-size="10.00">shpxx/shape_type.hpp</text>
</a>
</g>
</g>
<!-- Node4&#45;&gt;Node9 -->
<g id="edge44" class="edge">
<title>Node4&#45;&gt;Node9</title>
<path fill="none" stroke="midnightblue" d="M318.8,-492.34C300.48,-469.24 255.79,-405.39 289,-369 304.86,-351.62 619.75,-331.2 765.78,-322.62"/>
<polygon fill="midnightblue" stroke="midnightblue" points="766.22,-326.1 776,-322.03 765.81,-319.12 766.22,-326.1"/>
</g>
<!-- Node10 -->
<g id="node10" class="node">
<title>Node10</title>
<g id="a_node10"><a xlink:href="is__feature_8hpp.html" target="_top" xlink:title=" ">
<polygon fill="white" stroke="black" points="1111.5,-436.5 1111.5,-455.5 1276.5,-455.5 1276.5,-436.5 1111.5,-436.5"/>
<text text-anchor="middle" x="1194" y="-443.5" font-family="Helvetica,sans-Serif" font-size="10.00">shpxx/concepts/is_feature.hpp</text>
</a>
</g>
</g>
<!-- Node4&#45;&gt;Node10 -->
<g id="edge11" class="edge">
<title>Node4&#45;&gt;Node10</title>
<path fill="none" stroke="midnightblue" d="M377.06,-497.82C518.83,-489 918.86,-464.12 1101.27,-452.77"/>
<polygon fill="midnightblue" stroke="midnightblue" points="1101.61,-456.25 1111.38,-452.14 1101.18,-449.27 1101.61,-456.25"/>
</g>
<!-- Node12 -->
<g id="node12" class="node">
<title>Node12</title>
<g id="a_node12"><a xlink:href="shp__handle_8hpp.html" target="_top" xlink:title=" ">
<polygon fill="white" stroke="black" points="1131.5,-308 1131.5,-327 1256.5,-327 1256.5,-308 1131.5,-308"/>
<text text-anchor="middle" x="1194" y="-315" font-family="Helvetica,sans-Serif" font-size="10.00">shpxx/shp_handle.hpp</text>
</a>
</g>
</g>
<!-- Node4&#45;&gt;Node12 -->
<g id="edge45" class="edge">
<title>Node4&#45;&gt;Node12</title>
<path fill="none" stroke="midnightblue" d="M377.16,-501.55C550.22,-502.97 1112.56,-503.7 1286,-456 1337,-441.97 1363.79,-445.35 1391,-400 1421.79,-348.68 1335.09,-329.68 1267.03,-322.64"/>
<polygon fill="midnightblue" stroke="midnightblue" points="1267.01,-319.12 1256.72,-321.65 1266.34,-326.09 1267.01,-319.12"/>
</g>
<!-- Node18 -->
<g id="node18" class="node">
<title>Node18</title>
<g id="a_node18"><a xlink:href="coordinate_8hpp.html" target="_top" xlink:title=" ">
<polygon fill="white" stroke="black" points="1667,-56.5 1667,-75.5 1789,-75.5 1789,-56.5 1667,-56.5"/>
<text text-anchor="middle" x="1728" y="-63.5" font-family="Helvetica,sans-Serif" font-size="10.00">shpxx/coordinate.hpp</text>
</a>
</g>
</g>
<!-- Node4&#45;&gt;Node18 -->
<g id="edge43" class="edge">
<title>Node4&#45;&gt;Node18</title>
<path fill="none" stroke="midnightblue" d="M377.07,-499.69C635.3,-492.73 1785,-457.68 1785,-385.5 1785,-385.5 1785,-385.5 1785,-182.5 1785,-143.78 1758.93,-104.6 1742.05,-83.3"/>
<polygon fill="midnightblue" stroke="midnightblue" points="1744.74,-81.06 1735.69,-75.56 1739.33,-85.51 1744.74,-81.06"/>
</g>
<!-- Node24 -->
<g id="node24" class="node">
<title>Node24</title>
<g id="a_node24"><a xlink:title=" ">
<polygon fill="white" stroke="#bfbfbf" points="298,-375 298,-394 354,-394 354,-375 298,-375"/>
<text text-anchor="middle" x="326" y="-382" font-family="Helvetica,sans-Serif" font-size="10.00">optional</text>
</a>
</g>
</g>
<!-- Node4&#45;&gt;Node24 -->
<g id="edge47" class="edge">
<title>Node4&#45;&gt;Node24</title>
<path fill="none" stroke="midnightblue" d="M326,-492.32C326,-473.76 326,-429.84 326,-404.47"/>
<polygon fill="midnightblue" stroke="midnightblue" points="329.5,-404.28 326,-394.28 322.5,-404.28 329.5,-404.28"/>
</g>
<!-- Node25 -->
<g id="node25" class="node">
<title>Node25</title>
<g id="a_node25"><a xlink:href="shpfile__impl_8hpp.html" target="_top" xlink:title=" ">
<polygon fill="white" stroke="black" points="452.5,-436.5 452.5,-455.5 581.5,-455.5 581.5,-436.5 452.5,-436.5"/>
<text text-anchor="middle" x="517" y="-443.5" font-family="Helvetica,sans-Serif" font-size="10.00">shpxx/shpfile_impl.hpp</text>
</a>
</g>
</g>
<!-- Node4&#45;&gt;Node25 -->
<g id="edge48" class="edge">
<title>Node4&#45;&gt;Node25</title>
<path fill="none" stroke="midnightblue" d="M351.18,-492.44C381.97,-483.16 434.34,-468.31 472.06,-458.13"/>
<polygon fill="midnightblue" stroke="midnightblue" points="473.04,-461.49 481.8,-455.52 471.23,-454.73 473.04,-461.49"/>
</g>
<!-- Node6 -->
<g id="node6" class="node">
<title>Node6</title>
<g id="a_node6"><a xlink:title=" ">
<polygon fill="white" stroke="#bfbfbf" points="1391,-56.5 1391,-75.5 1451,-75.5 1451,-56.5 1391,-56.5"/>
<text text-anchor="middle" x="1421" y="-63.5" font-family="Helvetica,sans-Serif" font-size="10.00">concepts</text>
</a>
</g>
</g>
<!-- Node5&#45;&gt;Node6 -->
<g id="edge5" class="edge">
<title>Node5&#45;&gt;Node6</title>
<path fill="none" stroke="midnightblue" d="M383.34,-302.27C387.89,-263.03 406.68,-153.44 477,-112 555.66,-65.65 1211.21,-65.88 1380.98,-66.73"/>
<polygon fill="midnightblue" stroke="midnightblue" points="1380.98,-70.23 1390.99,-66.78 1381.01,-63.23 1380.98,-70.23"/>
</g>
<!-- Node5&#45;&gt;Node7 -->
<g id="edge6" class="edge">
<title>Node5&#45;&gt;Node7</title>
<path fill="none" stroke="midnightblue" d="M392.85,-302.4C400.57,-292.36 410.97,-278.84 419.11,-268.25"/>
<polygon fill="midnightblue" stroke="midnightblue" points="421.99,-270.25 425.31,-260.19 416.44,-265.99 421.99,-270.25"/>
</g>
<!-- Node8&#45;&gt;Node6 -->
<g id="edge10" class="edge">
<title>Node8&#45;&gt;Node6</title>
<path fill="none" stroke="midnightblue" d="M241.64,-372.2C320.92,-359.28 439.65,-339.13 448,-333 481.02,-308.78 491,-292.45 491,-251.5 491,-251.5 491,-251.5 491,-182.5 491,-91.42 1202.49,-71.31 1380.84,-67.7"/>
<polygon fill="midnightblue" stroke="midnightblue" points="1380.92,-71.2 1390.85,-67.5 1380.78,-64.2 1380.92,-71.2"/>
</g>
<!-- Node8&#45;&gt;Node9 -->
<g id="edge8" class="edge">
<title>Node8&#45;&gt;Node9</title>
<path fill="none" stroke="midnightblue" d="M241.9,-370.96C246.66,-370.25 251.4,-369.59 256,-369 438.73,-345.54 655.11,-329.98 765.79,-322.89"/>
<polygon fill="midnightblue" stroke="midnightblue" points="766.08,-326.38 775.84,-322.26 765.64,-319.4 766.08,-326.38"/>
</g>
<!-- Node9&#45;&gt;Node7 -->
<g id="edge9" class="edge">
<title>Node9&#45;&gt;Node7</title>
<path fill="none" stroke="midnightblue" d="M785.37,-307.94C699.55,-294.23 533.93,-267.78 464.19,-256.64"/>
<polygon fill="midnightblue" stroke="midnightblue" points="464.66,-253.17 454.24,-255.05 463.56,-260.08 464.66,-253.17"/>
</g>
<!-- Node10&#45;&gt;Node6 -->
<g id="edge42" class="edge">
<title>Node10&#45;&gt;Node6</title>
<path fill="none" stroke="midnightblue" d="M1272.67,-436.49C1320.49,-429.59 1375.28,-418 1391,-400 1471.74,-307.57 1439.58,-140.67 1425.93,-85.36"/>
<polygon fill="midnightblue" stroke="midnightblue" points="1429.3,-84.39 1423.42,-75.58 1422.52,-86.13 1429.3,-84.39"/>
</g>
<!-- Node11 -->
<g id="node11" class="node">
<title>Node11</title>
<g id="a_node11"><a xlink:href="linestring_8hpp.html" target="_top" xlink:title=" ">
<polygon fill="white" stroke="black" points="762,-375 762,-394 916,-394 916,-375 762,-375"/>
<text text-anchor="middle" x="839" y="-382" font-family="Helvetica,sans-Serif" font-size="10.00">shpxx/feature/linestring.hpp</text>
</a>
</g>
</g>
<!-- Node10&#45;&gt;Node11 -->
<g id="edge12" class="edge">
<title>Node10&#45;&gt;Node11</title>
<path fill="none" stroke="midnightblue" d="M1143.14,-436.48C1078.95,-425.72 968.65,-407.23 900,-395.72"/>
<polygon fill="midnightblue" stroke="midnightblue" points="900.21,-392.21 889.77,-394.01 899.05,-399.11 900.21,-392.21"/>
</g>
<!-- Node14 -->
<g id="node14" class="node">
<title>Node14</title>
<g id="a_node14"><a xlink:href="multi__patch_8hpp.html" target="_top" xlink:title=" ">
<polygon fill="white" stroke="black" points="1137.5,-369.5 1137.5,-399.5 1250.5,-399.5 1250.5,-369.5 1137.5,-369.5"/>
<text text-anchor="start" x="1145.5" y="-387.5" font-family="Helvetica,sans-Serif" font-size="10.00">shpxx/feature/multi</text>
<text text-anchor="middle" x="1194" y="-376.5" font-family="Helvetica,sans-Serif" font-size="10.00">_patch.hpp</text>
</a>
</g>
</g>
<!-- Node10&#45;&gt;Node14 -->
<g id="edge16" class="edge">
<title>Node10&#45;&gt;Node14</title>
<path fill="none" stroke="midnightblue" d="M1194,-436.48C1194,-429.47 1194,-419.19 1194,-409.7"/>
<polygon fill="midnightblue" stroke="midnightblue" points="1197.5,-409.52 1194,-399.52 1190.5,-409.52 1197.5,-409.52"/>
</g>
<!-- Node15 -->
<g id="node15" class="node">
<title>Node15</title>
<g id="a_node15"><a xlink:href="multi__point_8hpp.html" target="_top" xlink:title=" ">
<polygon fill="white" stroke="black" points="1268.5,-369.5 1268.5,-399.5 1381.5,-399.5 1381.5,-369.5 1268.5,-369.5"/>
<text text-anchor="start" x="1276.5" y="-387.5" font-family="Helvetica,sans-Serif" font-size="10.00">shpxx/feature/multi</text>
<text text-anchor="middle" x="1325" y="-376.5" font-family="Helvetica,sans-Serif" font-size="10.00">_point.hpp</text>
</a>
</g>
</g>
<!-- Node10&#45;&gt;Node15 -->
<g id="edge19" class="edge">
<title>Node10&#45;&gt;Node15</title>
<path fill="none" stroke="midnightblue" d="M1212.77,-436.48C1231.51,-427.96 1260.89,-414.62 1284.89,-403.72"/>
<polygon fill="midnightblue" stroke="midnightblue" points="1286.47,-406.85 1294.13,-399.52 1283.57,-400.47 1286.47,-406.85"/>
</g>
<!-- Node16 -->
<g id="node16" class="node">
<title>Node16</title>
<g id="a_node16"><a xlink:href="point_8hpp.html" target="_top" xlink:title=" ">
<polygon fill="white" stroke="black" points="1476.5,-375 1476.5,-394 1609.5,-394 1609.5,-375 1476.5,-375"/>
<text text-anchor="middle" x="1543" y="-382" font-family="Helvetica,sans-Serif" font-size="10.00">shpxx/feature/point.hpp</text>
</a>
</g>
</g>
<!-- Node10&#45;&gt;Node16 -->
<g id="edge22" class="edge">
<title>Node10&#45;&gt;Node16</title>
<path fill="none" stroke="midnightblue" d="M1245.66,-436.5C1299.65,-427.57 1386.81,-413.04 1462,-400 1469.72,-398.66 1477.85,-397.23 1485.86,-395.81"/>
<polygon fill="midnightblue" stroke="midnightblue" points="1486.67,-399.22 1495.9,-394.02 1485.44,-392.33 1486.67,-399.22"/>
</g>
<!-- Node23 -->
<g id="node23" class="node">
<title>Node23</title>
<g id="a_node23"><a xlink:href="polygon_8hpp.html" target="_top" xlink:title=" ">
<polygon fill="white" stroke="black" points="972.5,-375 972.5,-394 1119.5,-394 1119.5,-375 972.5,-375"/>
<text text-anchor="middle" x="1046" y="-382" font-family="Helvetica,sans-Serif" font-size="10.00">shpxx/feature/polygon.hpp</text>
</a>
</g>
</g>
<!-- Node10&#45;&gt;Node23 -->
<g id="edge39" class="edge">
<title>Node10&#45;&gt;Node23</title>
<path fill="none" stroke="midnightblue" d="M1172.8,-436.48C1147.63,-426.36 1105.46,-409.4 1076.72,-397.85"/>
<polygon fill="midnightblue" stroke="midnightblue" points="1077.75,-394.49 1067.17,-394.01 1075.14,-400.99 1077.75,-394.49"/>
</g>
<!-- Node11&#45;&gt;Node9 -->
<g id="edge13" class="edge">
<title>Node11&#45;&gt;Node9</title>
<path fill="none" stroke="midnightblue" d="M839,-374.73C839,-365.18 839,-349.62 839,-337.28"/>
<polygon fill="midnightblue" stroke="midnightblue" points="842.5,-337.13 839,-327.13 835.5,-337.13 842.5,-337.13"/>
</g>
<!-- Node11&#45;&gt;Node12 -->
<g id="edge14" class="edge">
<title>Node11&#45;&gt;Node12</title>
<path fill="none" stroke="midnightblue" d="M885.78,-374.94C950.65,-363.06 1067.79,-341.61 1137.48,-328.85"/>
<polygon fill="midnightblue" stroke="midnightblue" points="1138.2,-332.28 1147.4,-327.03 1136.94,-325.39 1138.2,-332.28"/>
</g>
<!-- Node13 -->
<g id="node13" class="node">
<title>Node13</title>
<g id="a_node13"><a xlink:title=" ">
<polygon fill="white" stroke="#bfbfbf" points="1165,-241 1165,-260 1223,-260 1223,-241 1165,-241"/>
<text text-anchor="middle" x="1194" y="-248" font-family="Helvetica,sans-Serif" font-size="10.00">memory</text>
</a>
</g>
</g>
<!-- Node12&#45;&gt;Node13 -->
<g id="edge15" class="edge">
<title>Node12&#45;&gt;Node13</title>
<path fill="none" stroke="midnightblue" d="M1194,-307.73C1194,-298.18 1194,-282.62 1194,-270.28"/>
<polygon fill="midnightblue" stroke="midnightblue" points="1197.5,-270.13 1194,-260.13 1190.5,-270.13 1197.5,-270.13"/>
</g>
<!-- Node14&#45;&gt;Node9 -->
<g id="edge17" class="edge">
<title>Node14&#45;&gt;Node9</title>
<path fill="none" stroke="midnightblue" d="M1137.31,-370.69C1134.5,-370.11 1131.72,-369.54 1129,-369 1051.17,-353.55 961.07,-338.27 902.22,-328.63"/>
<polygon fill="midnightblue" stroke="midnightblue" points="902.76,-325.17 892.32,-327.01 901.63,-332.08 902.76,-325.17"/>
</g>
<!-- Node14&#45;&gt;Node12 -->
<g id="edge18" class="edge">
<title>Node14&#45;&gt;Node12</title>
<path fill="none" stroke="midnightblue" d="M1194,-369.4C1194,-360.06 1194,-347.71 1194,-337.52"/>
<polygon fill="midnightblue" stroke="midnightblue" points="1197.5,-337.19 1194,-327.19 1190.5,-337.19 1197.5,-337.19"/>
</g>
<!-- Node15&#45;&gt;Node9 -->
<g id="edge20" class="edge">
<title>Node15&#45;&gt;Node9</title>
<path fill="none" stroke="midnightblue" d="M1268.35,-370.51C1265.53,-369.98 1262.74,-369.47 1260,-369 1138.68,-348.24 996.24,-333.06 912.03,-325.02"/>
<polygon fill="midnightblue" stroke="midnightblue" points="912.34,-321.53 902.05,-324.08 911.68,-328.5 912.34,-321.53"/>
</g>
<!-- Node15&#45;&gt;Node12 -->
<g id="edge21" class="edge">
<title>Node15&#45;&gt;Node12</title>
<path fill="none" stroke="midnightblue" d="M1296.57,-369.4C1273.89,-358.14 1242.37,-342.5 1220.28,-331.54"/>
<polygon fill="midnightblue" stroke="midnightblue" points="1221.66,-328.32 1211.14,-327.01 1218.55,-334.59 1221.66,-328.32"/>
</g>
<!-- Node16&#45;&gt;Node9 -->
<g id="edge37" class="edge">
<title>Node16&#45;&gt;Node9</title>
<path fill="none" stroke="midnightblue" d="M1476.41,-377.09C1449.85,-374.55 1418.98,-371.61 1391,-369 1219.68,-352.99 1018.41,-334.71 912.59,-325.14"/>
<polygon fill="midnightblue" stroke="midnightblue" points="912.61,-321.63 902.34,-324.21 911.98,-328.6 912.61,-321.63"/>
</g>
<!-- Node16&#45;&gt;Node12 -->
<g id="edge38" class="edge">
<title>Node16&#45;&gt;Node12</title>
<path fill="none" stroke="midnightblue" d="M1497.02,-374.94C1433.37,-363.08 1318.55,-341.7 1249.99,-328.93"/>
<polygon fill="midnightblue" stroke="midnightblue" points="1250.28,-325.42 1239.81,-327.03 1249,-332.3 1250.28,-325.42"/>
</g>
<!-- Node17 -->
<g id="node17" class="node">
<title>Node17</title>
<g id="a_node17"><a xlink:href="is__coordinate_8hpp.html" target="_top" xlink:title=" ">
<polygon fill="white" stroke="black" points="1449,-112.5 1449,-131.5 1631,-131.5 1631,-112.5 1449,-112.5"/>
<text text-anchor="middle" x="1540" y="-119.5" font-family="Helvetica,sans-Serif" font-size="10.00">shpxx/concepts/is_coordinate.hpp</text>
</a>
</g>
</g>
<!-- Node16&#45;&gt;Node17 -->
<g id="edge23" class="edge">
<title>Node16&#45;&gt;Node17</title>
<path fill="none" stroke="midnightblue" d="M1531.34,-374.99C1520.11,-366 1503.85,-350.7 1497,-333 1484.34,-300.3 1471.28,-272.56 1509,-168 1512.74,-157.65 1519.45,-147.43 1525.68,-139.36"/>
<polygon fill="midnightblue" stroke="midnightblue" points="1528.46,-141.49 1532.09,-131.54 1523.04,-137.06 1528.46,-141.49"/>
</g>
<!-- Node16&#45;&gt;Node18 -->
<g id="edge27" class="edge">
<title>Node16&#45;&gt;Node18</title>
<path fill="none" stroke="midnightblue" d="M1588.78,-375C1648.93,-360.88 1747,-326.38 1747,-251.5 1747,-251.5 1747,-251.5 1747,-182.5 1747,-147.9 1738.6,-108.24 1732.97,-85.55"/>
<polygon fill="midnightblue" stroke="midnightblue" points="1736.29,-84.42 1730.41,-75.61 1729.51,-86.17 1736.29,-84.42"/>
</g>
<!-- Node20 -->
<g id="node20" class="node">
<title>Node20</title>
<g id="a_node20"><a xlink:href="coordinate__cast_8hpp.html" target="_top" xlink:title=" ">
<polygon fill="white" stroke="black" points="1505.5,-308 1505.5,-327 1652.5,-327 1652.5,-308 1505.5,-308"/>
<text text-anchor="middle" x="1579" y="-315" font-family="Helvetica,sans-Serif" font-size="10.00">shpxx/coordinate_cast.hpp</text>
</a>
</g>
</g>
<!-- Node16&#45;&gt;Node20 -->
<g id="edge28" class="edge">
<title>Node16&#45;&gt;Node20</title>
<path fill="none" stroke="midnightblue" d="M1547.86,-374.73C1553.31,-364.89 1562.3,-348.66 1569.22,-336.16"/>
<polygon fill="midnightblue" stroke="midnightblue" points="1572.44,-337.57 1574.22,-327.13 1566.31,-334.18 1572.44,-337.57"/>
</g>
<!-- Node17&#45;&gt;Node6 -->
<g id="edge26" class="edge">
<title>Node17&#45;&gt;Node6</title>
<path fill="none" stroke="midnightblue" d="M1521.14,-112.44C1501.73,-103.64 1471.27,-89.81 1449.04,-79.72"/>
<polygon fill="midnightblue" stroke="midnightblue" points="1450.32,-76.46 1439.77,-75.52 1447.43,-82.84 1450.32,-76.46"/>
</g>
<!-- Node17&#45;&gt;Node18 -->
<g id="edge24" class="edge">
<title>Node17&#45;&gt;Node18</title>
<path fill="none" stroke="midnightblue" d="M1569.79,-112.44C1601.83,-103.24 1652.93,-88.56 1688.35,-78.39"/>
<polygon fill="midnightblue" stroke="midnightblue" points="1689.71,-81.64 1698.35,-75.52 1687.77,-74.91 1689.71,-81.64"/>
</g>
<!-- Node19 -->
<g id="node19" class="node">
<title>Node19</title>
<g id="a_node19"><a xlink:title=" ">
<polygon fill="white" stroke="#bfbfbf" points="1704.5,-0.5 1704.5,-19.5 1751.5,-19.5 1751.5,-0.5 1704.5,-0.5"/>
<text text-anchor="middle" x="1728" y="-7.5" font-family="Helvetica,sans-Serif" font-size="10.00">cmath</text>
</a>
</g>
</g>
<!-- Node18&#45;&gt;Node19 -->
<g id="edge25" class="edge">
<title>Node18&#45;&gt;Node19</title>
<path fill="none" stroke="midnightblue" d="M1728,-56.08C1728,-49.01 1728,-38.86 1728,-29.99"/>
<polygon fill="midnightblue" stroke="midnightblue" points="1731.5,-29.75 1728,-19.75 1724.5,-29.75 1731.5,-29.75"/>
</g>
<!-- Node20&#45;&gt;Node17 -->
<g id="edge29" class="edge">
<title>Node20&#45;&gt;Node17</title>
<path fill="none" stroke="midnightblue" d="M1562.78,-307.99C1548.52,-299.49 1528.74,-284.98 1520,-266 1500.76,-224.2 1519.39,-168.83 1531.48,-140.83"/>
<polygon fill="midnightblue" stroke="midnightblue" points="1534.75,-142.08 1535.7,-131.53 1528.38,-139.19 1534.75,-142.08"/>
</g>
<!-- Node21 -->
<g id="node21" class="node">
<title>Node21</title>
<g id="a_node21"><a xlink:href="coordinate__cast__impl_8hpp.html" target="_top" xlink:title=" ">
<polygon fill="white" stroke="black" points="1529,-235.5 1529,-265.5 1655,-265.5 1655,-235.5 1529,-235.5"/>
<text text-anchor="start" x="1537" y="-253.5" font-family="Helvetica,sans-Serif" font-size="10.00">shpxx/coordinate_cast</text>
<text text-anchor="middle" x="1592" y="-242.5" font-family="Helvetica,sans-Serif" font-size="10.00">_impl.hpp</text>
</a>
</g>
</g>
<!-- Node20&#45;&gt;Node21 -->
<g id="edge30" class="edge">
<title>Node20&#45;&gt;Node21</title>
<path fill="none" stroke="midnightblue" d="M1575.96,-307.73C1575.88,-299.46 1577.86,-286.66 1580.69,-275.37"/>
<polygon fill="midnightblue" stroke="midnightblue" points="1584.1,-276.17 1583.51,-265.59 1577.38,-274.23 1584.1,-276.17"/>
</g>
<!-- Node21&#45;&gt;Node17 -->
<g id="edge34" class="edge">
<title>Node21&#45;&gt;Node17</title>
<path fill="none" stroke="midnightblue" d="M1580.8,-235.22C1573.66,-225.49 1564.7,-212.05 1559,-199 1550.85,-180.35 1545.74,-157.53 1542.89,-141.79"/>
<polygon fill="midnightblue" stroke="midnightblue" points="1546.31,-141.03 1541.21,-131.74 1539.41,-142.18 1546.31,-141.03"/>
</g>
<!-- Node21&#45;&gt;Node18 -->
<g id="edge35" class="edge">
<title>Node21&#45;&gt;Node18</title>
<path fill="none" stroke="midnightblue" d="M1636.72,-235.48C1655.57,-227.51 1676.27,-215.71 1690,-199 1717.28,-165.78 1724.98,-113.9 1727.15,-86.11"/>
<polygon fill="midnightblue" stroke="midnightblue" points="1730.67,-85.99 1727.79,-75.79 1723.68,-85.56 1730.67,-85.99"/>
</g>
<!-- Node21&#45;&gt;Node20 -->
<g id="edge36" class="edge">
<title>Node21&#45;&gt;Node20</title>
<path fill="none" stroke="midnightblue" d="M1594.86,-265.59C1594.21,-275.1 1591.83,-287.75 1588.84,-298.06"/>
<polygon fill="midnightblue" stroke="midnightblue" points="1585.46,-297.14 1585.54,-307.73 1592.08,-299.4 1585.46,-297.14"/>
</g>
<!-- Node22 -->
<g id="node22" class="node">
<title>Node22</title>
<g id="a_node22"><a xlink:href="has__zm_8hpp.html" target="_top" xlink:title=" ">
<polygon fill="white" stroke="black" points="1567.5,-168.5 1567.5,-198.5 1680.5,-198.5 1680.5,-168.5 1567.5,-168.5"/>
<text text-anchor="start" x="1575.5" y="-186.5" font-family="Helvetica,sans-Serif" font-size="10.00">shpxx/concepts/has</text>
<text text-anchor="middle" x="1624" y="-175.5" font-family="Helvetica,sans-Serif" font-size="10.00">_zm.hpp</text>
</a>
</g>
</g>
<!-- Node21&#45;&gt;Node22 -->
<g id="edge31" class="edge">
<title>Node21&#45;&gt;Node22</title>
<path fill="none" stroke="midnightblue" d="M1598.94,-235.4C1602.93,-227.3 1608.03,-216.94 1612.59,-207.69"/>
<polygon fill="midnightblue" stroke="midnightblue" points="1615.79,-209.09 1617.07,-198.58 1609.51,-206 1615.79,-209.09"/>
</g>
<!-- Node22&#45;&gt;Node6 -->
<g id="edge33" class="edge">
<title>Node22&#45;&gt;Node6</title>
<path fill="none" stroke="midnightblue" d="M1633.42,-168.47C1642.53,-153 1653.17,-128.15 1640,-112 1617.89,-84.88 1518.31,-73.64 1461.34,-69.36"/>
<polygon fill="midnightblue" stroke="midnightblue" points="1461.45,-65.86 1451.23,-68.64 1460.95,-72.85 1461.45,-65.86"/>
</g>
<!-- Node22&#45;&gt;Node17 -->
<g id="edge32" class="edge">
<title>Node22&#45;&gt;Node17</title>
<path fill="none" stroke="midnightblue" d="M1604.09,-168.4C1591.01,-159.13 1573.92,-147.03 1560.68,-137.65"/>
<polygon fill="midnightblue" stroke="midnightblue" points="1562.41,-134.58 1552.22,-131.66 1558.36,-140.29 1562.41,-134.58"/>
</g>
<!-- Node23&#45;&gt;Node9 -->
<g id="edge40" class="edge">
<title>Node23&#45;&gt;Node9</title>
<path fill="none" stroke="midnightblue" d="M1018.51,-374.87C981.83,-363.35 916.77,-342.92 875.87,-330.08"/>
<polygon fill="midnightblue" stroke="midnightblue" points="876.86,-326.72 866.27,-327.06 874.76,-333.4 876.86,-326.72"/>
</g>
<!-- Node23&#45;&gt;Node12 -->
<g id="edge41" class="edge">
<title>Node23&#45;&gt;Node12</title>
<path fill="none" stroke="midnightblue" d="M1065.65,-374.87C1091.09,-363.7 1135.6,-344.15 1164.95,-331.26"/>
<polygon fill="midnightblue" stroke="midnightblue" points="1166.52,-334.39 1174.27,-327.17 1163.7,-327.98 1166.52,-334.39"/>
</g>
<!-- Node25&#45;&gt;Node4 -->
<g id="edge54" class="edge">
<title>Node25&#45;&gt;Node4</title>
<path fill="none" stroke="midnightblue" d="M491.96,-455.52C461.22,-464.78 408.87,-479.63 371.1,-489.83"/>
<polygon fill="midnightblue" stroke="midnightblue" points="370.11,-486.47 361.35,-492.44 371.92,-493.23 370.11,-486.47"/>
</g>
<!-- Node25&#45;&gt;Node5 -->
<g id="edge49" class="edge">
<title>Node25&#45;&gt;Node5</title>
<path fill="none" stroke="midnightblue" d="M467.3,-436.46C444.4,-430.08 418.67,-419.03 402,-400 388.25,-384.3 383.63,-360.65 382.22,-342.86"/>
<polygon fill="midnightblue" stroke="midnightblue" points="385.71,-342.48 381.71,-332.67 378.71,-342.83 385.71,-342.48"/>
</g>
<!-- Node25&#45;&gt;Node9 -->
<g id="edge52" class="edge">
<title>Node25&#45;&gt;Node9</title>
<path fill="none" stroke="midnightblue" d="M525.83,-436.47C542.68,-420.67 581.24,-386.83 620,-369 666.2,-347.74 722.13,-335.04 765.91,-327.69"/>
<polygon fill="midnightblue" stroke="midnightblue" points="766.59,-331.13 775.9,-326.07 765.47,-324.22 766.59,-331.13"/>
</g>
<!-- Node25&#45;&gt;Node12 -->
<g id="edge53" class="edge">
<title>Node25&#45;&gt;Node12</title>
<path fill="none" stroke="midnightblue" d="M581.68,-442.23C680.63,-437.26 864.46,-424.94 925,-400 945.47,-391.57 944,-378.51 964,-369 1013.7,-345.37 1074.73,-332.62 1121.44,-325.85"/>
<polygon fill="midnightblue" stroke="midnightblue" points="1122.05,-329.3 1131.47,-324.46 1121.09,-322.37 1122.05,-329.3"/>
</g>
<!-- Node25&#45;&gt;Node24 -->
<g id="edge57" class="edge">
<title>Node25&#45;&gt;Node24</title>
<path fill="none" stroke="midnightblue" d="M487.49,-436.46C457.36,-427.65 409.27,-413.35 368,-400 365.41,-399.16 362.73,-398.28 360.04,-397.38"/>
<polygon fill="midnightblue" stroke="midnightblue" points="360.97,-394 350.38,-394.1 358.72,-400.63 360.97,-394"/>
</g>
<!-- Node26 -->
<g id="node26" class="node">
<title>Node26</title>
<g id="a_node26"><a xlink:href="exceptions_8hpp.html" target="_top" xlink:title=" ">
<polygon fill="white" stroke="black" points="410.5,-375 410.5,-394 533.5,-394 533.5,-375 410.5,-375"/>
<text text-anchor="middle" x="472" y="-382" font-family="Helvetica,sans-Serif" font-size="10.00">shpxx/exceptions.hpp</text>
</a>
</g>
</g>
<!-- Node25&#45;&gt;Node26 -->
<g id="edge50" class="edge">
<title>Node25&#45;&gt;Node26</title>
<path fill="none" stroke="midnightblue" d="M510.55,-436.48C503.8,-427.55 493.03,-413.31 484.59,-402.14"/>
<polygon fill="midnightblue" stroke="midnightblue" points="487.26,-399.87 478.44,-394.01 481.68,-404.1 487.26,-399.87"/>
</g>
<!-- Node27 -->
<g id="node27" class="node">
<title>Node27</title>
<g id="a_node27"><a xlink:title=" ">
<polygon fill="white" stroke="#bfbfbf" points="524.5,-308 524.5,-327 589.5,-327 589.5,-308 524.5,-308"/>
<text text-anchor="middle" x="557" y="-315" font-family="Helvetica,sans-Serif" font-size="10.00">stdexcept</text>
</a>
</g>
</g>
<!-- Node25&#45;&gt;Node27 -->
<g id="edge58" class="edge">
<title>Node25&#45;&gt;Node27</title>
<path fill="none" stroke="midnightblue" d="M523.16,-436.49C529.16,-427.76 538.09,-413.58 543,-400 550.46,-379.38 554,-354.35 555.64,-337.51"/>
<polygon fill="midnightblue" stroke="midnightblue" points="559.15,-337.58 556.5,-327.32 552.18,-336.99 559.15,-337.58"/>
</g>
<!-- Node28 -->
<g id="node28" class="node">
<title>Node28</title>
<g id="a_node28"><a xlink:title=" ">
<polygon fill="white" stroke="#bfbfbf" points="628.5,-375 628.5,-394 681.5,-394 681.5,-375 628.5,-375"/>
<text text-anchor="middle" x="655" y="-382" font-family="Helvetica,sans-Serif" font-size="10.00">cstddef</text>
</a>
</g>
</g>
<!-- Node25&#45;&gt;Node28 -->
<g id="edge55" class="edge">
<title>Node25&#45;&gt;Node28</title>
<path fill="none" stroke="midnightblue" d="M536.77,-436.48C560.14,-426.4 599.21,-409.55 626,-398"/>
<polygon fill="midnightblue" stroke="midnightblue" points="627.47,-401.18 635.26,-394.01 624.7,-394.75 627.47,-401.18"/>
</g>
<!-- Node29 -->
<g id="node29" class="node">
<title>Node29</title>
<g id="a_node29"><a xlink:title=" ">
<polygon fill="white" stroke="#bfbfbf" points="700,-375 700,-394 744,-394 744,-375 700,-375"/>
<text text-anchor="middle" x="722" y="-382" font-family="Helvetica,sans-Serif" font-size="10.00">limits</text>
</a>
</g>
</g>
<!-- Node25&#45;&gt;Node29 -->
<g id="edge56" class="edge">
<title>Node25&#45;&gt;Node29</title>
<path fill="none" stroke="midnightblue" d="M558.78,-436.47C594.44,-428.65 646.81,-415.89 691,-400 692.61,-399.42 694.26,-398.79 695.91,-398.12"/>
<polygon fill="midnightblue" stroke="midnightblue" points="697.43,-401.27 705.18,-394.05 694.62,-394.86 697.43,-401.27"/>
</g>
<!-- Node26&#45;&gt;Node27 -->
<g id="edge51" class="edge">
<title>Node26&#45;&gt;Node27</title>
<path fill="none" stroke="midnightblue" d="M483.46,-374.73C497.36,-364.11 520.98,-346.05 537.69,-333.26"/>
<polygon fill="midnightblue" stroke="midnightblue" points="539.9,-335.98 545.72,-327.13 535.65,-330.42 539.9,-335.98"/>
</g>
</g>
</svg>
