<?xml version="1.0" encoding="UTF-8" standalone="no"?>
<!DOCTYPE svg PUBLIC "-//W3C//DTD SVG 1.1//EN"
 "http://www.w3.org/Graphics/SVG/1.1/DTD/svg11.dtd">
<!-- Generated by graphviz version 2.43.0 (0)
 -->
<!-- Title: /home/runner/work/shpxx/shpxx/src/io/file_handler.cpp Pages: 1 -->
<svg width="487pt" height="263pt"
 viewBox="0.00 0.00 486.50 263.00" xmlns="http://www.w3.org/2000/svg" xmlns:xlink="http://www.w3.org/1999/xlink">
<g id="graph0" class="graph" transform="scale(1 1) rotate(0) translate(4 259)">
<title>/home/runner/work/shpxx/shpxx/src/io/file_handler.cpp</title>
<polygon fill="white" stroke="transparent" points="-4,4 -4,-259 482.5,-259 482.5,4 -4,4"/>
<!-- Node1 -->
<g id="node1" class="node">
<title>Node1</title>
<g id="a_node1"><a xlink:title=" ">
<polygon fill="#bfbfbf" stroke="black" points="130,-224.5 130,-254.5 288,-254.5 288,-224.5 130,-224.5"/>
<text text-anchor="start" x="138" y="-242.5" font-family="Helvetica,sans-Serif" font-size="10.00">/home/runner/work/shpxx</text>
<text text-anchor="middle" x="209" y="-231.5" font-family="Helvetica,sans-Serif" font-size="10.00">/shpxx/src/io/file_handler.cpp</text>
</a>
</g>
</g>
<!-- Node2 -->
<g id="node2" class="node">
<title>Node2</title>
<g id="a_node2"><a xlink:href="file__handler_8hpp.html" target="_top" xlink:title=" ">
<polygon fill="white" stroke="black" points="200,-168.5 200,-187.5 294,-187.5 294,-168.5 200,-168.5"/>
<text text-anchor="middle" x="247" y="-175.5" font-family="Helvetica,sans-Serif" font-size="10.00">file_handler.hpp</text>
</a>
</g>
</g>
<!-- Node1&#45;&gt;Node2 -->
<g id="edge1" class="edge">
<title>Node1&#45;&gt;Node2</title>
<path fill="none" stroke="midnightblue" d="M218.01,-224.4C223.41,-215.93 230.33,-205.1 236.05,-196.14"/>
<polygon fill="midnightblue" stroke="midnightblue" points="239.04,-197.97 241.47,-187.66 233.14,-194.2 239.04,-197.97"/>
</g>
<!-- Node4 -->
<g id="node4" class="node">
<title>Node4</title>
<g id="a_node4"><a xlink:href="openmode_8hpp.html" target="_top" xlink:title=" ">
<polygon fill="white" stroke="black" points="0,-56.5 0,-75.5 134,-75.5 134,-56.5 0,-56.5"/>
<text text-anchor="middle" x="67" y="-63.5" font-family="Helvetica,sans-Serif" font-size="10.00">shpxx/io/openmode.hpp</text>
</a>
</g>
</g>
<!-- Node1&#45;&gt;Node4 -->
<g id="edge14" class="edge">
<title>Node1&#45;&gt;Node4</title>
<path fill="none" stroke="midnightblue" d="M187.82,-224.32C161.73,-205.87 117.61,-171.3 91,-132 81.32,-117.69 74.94,-98.98 71.22,-85.31"/>
<polygon fill="midnightblue" stroke="midnightblue" points="74.61,-84.46 68.78,-75.61 67.82,-86.16 74.61,-84.46"/>
</g>
<!-- Node10 -->
<g id="node10" class="node">
<title>Node10</title>
<g id="a_node10"><a xlink:href="openmode__internal_8hpp.html" target="_top" xlink:title=" ">
<polygon fill="white" stroke="black" points="100,-112.5 100,-131.5 244,-131.5 244,-112.5 100,-112.5"/>
<text text-anchor="middle" x="172" y="-119.5" font-family="Helvetica,sans-Serif" font-size="10.00">io/openmode_internal.hpp</text>
</a>
</g>
</g>
<!-- Node1&#45;&gt;Node10 -->
<g id="edge9" class="edge">
<title>Node1&#45;&gt;Node10</title>
<path fill="none" stroke="midnightblue" d="M203.74,-224.43C200.02,-214.34 195.02,-200.4 191,-188 185.96,-172.45 180.79,-154.61 177.12,-141.56"/>
<polygon fill="midnightblue" stroke="midnightblue" points="180.48,-140.58 174.42,-131.88 173.73,-142.45 180.48,-140.58"/>
</g>
<!-- Node12 -->
<g id="node12" class="node">
<title>Node12</title>
<g id="a_node12"><a xlink:title=" ">
<polygon fill="white" stroke="#bfbfbf" points="312.5,-168.5 312.5,-187.5 367.5,-187.5 367.5,-168.5 312.5,-168.5"/>
<text text-anchor="middle" x="340" y="-175.5" font-family="Helvetica,sans-Serif" font-size="10.00">fstream</text>
</a>
</g>
</g>
<!-- Node1&#45;&gt;Node12 -->
<g id="edge15" class="edge">
<title>Node1&#45;&gt;Node12</title>
<path fill="none" stroke="midnightblue" d="M240.05,-224.4C261.73,-214.55 290.46,-201.5 311.55,-191.92"/>
<polygon fill="midnightblue" stroke="midnightblue" points="313.28,-194.98 320.94,-187.66 310.39,-188.61 313.28,-194.98"/>
</g>
<!-- Node3 -->
<g id="node3" class="node">
<title>Node3</title>
<g id="a_node3"><a xlink:href="io__handler__concept_8hpp.html" target="_top" xlink:title=" ">
<polygon fill="white" stroke="black" points="262,-112.5 262,-131.5 406,-131.5 406,-112.5 262,-112.5"/>
<text text-anchor="middle" x="334" y="-119.5" font-family="Helvetica,sans-Serif" font-size="10.00">io/io_handler_concept.hpp</text>
</a>
</g>
</g>
<!-- Node2&#45;&gt;Node3 -->
<g id="edge2" class="edge">
<title>Node2&#45;&gt;Node3</title>
<path fill="none" stroke="midnightblue" d="M260.98,-168.32C274.55,-159.9 295.38,-146.97 311.32,-137.07"/>
<polygon fill="midnightblue" stroke="midnightblue" points="313.41,-139.9 320.06,-131.65 309.71,-133.95 313.41,-139.9"/>
</g>
<!-- Node3&#45;&gt;Node4 -->
<g id="edge3" class="edge">
<title>Node3&#45;&gt;Node4</title>
<path fill="none" stroke="midnightblue" d="M291.69,-112.44C244.92,-102.98 169.54,-87.74 119.15,-77.55"/>
<polygon fill="midnightblue" stroke="midnightblue" points="119.6,-74.07 109.11,-75.52 118.22,-80.93 119.6,-74.07"/>
</g>
<!-- Node6 -->
<g id="node6" class="node">
<title>Node6</title>
<g id="a_node6"><a xlink:title=" ">
<polygon fill="white" stroke="#bfbfbf" points="355,-56.5 355,-75.5 415,-75.5 415,-56.5 355,-56.5"/>
<text text-anchor="middle" x="385" y="-63.5" font-family="Helvetica,sans-Serif" font-size="10.00">concepts</text>
</a>
</g>
</g>
<!-- Node3&#45;&gt;Node6 -->
<g id="edge5" class="edge">
<title>Node3&#45;&gt;Node6</title>
<path fill="none" stroke="midnightblue" d="M342.42,-112.08C349.85,-104.22 360.85,-92.57 369.81,-83.08"/>
<polygon fill="midnightblue" stroke="midnightblue" points="372.41,-85.42 376.74,-75.75 367.32,-80.62 372.41,-85.42"/>
</g>
<!-- Node7 -->
<g id="node7" class="node">
<title>Node7</title>
<g id="a_node7"><a xlink:title=" ">
<polygon fill="white" stroke="#bfbfbf" points="214.5,-56.5 214.5,-75.5 245.5,-75.5 245.5,-56.5 214.5,-56.5"/>
<text text-anchor="middle" x="230" y="-63.5" font-family="Helvetica,sans-Serif" font-size="10.00">ios</text>
</a>
</g>
</g>
<!-- Node3&#45;&gt;Node7 -->
<g id="edge6" class="edge">
<title>Node3&#45;&gt;Node7</title>
<path fill="none" stroke="midnightblue" d="M317.29,-112.32C300.39,-103.55 274.08,-89.89 254.76,-79.86"/>
<polygon fill="midnightblue" stroke="midnightblue" points="256.14,-76.63 245.65,-75.12 252.91,-82.84 256.14,-76.63"/>
</g>
<!-- Node8 -->
<g id="node8" class="node">
<title>Node8</title>
<g id="a_node8"><a xlink:title=" ">
<polygon fill="white" stroke="#bfbfbf" points="263.5,-56.5 263.5,-75.5 336.5,-75.5 336.5,-56.5 263.5,-56.5"/>
<text text-anchor="middle" x="300" y="-63.5" font-family="Helvetica,sans-Serif" font-size="10.00">string_view</text>
</a>
</g>
</g>
<!-- Node3&#45;&gt;Node8 -->
<g id="edge7" class="edge">
<title>Node3&#45;&gt;Node8</title>
<path fill="none" stroke="midnightblue" d="M328.39,-112.08C323.63,-104.53 316.68,-93.49 310.85,-84.23"/>
<polygon fill="midnightblue" stroke="midnightblue" points="313.8,-82.35 305.51,-75.75 307.88,-86.08 313.8,-82.35"/>
</g>
<!-- Node9 -->
<g id="node9" class="node">
<title>Node9</title>
<g id="a_node9"><a xlink:title=" ">
<polygon fill="white" stroke="#bfbfbf" points="433.5,-56.5 433.5,-75.5 478.5,-75.5 478.5,-56.5 433.5,-56.5"/>
<text text-anchor="middle" x="456" y="-63.5" font-family="Helvetica,sans-Serif" font-size="10.00">utility</text>
</a>
</g>
</g>
<!-- Node3&#45;&gt;Node9 -->
<g id="edge8" class="edge">
<title>Node3&#45;&gt;Node9</title>
<path fill="none" stroke="midnightblue" d="M353.33,-112.44C373.32,-103.6 404.74,-89.69 427.56,-79.59"/>
<polygon fill="midnightblue" stroke="midnightblue" points="429.03,-82.76 436.76,-75.52 426.2,-76.36 429.03,-82.76"/>
</g>
<!-- Node5 -->
<g id="node5" class="node">
<title>Node5</title>
<g id="a_node5"><a xlink:title=" ">
<polygon fill="white" stroke="#bfbfbf" points="42,-0.5 42,-19.5 92,-19.5 92,-0.5 42,-0.5"/>
<text text-anchor="middle" x="67" y="-7.5" font-family="Helvetica,sans-Serif" font-size="10.00">cstdint</text>
</a>
</g>
</g>
<!-- Node4&#45;&gt;Node5 -->
<g id="edge4" class="edge">
<title>Node4&#45;&gt;Node5</title>
<path fill="none" stroke="midnightblue" d="M67,-56.08C67,-49.01 67,-38.86 67,-29.99"/>
<polygon fill="midnightblue" stroke="midnightblue" points="70.5,-29.75 67,-19.75 63.5,-29.75 70.5,-29.75"/>
</g>
<!-- Node10&#45;&gt;Node4 -->
<g id="edge10" class="edge">
<title>Node10&#45;&gt;Node4</title>
<path fill="none" stroke="midnightblue" d="M155.13,-112.32C138.29,-103.66 112.19,-90.24 92.76,-80.25"/>
<polygon fill="midnightblue" stroke="midnightblue" points="94.32,-77.12 83.83,-75.65 91.12,-83.34 94.32,-77.12"/>
</g>
<!-- Node10&#45;&gt;Node7 -->
<g id="edge11" class="edge">
<title>Node10&#45;&gt;Node7</title>
<path fill="none" stroke="midnightblue" d="M181.32,-112.32C189.89,-104.34 202.81,-92.31 213.19,-82.65"/>
<polygon fill="midnightblue" stroke="midnightblue" points="215.58,-85.21 220.51,-75.83 210.81,-80.09 215.58,-85.21"/>
</g>
<!-- Node10&#45;&gt;Node8 -->
<g id="edge13" class="edge">
<title>Node10&#45;&gt;Node8</title>
<path fill="none" stroke="midnightblue" d="M192.28,-112.44C213.35,-103.56 246.52,-89.56 270.49,-79.45"/>
<polygon fill="midnightblue" stroke="midnightblue" points="271.96,-82.63 279.81,-75.52 269.24,-76.18 271.96,-82.63"/>
</g>
<!-- Node11 -->
<g id="node11" class="node">
<title>Node11</title>
<g id="a_node11"><a xlink:title=" ">
<polygon fill="white" stroke="#bfbfbf" points="152,-56.5 152,-75.5 196,-75.5 196,-56.5 152,-56.5"/>
<text text-anchor="middle" x="174" y="-63.5" font-family="Helvetica,sans-Serif" font-size="10.00">string</text>
</a>
</g>
</g>
<!-- Node10&#45;&gt;Node11 -->
<g id="edge12" class="edge">
<title>Node10&#45;&gt;Node11</title>
<path fill="none" stroke="midnightblue" d="M172.33,-112.08C172.59,-105.01 172.97,-94.86 173.3,-85.99"/>
<polygon fill="midnightblue" stroke="midnightblue" points="176.8,-85.87 173.68,-75.75 169.81,-85.61 176.8,-85.87"/>
</g>
</g>
</svg>
