<?xml version="1.0" encoding="UTF-8" standalone="no"?>
<!DOCTYPE svg PUBLIC "-//W3C//DTD SVG 1.1//EN"
 "http://www.w3.org/Graphics/SVG/1.1/DTD/svg11.dtd">
<!-- Generated by graphviz version 2.43.0 (0)
 -->
<!-- Title: /home/runner/work/shpxx/shpxx/src/io/file.cpp Pages: 1 -->
<svg width="2309pt" height="643pt"
 viewBox="0.00 0.00 2309.00 643.00" xmlns="http://www.w3.org/2000/svg" xmlns:xlink="http://www.w3.org/1999/xlink">
<g id="graph0" class="graph" transform="scale(1 1) rotate(0) translate(4 639)">
<title>/home/runner/work/shpxx/shpxx/src/io/file.cpp</title>
<polygon fill="white" stroke="transparent" points="-4,4 -4,-639 2305,-639 2305,4 -4,4"/>
<!-- Node1 -->
<g id="node1" class="node">
<title>Node1</title>
<g id="a_node1"><a xlink:title=" ">
<polygon fill="#bfbfbf" stroke="black" points="1549.5,-604.5 1549.5,-634.5 1690.5,-634.5 1690.5,-604.5 1549.5,-604.5"/>
<text text-anchor="start" x="1557.5" y="-622.5" font-family="Helvetica,sans-Serif" font-size="10.00">/home/runner/work/shpxx</text>
<text text-anchor="middle" x="1620" y="-611.5" font-family="Helvetica,sans-Serif" font-size="10.00">/shpxx/src/io/file.cpp</text>
</a>
</g>
</g>
<!-- Node2 -->
<g id="node2" class="node">
<title>Node2</title>
<g id="a_node2"><a xlink:href="file_8hpp.html" target="_top" xlink:title=" ">
<polygon fill="white" stroke="black" points="1571.5,-548.5 1571.5,-567.5 1668.5,-567.5 1668.5,-548.5 1571.5,-548.5"/>
<text text-anchor="middle" x="1620" y="-555.5" font-family="Helvetica,sans-Serif" font-size="10.00">shpxx/io/file.hpp</text>
</a>
</g>
</g>
<!-- Node1&#45;&gt;Node2 -->
<g id="edge1" class="edge">
<title>Node1&#45;&gt;Node2</title>
<path fill="none" stroke="midnightblue" d="M1620,-604.4C1620,-596.47 1620,-586.46 1620,-577.86"/>
<polygon fill="midnightblue" stroke="midnightblue" points="1623.5,-577.66 1620,-567.66 1616.5,-577.66 1623.5,-577.66"/>
</g>
<!-- Node13 -->
<g id="node13" class="node">
<title>Node13</title>
<g id="a_node13"><a xlink:href="shp__handle_8hpp.html" target="_top" xlink:title=" ">
<polygon fill="white" stroke="black" points="330.5,-308 330.5,-327 455.5,-327 455.5,-308 330.5,-308"/>
<text text-anchor="middle" x="393" y="-315" font-family="Helvetica,sans-Serif" font-size="10.00">shpxx/shp_handle.hpp</text>
</a>
</g>
</g>
<!-- Node1&#45;&gt;Node13 -->
<g id="edge87" class="edge">
<title>Node1&#45;&gt;Node13</title>
<path fill="none" stroke="midnightblue" d="M1549.28,-616.52C1261.55,-608 194,-571.77 194,-503 194,-503 194,-503 194,-445 194,-377.37 276.86,-344.35 335.65,-329.43"/>
<polygon fill="midnightblue" stroke="midnightblue" points="336.69,-332.78 345.59,-327.02 335.04,-325.98 336.69,-332.78"/>
</g>
<!-- Node27 -->
<g id="node27" class="node">
<title>Node27</title>
<g id="a_node27"><a xlink:href="exceptions_8hpp.html" target="_top" xlink:title=" ">
<polygon fill="white" stroke="black" points="1460.5,-375 1460.5,-394 1583.5,-394 1583.5,-375 1460.5,-375"/>
<text text-anchor="middle" x="1522" y="-382" font-family="Helvetica,sans-Serif" font-size="10.00">shpxx/exceptions.hpp</text>
</a>
</g>
</g>
<!-- Node1&#45;&gt;Node27 -->
<g id="edge86" class="edge">
<title>Node1&#45;&gt;Node27</title>
<path fill="none" stroke="midnightblue" d="M1549.15,-615C1515.86,-609.35 1478.95,-596.48 1458,-568 1418.93,-514.9 1477.45,-435.89 1506.84,-401.95"/>
<polygon fill="midnightblue" stroke="midnightblue" points="1509.57,-404.14 1513.6,-394.34 1504.34,-399.49 1509.57,-404.14"/>
</g>
<!-- Node31 -->
<g id="node31" class="node">
<title>Node31</title>
<g id="a_node31"><a xlink:href="file__handler_8hpp.html" target="_top" xlink:title=" ">
<polygon fill="white" stroke="black" points="1999,-548.5 1999,-567.5 2105,-567.5 2105,-548.5 1999,-548.5"/>
<text text-anchor="middle" x="2052" y="-555.5" font-family="Helvetica,sans-Serif" font-size="10.00">io/file_handler.hpp</text>
</a>
</g>
</g>
<!-- Node1&#45;&gt;Node31 -->
<g id="edge61" class="edge">
<title>Node1&#45;&gt;Node31</title>
<path fill="none" stroke="midnightblue" d="M1690.85,-608.74C1773.55,-597.35 1909.08,-578.68 1988.49,-567.75"/>
<polygon fill="midnightblue" stroke="midnightblue" points="1989.41,-571.15 1998.84,-566.32 1988.46,-564.22 1989.41,-571.15"/>
</g>
<!-- Node36 -->
<g id="node36" class="node">
<title>Node36</title>
<g id="a_node36"><a xlink:href="safile__wrapper_8hpp.html" target="_top" xlink:title=" ">
<polygon fill="white" stroke="black" points="1751,-548.5 1751,-567.5 1871,-567.5 1871,-548.5 1751,-548.5"/>
<text text-anchor="middle" x="1811" y="-555.5" font-family="Helvetica,sans-Serif" font-size="10.00">io/safile_wrapper.hpp</text>
</a>
</g>
</g>
<!-- Node1&#45;&gt;Node36 -->
<g id="edge68" class="edge">
<title>Node1&#45;&gt;Node36</title>
<path fill="none" stroke="midnightblue" d="M1665.26,-604.4C1698.41,-594.07 1742.85,-580.23 1773.9,-570.56"/>
<polygon fill="midnightblue" stroke="midnightblue" points="1774.98,-573.89 1783.49,-567.57 1772.9,-567.2 1774.98,-573.89"/>
</g>
<!-- Node38 -->
<g id="node38" class="node">
<title>Node38</title>
<g id="a_node38"><a xlink:title=" ">
<polygon fill="white" stroke="#bfbfbf" points="1505,-492.5 1505,-511.5 1569,-511.5 1569,-492.5 1505,-492.5"/>
<text text-anchor="middle" x="1537" y="-499.5" font-family="Helvetica,sans-Serif" font-size="10.00">shapefil.h</text>
</a>
</g>
</g>
<!-- Node1&#45;&gt;Node38 -->
<g id="edge88" class="edge">
<title>Node1&#45;&gt;Node38</title>
<path fill="none" stroke="midnightblue" d="M1645.49,-604.31C1667.22,-590.34 1692.77,-568.22 1678,-548 1671.93,-539.7 1618.33,-524.18 1579.01,-513.72"/>
<polygon fill="midnightblue" stroke="midnightblue" points="1579.66,-510.28 1569.1,-511.12 1577.88,-517.05 1579.66,-510.28"/>
</g>
<!-- Node41 -->
<g id="node41" class="node">
<title>Node41</title>
<g id="a_node41"><a xlink:href="shp__casts_8hpp.html" target="_top" xlink:title=" ">
<polygon fill="white" stroke="black" points="1467,-548.5 1467,-567.5 1553,-567.5 1553,-548.5 1467,-548.5"/>
<text text-anchor="middle" x="1510" y="-555.5" font-family="Helvetica,sans-Serif" font-size="10.00">shp_casts.hpp</text>
</a>
</g>
</g>
<!-- Node1&#45;&gt;Node41 -->
<g id="edge83" class="edge">
<title>Node1&#45;&gt;Node41</title>
<path fill="none" stroke="midnightblue" d="M1593.93,-604.4C1576.13,-594.77 1552.69,-582.09 1535.1,-572.58"/>
<polygon fill="midnightblue" stroke="midnightblue" points="1536.47,-569.34 1526.01,-567.66 1533.14,-575.49 1536.47,-569.34"/>
</g>
<!-- Node3 -->
<g id="node3" class="node">
<title>Node3</title>
<g id="a_node3"><a xlink:href="openmode_8hpp.html" target="_top" xlink:title=" ">
<polygon fill="white" stroke="black" points="1750,-436.5 1750,-455.5 1884,-455.5 1884,-436.5 1750,-436.5"/>
<text text-anchor="middle" x="1817" y="-443.5" font-family="Helvetica,sans-Serif" font-size="10.00">shpxx/io/openmode.hpp</text>
</a>
</g>
</g>
<!-- Node2&#45;&gt;Node3 -->
<g id="edge2" class="edge">
<title>Node2&#45;&gt;Node3</title>
<path fill="none" stroke="midnightblue" d="M1632.26,-548.48C1651.11,-535.54 1688.55,-510.49 1722,-492 1743.49,-480.12 1768.63,-468.3 1787.65,-459.76"/>
<polygon fill="midnightblue" stroke="midnightblue" points="1789.27,-462.87 1796.99,-455.6 1786.43,-456.47 1789.27,-462.87"/>
</g>
<!-- Node5 -->
<g id="node5" class="node">
<title>Node5</title>
<g id="a_node5"><a xlink:href="shpfile_8hpp.html" target="_top" xlink:title=" ">
<polygon fill="white" stroke="black" points="1167,-492.5 1167,-511.5 1269,-511.5 1269,-492.5 1167,-492.5"/>
<text text-anchor="middle" x="1218" y="-499.5" font-family="Helvetica,sans-Serif" font-size="10.00">shpxx/shpfile.hpp</text>
</a>
</g>
</g>
<!-- Node2&#45;&gt;Node5 -->
<g id="edge4" class="edge">
<title>Node2&#45;&gt;Node5</title>
<path fill="none" stroke="midnightblue" d="M1571.28,-549.35C1568.14,-548.89 1565.03,-548.43 1562,-548 1463.18,-533.87 1348.12,-519.17 1279.28,-510.57"/>
<polygon fill="midnightblue" stroke="midnightblue" points="1279.41,-507.06 1269.05,-509.29 1278.54,-514 1279.41,-507.06"/>
</g>
<!-- Node8 -->
<g id="node8" class="node">
<title>Node8</title>
<g id="a_node8"><a xlink:title=" ">
<polygon fill="white" stroke="#bfbfbf" points="1412,-241 1412,-260 1456,-260 1456,-241 1412,-241"/>
<text text-anchor="middle" x="1434" y="-248" font-family="Helvetica,sans-Serif" font-size="10.00">string</text>
</a>
</g>
</g>
<!-- Node2&#45;&gt;Node8 -->
<g id="edge60" class="edge">
<title>Node2&#45;&gt;Node8</title>
<path fill="none" stroke="midnightblue" d="M1582.71,-548.46C1550.06,-540.14 1506.25,-526.63 1496,-512 1490.9,-504.72 1492.49,-500.17 1496,-492 1519.46,-437.41 1569.54,-454.59 1593,-400 1598.44,-387.34 1596.59,-382.3 1593,-369 1584.02,-335.73 1579.88,-324.74 1554,-302 1528.67,-279.74 1492.11,-266.27 1466.01,-258.91"/>
<polygon fill="midnightblue" stroke="midnightblue" points="1466.78,-255.5 1456.22,-256.3 1464.97,-262.26 1466.78,-255.5"/>
</g>
<!-- Node4 -->
<g id="node4" class="node">
<title>Node4</title>
<g id="a_node4"><a xlink:title=" ">
<polygon fill="white" stroke="#bfbfbf" points="1792,-375 1792,-394 1842,-394 1842,-375 1792,-375"/>
<text text-anchor="middle" x="1817" y="-382" font-family="Helvetica,sans-Serif" font-size="10.00">cstdint</text>
</a>
</g>
</g>
<!-- Node3&#45;&gt;Node4 -->
<g id="edge3" class="edge">
<title>Node3&#45;&gt;Node4</title>
<path fill="none" stroke="midnightblue" d="M1817,-436.48C1817,-428.08 1817,-414.98 1817,-404.16"/>
<polygon fill="midnightblue" stroke="midnightblue" points="1820.5,-404.01 1817,-394.01 1813.5,-404.01 1820.5,-404.01"/>
</g>
<!-- Node5&#45;&gt;Node4 -->
<g id="edge47" class="edge">
<title>Node5&#45;&gt;Node4</title>
<path fill="none" stroke="midnightblue" d="M1262.53,-492.41C1376.82,-470.38 1678.74,-412.16 1781.88,-392.27"/>
<polygon fill="midnightblue" stroke="midnightblue" points="1782.63,-395.69 1791.79,-390.36 1781.31,-388.82 1782.63,-395.69"/>
</g>
<!-- Node6 -->
<g id="node6" class="node">
<title>Node6</title>
<g id="a_node6"><a xlink:href="has__class__name_8hpp.html" target="_top" xlink:title=" ">
<polygon fill="white" stroke="black" points="1268.5,-302.5 1268.5,-332.5 1381.5,-332.5 1381.5,-302.5 1268.5,-302.5"/>
<text text-anchor="start" x="1276.5" y="-320.5" font-family="Helvetica,sans-Serif" font-size="10.00">shpxx/concepts/has</text>
<text text-anchor="middle" x="1325" y="-309.5" font-family="Helvetica,sans-Serif" font-size="10.00">_class_name.hpp</text>
</a>
</g>
</g>
<!-- Node5&#45;&gt;Node6 -->
<g id="edge5" class="edge">
<title>Node5&#45;&gt;Node6</title>
<path fill="none" stroke="midnightblue" d="M1220.48,-492.42C1227.04,-470.54 1246.36,-411.41 1275,-369 1282.16,-358.4 1291.71,-348.11 1300.55,-339.61"/>
<polygon fill="midnightblue" stroke="midnightblue" points="1303.11,-342.01 1308.06,-332.64 1298.35,-336.88 1303.11,-342.01"/>
</g>
<!-- Node9 -->
<g id="node9" class="node">
<title>Node9</title>
<g id="a_node9"><a xlink:href="has__compatibility__check_8hpp.html" target="_top" xlink:title=" ">
<polygon fill="white" stroke="black" points="1048.5,-369.5 1048.5,-399.5 1189.5,-399.5 1189.5,-369.5 1048.5,-369.5"/>
<text text-anchor="start" x="1056.5" y="-387.5" font-family="Helvetica,sans-Serif" font-size="10.00">shpxx/concepts/has</text>
<text text-anchor="middle" x="1119" y="-376.5" font-family="Helvetica,sans-Serif" font-size="10.00">_compatibility_check.hpp</text>
</a>
</g>
</g>
<!-- Node5&#45;&gt;Node9 -->
<g id="edge8" class="edge">
<title>Node5&#45;&gt;Node9</title>
<path fill="none" stroke="midnightblue" d="M1210.56,-492.32C1195.22,-474.42 1159.68,-432.97 1137.67,-407.28"/>
<polygon fill="midnightblue" stroke="midnightblue" points="1140.2,-404.86 1131.04,-399.55 1134.89,-409.42 1140.2,-404.86"/>
</g>
<!-- Node10 -->
<g id="node10" class="node">
<title>Node10</title>
<g id="a_node10"><a xlink:href="shape__type_8hpp.html" target="_top" xlink:title=" ">
<polygon fill="white" stroke="black" points="778,-308 778,-327 904,-327 904,-308 778,-308"/>
<text text-anchor="middle" x="841" y="-315" font-family="Helvetica,sans-Serif" font-size="10.00">shpxx/shape_type.hpp</text>
</a>
</g>
</g>
<!-- Node5&#45;&gt;Node10 -->
<g id="edge45" class="edge">
<title>Node5&#45;&gt;Node10</title>
<path fill="none" stroke="midnightblue" d="M1219.84,-492.4C1224.33,-468.89 1233.1,-403 1199,-369 1160.12,-330.23 1007.2,-320.87 914.25,-318.82"/>
<polygon fill="midnightblue" stroke="midnightblue" points="914.13,-315.32 904.06,-318.62 913.99,-322.32 914.13,-315.32"/>
</g>
<!-- Node11 -->
<g id="node11" class="node">
<title>Node11</title>
<g id="a_node11"><a xlink:href="is__feature_8hpp.html" target="_top" xlink:title=" ">
<polygon fill="white" stroke="black" points="441.5,-436.5 441.5,-455.5 606.5,-455.5 606.5,-436.5 441.5,-436.5"/>
<text text-anchor="middle" x="524" y="-443.5" font-family="Helvetica,sans-Serif" font-size="10.00">shpxx/concepts/is_feature.hpp</text>
</a>
</g>
</g>
<!-- Node5&#45;&gt;Node11 -->
<g id="edge12" class="edge">
<title>Node5&#45;&gt;Node11</title>
<path fill="none" stroke="midnightblue" d="M1166.97,-497.03C1050.77,-487.99 765.07,-465.76 616.74,-454.22"/>
<polygon fill="midnightblue" stroke="midnightblue" points="616.98,-450.72 606.74,-453.44 616.44,-457.7 616.98,-450.72"/>
</g>
<!-- Node5&#45;&gt;Node13 -->
<g id="edge46" class="edge">
<title>Node5&#45;&gt;Node13</title>
<path fill="none" stroke="midnightblue" d="M1166.82,-500.93C1015.29,-500.27 570.92,-494.98 432,-456 381.08,-441.71 354.21,-445.35 327,-400 319.91,-388.19 320.9,-381.35 327,-369 334.92,-352.98 350.62,-340.64 364.73,-332.17"/>
<polygon fill="midnightblue" stroke="midnightblue" points="366.65,-335.1 373.67,-327.16 363.23,-328.99 366.65,-335.1"/>
</g>
<!-- Node19 -->
<g id="node19" class="node">
<title>Node19</title>
<g id="a_node19"><a xlink:href="coordinate_8hpp.html" target="_top" xlink:title=" ">
<polygon fill="white" stroke="black" points="0,-56.5 0,-75.5 122,-75.5 122,-56.5 0,-56.5"/>
<text text-anchor="middle" x="61" y="-63.5" font-family="Helvetica,sans-Serif" font-size="10.00">shpxx/coordinate.hpp</text>
</a>
</g>
</g>
<!-- Node5&#45;&gt;Node19 -->
<g id="edge44" class="edge">
<title>Node5&#45;&gt;Node19</title>
<path fill="none" stroke="midnightblue" d="M1166.67,-500.34C948.77,-497.05 107.53,-479.26 23,-400 -4.13,-374.56 4,-355.69 4,-318.5 4,-318.5 4,-318.5 4,-182.5 4,-143.78 30.07,-104.6 46.95,-83.3"/>
<polygon fill="midnightblue" stroke="midnightblue" points="49.67,-85.51 53.31,-75.56 44.26,-81.06 49.67,-85.51"/>
</g>
<!-- Node25 -->
<g id="node25" class="node">
<title>Node25</title>
<g id="a_node25"><a xlink:title=" ">
<polygon fill="white" stroke="#bfbfbf" points="936,-375 936,-394 992,-394 992,-375 936,-375"/>
<text text-anchor="middle" x="964" y="-382" font-family="Helvetica,sans-Serif" font-size="10.00">optional</text>
</a>
</g>
</g>
<!-- Node5&#45;&gt;Node25 -->
<g id="edge48" class="edge">
<title>Node5&#45;&gt;Node25</title>
<path fill="none" stroke="midnightblue" d="M1198.91,-492.32C1154.58,-472.16 1044.49,-422.1 992.3,-398.37"/>
<polygon fill="midnightblue" stroke="midnightblue" points="993.52,-395.08 982.97,-394.12 990.62,-401.45 993.52,-395.08"/>
</g>
<!-- Node26 -->
<g id="node26" class="node">
<title>Node26</title>
<g id="a_node26"><a xlink:href="shpfile__impl_8hpp.html" target="_top" xlink:title=" ">
<polygon fill="white" stroke="black" points="1284.5,-436.5 1284.5,-455.5 1413.5,-455.5 1413.5,-436.5 1284.5,-436.5"/>
<text text-anchor="middle" x="1349" y="-443.5" font-family="Helvetica,sans-Serif" font-size="10.00">shpxx/shpfile_impl.hpp</text>
</a>
</g>
</g>
<!-- Node5&#45;&gt;Node26 -->
<g id="edge49" class="edge">
<title>Node5&#45;&gt;Node26</title>
<path fill="none" stroke="midnightblue" d="M1233.67,-492.44C1253.45,-483.48 1287.59,-469.31 1313.7,-459.18"/>
<polygon fill="midnightblue" stroke="midnightblue" points="1315.18,-462.36 1323.26,-455.52 1312.67,-455.83 1315.18,-462.36"/>
</g>
<!-- Node7 -->
<g id="node7" class="node">
<title>Node7</title>
<g id="a_node7"><a xlink:title=" ">
<polygon fill="white" stroke="#bfbfbf" points="677,-56.5 677,-75.5 737,-75.5 737,-56.5 677,-56.5"/>
<text text-anchor="middle" x="707" y="-63.5" font-family="Helvetica,sans-Serif" font-size="10.00">concepts</text>
</a>
</g>
</g>
<!-- Node6&#45;&gt;Node7 -->
<g id="edge6" class="edge">
<title>Node6&#45;&gt;Node7</title>
<path fill="none" stroke="midnightblue" d="M1310.83,-302.29C1271.74,-264.04 1157.43,-158.68 1040,-112 940.12,-72.3 811.52,-66.43 747.28,-66.27"/>
<polygon fill="midnightblue" stroke="midnightblue" points="747.16,-62.77 737.17,-66.29 747.17,-69.77 747.16,-62.77"/>
</g>
<!-- Node6&#45;&gt;Node8 -->
<g id="edge7" class="edge">
<title>Node6&#45;&gt;Node8</title>
<path fill="none" stroke="midnightblue" d="M1348.65,-302.4C1367.18,-291.34 1392.81,-276.06 1411.14,-265.13"/>
<polygon fill="midnightblue" stroke="midnightblue" points="1412.94,-268.13 1419.73,-260.01 1409.35,-262.12 1412.94,-268.13"/>
</g>
<!-- Node9&#45;&gt;Node7 -->
<g id="edge11" class="edge">
<title>Node9&#45;&gt;Node7</title>
<path fill="none" stroke="midnightblue" d="M1099.73,-369.21C1072.49,-347.22 1026,-302.24 1026,-251.5 1026,-251.5 1026,-251.5 1026,-182.5 1026,-123.78 832.47,-86.46 746.89,-72.83"/>
<polygon fill="midnightblue" stroke="midnightblue" points="747.43,-69.37 737.01,-71.29 746.35,-76.29 747.43,-69.37"/>
</g>
<!-- Node9&#45;&gt;Node10 -->
<g id="edge9" class="edge">
<title>Node9&#45;&gt;Node10</title>
<path fill="none" stroke="midnightblue" d="M1059.02,-369.48C1007.57,-357.45 934.48,-340.36 887.4,-329.35"/>
<polygon fill="midnightblue" stroke="midnightblue" points="888.01,-325.9 877.48,-327.03 886.42,-332.71 888.01,-325.9"/>
</g>
<!-- Node10&#45;&gt;Node8 -->
<g id="edge10" class="edge">
<title>Node10&#45;&gt;Node8</title>
<path fill="none" stroke="midnightblue" d="M904.18,-309.57C1029.9,-295.79 1307.41,-265.38 1401.82,-255.03"/>
<polygon fill="midnightblue" stroke="midnightblue" points="1402.35,-258.49 1411.9,-253.92 1401.58,-251.53 1402.35,-258.49"/>
</g>
<!-- Node11&#45;&gt;Node7 -->
<g id="edge43" class="edge">
<title>Node11&#45;&gt;Node7</title>
<path fill="none" stroke="midnightblue" d="M445.33,-436.49C397.51,-429.59 342.72,-418 327,-400 298.3,-367.13 310.85,-344.44 321,-302 357.78,-148.26 575.77,-90.95 666.95,-73.52"/>
<polygon fill="midnightblue" stroke="midnightblue" points="667.71,-76.93 676.9,-71.67 666.43,-70.05 667.71,-76.93"/>
</g>
<!-- Node12 -->
<g id="node12" class="node">
<title>Node12</title>
<g id="a_node12"><a xlink:href="linestring_8hpp.html" target="_top" xlink:title=" ">
<polygon fill="white" stroke="black" points="764,-375 764,-394 918,-394 918,-375 764,-375"/>
<text text-anchor="middle" x="841" y="-382" font-family="Helvetica,sans-Serif" font-size="10.00">shpxx/feature/linestring.hpp</text>
</a>
</g>
</g>
<!-- Node11&#45;&gt;Node12 -->
<g id="edge13" class="edge">
<title>Node11&#45;&gt;Node12</title>
<path fill="none" stroke="midnightblue" d="M569.42,-436.48C626.5,-425.76 724.42,-407.38 785.77,-395.87"/>
<polygon fill="midnightblue" stroke="midnightblue" points="786.48,-399.29 795.67,-394.01 785.19,-392.41 786.48,-399.29"/>
</g>
<!-- Node15 -->
<g id="node15" class="node">
<title>Node15</title>
<g id="a_node15"><a xlink:href="multi__patch_8hpp.html" target="_top" xlink:title=" ">
<polygon fill="white" stroke="black" points="336.5,-369.5 336.5,-399.5 449.5,-399.5 449.5,-369.5 336.5,-369.5"/>
<text text-anchor="start" x="344.5" y="-387.5" font-family="Helvetica,sans-Serif" font-size="10.00">shpxx/feature/multi</text>
<text text-anchor="middle" x="393" y="-376.5" font-family="Helvetica,sans-Serif" font-size="10.00">_patch.hpp</text>
</a>
</g>
</g>
<!-- Node11&#45;&gt;Node15 -->
<g id="edge17" class="edge">
<title>Node11&#45;&gt;Node15</title>
<path fill="none" stroke="midnightblue" d="M505.23,-436.48C486.49,-427.96 457.11,-414.62 433.11,-403.72"/>
<polygon fill="midnightblue" stroke="midnightblue" points="434.43,-400.47 423.87,-399.52 431.53,-406.85 434.43,-400.47"/>
</g>
<!-- Node16 -->
<g id="node16" class="node">
<title>Node16</title>
<g id="a_node16"><a xlink:href="multi__point_8hpp.html" target="_top" xlink:title=" ">
<polygon fill="white" stroke="black" points="467.5,-369.5 467.5,-399.5 580.5,-399.5 580.5,-369.5 467.5,-369.5"/>
<text text-anchor="start" x="475.5" y="-387.5" font-family="Helvetica,sans-Serif" font-size="10.00">shpxx/feature/multi</text>
<text text-anchor="middle" x="524" y="-376.5" font-family="Helvetica,sans-Serif" font-size="10.00">_point.hpp</text>
</a>
</g>
</g>
<!-- Node11&#45;&gt;Node16 -->
<g id="edge20" class="edge">
<title>Node11&#45;&gt;Node16</title>
<path fill="none" stroke="midnightblue" d="M524,-436.48C524,-429.47 524,-419.19 524,-409.7"/>
<polygon fill="midnightblue" stroke="midnightblue" points="527.5,-409.52 524,-399.52 520.5,-409.52 527.5,-409.52"/>
</g>
<!-- Node17 -->
<g id="node17" class="node">
<title>Node17</title>
<g id="a_node17"><a xlink:href="point_8hpp.html" target="_top" xlink:title=" ">
<polygon fill="white" stroke="black" points="32.5,-375 32.5,-394 165.5,-394 165.5,-375 32.5,-375"/>
<text text-anchor="middle" x="99" y="-382" font-family="Helvetica,sans-Serif" font-size="10.00">shpxx/feature/point.hpp</text>
</a>
</g>
</g>
<!-- Node11&#45;&gt;Node17 -->
<g id="edge23" class="edge">
<title>Node11&#45;&gt;Node17</title>
<path fill="none" stroke="midnightblue" d="M463.11,-436.48C385.55,-425.62 251.77,-406.89 169.76,-395.41"/>
<polygon fill="midnightblue" stroke="midnightblue" points="170.17,-391.93 159.78,-394.01 169.2,-398.86 170.17,-391.93"/>
</g>
<!-- Node24 -->
<g id="node24" class="node">
<title>Node24</title>
<g id="a_node24"><a xlink:href="polygon_8hpp.html" target="_top" xlink:title=" ">
<polygon fill="white" stroke="black" points="598.5,-375 598.5,-394 745.5,-394 745.5,-375 598.5,-375"/>
<text text-anchor="middle" x="672" y="-382" font-family="Helvetica,sans-Serif" font-size="10.00">shpxx/feature/polygon.hpp</text>
</a>
</g>
</g>
<!-- Node11&#45;&gt;Node24 -->
<g id="edge40" class="edge">
<title>Node11&#45;&gt;Node24</title>
<path fill="none" stroke="midnightblue" d="M545.2,-436.48C570.37,-426.36 612.54,-409.4 641.28,-397.85"/>
<polygon fill="midnightblue" stroke="midnightblue" points="642.86,-400.99 650.83,-394.01 640.25,-394.49 642.86,-400.99"/>
</g>
<!-- Node12&#45;&gt;Node10 -->
<g id="edge14" class="edge">
<title>Node12&#45;&gt;Node10</title>
<path fill="none" stroke="midnightblue" d="M841,-374.73C841,-365.18 841,-349.62 841,-337.28"/>
<polygon fill="midnightblue" stroke="midnightblue" points="844.5,-337.13 841,-327.13 837.5,-337.13 844.5,-337.13"/>
</g>
<!-- Node12&#45;&gt;Node13 -->
<g id="edge15" class="edge">
<title>Node12&#45;&gt;Node13</title>
<path fill="none" stroke="midnightblue" d="M791.35,-374.99C779.15,-372.97 766.11,-370.86 754,-369 654.23,-353.71 538.65,-337.87 465.69,-328.1"/>
<polygon fill="midnightblue" stroke="midnightblue" points="466.06,-324.62 455.68,-326.76 465.13,-331.56 466.06,-324.62"/>
</g>
<!-- Node14 -->
<g id="node14" class="node">
<title>Node14</title>
<g id="a_node14"><a xlink:title=" ">
<polygon fill="white" stroke="#bfbfbf" points="364,-241 364,-260 422,-260 422,-241 364,-241"/>
<text text-anchor="middle" x="393" y="-248" font-family="Helvetica,sans-Serif" font-size="10.00">memory</text>
</a>
</g>
</g>
<!-- Node13&#45;&gt;Node14 -->
<g id="edge16" class="edge">
<title>Node13&#45;&gt;Node14</title>
<path fill="none" stroke="midnightblue" d="M393,-307.73C393,-298.18 393,-282.62 393,-270.28"/>
<polygon fill="midnightblue" stroke="midnightblue" points="396.5,-270.13 393,-260.13 389.5,-270.13 396.5,-270.13"/>
</g>
<!-- Node15&#45;&gt;Node10 -->
<g id="edge18" class="edge">
<title>Node15&#45;&gt;Node10</title>
<path fill="none" stroke="midnightblue" d="M449.66,-370.55C452.48,-370 455.27,-369.48 458,-369 565.13,-350.03 690.28,-334.82 767.59,-326.23"/>
<polygon fill="midnightblue" stroke="midnightblue" points="768.15,-329.69 777.71,-325.11 767.39,-322.73 768.15,-329.69"/>
</g>
<!-- Node15&#45;&gt;Node13 -->
<g id="edge19" class="edge">
<title>Node15&#45;&gt;Node13</title>
<path fill="none" stroke="midnightblue" d="M393,-369.4C393,-360.06 393,-347.71 393,-337.52"/>
<polygon fill="midnightblue" stroke="midnightblue" points="396.5,-337.19 393,-327.19 389.5,-337.19 396.5,-337.19"/>
</g>
<!-- Node16&#45;&gt;Node10 -->
<g id="edge21" class="edge">
<title>Node16&#45;&gt;Node10</title>
<path fill="none" stroke="midnightblue" d="M580.7,-370.77C583.51,-370.17 586.29,-369.57 589,-369 657.14,-354.57 735.87,-338.97 786.95,-328.98"/>
<polygon fill="midnightblue" stroke="midnightblue" points="787.64,-332.41 796.78,-327.06 786.3,-325.54 787.64,-332.41"/>
</g>
<!-- Node16&#45;&gt;Node13 -->
<g id="edge22" class="edge">
<title>Node16&#45;&gt;Node13</title>
<path fill="none" stroke="midnightblue" d="M495.57,-369.4C472.89,-358.14 441.37,-342.5 419.28,-331.54"/>
<polygon fill="midnightblue" stroke="midnightblue" points="420.66,-328.32 410.14,-327.01 417.55,-334.59 420.66,-328.32"/>
</g>
<!-- Node17&#45;&gt;Node10 -->
<g id="edge38" class="edge">
<title>Node17&#45;&gt;Node10</title>
<path fill="none" stroke="midnightblue" d="M165.5,-377.67C304.19,-365.53 623.37,-337.56 767.73,-324.92"/>
<polygon fill="midnightblue" stroke="midnightblue" points="768.16,-328.39 777.81,-324.04 767.55,-321.42 768.16,-328.39"/>
</g>
<!-- Node17&#45;&gt;Node13 -->
<g id="edge39" class="edge">
<title>Node17&#45;&gt;Node13</title>
<path fill="none" stroke="midnightblue" d="M137.74,-374.94C190.84,-363.2 286.23,-342.11 344.16,-329.3"/>
<polygon fill="midnightblue" stroke="midnightblue" points="345.17,-332.66 354.18,-327.08 343.66,-325.82 345.17,-332.66"/>
</g>
<!-- Node18 -->
<g id="node18" class="node">
<title>Node18</title>
<g id="a_node18"><a xlink:href="is__coordinate_8hpp.html" target="_top" xlink:title=" ">
<polygon fill="white" stroke="black" points="118,-112.5 118,-131.5 300,-131.5 300,-112.5 118,-112.5"/>
<text text-anchor="middle" x="209" y="-119.5" font-family="Helvetica,sans-Serif" font-size="10.00">shpxx/concepts/is_coordinate.hpp</text>
</a>
</g>
</g>
<!-- Node17&#45;&gt;Node18 -->
<g id="edge24" class="edge">
<title>Node17&#45;&gt;Node18</title>
<path fill="none" stroke="midnightblue" d="M97.59,-374.68C94.2,-350.97 87.32,-284.3 108,-235 125.41,-193.5 164.97,-157.23 189.09,-137.89"/>
<polygon fill="midnightblue" stroke="midnightblue" points="191.49,-140.46 197.21,-131.54 187.18,-134.94 191.49,-140.46"/>
</g>
<!-- Node17&#45;&gt;Node19 -->
<g id="edge28" class="edge">
<title>Node17&#45;&gt;Node19</title>
<path fill="none" stroke="midnightblue" d="M92.24,-374.79C77.14,-354.43 42,-301.67 42,-251.5 42,-251.5 42,-251.5 42,-182.5 42,-147.9 50.4,-108.24 56.03,-85.55"/>
<polygon fill="midnightblue" stroke="midnightblue" points="59.49,-86.17 58.59,-75.61 52.71,-84.42 59.49,-86.17"/>
</g>
<!-- Node21 -->
<g id="node21" class="node">
<title>Node21</title>
<g id="a_node21"><a xlink:href="coordinate__cast_8hpp.html" target="_top" xlink:title=" ">
<polygon fill="white" stroke="black" points="117.5,-308 117.5,-327 264.5,-327 264.5,-308 117.5,-308"/>
<text text-anchor="middle" x="191" y="-315" font-family="Helvetica,sans-Serif" font-size="10.00">shpxx/coordinate_cast.hpp</text>
</a>
</g>
</g>
<!-- Node17&#45;&gt;Node21 -->
<g id="edge29" class="edge">
<title>Node17&#45;&gt;Node21</title>
<path fill="none" stroke="midnightblue" d="M111.41,-374.73C126.58,-364.01 152.48,-345.72 170.6,-332.91"/>
<polygon fill="midnightblue" stroke="midnightblue" points="172.64,-335.76 178.79,-327.13 168.6,-330.04 172.64,-335.76"/>
</g>
<!-- Node18&#45;&gt;Node7 -->
<g id="edge27" class="edge">
<title>Node18&#45;&gt;Node7</title>
<path fill="none" stroke="midnightblue" d="M287.63,-112.47C395.27,-100.8 584.5,-80.28 666.84,-71.35"/>
<polygon fill="midnightblue" stroke="midnightblue" points="667.24,-74.83 676.8,-70.27 666.48,-67.87 667.24,-74.83"/>
</g>
<!-- Node18&#45;&gt;Node19 -->
<g id="edge25" class="edge">
<title>Node18&#45;&gt;Node19</title>
<path fill="none" stroke="midnightblue" d="M185.55,-112.44C160.87,-103.44 121.81,-89.19 94.02,-79.05"/>
<polygon fill="midnightblue" stroke="midnightblue" points="94.94,-75.66 84.34,-75.52 92.54,-82.23 94.94,-75.66"/>
</g>
<!-- Node20 -->
<g id="node20" class="node">
<title>Node20</title>
<g id="a_node20"><a xlink:title=" ">
<polygon fill="white" stroke="#bfbfbf" points="37.5,-0.5 37.5,-19.5 84.5,-19.5 84.5,-0.5 37.5,-0.5"/>
<text text-anchor="middle" x="61" y="-7.5" font-family="Helvetica,sans-Serif" font-size="10.00">cmath</text>
</a>
</g>
</g>
<!-- Node19&#45;&gt;Node20 -->
<g id="edge26" class="edge">
<title>Node19&#45;&gt;Node20</title>
<path fill="none" stroke="midnightblue" d="M61,-56.08C61,-49.01 61,-38.86 61,-29.99"/>
<polygon fill="midnightblue" stroke="midnightblue" points="64.5,-29.75 61,-19.75 57.5,-29.75 64.5,-29.75"/>
</g>
<!-- Node21&#45;&gt;Node18 -->
<g id="edge30" class="edge">
<title>Node21&#45;&gt;Node18</title>
<path fill="none" stroke="midnightblue" d="M208.04,-307.96C222.74,-299.54 242.99,-285.16 252,-266 257.86,-253.53 254.7,-248.51 252,-235 248.6,-218 243.33,-215.14 237,-199 229.4,-179.62 221.22,-157.23 215.68,-141.8"/>
<polygon fill="midnightblue" stroke="midnightblue" points="218.82,-140.18 212.16,-131.94 212.22,-142.53 218.82,-140.18"/>
</g>
<!-- Node22 -->
<g id="node22" class="node">
<title>Node22</title>
<g id="a_node22"><a xlink:href="coordinate__cast__impl_8hpp.html" target="_top" xlink:title=" ">
<polygon fill="white" stroke="black" points="117,-235.5 117,-265.5 243,-265.5 243,-235.5 117,-235.5"/>
<text text-anchor="start" x="125" y="-253.5" font-family="Helvetica,sans-Serif" font-size="10.00">shpxx/coordinate_cast</text>
<text text-anchor="middle" x="180" y="-242.5" font-family="Helvetica,sans-Serif" font-size="10.00">_impl.hpp</text>
</a>
</g>
</g>
<!-- Node21&#45;&gt;Node22 -->
<g id="edge31" class="edge">
<title>Node21&#45;&gt;Node22</title>
<path fill="none" stroke="midnightblue" d="M184.73,-307.73C181.62,-299.54 178.89,-286.92 177.55,-275.71"/>
<polygon fill="midnightblue" stroke="midnightblue" points="181.02,-275.27 176.71,-265.59 174.05,-275.84 181.02,-275.27"/>
</g>
<!-- Node22&#45;&gt;Node18 -->
<g id="edge35" class="edge">
<title>Node22&#45;&gt;Node18</title>
<path fill="none" stroke="midnightblue" d="M183.21,-235.48C188.46,-212.62 198.85,-167.3 204.71,-141.71"/>
<polygon fill="midnightblue" stroke="midnightblue" points="208.16,-142.32 206.99,-131.79 201.34,-140.75 208.16,-142.32"/>
</g>
<!-- Node22&#45;&gt;Node19 -->
<g id="edge36" class="edge">
<title>Node22&#45;&gt;Node19</title>
<path fill="none" stroke="midnightblue" d="M170.86,-235.48C149.38,-202.54 95.72,-120.25 72.27,-84.28"/>
<polygon fill="midnightblue" stroke="midnightblue" points="75.14,-82.28 66.75,-75.82 69.28,-86.11 75.14,-82.28"/>
</g>
<!-- Node22&#45;&gt;Node21 -->
<g id="edge37" class="edge">
<title>Node22&#45;&gt;Node21</title>
<path fill="none" stroke="midnightblue" d="M188.06,-265.59C190.86,-274.9 193.12,-287.22 193.98,-297.41"/>
<polygon fill="midnightblue" stroke="midnightblue" points="190.49,-297.85 194.31,-307.73 197.49,-297.63 190.49,-297.85"/>
</g>
<!-- Node23 -->
<g id="node23" class="node">
<title>Node23</title>
<g id="a_node23"><a xlink:href="has__zm_8hpp.html" target="_top" xlink:title=" ">
<polygon fill="white" stroke="black" points="246.5,-168.5 246.5,-198.5 359.5,-198.5 359.5,-168.5 246.5,-168.5"/>
<text text-anchor="start" x="254.5" y="-186.5" font-family="Helvetica,sans-Serif" font-size="10.00">shpxx/concepts/has</text>
<text text-anchor="middle" x="303" y="-175.5" font-family="Helvetica,sans-Serif" font-size="10.00">_zm.hpp</text>
</a>
</g>
</g>
<!-- Node22&#45;&gt;Node23 -->
<g id="edge32" class="edge">
<title>Node22&#45;&gt;Node23</title>
<path fill="none" stroke="midnightblue" d="M206.69,-235.4C224.5,-225.98 248.12,-213.5 267.51,-203.26"/>
<polygon fill="midnightblue" stroke="midnightblue" points="269.16,-206.34 276.36,-198.58 265.89,-200.15 269.16,-206.34"/>
</g>
<!-- Node23&#45;&gt;Node7 -->
<g id="edge34" class="edge">
<title>Node23&#45;&gt;Node7</title>
<path fill="none" stroke="midnightblue" d="M312.69,-168.4C324.9,-151.86 347.51,-125.06 374,-112 424.72,-86.99 589.62,-74.05 666.65,-69.25"/>
<polygon fill="midnightblue" stroke="midnightblue" points="667.15,-72.72 676.92,-68.62 666.73,-65.73 667.15,-72.72"/>
</g>
<!-- Node23&#45;&gt;Node18 -->
<g id="edge33" class="edge">
<title>Node23&#45;&gt;Node18</title>
<path fill="none" stroke="midnightblue" d="M280.72,-168.4C265.8,-158.95 246.22,-146.56 231.29,-137.11"/>
<polygon fill="midnightblue" stroke="midnightblue" points="233,-134.05 222.68,-131.66 229.26,-139.96 233,-134.05"/>
</g>
<!-- Node24&#45;&gt;Node10 -->
<g id="edge41" class="edge">
<title>Node24&#45;&gt;Node10</title>
<path fill="none" stroke="midnightblue" d="M694.44,-374.87C723.82,-363.57 775.49,-343.7 808.97,-330.82"/>
<polygon fill="midnightblue" stroke="midnightblue" points="810.66,-333.92 818.73,-327.06 808.14,-327.39 810.66,-333.92"/>
</g>
<!-- Node24&#45;&gt;Node13 -->
<g id="edge42" class="edge">
<title>Node24&#45;&gt;Node13</title>
<path fill="none" stroke="midnightblue" d="M635.24,-374.94C584.95,-363.22 494.7,-342.19 439.69,-329.38"/>
<polygon fill="midnightblue" stroke="midnightblue" points="440.38,-325.94 429.84,-327.08 438.79,-332.76 440.38,-325.94"/>
</g>
<!-- Node26&#45;&gt;Node5 -->
<g id="edge55" class="edge">
<title>Node26&#45;&gt;Node5</title>
<path fill="none" stroke="midnightblue" d="M1333.42,-455.52C1313.68,-464.47 1279.55,-478.63 1253.42,-488.77"/>
<polygon fill="midnightblue" stroke="midnightblue" points="1251.93,-485.6 1243.85,-492.44 1254.44,-492.13 1251.93,-485.6"/>
</g>
<!-- Node26&#45;&gt;Node6 -->
<g id="edge50" class="edge">
<title>Node26&#45;&gt;Node6</title>
<path fill="none" stroke="midnightblue" d="M1354.88,-436.4C1363.87,-422.13 1379.06,-392.79 1370,-369 1365.84,-358.08 1358.11,-348.01 1350.22,-339.79"/>
<polygon fill="midnightblue" stroke="midnightblue" points="1352.63,-337.26 1343.02,-332.79 1347.75,-342.27 1352.63,-337.26"/>
</g>
<!-- Node26&#45;&gt;Node10 -->
<g id="edge53" class="edge">
<title>Node26&#45;&gt;Node10</title>
<path fill="none" stroke="midnightblue" d="M1350.62,-436.43C1353.06,-420.56 1355.63,-386.63 1337,-369 1306.97,-340.58 1045.45,-326.45 914.73,-321.11"/>
<polygon fill="midnightblue" stroke="midnightblue" points="914.54,-317.6 904.41,-320.7 914.26,-324.6 914.54,-317.6"/>
</g>
<!-- Node26&#45;&gt;Node13 -->
<g id="edge54" class="edge">
<title>Node26&#45;&gt;Node13</title>
<path fill="none" stroke="midnightblue" d="M1284.21,-445.53C1219.52,-443.82 1118.53,-434.97 1039,-400 1019.05,-391.23 1021.21,-377.16 1001,-369 952.45,-349.41 616.26,-329.96 465.67,-322.12"/>
<polygon fill="midnightblue" stroke="midnightblue" points="465.75,-318.62 455.59,-321.59 465.39,-325.61 465.75,-318.62"/>
</g>
<!-- Node26&#45;&gt;Node25 -->
<g id="edge58" class="edge">
<title>Node26&#45;&gt;Node25</title>
<path fill="none" stroke="midnightblue" d="M1284.45,-440.44C1214.98,-434.63 1101.58,-422.52 1006,-400 1002.59,-399.2 999.07,-398.22 995.59,-397.16"/>
<polygon fill="midnightblue" stroke="midnightblue" points="996.58,-393.81 985.99,-394.03 994.4,-400.46 996.58,-393.81"/>
</g>
<!-- Node26&#45;&gt;Node27 -->
<g id="edge51" class="edge">
<title>Node26&#45;&gt;Node27</title>
<path fill="none" stroke="midnightblue" d="M1373.79,-436.48C1403.59,-426.22 1453.79,-408.96 1487.4,-397.4"/>
<polygon fill="midnightblue" stroke="midnightblue" points="1488.94,-400.57 1497.26,-394.01 1486.66,-393.95 1488.94,-400.57"/>
</g>
<!-- Node28 -->
<g id="node28" class="node">
<title>Node28</title>
<g id="a_node28"><a xlink:title=" ">
<polygon fill="white" stroke="#bfbfbf" points="1479.5,-308 1479.5,-327 1544.5,-327 1544.5,-308 1479.5,-308"/>
<text text-anchor="middle" x="1512" y="-315" font-family="Helvetica,sans-Serif" font-size="10.00">stdexcept</text>
</a>
</g>
</g>
<!-- Node26&#45;&gt;Node28 -->
<g id="edge59" class="edge">
<title>Node26&#45;&gt;Node28</title>
<path fill="none" stroke="midnightblue" d="M1360.2,-436.31C1387.54,-415.09 1457.93,-360.46 1492.39,-333.72"/>
<polygon fill="midnightblue" stroke="midnightblue" points="1494.96,-336.15 1500.72,-327.26 1490.67,-330.62 1494.96,-336.15"/>
</g>
<!-- Node29 -->
<g id="node29" class="node">
<title>Node29</title>
<g id="a_node29"><a xlink:title=" ">
<polygon fill="white" stroke="#bfbfbf" points="1640.5,-375 1640.5,-394 1693.5,-394 1693.5,-375 1640.5,-375"/>
<text text-anchor="middle" x="1667" y="-382" font-family="Helvetica,sans-Serif" font-size="10.00">cstddef</text>
</a>
</g>
</g>
<!-- Node26&#45;&gt;Node29 -->
<g id="edge56" class="edge">
<title>Node26&#45;&gt;Node29</title>
<path fill="none" stroke="midnightblue" d="M1396.26,-436.44C1445.44,-427.5 1524.66,-413 1593,-400 1605.14,-397.69 1618.38,-395.12 1630.26,-392.78"/>
<polygon fill="midnightblue" stroke="midnightblue" points="1631.16,-396.17 1640.3,-390.81 1629.81,-389.3 1631.16,-396.17"/>
</g>
<!-- Node30 -->
<g id="node30" class="node">
<title>Node30</title>
<g id="a_node30"><a xlink:title=" ">
<polygon fill="white" stroke="#bfbfbf" points="1284,-375 1284,-394 1328,-394 1328,-375 1284,-375"/>
<text text-anchor="middle" x="1306" y="-382" font-family="Helvetica,sans-Serif" font-size="10.00">limits</text>
</a>
</g>
</g>
<!-- Node26&#45;&gt;Node30 -->
<g id="edge57" class="edge">
<title>Node26&#45;&gt;Node30</title>
<path fill="none" stroke="midnightblue" d="M1342.84,-436.48C1336.39,-427.55 1326.1,-413.31 1318.03,-402.14"/>
<polygon fill="midnightblue" stroke="midnightblue" points="1320.84,-400.06 1312.15,-394.01 1315.17,-404.16 1320.84,-400.06"/>
</g>
<!-- Node27&#45;&gt;Node28 -->
<g id="edge52" class="edge">
<title>Node27&#45;&gt;Node28</title>
<path fill="none" stroke="midnightblue" d="M1520.65,-374.73C1519.18,-365.18 1516.79,-349.62 1514.89,-337.28"/>
<polygon fill="midnightblue" stroke="midnightblue" points="1518.31,-336.48 1513.33,-327.13 1511.39,-337.54 1518.31,-336.48"/>
</g>
<!-- Node32 -->
<g id="node32" class="node">
<title>Node32</title>
<g id="a_node32"><a xlink:href="io__handler__concept_8hpp.html" target="_top" xlink:title=" ">
<polygon fill="white" stroke="black" points="2091,-492.5 2091,-511.5 2235,-511.5 2235,-492.5 2091,-492.5"/>
<text text-anchor="middle" x="2163" y="-499.5" font-family="Helvetica,sans-Serif" font-size="10.00">io/io_handler_concept.hpp</text>
</a>
</g>
</g>
<!-- Node31&#45;&gt;Node32 -->
<g id="edge62" class="edge">
<title>Node31&#45;&gt;Node32</title>
<path fill="none" stroke="midnightblue" d="M2069.83,-548.32C2087.72,-539.62 2115.48,-526.12 2136.05,-516.11"/>
<polygon fill="midnightblue" stroke="midnightblue" points="2137.75,-519.18 2145.21,-511.65 2134.69,-512.88 2137.75,-519.18"/>
</g>
<!-- Node32&#45;&gt;Node3 -->
<g id="edge63" class="edge">
<title>Node32&#45;&gt;Node3</title>
<path fill="none" stroke="midnightblue" d="M2108.18,-492.44C2046.68,-482.85 1947.02,-467.29 1881.74,-457.1"/>
<polygon fill="midnightblue" stroke="midnightblue" points="1881.99,-453.6 1871.57,-455.52 1880.91,-460.52 1881.99,-453.6"/>
</g>
<!-- Node32&#45;&gt;Node7 -->
<g id="edge64" class="edge">
<title>Node32&#45;&gt;Node7</title>
<path fill="none" stroke="midnightblue" d="M2189.28,-492.49C2229.32,-477.69 2301,-443.14 2301,-385.5 2301,-385.5 2301,-385.5 2301,-182.5 2301,-102.15 995.47,-72.64 747.42,-67.75"/>
<polygon fill="midnightblue" stroke="midnightblue" points="747.13,-64.25 737.07,-67.55 747,-71.25 747.13,-64.25"/>
</g>
<!-- Node33 -->
<g id="node33" class="node">
<title>Node33</title>
<g id="a_node33"><a xlink:title=" ">
<polygon fill="white" stroke="#bfbfbf" points="1902.5,-436.5 1902.5,-455.5 1933.5,-455.5 1933.5,-436.5 1902.5,-436.5"/>
<text text-anchor="middle" x="1918" y="-443.5" font-family="Helvetica,sans-Serif" font-size="10.00">ios</text>
</a>
</g>
</g>
<!-- Node32&#45;&gt;Node33 -->
<g id="edge65" class="edge">
<title>Node32&#45;&gt;Node33</title>
<path fill="none" stroke="midnightblue" d="M2124.18,-492.44C2073.55,-481.29 1986.4,-462.08 1943.45,-452.61"/>
<polygon fill="midnightblue" stroke="midnightblue" points="1944.05,-449.16 1933.53,-450.42 1942.54,-455.99 1944.05,-449.16"/>
</g>
<!-- Node34 -->
<g id="node34" class="node">
<title>Node34</title>
<g id="a_node34"><a xlink:title=" ">
<polygon fill="white" stroke="#bfbfbf" points="2003.5,-436.5 2003.5,-455.5 2076.5,-455.5 2076.5,-436.5 2003.5,-436.5"/>
<text text-anchor="middle" x="2040" y="-443.5" font-family="Helvetica,sans-Serif" font-size="10.00">string_view</text>
</a>
</g>
</g>
<!-- Node32&#45;&gt;Node34 -->
<g id="edge66" class="edge">
<title>Node32&#45;&gt;Node34</title>
<path fill="none" stroke="midnightblue" d="M2143.51,-492.44C2123.36,-483.6 2091.68,-469.69 2068.67,-459.59"/>
<polygon fill="midnightblue" stroke="midnightblue" points="2069.96,-456.33 2059.4,-455.52 2067.15,-462.74 2069.96,-456.33"/>
</g>
<!-- Node35 -->
<g id="node35" class="node">
<title>Node35</title>
<g id="a_node35"><a xlink:title=" ">
<polygon fill="white" stroke="#bfbfbf" points="2140.5,-436.5 2140.5,-455.5 2185.5,-455.5 2185.5,-436.5 2140.5,-436.5"/>
<text text-anchor="middle" x="2163" y="-443.5" font-family="Helvetica,sans-Serif" font-size="10.00">utility</text>
</a>
</g>
</g>
<!-- Node32&#45;&gt;Node35 -->
<g id="edge67" class="edge">
<title>Node32&#45;&gt;Node35</title>
<path fill="none" stroke="midnightblue" d="M2163,-492.08C2163,-485.01 2163,-474.86 2163,-465.99"/>
<polygon fill="midnightblue" stroke="midnightblue" points="2166.5,-465.75 2163,-455.75 2159.5,-465.75 2166.5,-465.75"/>
</g>
<!-- Node36&#45;&gt;Node3 -->
<g id="edge76" class="edge">
<title>Node36&#45;&gt;Node3</title>
<path fill="none" stroke="midnightblue" d="M1783.28,-548.41C1754.06,-537.78 1714.25,-517.88 1730,-492 1739.46,-476.46 1756.21,-466.05 1772.5,-459.19"/>
<polygon fill="midnightblue" stroke="midnightblue" points="1773.9,-462.4 1781.99,-455.55 1771.4,-455.87 1773.9,-462.4"/>
</g>
<!-- Node36&#45;&gt;Node4 -->
<g id="edge79" class="edge">
<title>Node36&#45;&gt;Node4</title>
<path fill="none" stroke="midnightblue" d="M1871.38,-552.85C1987.52,-544.58 2231.68,-525.67 2244,-512 2356.06,-387.69 1973.31,-383.16 1852.42,-384.72"/>
<polygon fill="midnightblue" stroke="midnightblue" points="1852.16,-381.23 1842.21,-384.88 1852.26,-388.23 1852.16,-381.23"/>
</g>
<!-- Node36&#45;&gt;Node27 -->
<g id="edge75" class="edge">
<title>Node36&#45;&gt;Node27</title>
<path fill="none" stroke="midnightblue" d="M1786.28,-548.43C1763.93,-540.29 1730.42,-527.06 1703,-512 1640.04,-477.41 1572.27,-425.68 1540.47,-400.44"/>
<polygon fill="midnightblue" stroke="midnightblue" points="1542.48,-397.57 1532.49,-394.06 1538.11,-403.03 1542.48,-397.57"/>
</g>
<!-- Node36&#45;&gt;Node29 -->
<g id="edge78" class="edge">
<title>Node36&#45;&gt;Node29</title>
<path fill="none" stroke="midnightblue" d="M1782.57,-548.36C1763.34,-541.27 1738.52,-529.5 1722,-512 1692.52,-480.76 1677.35,-431.19 1670.91,-404.32"/>
<polygon fill="midnightblue" stroke="midnightblue" points="1674.27,-403.3 1668.67,-394.31 1667.44,-404.83 1674.27,-403.3"/>
</g>
<!-- Node36&#45;&gt;Node32 -->
<g id="edge69" class="edge">
<title>Node36&#45;&gt;Node32</title>
<path fill="none" stroke="midnightblue" d="M1866.78,-548.44C1929.47,-538.83 2031.15,-523.23 2097.55,-513.04"/>
<polygon fill="midnightblue" stroke="midnightblue" points="2098.13,-516.49 2107.49,-511.52 2097.07,-509.57 2098.13,-516.49"/>
</g>
<!-- Node36&#45;&gt;Node33 -->
<g id="edge81" class="edge">
<title>Node36&#45;&gt;Node33</title>
<path fill="none" stroke="midnightblue" d="M1835.9,-548.37C1853.63,-541.11 1876.9,-529.14 1892,-512 1903.66,-498.76 1910.46,-479.63 1914.16,-465.55"/>
<polygon fill="midnightblue" stroke="midnightblue" points="1917.63,-466.08 1916.49,-455.55 1910.81,-464.49 1917.63,-466.08"/>
</g>
<!-- Node37 -->
<g id="node37" class="node">
<title>Node37</title>
<g id="a_node37"><a xlink:href="openmode__internal_8hpp.html" target="_top" xlink:title=" ">
<polygon fill="white" stroke="black" points="1739,-492.5 1739,-511.5 1883,-511.5 1883,-492.5 1739,-492.5"/>
<text text-anchor="middle" x="1811" y="-499.5" font-family="Helvetica,sans-Serif" font-size="10.00">io/openmode_internal.hpp</text>
</a>
</g>
</g>
<!-- Node36&#45;&gt;Node37 -->
<g id="edge70" class="edge">
<title>Node36&#45;&gt;Node37</title>
<path fill="none" stroke="midnightblue" d="M1811,-548.08C1811,-541.01 1811,-530.86 1811,-521.99"/>
<polygon fill="midnightblue" stroke="midnightblue" points="1814.5,-521.75 1811,-511.75 1807.5,-521.75 1814.5,-521.75"/>
</g>
<!-- Node36&#45;&gt;Node38 -->
<g id="edge77" class="edge">
<title>Node36&#45;&gt;Node38</title>
<path fill="none" stroke="midnightblue" d="M1767.58,-548.44C1715.91,-538.26 1630.23,-521.37 1579.13,-511.3"/>
<polygon fill="midnightblue" stroke="midnightblue" points="1579.57,-507.82 1569.08,-509.32 1578.22,-514.69 1579.57,-507.82"/>
</g>
<!-- Node39 -->
<g id="node39" class="node">
<title>Node39</title>
<g id="a_node39"><a xlink:title=" ">
<polygon fill="white" stroke="#bfbfbf" points="1939,-492.5 1939,-511.5 1985,-511.5 1985,-492.5 1939,-492.5"/>
<text text-anchor="middle" x="1962" y="-499.5" font-family="Helvetica,sans-Serif" font-size="10.00">cstdio</text>
</a>
</g>
</g>
<!-- Node36&#45;&gt;Node39 -->
<g id="edge80" class="edge">
<title>Node36&#45;&gt;Node39</title>
<path fill="none" stroke="midnightblue" d="M1834.93,-548.44C1860.37,-539.35 1900.77,-524.9 1929.18,-514.74"/>
<polygon fill="midnightblue" stroke="midnightblue" points="1930.44,-518 1938.68,-511.34 1928.09,-511.41 1930.44,-518"/>
</g>
<!-- Node40 -->
<g id="node40" class="node">
<title>Node40</title>
<g id="a_node40"><a xlink:title=" ">
<polygon fill="white" stroke="#bfbfbf" points="2003.5,-492.5 2003.5,-511.5 2072.5,-511.5 2072.5,-492.5 2003.5,-492.5"/>
<text text-anchor="middle" x="2038" y="-499.5" font-family="Helvetica,sans-Serif" font-size="10.00">type_traits</text>
</a>
</g>
</g>
<!-- Node36&#45;&gt;Node40 -->
<g id="edge82" class="edge">
<title>Node36&#45;&gt;Node40</title>
<path fill="none" stroke="midnightblue" d="M1846.97,-548.44C1886.67,-539 1950.6,-523.79 1993.44,-513.6"/>
<polygon fill="midnightblue" stroke="midnightblue" points="1994.4,-516.97 2003.32,-511.25 1992.78,-510.16 1994.4,-516.97"/>
</g>
<!-- Node37&#45;&gt;Node3 -->
<g id="edge71" class="edge">
<title>Node37&#45;&gt;Node3</title>
<path fill="none" stroke="midnightblue" d="M1811.99,-492.08C1812.79,-484.93 1813.93,-474.64 1814.92,-465.69"/>
<polygon fill="midnightblue" stroke="midnightblue" points="1818.4,-466.08 1816.03,-455.75 1811.44,-465.3 1818.4,-466.08"/>
</g>
<!-- Node37&#45;&gt;Node8 -->
<g id="edge73" class="edge">
<title>Node37&#45;&gt;Node8</title>
<path fill="none" stroke="midnightblue" d="M1791.54,-492.42C1776.1,-484.77 1754.87,-472.28 1741,-456 1713.64,-423.88 1727.97,-403.01 1703,-369 1676.15,-332.43 1666.1,-323.21 1626,-302 1573.95,-274.46 1505.87,-261.19 1466.33,-255.41"/>
<polygon fill="midnightblue" stroke="midnightblue" points="1466.59,-251.91 1456.21,-254 1465.63,-258.84 1466.59,-251.91"/>
</g>
<!-- Node37&#45;&gt;Node33 -->
<g id="edge72" class="edge">
<title>Node37&#45;&gt;Node33</title>
<path fill="none" stroke="midnightblue" d="M1828.19,-492.32C1845.76,-483.46 1873.21,-469.6 1893.14,-459.55"/>
<polygon fill="midnightblue" stroke="midnightblue" points="1894.9,-462.58 1902.25,-454.95 1891.74,-456.33 1894.9,-462.58"/>
</g>
<!-- Node37&#45;&gt;Node34 -->
<g id="edge74" class="edge">
<title>Node37&#45;&gt;Node34</title>
<path fill="none" stroke="midnightblue" d="M1847.29,-492.44C1886.98,-483.08 1950.71,-468.06 1993.91,-457.87"/>
<polygon fill="midnightblue" stroke="midnightblue" points="1994.95,-461.22 2003.88,-455.52 1993.35,-454.41 1994.95,-461.22"/>
</g>
<!-- Node41&#45;&gt;Node13 -->
<g id="edge84" class="edge">
<title>Node41&#45;&gt;Node13</title>
<path fill="none" stroke="midnightblue" d="M1466.83,-555.31C1269.42,-547.31 458.05,-511.26 360,-456 322.76,-435.01 299.03,-406.8 319,-369 327.99,-351.99 345.57,-339.62 361.34,-331.39"/>
<polygon fill="midnightblue" stroke="midnightblue" points="362.88,-334.53 370.34,-327.01 359.82,-328.24 362.88,-334.53"/>
</g>
<!-- Node41&#45;&gt;Node38 -->
<g id="edge85" class="edge">
<title>Node41&#45;&gt;Node38</title>
<path fill="none" stroke="midnightblue" d="M1514.46,-548.08C1518.15,-540.69 1523.52,-529.95 1528.09,-520.81"/>
<polygon fill="midnightblue" stroke="midnightblue" points="1531.28,-522.26 1532.62,-511.75 1525.02,-519.13 1531.28,-522.26"/>
</g>
</g>
</svg>
