<?xml version="1.0" encoding="UTF-8" standalone="no"?>
<!DOCTYPE svg PUBLIC "-//W3C//DTD SVG 1.1//EN"
 "http://www.w3.org/Graphics/SVG/1.1/DTD/svg11.dtd">
<!-- Generated by graphviz version 2.43.0 (0)
 -->
<!-- Title: /home/runner/work/shpxx/shpxx/include/shpxx/concepts/has_class_name.hpp Pages: 1 -->
<svg width="481pt" height="262pt"
 viewBox="0.00 0.00 481.00 262.00" xmlns="http://www.w3.org/2000/svg" xmlns:xlink="http://www.w3.org/1999/xlink">
<g id="graph0" class="graph" transform="scale(1 1) rotate(0) translate(4 258)">
<title>/home/runner/work/shpxx/shpxx/include/shpxx/concepts/has_class_name.hpp</title>
<polygon fill="white" stroke="transparent" points="-4,4 -4,-258 477,-258 477,4 -4,4"/>
<!-- Node1 -->
<g id="node1" class="node">
<title>Node1</title>
<g id="a_node1"><a xlink:title=" ">
<polygon fill="#bfbfbf" stroke="black" points="254.5,-212.5 254.5,-253.5 420.5,-253.5 420.5,-212.5 254.5,-212.5"/>
<text text-anchor="start" x="262.5" y="-241.5" font-family="Helvetica,sans-Serif" font-size="10.00">/home/runner/work/shpxx</text>
<text text-anchor="start" x="262.5" y="-230.5" font-family="Helvetica,sans-Serif" font-size="10.00">/shpxx/include/shpxx/concepts</text>
<text text-anchor="middle" x="337.5" y="-219.5" font-family="Helvetica,sans-Serif" font-size="10.00">/has_class_name.hpp</text>
</a>
</g>
</g>
<!-- Node2 -->
<g id="node2" class="node">
<title>Node2</title>
<g id="a_node2"><a xlink:href="shpfile_8hpp.html" target="_top" xlink:title=" ">
<polygon fill="white" stroke="black" points="191.5,-145.5 191.5,-175.5 367.5,-175.5 367.5,-145.5 191.5,-145.5"/>
<text text-anchor="start" x="199.5" y="-163.5" font-family="Helvetica,sans-Serif" font-size="10.00">/home/runner/work/shpxx</text>
<text text-anchor="middle" x="279.5" y="-152.5" font-family="Helvetica,sans-Serif" font-size="10.00">/shpxx/include/shpxx/shpfile.hpp</text>
</a>
</g>
</g>
<!-- Node1&#45;&gt;Node2 -->
<g id="edge1" class="edge">
<title>Node1&#45;&gt;Node2</title>
<path fill="none" stroke="midnightblue" d="M314.82,-204.43C306.8,-194.68 298.1,-184.11 291.34,-175.89"/>
<polygon fill="midnightblue" stroke="midnightblue" points="312.29,-206.86 321.34,-212.36 317.69,-202.42 312.29,-206.86"/>
</g>
<!-- Node6 -->
<g id="node6" class="node">
<title>Node6</title>
<g id="a_node6"><a xlink:href="shpfile__impl_8hpp.html" target="_top" xlink:title=" ">
<polygon fill="white" stroke="black" points="318,-67.5 318,-108.5 473,-108.5 473,-67.5 318,-67.5"/>
<text text-anchor="start" x="326" y="-96.5" font-family="Helvetica,sans-Serif" font-size="10.00">/home/runner/work/shpxx</text>
<text text-anchor="start" x="326" y="-85.5" font-family="Helvetica,sans-Serif" font-size="10.00">/shpxx/include/shpxx/shpfile</text>
<text text-anchor="middle" x="395.5" y="-74.5" font-family="Helvetica,sans-Serif" font-size="10.00">_impl.hpp</text>
</a>
</g>
</g>
<!-- Node1&#45;&gt;Node6 -->
<g id="edge7" class="edge">
<title>Node1&#45;&gt;Node6</title>
<path fill="none" stroke="midnightblue" d="M360.05,-204.22C366.15,-195.59 372.23,-185.77 376.5,-176 386.09,-154.04 391.03,-126.78 393.44,-108.69"/>
<polygon fill="midnightblue" stroke="midnightblue" points="357.13,-202.28 354.01,-212.41 362.76,-206.44 357.13,-202.28"/>
</g>
<!-- Node3 -->
<g id="node3" class="node">
<title>Node3</title>
<g id="a_node3"><a xlink:href="shpfile_8cpp.html" target="_top" xlink:title=" ">
<polygon fill="white" stroke="black" points="0,-73 0,-103 141,-103 141,-73 0,-73"/>
<text text-anchor="start" x="8" y="-91" font-family="Helvetica,sans-Serif" font-size="10.00">/home/runner/work/shpxx</text>
<text text-anchor="middle" x="70.5" y="-80" font-family="Helvetica,sans-Serif" font-size="10.00">/shpxx/src/shpfile.cpp</text>
</a>
</g>
</g>
<!-- Node2&#45;&gt;Node3 -->
<g id="edge2" class="edge">
<title>Node2&#45;&gt;Node3</title>
<path fill="none" stroke="midnightblue" d="M228.23,-142.2C192.59,-130.18 145.69,-114.36 112.32,-103.11"/>
<polygon fill="midnightblue" stroke="midnightblue" points="227.36,-145.61 237.96,-145.49 229.6,-138.97 227.36,-145.61"/>
</g>
<!-- Node4 -->
<g id="node4" class="node">
<title>Node4</title>
<g id="a_node4"><a xlink:href="file_8hpp.html" target="_top" xlink:title=" ">
<polygon fill="white" stroke="black" points="159,-67.5 159,-108.5 300,-108.5 300,-67.5 159,-67.5"/>
<text text-anchor="start" x="167" y="-96.5" font-family="Helvetica,sans-Serif" font-size="10.00">/home/runner/work/shpxx</text>
<text text-anchor="start" x="167" y="-85.5" font-family="Helvetica,sans-Serif" font-size="10.00">/shpxx/include/shpxx/io</text>
<text text-anchor="middle" x="229.5" y="-74.5" font-family="Helvetica,sans-Serif" font-size="10.00">/file.hpp</text>
</a>
</g>
</g>
<!-- Node2&#45;&gt;Node4 -->
<g id="edge3" class="edge">
<title>Node2&#45;&gt;Node4</title>
<path fill="none" stroke="midnightblue" d="M263.53,-136.98C257.05,-127.85 249.64,-117.4 243.39,-108.59"/>
<polygon fill="midnightblue" stroke="midnightblue" points="260.74,-139.1 269.38,-145.23 266.45,-135.05 260.74,-139.1"/>
</g>
<!-- Node2&#45;&gt;Node6 -->
<g id="edge5" class="edge">
<title>Node2&#45;&gt;Node6</title>
<path fill="none" stroke="midnightblue" d="M305.58,-139.93C320.77,-130.19 340.1,-118.44 356.99,-108.68"/>
<polygon fill="midnightblue" stroke="midnightblue" points="303.64,-137.02 297.17,-145.4 307.46,-142.88 303.64,-137.02"/>
</g>
<!-- Node5 -->
<g id="node5" class="node">
<title>Node5</title>
<g id="a_node5"><a xlink:href="file_8cpp.html" target="_top" xlink:title=" ">
<polygon fill="white" stroke="black" points="159,-0.5 159,-30.5 300,-30.5 300,-0.5 159,-0.5"/>
<text text-anchor="start" x="167" y="-18.5" font-family="Helvetica,sans-Serif" font-size="10.00">/home/runner/work/shpxx</text>
<text text-anchor="middle" x="229.5" y="-7.5" font-family="Helvetica,sans-Serif" font-size="10.00">/shpxx/src/io/file.cpp</text>
</a>
</g>
</g>
<!-- Node4&#45;&gt;Node5 -->
<g id="edge4" class="edge">
<title>Node4&#45;&gt;Node5</title>
<path fill="none" stroke="midnightblue" d="M229.5,-57.08C229.5,-48.01 229.5,-38.45 229.5,-30.89"/>
<polygon fill="midnightblue" stroke="midnightblue" points="226,-57.36 229.5,-67.36 233,-57.36 226,-57.36"/>
</g>
<!-- Node6&#45;&gt;Node2 -->
<g id="edge6" class="edge">
<title>Node6&#45;&gt;Node2</title>
<path fill="none" stroke="midnightblue" d="M360.79,-114.04C344,-124.58 324.16,-136.44 308.22,-145.4"/>
<polygon fill="midnightblue" stroke="midnightblue" points="362.67,-116.99 369.25,-108.68 358.93,-111.08 362.67,-116.99"/>
</g>
</g>
</svg>
