<?xml version="1.0" encoding="UTF-8" standalone="no"?>
<!DOCTYPE svg PUBLIC "-//W3C//DTD SVG 1.1//EN"
 "http://www.w3.org/Graphics/SVG/1.1/DTD/svg11.dtd">
<!-- Generated by graphviz version 2.43.0 (0)
 -->
<!-- Title: /home/runner/work/shpxx/shpxx/include/shpxx/concepts/has_zm.hpp Pages: 1 -->
<svg width="243pt" height="218pt"
 viewBox="0.00 0.00 243.00 218.00" xmlns="http://www.w3.org/2000/svg" xmlns:xlink="http://www.w3.org/1999/xlink">
<g id="graph0" class="graph" transform="scale(1 1) rotate(0) translate(4 214)">
<title>/home/runner/work/shpxx/shpxx/include/shpxx/concepts/has_zm.hpp</title>
<polygon fill="white" stroke="transparent" points="-4,4 -4,-214 239,-214 239,4 -4,4"/>
<!-- Node1 -->
<g id="node1" class="node">
<title>Node1</title>
<g id="a_node1"><a xlink:title=" ">
<polygon fill="#bfbfbf" stroke="black" points="67,-168.5 67,-209.5 233,-209.5 233,-168.5 67,-168.5"/>
<text text-anchor="start" x="75" y="-197.5" font-family="Helvetica,sans-Serif" font-size="10.00">/home/runner/work/shpxx</text>
<text text-anchor="start" x="75" y="-186.5" font-family="Helvetica,sans-Serif" font-size="10.00">/shpxx/include/shpxx/concepts</text>
<text text-anchor="middle" x="150" y="-175.5" font-family="Helvetica,sans-Serif" font-size="10.00">/has_zm.hpp</text>
</a>
</g>
</g>
<!-- Node2 -->
<g id="node2" class="node">
<title>Node2</title>
<g id="a_node2"><a xlink:href="is__coordinate_8hpp.html" target="_top" xlink:title=" ">
<polygon fill="white" stroke="black" points="0,-112.5 0,-131.5 182,-131.5 182,-112.5 0,-112.5"/>
<text text-anchor="middle" x="91" y="-119.5" font-family="Helvetica,sans-Serif" font-size="10.00">shpxx/concepts/is_coordinate.hpp</text>
</a>
</g>
</g>
<!-- Node1&#45;&gt;Node2 -->
<g id="edge1" class="edge">
<title>Node1&#45;&gt;Node2</title>
<path fill="none" stroke="midnightblue" d="M132.3,-168.5C123.77,-159.11 113.68,-147.98 105.6,-139.08"/>
<polygon fill="midnightblue" stroke="midnightblue" points="108.17,-136.7 98.85,-131.65 102.98,-141.41 108.17,-136.7"/>
</g>
<!-- Node5 -->
<g id="node5" class="node">
<title>Node5</title>
<g id="a_node5"><a xlink:title=" ">
<polygon fill="white" stroke="#bfbfbf" points="175,-56.5 175,-75.5 235,-75.5 235,-56.5 175,-56.5"/>
<text text-anchor="middle" x="205" y="-63.5" font-family="Helvetica,sans-Serif" font-size="10.00">concepts</text>
</a>
</g>
</g>
<!-- Node1&#45;&gt;Node5 -->
<g id="edge5" class="edge">
<title>Node1&#45;&gt;Node5</title>
<path fill="none" stroke="midnightblue" d="M167.61,-168.29C175.85,-158.1 185.13,-145.08 191,-132 197.58,-117.34 201.15,-99.4 203.03,-86.09"/>
<polygon fill="midnightblue" stroke="midnightblue" points="206.55,-86.12 204.28,-75.77 199.6,-85.28 206.55,-86.12"/>
</g>
<!-- Node3 -->
<g id="node3" class="node">
<title>Node3</title>
<g id="a_node3"><a xlink:href="coordinate_8hpp.html" target="_top" xlink:title=" ">
<polygon fill="white" stroke="black" points="30,-56.5 30,-75.5 152,-75.5 152,-56.5 30,-56.5"/>
<text text-anchor="middle" x="91" y="-63.5" font-family="Helvetica,sans-Serif" font-size="10.00">shpxx/coordinate.hpp</text>
</a>
</g>
</g>
<!-- Node2&#45;&gt;Node3 -->
<g id="edge2" class="edge">
<title>Node2&#45;&gt;Node3</title>
<path fill="none" stroke="midnightblue" d="M91,-112.08C91,-105.01 91,-94.86 91,-85.99"/>
<polygon fill="midnightblue" stroke="midnightblue" points="94.5,-85.75 91,-75.75 87.5,-85.75 94.5,-85.75"/>
</g>
<!-- Node2&#45;&gt;Node5 -->
<g id="edge4" class="edge">
<title>Node2&#45;&gt;Node5</title>
<path fill="none" stroke="midnightblue" d="M109.06,-112.44C127.57,-103.68 156.58,-89.94 177.86,-79.86"/>
<polygon fill="midnightblue" stroke="midnightblue" points="179.48,-82.96 187.02,-75.52 176.49,-76.63 179.48,-82.96"/>
</g>
<!-- Node4 -->
<g id="node4" class="node">
<title>Node4</title>
<g id="a_node4"><a xlink:title=" ">
<polygon fill="white" stroke="#bfbfbf" points="67.5,-0.5 67.5,-19.5 114.5,-19.5 114.5,-0.5 67.5,-0.5"/>
<text text-anchor="middle" x="91" y="-7.5" font-family="Helvetica,sans-Serif" font-size="10.00">cmath</text>
</a>
</g>
</g>
<!-- Node3&#45;&gt;Node4 -->
<g id="edge3" class="edge">
<title>Node3&#45;&gt;Node4</title>
<path fill="none" stroke="midnightblue" d="M91,-56.08C91,-49.01 91,-38.86 91,-29.99"/>
<polygon fill="midnightblue" stroke="midnightblue" points="94.5,-29.75 91,-19.75 87.5,-29.75 94.5,-29.75"/>
</g>
</g>
</svg>
