<?xml version="1.0" encoding="UTF-8" standalone="no"?>
<!DOCTYPE svg PUBLIC "-//W3C//DTD SVG 1.1//EN"
 "http://www.w3.org/Graphics/SVG/1.1/DTD/svg11.dtd">
<!-- Generated by graphviz version 2.43.0 (0)
 -->
<!-- Title: Graphical Class Hierarchy Pages: 1 -->
<svg width="512pt" height="88pt"
 viewBox="0.00 0.00 512.00 88.00" xmlns="http://www.w3.org/2000/svg" xmlns:xlink="http://www.w3.org/1999/xlink">
<g id="graph0" class="graph" transform="scale(1 1) rotate(0) translate(4 84)">
<title>Graphical Class Hierarchy</title>
<polygon fill="white" stroke="transparent" points="-4,4 -4,-84 508,-84 508,4 -4,4"/>
<!-- Node8 -->
<g id="node1" class="node">
<title>Node8</title>
<g id="a_node1"><a xlink:title=" ">
<polygon fill="white" stroke="#bfbfbf" points="0,-30 0,-49 86,-49 86,-30 0,-30"/>
<text text-anchor="middle" x="43" y="-37" font-family="Helvetica,sans-Serif" font-size="10.00">std::exception</text>
</a>
</g>
</g>
<!-- Node9 -->
<g id="node2" class="node">
<title>Node9</title>
<g id="a_node2"><a xlink:title=" ">
<polygon fill="white" stroke="#bfbfbf" points="122,-30 122,-49 226,-49 226,-30 122,-30"/>
<text text-anchor="middle" x="174" y="-37" font-family="Helvetica,sans-Serif" font-size="10.00">std::runtime_error</text>
</a>
</g>
</g>
<!-- Node8&#45;&gt;Node9 -->
<g id="edge1" class="edge">
<title>Node8&#45;&gt;Node9</title>
<path fill="none" stroke="midnightblue" d="M96.27,-39.5C104.65,-39.5 113.31,-39.5 121.66,-39.5"/>
<polygon fill="midnightblue" stroke="midnightblue" points="96.24,-36 86.24,-39.5 96.24,-43 96.24,-36"/>
</g>
<!-- Node0 -->
<g id="node3" class="node">
<title>Node0</title>
<g id="a_node3"><a xlink:href="classshpxx_1_1error__t.html" target="_top" xlink:title="Base type for shpxx errors.">
<polygon fill="white" stroke="black" points="262,-30 262,-49 346,-49 346,-30 262,-30"/>
<text text-anchor="middle" x="304" y="-37" font-family="Helvetica,sans-Serif" font-size="10.00">shpxx::error_t</text>
</a>
</g>
</g>
<!-- Node9&#45;&gt;Node0 -->
<g id="edge2" class="edge">
<title>Node9&#45;&gt;Node0</title>
<path fill="none" stroke="midnightblue" d="M236.41,-39.5C245.05,-39.5 253.76,-39.5 261.9,-39.5"/>
<polygon fill="midnightblue" stroke="midnightblue" points="236.33,-36 226.32,-39.5 236.32,-43 236.33,-36"/>
</g>
<!-- Node1 -->
<g id="node4" class="node">
<title>Node1</title>
<g id="a_node4"><a xlink:href="classshpxx_1_1incompatible__feature__type__error__t.html" target="_top" xlink:title=" ">
<polygon fill="white" stroke="black" points="382,-49.5 382,-79.5 504,-79.5 504,-49.5 382,-49.5"/>
<text text-anchor="start" x="390" y="-67.5" font-family="Helvetica,sans-Serif" font-size="10.00">shpxx::incompatible</text>
<text text-anchor="middle" x="443" y="-56.5" font-family="Helvetica,sans-Serif" font-size="10.00">_feature_type_error_t</text>
</a>
</g>
</g>
<!-- Node0&#45;&gt;Node1 -->
<g id="edge3" class="edge">
<title>Node0&#45;&gt;Node1</title>
<path fill="none" stroke="midnightblue" d="M356.14,-48.83C364.55,-50.37 373.33,-51.97 381.93,-53.54"/>
<polygon fill="midnightblue" stroke="midnightblue" points="356.57,-45.35 346.1,-47 355.31,-52.24 356.57,-45.35"/>
</g>
<!-- Node2 -->
<g id="node5" class="node">
<title>Node2</title>
<g id="a_node5"><a xlink:href="classshpxx_1_1invalid__file__error__t.html" target="_top" xlink:title="Indicates that the file data was not readable.">
<polygon fill="white" stroke="black" points="390.5,-0.5 390.5,-30.5 495.5,-30.5 495.5,-0.5 390.5,-0.5"/>
<text text-anchor="start" x="398.5" y="-18.5" font-family="Helvetica,sans-Serif" font-size="10.00">shpxx::invalid_file</text>
<text text-anchor="middle" x="443" y="-7.5" font-family="Helvetica,sans-Serif" font-size="10.00">_error_t</text>
</a>
</g>
</g>
<!-- Node0&#45;&gt;Node2 -->
<g id="edge4" class="edge">
<title>Node0&#45;&gt;Node2</title>
<path fill="none" stroke="midnightblue" d="M356.12,-30.55C367.26,-28.59 379.06,-26.53 390.23,-24.57"/>
<polygon fill="midnightblue" stroke="midnightblue" points="355.35,-27.13 346.1,-32.3 356.56,-34.02 355.35,-27.13"/>
</g>
</g>
</svg>
