<?xml version="1.0" encoding="UTF-8" standalone="no"?>
<!DOCTYPE svg PUBLIC "-//W3C//DTD SVG 1.1//EN"
 "http://www.w3.org/Graphics/SVG/1.1/DTD/svg11.dtd">
<!-- Generated by graphviz version 2.43.0 (0)
 -->
<!-- Title: /home/runner/work/shpxx/shpxx/src/io/io_handler_concept.hpp Pages: 1 -->
<svg width="424pt" height="162pt"
 viewBox="0.00 0.00 423.50 162.00" xmlns="http://www.w3.org/2000/svg" xmlns:xlink="http://www.w3.org/1999/xlink">
<g id="graph0" class="graph" transform="scale(1 1) rotate(0) translate(4 158)">
<title>/home/runner/work/shpxx/shpxx/src/io/io_handler_concept.hpp</title>
<polygon fill="white" stroke="transparent" points="-4,4 -4,-158 419.5,-158 419.5,4 -4,4"/>
<!-- Node1 -->
<g id="node1" class="node">
<title>Node1</title>
<g id="a_node1"><a xlink:title=" ">
<polygon fill="#bfbfbf" stroke="black" points="175.5,-112.5 175.5,-153.5 316.5,-153.5 316.5,-112.5 175.5,-112.5"/>
<text text-anchor="start" x="183.5" y="-141.5" font-family="Helvetica,sans-Serif" font-size="10.00">/home/runner/work/shpxx</text>
<text text-anchor="start" x="183.5" y="-130.5" font-family="Helvetica,sans-Serif" font-size="10.00">/shpxx/src/io/io_handler</text>
<text text-anchor="middle" x="246" y="-119.5" font-family="Helvetica,sans-Serif" font-size="10.00">_concept.hpp</text>
</a>
</g>
</g>
<!-- Node2 -->
<g id="node2" class="node">
<title>Node2</title>
<g id="a_node2"><a xlink:href="openmode_8hpp.html" target="_top" xlink:title=" ">
<polygon fill="white" stroke="black" points="0,-56.5 0,-75.5 134,-75.5 134,-56.5 0,-56.5"/>
<text text-anchor="middle" x="67" y="-63.5" font-family="Helvetica,sans-Serif" font-size="10.00">shpxx/io/openmode.hpp</text>
</a>
</g>
</g>
<!-- Node1&#45;&gt;Node2 -->
<g id="edge1" class="edge">
<title>Node1&#45;&gt;Node2</title>
<path fill="none" stroke="midnightblue" d="M192.29,-112.5C162.48,-101.67 126.31,-88.54 100.51,-79.17"/>
<polygon fill="midnightblue" stroke="midnightblue" points="101.42,-75.78 90.83,-75.65 99.03,-82.36 101.42,-75.78"/>
</g>
<!-- Node4 -->
<g id="node4" class="node">
<title>Node4</title>
<g id="a_node4"><a xlink:title=" ">
<polygon fill="white" stroke="#bfbfbf" points="152,-56.5 152,-75.5 212,-75.5 212,-56.5 152,-56.5"/>
<text text-anchor="middle" x="182" y="-63.5" font-family="Helvetica,sans-Serif" font-size="10.00">concepts</text>
</a>
</g>
</g>
<!-- Node1&#45;&gt;Node4 -->
<g id="edge3" class="edge">
<title>Node1&#45;&gt;Node4</title>
<path fill="none" stroke="midnightblue" d="M226.8,-112.5C217.46,-103.01 206.37,-91.76 197.57,-82.81"/>
<polygon fill="midnightblue" stroke="midnightblue" points="200.03,-80.32 190.52,-75.65 195.04,-85.23 200.03,-80.32"/>
</g>
<!-- Node5 -->
<g id="node5" class="node">
<title>Node5</title>
<g id="a_node5"><a xlink:title=" ">
<polygon fill="white" stroke="#bfbfbf" points="230.5,-56.5 230.5,-75.5 261.5,-75.5 261.5,-56.5 230.5,-56.5"/>
<text text-anchor="middle" x="246" y="-63.5" font-family="Helvetica,sans-Serif" font-size="10.00">ios</text>
</a>
</g>
</g>
<!-- Node1&#45;&gt;Node5 -->
<g id="edge4" class="edge">
<title>Node1&#45;&gt;Node5</title>
<path fill="none" stroke="midnightblue" d="M246,-112.5C246,-104.07 246,-94.24 246,-85.87"/>
<polygon fill="midnightblue" stroke="midnightblue" points="249.5,-85.65 246,-75.65 242.5,-85.65 249.5,-85.65"/>
</g>
<!-- Node6 -->
<g id="node6" class="node">
<title>Node6</title>
<g id="a_node6"><a xlink:title=" ">
<polygon fill="white" stroke="#bfbfbf" points="279.5,-56.5 279.5,-75.5 352.5,-75.5 352.5,-56.5 279.5,-56.5"/>
<text text-anchor="middle" x="316" y="-63.5" font-family="Helvetica,sans-Serif" font-size="10.00">string_view</text>
</a>
</g>
</g>
<!-- Node1&#45;&gt;Node6 -->
<g id="edge5" class="edge">
<title>Node1&#45;&gt;Node6</title>
<path fill="none" stroke="midnightblue" d="M267,-112.5C277.32,-102.92 289.59,-91.53 299.26,-82.54"/>
<polygon fill="midnightblue" stroke="midnightblue" points="301.74,-85.02 306.68,-75.65 296.97,-79.89 301.74,-85.02"/>
</g>
<!-- Node7 -->
<g id="node7" class="node">
<title>Node7</title>
<g id="a_node7"><a xlink:title=" ">
<polygon fill="white" stroke="#bfbfbf" points="370.5,-56.5 370.5,-75.5 415.5,-75.5 415.5,-56.5 370.5,-56.5"/>
<text text-anchor="middle" x="393" y="-63.5" font-family="Helvetica,sans-Serif" font-size="10.00">utility</text>
</a>
</g>
</g>
<!-- Node1&#45;&gt;Node7 -->
<g id="edge6" class="edge">
<title>Node1&#45;&gt;Node7</title>
<path fill="none" stroke="midnightblue" d="M290.1,-112.5C314.05,-101.91 342.98,-89.12 364.06,-79.8"/>
<polygon fill="midnightblue" stroke="midnightblue" points="365.7,-82.9 373.43,-75.65 362.87,-76.5 365.7,-82.9"/>
</g>
<!-- Node3 -->
<g id="node3" class="node">
<title>Node3</title>
<g id="a_node3"><a xlink:title=" ">
<polygon fill="white" stroke="#bfbfbf" points="42,-0.5 42,-19.5 92,-19.5 92,-0.5 42,-0.5"/>
<text text-anchor="middle" x="67" y="-7.5" font-family="Helvetica,sans-Serif" font-size="10.00">cstdint</text>
</a>
</g>
</g>
<!-- Node2&#45;&gt;Node3 -->
<g id="edge2" class="edge">
<title>Node2&#45;&gt;Node3</title>
<path fill="none" stroke="midnightblue" d="M67,-56.08C67,-49.01 67,-38.86 67,-29.99"/>
<polygon fill="midnightblue" stroke="midnightblue" points="70.5,-29.75 67,-19.75 63.5,-29.75 70.5,-29.75"/>
</g>
</g>
</svg>
