<?xml version="1.0" encoding="UTF-8" standalone="no"?>
<!DOCTYPE svg PUBLIC "-//W3C//DTD SVG 1.1//EN"
 "http://www.w3.org/Graphics/SVG/1.1/DTD/svg11.dtd">
<!-- Generated by graphviz version 2.43.0 (0)
 -->
<!-- Title: /home/runner/work/shpxx/shpxx/include/shpxx/concepts/is_coordinate.hpp Pages: 1 -->
<svg width="208pt" height="162pt"
 viewBox="0.00 0.00 208.00 162.00" xmlns="http://www.w3.org/2000/svg" xmlns:xlink="http://www.w3.org/1999/xlink">
<g id="graph0" class="graph" transform="scale(1 1) rotate(0) translate(4 158)">
<title>/home/runner/work/shpxx/shpxx/include/shpxx/concepts/is_coordinate.hpp</title>
<polygon fill="white" stroke="transparent" points="-4,4 -4,-158 204,-158 204,4 -4,4"/>
<!-- Node1 -->
<g id="node1" class="node">
<title>Node1</title>
<g id="a_node1"><a xlink:title=" ">
<polygon fill="#bfbfbf" stroke="black" points="32,-112.5 32,-153.5 198,-153.5 198,-112.5 32,-112.5"/>
<text text-anchor="start" x="40" y="-141.5" font-family="Helvetica,sans-Serif" font-size="10.00">/home/runner/work/shpxx</text>
<text text-anchor="start" x="40" y="-130.5" font-family="Helvetica,sans-Serif" font-size="10.00">/shpxx/include/shpxx/concepts</text>
<text text-anchor="middle" x="115" y="-119.5" font-family="Helvetica,sans-Serif" font-size="10.00">/is_coordinate.hpp</text>
</a>
</g>
</g>
<!-- Node2 -->
<g id="node2" class="node">
<title>Node2</title>
<g id="a_node2"><a xlink:href="coordinate_8hpp.html" target="_top" xlink:title=" ">
<polygon fill="white" stroke="black" points="0,-56.5 0,-75.5 122,-75.5 122,-56.5 0,-56.5"/>
<text text-anchor="middle" x="61" y="-63.5" font-family="Helvetica,sans-Serif" font-size="10.00">shpxx/coordinate.hpp</text>
</a>
</g>
</g>
<!-- Node1&#45;&gt;Node2 -->
<g id="edge1" class="edge">
<title>Node1&#45;&gt;Node2</title>
<path fill="none" stroke="midnightblue" d="M98.8,-112.5C91.08,-103.2 81.94,-92.21 74.59,-83.36"/>
<polygon fill="midnightblue" stroke="midnightblue" points="77.27,-81.11 68.19,-75.65 71.89,-85.58 77.27,-81.11"/>
</g>
<!-- Node4 -->
<g id="node4" class="node">
<title>Node4</title>
<g id="a_node4"><a xlink:title=" ">
<polygon fill="white" stroke="#bfbfbf" points="140,-56.5 140,-75.5 200,-75.5 200,-56.5 140,-56.5"/>
<text text-anchor="middle" x="170" y="-63.5" font-family="Helvetica,sans-Serif" font-size="10.00">concepts</text>
</a>
</g>
</g>
<!-- Node1&#45;&gt;Node4 -->
<g id="edge3" class="edge">
<title>Node1&#45;&gt;Node4</title>
<path fill="none" stroke="midnightblue" d="M131.5,-112.5C139.37,-103.2 148.67,-92.21 156.16,-83.36"/>
<polygon fill="midnightblue" stroke="midnightblue" points="158.89,-85.55 162.68,-75.65 153.55,-81.03 158.89,-85.55"/>
</g>
<!-- Node3 -->
<g id="node3" class="node">
<title>Node3</title>
<g id="a_node3"><a xlink:title=" ">
<polygon fill="white" stroke="#bfbfbf" points="37.5,-0.5 37.5,-19.5 84.5,-19.5 84.5,-0.5 37.5,-0.5"/>
<text text-anchor="middle" x="61" y="-7.5" font-family="Helvetica,sans-Serif" font-size="10.00">cmath</text>
</a>
</g>
</g>
<!-- Node2&#45;&gt;Node3 -->
<g id="edge2" class="edge">
<title>Node2&#45;&gt;Node3</title>
<path fill="none" stroke="midnightblue" d="M61,-56.08C61,-49.01 61,-38.86 61,-29.99"/>
<polygon fill="midnightblue" stroke="midnightblue" points="64.5,-29.75 61,-19.75 57.5,-29.75 64.5,-29.75"/>
</g>
</g>
</svg>
