<?xml version="1.0" encoding="UTF-8" standalone="no"?>
<!DOCTYPE svg PUBLIC "-//W3C//DTD SVG 1.1//EN"
 "http://www.w3.org/Graphics/SVG/1.1/DTD/svg11.dtd">
<!-- Generated by graphviz version 2.43.0 (0)
 -->
<!-- Title: /home/runner/work/shpxx/shpxx/include/shpxx/concepts/is_coordinate.hpp Pages: 1 -->
<svg width="481pt" height="652pt"
 viewBox="0.00 0.00 481.00 652.00" xmlns="http://www.w3.org/2000/svg" xmlns:xlink="http://www.w3.org/1999/xlink">
<g id="graph0" class="graph" transform="scale(1 1) rotate(0) translate(4 648)">
<title>/home/runner/work/shpxx/shpxx/include/shpxx/concepts/is_coordinate.hpp</title>
<polygon fill="white" stroke="transparent" points="-4,4 -4,-648 477,-648 477,4 -4,4"/>
<!-- Node1 -->
<g id="node1" class="node">
<title>Node1</title>
<g id="a_node1"><a xlink:title=" ">
<polygon fill="#bfbfbf" stroke="black" points="160.5,-602.5 160.5,-643.5 326.5,-643.5 326.5,-602.5 160.5,-602.5"/>
<text text-anchor="start" x="168.5" y="-631.5" font-family="Helvetica,sans-Serif" font-size="10.00">/home/runner/work/shpxx</text>
<text text-anchor="start" x="168.5" y="-620.5" font-family="Helvetica,sans-Serif" font-size="10.00">/shpxx/include/shpxx/concepts</text>
<text text-anchor="middle" x="243.5" y="-609.5" font-family="Helvetica,sans-Serif" font-size="10.00">/is_coordinate.hpp</text>
</a>
</g>
</g>
<!-- Node2 -->
<g id="node2" class="node">
<title>Node2</title>
<g id="a_node2"><a xlink:href="has__zm_8hpp.html" target="_top" xlink:title=" ">
<polygon fill="white" stroke="black" points="30.5,-524.5 30.5,-565.5 196.5,-565.5 196.5,-524.5 30.5,-524.5"/>
<text text-anchor="start" x="38.5" y="-553.5" font-family="Helvetica,sans-Serif" font-size="10.00">/home/runner/work/shpxx</text>
<text text-anchor="start" x="38.5" y="-542.5" font-family="Helvetica,sans-Serif" font-size="10.00">/shpxx/include/shpxx/concepts</text>
<text text-anchor="middle" x="113.5" y="-531.5" font-family="Helvetica,sans-Serif" font-size="10.00">/has_zm.hpp</text>
</a>
</g>
</g>
<!-- Node1&#45;&gt;Node2 -->
<g id="edge1" class="edge">
<title>Node1&#45;&gt;Node2</title>
<path fill="none" stroke="midnightblue" d="M201.08,-597.2C183.49,-586.92 163.38,-575.16 146.86,-565.51"/>
<polygon fill="midnightblue" stroke="midnightblue" points="199.62,-600.4 210.02,-602.43 203.16,-594.36 199.62,-600.4"/>
</g>
<!-- Node3 -->
<g id="node3" class="node">
<title>Node3</title>
<g id="a_node3"><a xlink:href="coordinate__cast__impl_8hpp.html" target="_top" xlink:title=" ">
<polygon fill="white" stroke="black" points="60.5,-446.5 60.5,-487.5 234.5,-487.5 234.5,-446.5 60.5,-446.5"/>
<text text-anchor="start" x="68.5" y="-475.5" font-family="Helvetica,sans-Serif" font-size="10.00">/home/runner/work/shpxx</text>
<text text-anchor="start" x="68.5" y="-464.5" font-family="Helvetica,sans-Serif" font-size="10.00">/shpxx/include/shpxx/coordinate</text>
<text text-anchor="middle" x="147.5" y="-453.5" font-family="Helvetica,sans-Serif" font-size="10.00">_cast_impl.hpp</text>
</a>
</g>
</g>
<!-- Node1&#45;&gt;Node3 -->
<g id="edge15" class="edge">
<title>Node1&#45;&gt;Node3</title>
<path fill="none" stroke="midnightblue" d="M235.8,-592.73C229.6,-572.38 219.58,-545.19 205.5,-524 196.44,-510.36 183.54,-497.49 172.21,-487.54"/>
<polygon fill="midnightblue" stroke="midnightblue" points="232.46,-593.78 238.62,-602.41 239.18,-591.83 232.46,-593.78"/>
</g>
<!-- Node4 -->
<g id="node4" class="node">
<title>Node4</title>
<g id="a_node4"><a xlink:href="coordinate__cast_8hpp.html" target="_top" xlink:title=" ">
<polygon fill="white" stroke="black" points="79.5,-368.5 79.5,-409.5 253.5,-409.5 253.5,-368.5 79.5,-368.5"/>
<text text-anchor="start" x="87.5" y="-397.5" font-family="Helvetica,sans-Serif" font-size="10.00">/home/runner/work/shpxx</text>
<text text-anchor="start" x="87.5" y="-386.5" font-family="Helvetica,sans-Serif" font-size="10.00">/shpxx/include/shpxx/coordinate</text>
<text text-anchor="middle" x="166.5" y="-375.5" font-family="Helvetica,sans-Serif" font-size="10.00">_cast.hpp</text>
</a>
</g>
</g>
<!-- Node1&#45;&gt;Node4 -->
<g id="edge14" class="edge">
<title>Node1&#45;&gt;Node4</title>
<path fill="none" stroke="midnightblue" d="M251.26,-592.44C259.19,-555.86 267.29,-492.71 243.5,-446 235.7,-430.68 221.53,-418.57 207.45,-409.58"/>
<polygon fill="midnightblue" stroke="midnightblue" points="247.79,-591.92 248.95,-602.45 254.61,-593.49 247.79,-591.92"/>
</g>
<!-- Node5 -->
<g id="node5" class="node">
<title>Node5</title>
<g id="a_node5"><a xlink:href="point_8hpp.html" target="_top" xlink:title=" ">
<polygon fill="white" stroke="black" points="144.5,-290.5 144.5,-331.5 302.5,-331.5 302.5,-290.5 144.5,-290.5"/>
<text text-anchor="start" x="152.5" y="-319.5" font-family="Helvetica,sans-Serif" font-size="10.00">/home/runner/work/shpxx</text>
<text text-anchor="start" x="152.5" y="-308.5" font-family="Helvetica,sans-Serif" font-size="10.00">/shpxx/include/shpxx/feature</text>
<text text-anchor="middle" x="223.5" y="-297.5" font-family="Helvetica,sans-Serif" font-size="10.00">/point.hpp</text>
</a>
</g>
</g>
<!-- Node1&#45;&gt;Node5 -->
<g id="edge16" class="edge">
<title>Node1&#45;&gt;Node5</title>
<path fill="none" stroke="midnightblue" d="M261.5,-593.65C266,-585.09 270.2,-575.45 272.5,-566 283.37,-521.36 288.44,-442.24 262.5,-368 257.85,-354.69 249.1,-341.65 241.06,-331.51"/>
<polygon fill="midnightblue" stroke="midnightblue" points="258.4,-592.01 256.57,-602.44 264.51,-595.43 258.4,-592.01"/>
</g>
<!-- Node2&#45;&gt;Node3 -->
<g id="edge2" class="edge">
<title>Node2&#45;&gt;Node3</title>
<path fill="none" stroke="midnightblue" d="M126.4,-515.17C130.53,-505.93 135.01,-495.92 138.77,-487.51"/>
<polygon fill="midnightblue" stroke="midnightblue" points="123.14,-513.87 122.26,-524.43 129.53,-516.73 123.14,-513.87"/>
</g>
<!-- Node3&#45;&gt;Node4 -->
<g id="edge3" class="edge">
<title>Node3&#45;&gt;Node4</title>
<path fill="none" stroke="midnightblue" d="M148.26,-436.59C150.19,-427.51 152.84,-417.74 155.64,-409.51"/>
<polygon fill="midnightblue" stroke="midnightblue" points="144.82,-435.95 146.4,-446.43 151.7,-437.25 144.82,-435.95"/>
</g>
<!-- Node4&#45;&gt;Node3 -->
<g id="edge4" class="edge">
<title>Node4&#45;&gt;Node3</title>
<path fill="none" stroke="midnightblue" d="M165.76,-419.34C163.83,-428.41 161.18,-438.18 158.38,-446.43"/>
<polygon fill="midnightblue" stroke="midnightblue" points="169.2,-419.98 167.61,-409.51 162.32,-418.69 169.2,-419.98"/>
</g>
<!-- Node4&#45;&gt;Node5 -->
<g id="edge5" class="edge">
<title>Node4&#45;&gt;Node5</title>
<path fill="none" stroke="midnightblue" d="M187.25,-360.34C194.42,-350.78 202.3,-340.27 208.87,-331.51"/>
<polygon fill="midnightblue" stroke="midnightblue" points="184.38,-358.33 181.18,-368.43 189.98,-362.53 184.38,-358.33"/>
</g>
<!-- Node6 -->
<g id="node6" class="node">
<title>Node6</title>
<g id="a_node6"><a xlink:href="point_8cpp.html" target="_top" xlink:title=" ">
<polygon fill="white" stroke="black" points="59.5,-218 59.5,-248 211.5,-248 211.5,-218 59.5,-218"/>
<text text-anchor="start" x="67.5" y="-236" font-family="Helvetica,sans-Serif" font-size="10.00">/home/runner/work/shpxx</text>
<text text-anchor="middle" x="135.5" y="-225" font-family="Helvetica,sans-Serif" font-size="10.00">/shpxx/src/feature/point.cpp</text>
</a>
</g>
</g>
<!-- Node5&#45;&gt;Node6 -->
<g id="edge6" class="edge">
<title>Node5&#45;&gt;Node6</title>
<path fill="none" stroke="midnightblue" d="M193,-283.66C179.22,-271.76 163.49,-258.18 151.97,-248.23"/>
<polygon fill="midnightblue" stroke="midnightblue" points="190.98,-286.54 200.84,-290.43 195.56,-281.24 190.98,-286.54"/>
</g>
<!-- Node7 -->
<g id="node7" class="node">
<title>Node7</title>
<g id="a_node7"><a xlink:href="is__feature_8hpp.html" target="_top" xlink:title=" ">
<polygon fill="white" stroke="black" points="229.5,-212.5 229.5,-253.5 395.5,-253.5 395.5,-212.5 229.5,-212.5"/>
<text text-anchor="start" x="237.5" y="-241.5" font-family="Helvetica,sans-Serif" font-size="10.00">/home/runner/work/shpxx</text>
<text text-anchor="start" x="237.5" y="-230.5" font-family="Helvetica,sans-Serif" font-size="10.00">/shpxx/include/shpxx/concepts</text>
<text text-anchor="middle" x="312.5" y="-219.5" font-family="Helvetica,sans-Serif" font-size="10.00">/is_feature.hpp</text>
</a>
</g>
</g>
<!-- Node5&#45;&gt;Node7 -->
<g id="edge7" class="edge">
<title>Node5&#45;&gt;Node7</title>
<path fill="none" stroke="midnightblue" d="M254.21,-283.78C265.84,-273.84 278.87,-262.72 289.66,-253.51"/>
<polygon fill="midnightblue" stroke="midnightblue" points="251.75,-281.27 246.42,-290.43 256.3,-286.6 251.75,-281.27"/>
</g>
<!-- Node8 -->
<g id="node8" class="node">
<title>Node8</title>
<g id="a_node8"><a xlink:href="shpfile_8hpp.html" target="_top" xlink:title=" ">
<polygon fill="white" stroke="black" points="224.5,-145.5 224.5,-175.5 400.5,-175.5 400.5,-145.5 224.5,-145.5"/>
<text text-anchor="start" x="232.5" y="-163.5" font-family="Helvetica,sans-Serif" font-size="10.00">/home/runner/work/shpxx</text>
<text text-anchor="middle" x="312.5" y="-152.5" font-family="Helvetica,sans-Serif" font-size="10.00">/shpxx/include/shpxx/shpfile.hpp</text>
</a>
</g>
</g>
<!-- Node7&#45;&gt;Node8 -->
<g id="edge8" class="edge">
<title>Node7&#45;&gt;Node8</title>
<path fill="none" stroke="midnightblue" d="M312.5,-202.08C312.5,-193.01 312.5,-183.45 312.5,-175.89"/>
<polygon fill="midnightblue" stroke="midnightblue" points="309,-202.36 312.5,-212.36 316,-202.36 309,-202.36"/>
</g>
<!-- Node9 -->
<g id="node9" class="node">
<title>Node9</title>
<g id="a_node9"><a xlink:href="shpfile_8cpp.html" target="_top" xlink:title=" ">
<polygon fill="white" stroke="black" points="0,-73 0,-103 141,-103 141,-73 0,-73"/>
<text text-anchor="start" x="8" y="-91" font-family="Helvetica,sans-Serif" font-size="10.00">/home/runner/work/shpxx</text>
<text text-anchor="middle" x="70.5" y="-80" font-family="Helvetica,sans-Serif" font-size="10.00">/shpxx/src/shpfile.cpp</text>
</a>
</g>
</g>
<!-- Node8&#45;&gt;Node9 -->
<g id="edge9" class="edge">
<title>Node8&#45;&gt;Node9</title>
<path fill="none" stroke="midnightblue" d="M254.71,-142.66C213.27,-130.59 158.06,-114.51 118.92,-103.11"/>
<polygon fill="midnightblue" stroke="midnightblue" points="253.82,-146.05 264.4,-145.49 255.78,-139.33 253.82,-146.05"/>
</g>
<!-- Node10 -->
<g id="node10" class="node">
<title>Node10</title>
<g id="a_node10"><a xlink:href="file_8hpp.html" target="_top" xlink:title=" ">
<polygon fill="white" stroke="black" points="159,-67.5 159,-108.5 300,-108.5 300,-67.5 159,-67.5"/>
<text text-anchor="start" x="167" y="-96.5" font-family="Helvetica,sans-Serif" font-size="10.00">/home/runner/work/shpxx</text>
<text text-anchor="start" x="167" y="-85.5" font-family="Helvetica,sans-Serif" font-size="10.00">/shpxx/include/shpxx/io</text>
<text text-anchor="middle" x="229.5" y="-74.5" font-family="Helvetica,sans-Serif" font-size="10.00">/file.hpp</text>
</a>
</g>
</g>
<!-- Node8&#45;&gt;Node10 -->
<g id="edge10" class="edge">
<title>Node8&#45;&gt;Node10</title>
<path fill="none" stroke="midnightblue" d="M287.96,-138.66C276.76,-129.15 263.57,-117.94 252.56,-108.59"/>
<polygon fill="midnightblue" stroke="midnightblue" points="285.82,-141.43 295.7,-145.23 290.35,-136.09 285.82,-141.43"/>
</g>
<!-- Node12 -->
<g id="node12" class="node">
<title>Node12</title>
<g id="a_node12"><a xlink:href="shpfile__impl_8hpp.html" target="_top" xlink:title=" ">
<polygon fill="white" stroke="black" points="318,-67.5 318,-108.5 473,-108.5 473,-67.5 318,-67.5"/>
<text text-anchor="start" x="326" y="-96.5" font-family="Helvetica,sans-Serif" font-size="10.00">/home/runner/work/shpxx</text>
<text text-anchor="start" x="326" y="-85.5" font-family="Helvetica,sans-Serif" font-size="10.00">/shpxx/include/shpxx/shpfile</text>
<text text-anchor="middle" x="395.5" y="-74.5" font-family="Helvetica,sans-Serif" font-size="10.00">_impl.hpp</text>
</a>
</g>
</g>
<!-- Node8&#45;&gt;Node12 -->
<g id="edge12" class="edge">
<title>Node8&#45;&gt;Node12</title>
<path fill="none" stroke="midnightblue" d="M331.12,-138.38C341.53,-128.93 354.62,-117.85 366.32,-108.59"/>
<polygon fill="midnightblue" stroke="midnightblue" points="328.69,-135.86 323.75,-145.23 333.46,-140.99 328.69,-135.86"/>
</g>
<!-- Node11 -->
<g id="node11" class="node">
<title>Node11</title>
<g id="a_node11"><a xlink:href="file_8cpp.html" target="_top" xlink:title=" ">
<polygon fill="white" stroke="black" points="159,-0.5 159,-30.5 300,-30.5 300,-0.5 159,-0.5"/>
<text text-anchor="start" x="167" y="-18.5" font-family="Helvetica,sans-Serif" font-size="10.00">/home/runner/work/shpxx</text>
<text text-anchor="middle" x="229.5" y="-7.5" font-family="Helvetica,sans-Serif" font-size="10.00">/shpxx/src/io/file.cpp</text>
</a>
</g>
</g>
<!-- Node10&#45;&gt;Node11 -->
<g id="edge11" class="edge">
<title>Node10&#45;&gt;Node11</title>
<path fill="none" stroke="midnightblue" d="M229.5,-57.08C229.5,-48.01 229.5,-38.45 229.5,-30.89"/>
<polygon fill="midnightblue" stroke="midnightblue" points="226,-57.36 229.5,-67.36 233,-57.36 226,-57.36"/>
</g>
<!-- Node12&#45;&gt;Node8 -->
<g id="edge13" class="edge">
<title>Node12&#45;&gt;Node8</title>
<path fill="none" stroke="midnightblue" d="M370.99,-115.38C359.53,-125.5 346.05,-136.67 334.84,-145.23"/>
<polygon fill="midnightblue" stroke="midnightblue" points="373.46,-117.88 378.56,-108.59 368.78,-112.67 373.46,-117.88"/>
</g>
</g>
</svg>
