<?xml version="1.0" encoding="UTF-8" standalone="no"?>
<!DOCTYPE svg PUBLIC "-//W3C//DTD SVG 1.1//EN"
 "http://www.w3.org/Graphics/SVG/1.1/DTD/svg11.dtd">
<!-- Generated by graphviz version 2.43.0 (0)
 -->
<!-- Title: /home/runner/work/shpxx/shpxx/include/shpxx/concepts/is_feature.hpp Pages: 1 -->
<!--zoomable 475 -->
<svg id="main" version="1.1" xmlns="http://www.w3.org/2000/svg" xmlns:xlink="http://www.w3.org/1999/xlink" xml:space="preserve" onload="init(evt)">
<style type="text/css"><![CDATA[
.edge:hover path { stroke: red; }
.edge:hover polygon { stroke: red; fill: red; }
]]></style>
<script type="text/javascript"><![CDATA[
var edges = document.getElementsByTagName('g');
if (edges && edges.length) {
  for (var i=0;i<edges.length;i++) {
    if (edges[i].id.substr(0,4)=='edge') {
      edges[i].setAttribute('class','edge');
    }
  }
}
]]></script>
        <defs>
                <circle id="rim" cx="0" cy="0" r="7"/>
                <circle id="rim2" cx="0" cy="0" r="3.5"/>
                <g id="zoomPlus">
                        <use xlink:href="#rim" fill="#404040">
                                <set attributeName="fill" to="#808080" begin="zoomplus.mouseover" end="zoomplus.mouseout"/>
                        </use>
                        <path d="M-4,0h8M0,-4v8" fill="none" stroke="white" stroke-width="1.5" pointer-events="none"/>
                </g>
                <g id="zoomMin">
                        <use xlink:href="#rim" fill="#404040">
                                <set attributeName="fill" to="#808080" begin="zoomminus.mouseover" end="zoomminus.mouseout"/>
                        </use>
                        <path d="M-4,0h8" fill="none" stroke="white" stroke-width="1.5" pointer-events="none"/>
                </g>
                <g id="dirArrow">
                        <path fill="none" stroke="white" stroke-width="1.5" d="M0,-3.0v7 M-2.5,-0.5L0,-3.0L2.5,-0.5"/>
                </g>
               <g id="resetDef">
                       <use xlink:href="#rim2" fill="#404040">
                               <set attributeName="fill" to="#808080" begin="reset.mouseover" end="reset.mouseout"/>
                       </use>
               </g>
        </defs>

<script type="text/javascript">
var viewWidth = 815;
var viewHeight = 475;
var sectionId = 'dynsection-0';
</script>
<script xlink:href="svgpan.js"/>
<svg id="graph" class="graph">
<g id="viewport">
<title>/home/runner/work/shpxx/shpxx/include/shpxx/concepts/is_feature.hpp</title>
<polygon fill="white" stroke="transparent" points="-4,4 -4,-471 810.51,-471 810.51,4 -4,4"/>
<!-- Node1 -->
<g id="node1" class="node">
<title>Node1</title>
<g id="a_node1"><a xlink:title=" ">
<polygon fill="#bfbfbf" stroke="black" points="351,-425.5 351,-466.5 517,-466.5 517,-425.5 351,-425.5"/>
<text text-anchor="start" x="359" y="-454.5" font-family="Helvetica,sans-Serif" font-size="10.00">/home/runner/work/shpxx</text>
<text text-anchor="start" x="359" y="-443.5" font-family="Helvetica,sans-Serif" font-size="10.00">/shpxx/include/shpxx/concepts</text>
<text text-anchor="middle" x="434" y="-432.5" font-family="Helvetica,sans-Serif" font-size="10.00">/is_feature.hpp</text>
</a>
</g>
</g>
<!-- Node2 -->
<g id="node2" class="node">
<title>Node2</title>
<g id="a_node2"><a xlink:href="linestring_8hpp.html" target="_top" xlink:title=" ">
<polygon fill="white" stroke="black" points="0,-364 0,-383 154,-383 154,-364 0,-364"/>
<text text-anchor="middle" x="77" y="-371" font-family="Helvetica,sans-Serif" font-size="10.00">shpxx/feature/linestring.hpp</text>
</a>
</g>
</g>
<!-- Node1&#45;&gt;Node2 -->
<g id="edge1" class="edge">
<title>Node1&#45;&gt;Node2</title>
<path fill="none" stroke="midnightblue" d="M350.75,-428.56C282.72,-415.13 188.59,-396.54 130.31,-385.03"/>
<polygon fill="midnightblue" stroke="midnightblue" points="130.71,-381.54 120.22,-383.03 129.35,-388.41 130.71,-381.54"/>
</g>
<!-- Node7 -->
<g id="node7" class="node">
<title>Node7</title>
<g id="a_node7"><a xlink:href="multi__patch_8hpp.html" target="_top" xlink:title=" ">
<polygon fill="white" stroke="black" points="172.5,-358.5 172.5,-388.5 285.5,-388.5 285.5,-358.5 172.5,-358.5"/>
<text text-anchor="start" x="180.5" y="-376.5" font-family="Helvetica,sans-Serif" font-size="10.00">shpxx/feature/multi</text>
<text text-anchor="middle" x="229" y="-365.5" font-family="Helvetica,sans-Serif" font-size="10.00">_patch.hpp</text>
</a>
</g>
</g>
<!-- Node1&#45;&gt;Node7 -->
<g id="edge6" class="edge">
<title>Node1&#45;&gt;Node7</title>
<path fill="none" stroke="midnightblue" d="M377.17,-425.46C346.61,-414.95 309.26,-402.1 279.7,-391.93"/>
<polygon fill="midnightblue" stroke="midnightblue" points="280.59,-388.54 269.99,-388.6 278.31,-395.16 280.59,-388.54"/>
</g>
<!-- Node8 -->
<g id="node8" class="node">
<title>Node8</title>
<g id="a_node8"><a xlink:href="multi__point_8hpp.html" target="_top" xlink:title=" ">
<polygon fill="white" stroke="black" points="303.5,-358.5 303.5,-388.5 416.5,-388.5 416.5,-358.5 303.5,-358.5"/>
<text text-anchor="start" x="311.5" y="-376.5" font-family="Helvetica,sans-Serif" font-size="10.00">shpxx/feature/multi</text>
<text text-anchor="middle" x="360" y="-365.5" font-family="Helvetica,sans-Serif" font-size="10.00">_point.hpp</text>
</a>
</g>
</g>
<!-- Node1&#45;&gt;Node8 -->
<g id="edge9" class="edge">
<title>Node1&#45;&gt;Node8</title>
<path fill="none" stroke="midnightblue" d="M413.39,-425.36C403.8,-416.23 392.38,-405.35 382.57,-396"/>
<polygon fill="midnightblue" stroke="midnightblue" points="384.76,-393.26 375.11,-388.89 379.93,-398.32 384.76,-393.26"/>
</g>
<!-- Node9 -->
<g id="node9" class="node">
<title>Node9</title>
<g id="a_node9"><a xlink:href="point_8hpp.html" target="_top" xlink:title=" ">
<polygon fill="white" stroke="black" points="599.5,-364 599.5,-383 732.5,-383 732.5,-364 599.5,-364"/>
<text text-anchor="middle" x="666" y="-371" font-family="Helvetica,sans-Serif" font-size="10.00">shpxx/feature/point.hpp</text>
</a>
</g>
</g>
<!-- Node1&#45;&gt;Node9 -->
<g id="edge12" class="edge">
<title>Node1&#45;&gt;Node9</title>
<path fill="none" stroke="midnightblue" d="M498.32,-425.46C540.06,-412.77 593.02,-396.68 628.14,-386.01"/>
<polygon fill="midnightblue" stroke="midnightblue" points="629.44,-389.27 637.99,-383.01 627.4,-382.57 629.44,-389.27"/>
</g>
<!-- Node13 -->
<g id="node13" class="node">
<title>Node13</title>
<g id="a_node13"><a xlink:title=" ">
<polygon fill="white" stroke="#bfbfbf" points="657,-56.5 657,-75.5 717,-75.5 717,-56.5 657,-56.5"/>
<text text-anchor="middle" x="687" y="-63.5" font-family="Helvetica,sans-Serif" font-size="10.00">concepts</text>
</a>
</g>
</g>
<!-- Node1&#45;&gt;Node13 -->
<g id="edge32" class="edge">
<title>Node1&#45;&gt;Node13</title>
<path fill="none" stroke="midnightblue" d="M517.05,-436.31C594.86,-427.02 704.62,-410.67 742,-389 780.2,-366.85 806,-357.16 806,-313 806,-313 806,-313 806,-182.5 806,-150.05 808.04,-136.7 787,-112 771.62,-93.94 747.52,-82.8 726.83,-76.12"/>
<polygon fill="midnightblue" stroke="midnightblue" points="727.58,-72.7 717,-73.19 725.58,-79.4 727.58,-72.7"/>
</g>
<!-- Node17 -->
<g id="node17" class="node">
<title>Node17</title>
<g id="a_node17"><a xlink:href="polygon_8hpp.html" target="_top" xlink:title=" ">
<polygon fill="white" stroke="black" points="434.5,-364 434.5,-383 581.5,-383 581.5,-364 434.5,-364"/>
<text text-anchor="middle" x="508" y="-371" font-family="Helvetica,sans-Serif" font-size="10.00">shpxx/feature/polygon.hpp</text>
</a>
</g>
</g>
<!-- Node1&#45;&gt;Node17 -->
<g id="edge29" class="edge">
<title>Node1&#45;&gt;Node17</title>
<path fill="none" stroke="midnightblue" d="M454.61,-425.36C466.2,-414.32 480.47,-400.72 491.35,-390.37"/>
<polygon fill="midnightblue" stroke="midnightblue" points="494.07,-392.61 498.9,-383.17 489.24,-387.54 494.07,-392.61"/>
</g>
<!-- Node3 -->
<g id="node3" class="node">
<title>Node3</title>
<g id="a_node3"><a xlink:href="shape__type_8hpp.html" target="_top" xlink:title=" ">
<polygon fill="white" stroke="black" points="176,-302.5 176,-321.5 302,-321.5 302,-302.5 176,-302.5"/>
<text text-anchor="middle" x="239" y="-309.5" font-family="Helvetica,sans-Serif" font-size="10.00">shpxx/shape_type.hpp</text>
</a>
</g>
</g>
<!-- Node2&#45;&gt;Node3 -->
<g id="edge2" class="edge">
<title>Node2&#45;&gt;Node3</title>
<path fill="none" stroke="midnightblue" d="M100.21,-363.98C128,-353.77 174.72,-336.61 206.19,-325.05"/>
<polygon fill="midnightblue" stroke="midnightblue" points="207.65,-328.24 215.83,-321.51 205.24,-321.67 207.65,-328.24"/>
</g>
<!-- Node5 -->
<g id="node5" class="node">
<title>Node5</title>
<g id="a_node5"><a xlink:href="shp__handle_8hpp.html" target="_top" xlink:title=" ">
<polygon fill="white" stroke="black" points="320.5,-302.5 320.5,-321.5 445.5,-321.5 445.5,-302.5 320.5,-302.5"/>
<text text-anchor="middle" x="383" y="-309.5" font-family="Helvetica,sans-Serif" font-size="10.00">shpxx/shp_handle.hpp</text>
</a>
</g>
</g>
<!-- Node2&#45;&gt;Node5 -->
<g id="edge4" class="edge">
<title>Node2&#45;&gt;Node5</title>
<path fill="none" stroke="midnightblue" d="M120.84,-363.98C175.83,-353.28 270.07,-334.96 329.32,-323.44"/>
<polygon fill="midnightblue" stroke="midnightblue" points="330.09,-326.85 339.24,-321.51 328.75,-319.98 330.09,-326.85"/>
</g>
<!-- Node4 -->
<g id="node4" class="node">
<title>Node4</title>
<g id="a_node4"><a xlink:title=" ">
<polygon fill="white" stroke="#bfbfbf" points="217,-241 217,-260 261,-260 261,-241 217,-241"/>
<text text-anchor="middle" x="239" y="-248" font-family="Helvetica,sans-Serif" font-size="10.00">string</text>
</a>
</g>
</g>
<!-- Node3&#45;&gt;Node4 -->
<g id="edge3" class="edge">
<title>Node3&#45;&gt;Node4</title>
<path fill="none" stroke="midnightblue" d="M239,-302.48C239,-294.08 239,-280.98 239,-270.16"/>
<polygon fill="midnightblue" stroke="midnightblue" points="242.5,-270.01 239,-260.01 235.5,-270.01 242.5,-270.01"/>
</g>
<!-- Node6 -->
<g id="node6" class="node">
<title>Node6</title>
<g id="a_node6"><a xlink:title=" ">
<polygon fill="white" stroke="#bfbfbf" points="354,-241 354,-260 412,-260 412,-241 354,-241"/>
<text text-anchor="middle" x="383" y="-248" font-family="Helvetica,sans-Serif" font-size="10.00">memory</text>
</a>
</g>
</g>
<!-- Node5&#45;&gt;Node6 -->
<g id="edge5" class="edge">
<title>Node5&#45;&gt;Node6</title>
<path fill="none" stroke="midnightblue" d="M383,-302.48C383,-294.08 383,-280.98 383,-270.16"/>
<polygon fill="midnightblue" stroke="midnightblue" points="386.5,-270.01 383,-260.01 379.5,-270.01 386.5,-270.01"/>
</g>
<!-- Node7&#45;&gt;Node3 -->
<g id="edge7" class="edge">
<title>Node7&#45;&gt;Node3</title>
<path fill="none" stroke="midnightblue" d="M231.37,-358.4C232.72,-350.38 234.42,-340.23 235.88,-331.57"/>
<polygon fill="midnightblue" stroke="midnightblue" points="239.34,-332.1 237.54,-321.66 232.44,-330.94 239.34,-332.1"/>
</g>
<!-- Node7&#45;&gt;Node5 -->
<g id="edge8" class="edge">
<title>Node7&#45;&gt;Node5</title>
<path fill="none" stroke="midnightblue" d="M265.5,-358.4C291.57,-348.33 326.29,-334.91 351.22,-325.28"/>
<polygon fill="midnightblue" stroke="midnightblue" points="352.53,-328.53 360.59,-321.66 350,-322 352.53,-328.53"/>
</g>
<!-- Node8&#45;&gt;Node3 -->
<g id="edge10" class="edge">
<title>Node8&#45;&gt;Node3</title>
<path fill="none" stroke="midnightblue" d="M331.32,-358.4C311.48,-348.64 285.24,-335.74 265.81,-326.18"/>
<polygon fill="midnightblue" stroke="midnightblue" points="267.12,-322.93 256.61,-321.66 264.04,-329.21 267.12,-322.93"/>
</g>
<!-- Node8&#45;&gt;Node5 -->
<g id="edge11" class="edge">
<title>Node8&#45;&gt;Node5</title>
<path fill="none" stroke="midnightblue" d="M365.45,-358.4C368.62,-350.2 372.65,-339.78 376.04,-330.99"/>
<polygon fill="midnightblue" stroke="midnightblue" points="379.31,-332.25 379.65,-321.66 372.78,-329.72 379.31,-332.25"/>
</g>
<!-- Node9&#45;&gt;Node3 -->
<g id="edge27" class="edge">
<title>Node9&#45;&gt;Node3</title>
<path fill="none" stroke="midnightblue" d="M624.43,-363.97C613.57,-361.88 601.87,-359.74 591,-358 564.19,-353.7 407.32,-333.97 312.27,-322.11"/>
<polygon fill="midnightblue" stroke="midnightblue" points="312.49,-318.61 302.14,-320.85 311.63,-325.56 312.49,-318.61"/>
</g>
<!-- Node9&#45;&gt;Node5 -->
<g id="edge28" class="edge">
<title>Node9&#45;&gt;Node5</title>
<path fill="none" stroke="midnightblue" d="M625.45,-363.98C574.81,-353.33 488.16,-335.11 433.32,-323.58"/>
<polygon fill="midnightblue" stroke="midnightblue" points="433.98,-320.14 423.47,-321.51 432.54,-326.99 433.98,-320.14"/>
</g>
<!-- Node10 -->
<g id="node10" class="node">
<title>Node10</title>
<g id="a_node10"><a xlink:href="is__coordinate_8hpp.html" target="_top" xlink:title=" ">
<polygon fill="white" stroke="black" points="596,-112.5 596,-131.5 778,-131.5 778,-112.5 596,-112.5"/>
<text text-anchor="middle" x="687" y="-119.5" font-family="Helvetica,sans-Serif" font-size="10.00">shpxx/concepts/is_coordinate.hpp</text>
</a>
</g>
</g>
<!-- Node9&#45;&gt;Node10 -->
<g id="edge13" class="edge">
<title>Node9&#45;&gt;Node10</title>
<path fill="none" stroke="midnightblue" d="M684.74,-363.93C700.33,-355.66 721.45,-341.51 731,-322 744.51,-294.4 802.47,-374.63 723,-168 718.84,-157.19 711.08,-146.95 703.83,-138.98"/>
<polygon fill="midnightblue" stroke="midnightblue" points="706.1,-136.3 696.62,-131.57 701.08,-141.18 706.1,-136.3"/>
</g>
<!-- Node11 -->
<g id="node11" class="node">
<title>Node11</title>
<g id="a_node11"><a xlink:href="coordinate_8hpp.html" target="_top" xlink:title=" ">
<polygon fill="white" stroke="black" points="456,-56.5 456,-75.5 578,-75.5 578,-56.5 456,-56.5"/>
<text text-anchor="middle" x="517" y="-63.5" font-family="Helvetica,sans-Serif" font-size="10.00">shpxx/coordinate.hpp</text>
</a>
</g>
</g>
<!-- Node9&#45;&gt;Node11 -->
<g id="edge17" class="edge">
<title>Node9&#45;&gt;Node11</title>
<path fill="none" stroke="midnightblue" d="M620.73,-363.92C565.39,-350.5 479,-318.78 479,-251.5 479,-251.5 479,-251.5 479,-182.5 479,-146.25 496.09,-106.67 507.35,-84.53"/>
<polygon fill="midnightblue" stroke="midnightblue" points="510.46,-86.14 512.03,-75.66 504.27,-82.87 510.46,-86.14"/>
</g>
<!-- Node14 -->
<g id="node14" class="node">
<title>Node14</title>
<g id="a_node14"><a xlink:href="coordinate__cast_8hpp.html" target="_top" xlink:title=" ">
<polygon fill="white" stroke="black" points="574.5,-302.5 574.5,-321.5 721.5,-321.5 721.5,-302.5 574.5,-302.5"/>
<text text-anchor="middle" x="648" y="-309.5" font-family="Helvetica,sans-Serif" font-size="10.00">shpxx/coordinate_cast.hpp</text>
</a>
</g>
</g>
<!-- Node9&#45;&gt;Node14 -->
<g id="edge18" class="edge">
<title>Node9&#45;&gt;Node14</title>
<path fill="none" stroke="midnightblue" d="M663.42,-363.98C660.85,-355.49 656.83,-342.2 653.54,-331.32"/>
<polygon fill="midnightblue" stroke="midnightblue" points="656.82,-330.07 650.57,-321.51 650.12,-332.09 656.82,-330.07"/>
</g>
<!-- Node10&#45;&gt;Node11 -->
<g id="edge14" class="edge">
<title>Node10&#45;&gt;Node11</title>
<path fill="none" stroke="midnightblue" d="M660.06,-112.44C631.34,-103.32 585.67,-88.81 553.68,-78.65"/>
<polygon fill="midnightblue" stroke="midnightblue" points="554.4,-75.21 543.81,-75.52 552.28,-81.88 554.4,-75.21"/>
</g>
<!-- Node10&#45;&gt;Node13 -->
<g id="edge16" class="edge">
<title>Node10&#45;&gt;Node13</title>
<path fill="none" stroke="midnightblue" d="M687,-112.08C687,-105.01 687,-94.86 687,-85.99"/>
<polygon fill="midnightblue" stroke="midnightblue" points="690.5,-85.75 687,-75.75 683.5,-85.75 690.5,-85.75"/>
</g>
<!-- Node12 -->
<g id="node12" class="node">
<title>Node12</title>
<g id="a_node12"><a xlink:title=" ">
<polygon fill="white" stroke="#bfbfbf" points="493.5,-0.5 493.5,-19.5 540.5,-19.5 540.5,-0.5 493.5,-0.5"/>
<text text-anchor="middle" x="517" y="-7.5" font-family="Helvetica,sans-Serif" font-size="10.00">cmath</text>
</a>
</g>
</g>
<!-- Node11&#45;&gt;Node12 -->
<g id="edge15" class="edge">
<title>Node11&#45;&gt;Node12</title>
<path fill="none" stroke="midnightblue" d="M517,-56.08C517,-49.01 517,-38.86 517,-29.99"/>
<polygon fill="midnightblue" stroke="midnightblue" points="520.5,-29.75 517,-19.75 513.5,-29.75 520.5,-29.75"/>
</g>
<!-- Node14&#45;&gt;Node10 -->
<g id="edge19" class="edge">
<title>Node14&#45;&gt;Node10</title>
<path fill="none" stroke="midnightblue" d="M666.39,-302.47C680.1,-295 697.81,-282.71 706,-266 726.22,-224.72 707.68,-169.12 695.56,-140.96"/>
<polygon fill="midnightblue" stroke="midnightblue" points="698.64,-139.26 691.33,-131.59 692.26,-142.15 698.64,-139.26"/>
</g>
<!-- Node15 -->
<g id="node15" class="node">
<title>Node15</title>
<g id="a_node15"><a xlink:href="coordinate__cast__impl_8hpp.html" target="_top" xlink:title=" ">
<polygon fill="white" stroke="black" points="571,-235.5 571,-265.5 697,-265.5 697,-235.5 571,-235.5"/>
<text text-anchor="start" x="579" y="-253.5" font-family="Helvetica,sans-Serif" font-size="10.00">shpxx/coordinate_cast</text>
<text text-anchor="middle" x="634" y="-242.5" font-family="Helvetica,sans-Serif" font-size="10.00">_impl.hpp</text>
</a>
</g>
</g>
<!-- Node14&#45;&gt;Node15 -->
<g id="edge20" class="edge">
<title>Node14&#45;&gt;Node15</title>
<path fill="none" stroke="midnightblue" d="M641.09,-302.48C637.92,-295.47 634.92,-285.19 633.05,-275.7"/>
<polygon fill="midnightblue" stroke="midnightblue" points="636.46,-274.87 631.47,-265.52 629.55,-275.94 636.46,-274.87"/>
</g>
<!-- Node15&#45;&gt;Node10 -->
<g id="edge24" class="edge">
<title>Node15&#45;&gt;Node10</title>
<path fill="none" stroke="midnightblue" d="M645.56,-235.27C652.92,-225.56 662.15,-212.13 668,-199 676.28,-180.4 681.37,-157.57 684.17,-141.82"/>
<polygon fill="midnightblue" stroke="midnightblue" points="687.66,-142.19 685.82,-131.76 680.75,-141.06 687.66,-142.19"/>
</g>
<!-- Node15&#45;&gt;Node11 -->
<g id="edge25" class="edge">
<title>Node15&#45;&gt;Node11</title>
<path fill="none" stroke="midnightblue" d="M586.94,-235.43C568.58,-227.6 549.09,-215.91 537,-199 512.71,-165.01 512.71,-113.45 514.84,-85.9"/>
<polygon fill="midnightblue" stroke="midnightblue" points="518.34,-85.98 515.81,-75.69 511.38,-85.31 518.34,-85.98"/>
</g>
<!-- Node15&#45;&gt;Node14 -->
<g id="edge26" class="edge">
<title>Node15&#45;&gt;Node14</title>
<path fill="none" stroke="midnightblue" d="M643.13,-265.52C646.04,-273.5 648.58,-283.59 649.91,-292.23"/>
<polygon fill="midnightblue" stroke="midnightblue" points="646.45,-292.86 650.89,-302.48 653.42,-292.19 646.45,-292.86"/>
</g>
<!-- Node16 -->
<g id="node16" class="node">
<title>Node16</title>
<g id="a_node16"><a xlink:href="has__zm_8hpp.html" target="_top" xlink:title=" ">
<polygon fill="white" stroke="black" points="545.5,-168.5 545.5,-198.5 658.5,-198.5 658.5,-168.5 545.5,-168.5"/>
<text text-anchor="start" x="553.5" y="-186.5" font-family="Helvetica,sans-Serif" font-size="10.00">shpxx/concepts/has</text>
<text text-anchor="middle" x="602" y="-175.5" font-family="Helvetica,sans-Serif" font-size="10.00">_zm.hpp</text>
</a>
</g>
</g>
<!-- Node15&#45;&gt;Node16 -->
<g id="edge21" class="edge">
<title>Node15&#45;&gt;Node16</title>
<path fill="none" stroke="midnightblue" d="M627.06,-235.4C623.07,-227.3 617.97,-216.94 613.41,-207.69"/>
<polygon fill="midnightblue" stroke="midnightblue" points="616.49,-206 608.93,-198.58 610.21,-209.09 616.49,-206"/>
</g>
<!-- Node16&#45;&gt;Node10 -->
<g id="edge22" class="edge">
<title>Node16&#45;&gt;Node10</title>
<path fill="none" stroke="midnightblue" d="M622.14,-168.4C635.39,-159.13 652.68,-147.03 666.08,-137.65"/>
<polygon fill="midnightblue" stroke="midnightblue" points="668.45,-140.26 674.63,-131.66 664.43,-134.53 668.45,-140.26"/>
</g>
<!-- Node16&#45;&gt;Node13 -->
<g id="edge23" class="edge">
<title>Node16&#45;&gt;Node13</title>
<path fill="none" stroke="midnightblue" d="M593.26,-168.41C585.15,-153.32 575.86,-129.23 587,-112 600.27,-91.48 625.37,-80.23 647.1,-74.1"/>
<polygon fill="midnightblue" stroke="midnightblue" points="647.96,-77.49 656.79,-71.64 646.24,-70.71 647.96,-77.49"/>
</g>
<!-- Node17&#45;&gt;Node3 -->
<g id="edge30" class="edge">
<title>Node17&#45;&gt;Node3</title>
<path fill="none" stroke="midnightblue" d="M469.46,-363.98C421.52,-353.37 339.64,-335.26 287.49,-323.72"/>
<polygon fill="midnightblue" stroke="midnightblue" points="287.99,-320.25 277.47,-321.51 286.48,-327.09 287.99,-320.25"/>
</g>
<!-- Node17&#45;&gt;Node5 -->
<g id="edge31" class="edge">
<title>Node17&#45;&gt;Node5</title>
<path fill="none" stroke="midnightblue" d="M490.09,-363.98C469.11,-353.99 434.15,-337.35 409.91,-325.81"/>
<polygon fill="midnightblue" stroke="midnightblue" points="411.41,-322.65 400.88,-321.51 408.4,-328.97 411.41,-322.65"/>
</g>
</g>
</svg>
        <g id="navigator" transform="translate(0 0)" fill="#404254">
                <rect fill="#f2f5e9" fill-opacity="0.5" stroke="#606060" stroke-width=".5" x="0" y="0" width="60" height="60"/>
                <use id="zoomplus" xlink:href="#zoomPlus" x="17" y="9" onmousedown="handleZoom(evt,'in')"/>
                <use id="zoomminus" xlink:href="#zoomMin" x="42" y="9" onmousedown="handleZoom(evt,'out')"/>
                <use id="reset" xlink:href="#resetDef" x="30" y="36" onmousedown="handleReset()"/>
                <g id="arrowUp" xlink:href="#dirArrow" transform="translate(30 24)" onmousedown="handlePan(0,-1)">
                  <use xlink:href="#rim" fill="#404040">
                        <set attributeName="fill" to="#808080" begin="arrowUp.mouseover" end="arrowUp.mouseout"/>
                  </use>
                  <path fill="none" stroke="white" stroke-width="1.5" d="M0,-3.0v7 M-2.5,-0.5L0,-3.0L2.5,-0.5"/>
                </g>
                <g id="arrowRight" xlink:href="#dirArrow" transform="rotate(90) translate(36 -43)" onmousedown="handlePan(1,0)">
                  <use xlink:href="#rim" fill="#404040">
                        <set attributeName="fill" to="#808080" begin="arrowRight.mouseover" end="arrowRight.mouseout"/>
                  </use>
                  <path fill="none" stroke="white" stroke-width="1.5" d="M0,-3.0v7 M-2.5,-0.5L0,-3.0L2.5,-0.5"/>
                </g>
                <g id="arrowDown" xlink:href="#dirArrow" transform="rotate(180) translate(-30 -48)" onmousedown="handlePan(0,1)">
                  <use xlink:href="#rim" fill="#404040">
                        <set attributeName="fill" to="#808080" begin="arrowDown.mouseover" end="arrowDown.mouseout"/>
                  </use>
                  <path fill="none" stroke="white" stroke-width="1.5" d="M0,-3.0v7 M-2.5,-0.5L0,-3.0L2.5,-0.5"/>
                </g>
                <g id="arrowLeft" xlink:href="#dirArrow" transform="rotate(270) translate(-36 17)" onmousedown="handlePan(-1,0)">
                  <use xlink:href="#rim" fill="#404040">
                        <set attributeName="fill" to="#808080" begin="arrowLeft.mouseover" end="arrowLeft.mouseout"/>
                  </use>
                  <path fill="none" stroke="white" stroke-width="1.5" d="M0,-3.0v7 M-2.5,-0.5L0,-3.0L2.5,-0.5"/>
                </g>
        </g>
        <svg viewBox="0 0 15 15" width="100%" height="30px" preserveAspectRatio="xMaxYMin meet">
         <g id="arrow_out" transform="scale(0.3 0.3)">
          <a xlink:href="is__feature_8hpp__incl_org.svg" target="_base">
           <rect id="button" ry="5" rx="5" y="6" x="6" height="38" width="38"
                fill="#f2f5e9" fill-opacity="0.5" stroke="#606060" stroke-width="1.0"/>
           <path id="arrow"
             d="M 11.500037,31.436501 C 11.940474,20.09759 22.043105,11.32322 32.158766,21.979434 L 37.068811,17.246167 C 37.068811,17.246167 37.088388,32 37.088388,32 L 22.160133,31.978069 C 22.160133,31.978069 26.997745,27.140456 26.997745,27.140456 C 18.528582,18.264221 13.291696,25.230495 11.500037,31.436501 z"
             style="fill:#404040;"/>
          </a>
         </g>
        </svg>
</svg>
