<?xml version="1.0" encoding="UTF-8" standalone="no"?>
<!DOCTYPE svg PUBLIC "-//W3C//DTD SVG 1.1//EN"
 "http://www.w3.org/Graphics/SVG/1.1/DTD/svg11.dtd">
<!-- Generated by graphviz version 2.43.0 (0)
 -->
<!-- Title: shpxx::cast_shp_object Pages: 1 -->
<svg width="298pt" height="88pt"
 viewBox="0.00 0.00 298.00 88.00" xmlns="http://www.w3.org/2000/svg" xmlns:xlink="http://www.w3.org/1999/xlink">
<g id="graph0" class="graph" transform="scale(1 1) rotate(0) translate(4 84)">
<title>shpxx::cast_shp_object</title>
<polygon fill="white" stroke="transparent" points="-4,4 -4,-84 294,-84 294,4 -4,4"/>
<!-- Node1 -->
<g id="node1" class="node">
<title>Node1</title>
<g id="a_node1"><a xlink:title="Cast shpxx::shp_object type to the SHPInfo struct.">
<polygon fill="#bfbfbf" stroke="black" points="160,-30 160,-49 290,-49 290,-30 160,-30"/>
<text text-anchor="middle" x="225" y="-37" font-family="Helvetica,sans-Serif" font-size="10.00">shpxx::cast_shp_object</text>
</a>
</g>
</g>
<!-- Node2 -->
<g id="node2" class="node">
<title>Node2</title>
<g id="a_node2"><a xlink:href="structshpxx_1_1shplib_1_1destroy__object__t.html#a883a5fc19060b0c4eb64015c0e0d1822" target="_top" xlink:title=" ">
<polygon fill="white" stroke="black" points="0,-49.5 0,-79.5 124,-79.5 124,-49.5 0,-49.5"/>
<text text-anchor="start" x="8" y="-67.5" font-family="Helvetica,sans-Serif" font-size="10.00">shpxx::shplib::destroy</text>
<text text-anchor="middle" x="62" y="-56.5" font-family="Helvetica,sans-Serif" font-size="10.00">_object_t::operator()</text>
</a>
</g>
</g>
<!-- Node1&#45;&gt;Node2 -->
<g id="edge1" class="edge">
<title>Node1&#45;&gt;Node2</title>
<path fill="none" stroke="midnightblue" d="M152.5,-50.6C143.04,-52.07 133.42,-53.57 124.16,-55"/>
<polygon fill="midnightblue" stroke="midnightblue" points="153.33,-54.02 162.67,-49.02 152.25,-47.1 153.33,-54.02"/>
</g>
<!-- Node3 -->
<g id="node3" class="node">
<title>Node3</title>
<g id="a_node3"><a xlink:href="classshpxx_1_1feature_1_1point__t.html#a81f1cbde4b4527b2744fbf9089317bc3" target="_top" xlink:title=" ">
<polygon fill="white" stroke="black" points="3,-0.5 3,-30.5 121,-30.5 121,-0.5 3,-0.5"/>
<text text-anchor="start" x="11" y="-18.5" font-family="Helvetica,sans-Serif" font-size="10.00">shpxx::feature::point</text>
<text text-anchor="middle" x="62" y="-7.5" font-family="Helvetica,sans-Serif" font-size="10.00">_t::point_t</text>
</a>
</g>
</g>
<!-- Node1&#45;&gt;Node3 -->
<g id="edge2" class="edge">
<title>Node1&#45;&gt;Node3</title>
<path fill="none" stroke="midnightblue" d="M149.91,-28.46C140.26,-27.02 130.48,-25.56 121.13,-24.17"/>
<polygon fill="midnightblue" stroke="midnightblue" points="149.5,-31.93 159.91,-29.95 150.53,-25.01 149.5,-31.93"/>
</g>
</g>
</svg>
