<?xml version="1.0" encoding="UTF-8" standalone="no"?>
<!DOCTYPE svg PUBLIC "-//W3C//DTD SVG 1.1//EN"
 "http://www.w3.org/Graphics/SVG/1.1/DTD/svg11.dtd">
<!-- Generated by graphviz version 2.43.0 (0)
 -->
<!-- Title: shpxx::io::file::open_shp Pages: 1 -->
<svg width="297pt" height="66pt"
 viewBox="0.00 0.00 297.00 66.00" xmlns="http://www.w3.org/2000/svg" xmlns:xlink="http://www.w3.org/1999/xlink">
<g id="graph0" class="graph" transform="scale(1 1) rotate(0) translate(4 62)">
<title>shpxx::io::file::open_shp</title>
<polygon fill="white" stroke="transparent" points="-4,4 -4,-62 293,-62 293,4 -4,4"/>
<!-- Node1 -->
<g id="node1" class="node">
<title>Node1</title>
<g id="a_node1"><a xlink:title="Open a shape file.">
<polygon fill="#bfbfbf" stroke="black" points="0,-19.5 0,-38.5 134,-38.5 134,-19.5 0,-19.5"/>
<text text-anchor="middle" x="67" y="-26.5" font-family="Helvetica,sans-Serif" font-size="10.00">shpxx::io::file::open_shp</text>
</a>
</g>
</g>
<!-- Node2 -->
<g id="node2" class="node">
<title>Node2</title>
<g id="a_node2"><a xlink:href="namespaceshpxx.html#a719f9dffebf14979c289b00dec46fd59" target="_top" xlink:title="Cast shpxx::shp_info type to the SHPInfo struct.">
<polygon fill="white" stroke="black" points="170,-38.5 170,-57.5 289,-57.5 289,-38.5 170,-38.5"/>
<text text-anchor="middle" x="229.5" y="-45.5" font-family="Helvetica,sans-Serif" font-size="10.00">shpxx::cast_shp_info</text>
</a>
</g>
</g>
<!-- Node1&#45;&gt;Node2 -->
<g id="edge1" class="edge">
<title>Node1&#45;&gt;Node2</title>
<path fill="none" stroke="midnightblue" d="M134.21,-36.84C142.62,-37.83 151.24,-38.85 159.69,-39.85"/>
<polygon fill="midnightblue" stroke="midnightblue" points="159.54,-43.36 169.89,-41.06 160.37,-36.41 159.54,-43.36"/>
</g>
<!-- Node3 -->
<g id="node3" class="node">
<title>Node3</title>
<g id="a_node3"><a xlink:href="namespaceshpxx_1_1io.html#aedeac7ab96928e7bd6ce762fa927b810" target="_top" xlink:title=" ">
<polygon fill="white" stroke="black" points="174.5,-0.5 174.5,-19.5 284.5,-19.5 284.5,-0.5 174.5,-0.5"/>
<text text-anchor="middle" x="229.5" y="-7.5" font-family="Helvetica,sans-Serif" font-size="10.00">shpxx::io::to_string</text>
</a>
</g>
</g>
<!-- Node1&#45;&gt;Node3 -->
<g id="edge2" class="edge">
<title>Node1&#45;&gt;Node3</title>
<path fill="none" stroke="midnightblue" d="M134.21,-21.16C144.08,-19.99 154.24,-18.79 164.07,-17.63"/>
<polygon fill="midnightblue" stroke="midnightblue" points="164.65,-21.08 174.17,-16.43 163.83,-14.13 164.65,-21.08"/>
</g>
</g>
</svg>
