<?xml version="1.0" encoding="UTF-8" standalone="no"?>
<!DOCTYPE svg PUBLIC "-//W3C//DTD SVG 1.1//EN"
 "http://www.w3.org/Graphics/SVG/1.1/DTD/svg11.dtd">
<!-- Generated by graphviz version 2.43.0 (0)
 -->
<!-- Title: shpxx::io::to_stream Pages: 1 -->
<svg width="284pt" height="284pt"
 viewBox="0.00 0.00 284.00 284.00" xmlns="http://www.w3.org/2000/svg" xmlns:xlink="http://www.w3.org/1999/xlink">
<g id="graph0" class="graph" transform="scale(1 1) rotate(0) translate(4 280)">
<title>shpxx::io::to_stream</title>
<polygon fill="white" stroke="transparent" points="-4,4 -4,-280 280,-280 280,4 -4,4"/>
<!-- Node1 -->
<g id="node1" class="node">
<title>Node1</title>
<g id="a_node1"><a xlink:title=" ">
<polygon fill="#bfbfbf" stroke="black" points="160,-128 160,-147 276,-147 276,-128 160,-128"/>
<text text-anchor="middle" x="218" y="-135" font-family="Helvetica,sans-Serif" font-size="10.00">shpxx::io::to_stream</text>
</a>
</g>
</g>
<!-- Node2 -->
<g id="node2" class="node">
<title>Node2</title>
<g id="a_node2"><a xlink:href="classshpxx_1_1io_1_1file__handler__t.html#aee0a90785ede25fdbb2c5c9d86b99a25" target="_top" xlink:title=" ">
<polygon fill="white" stroke="black" points="0,-245.5 0,-275.5 124,-275.5 124,-245.5 0,-245.5"/>
<text text-anchor="start" x="8" y="-263.5" font-family="Helvetica,sans-Serif" font-size="10.00">shpxx::io::file_handler</text>
<text text-anchor="middle" x="62" y="-252.5" font-family="Helvetica,sans-Serif" font-size="10.00">_t::close</text>
</a>
</g>
</g>
<!-- Node1&#45;&gt;Node2 -->
<g id="edge1" class="edge">
<title>Node1&#45;&gt;Node2</title>
<path fill="none" stroke="midnightblue" d="M204.2,-155.36C187.8,-177.14 157.45,-213.82 124,-236.5 119.1,-239.82 113.68,-242.78 108.14,-245.39"/>
<polygon fill="midnightblue" stroke="midnightblue" points="207.04,-157.41 210.16,-147.29 201.41,-153.26 207.04,-157.41"/>
</g>
<!-- Node3 -->
<g id="node3" class="node">
<title>Node3</title>
<g id="a_node3"><a xlink:href="classshpxx_1_1io_1_1file__handler__t.html#a220bfc0caeb6ad67eba2440d133446f4" target="_top" xlink:title=" ">
<polygon fill="white" stroke="black" points="0,-196.5 0,-226.5 124,-226.5 124,-196.5 0,-196.5"/>
<text text-anchor="start" x="8" y="-214.5" font-family="Helvetica,sans-Serif" font-size="10.00">shpxx::io::file_handler</text>
<text text-anchor="middle" x="62" y="-203.5" font-family="Helvetica,sans-Serif" font-size="10.00">_t::flush</text>
</a>
</g>
</g>
<!-- Node1&#45;&gt;Node3 -->
<g id="edge2" class="edge">
<title>Node1&#45;&gt;Node3</title>
<path fill="none" stroke="midnightblue" d="M191.56,-152.23C173.1,-162.66 147.37,-176.67 124,-187.5 117.39,-190.56 110.28,-193.59 103.32,-196.42"/>
<polygon fill="midnightblue" stroke="midnightblue" points="193.55,-155.13 200.5,-147.14 190.08,-149.05 193.55,-155.13"/>
</g>
<!-- Node4 -->
<g id="node4" class="node">
<title>Node4</title>
<g id="a_node4"><a xlink:href="classshpxx_1_1io_1_1file__handler__t.html#a9ecc5cef5581ac44e7e067eb9e04420e" target="_top" xlink:title=" ">
<polygon fill="white" stroke="black" points="0,-147.5 0,-177.5 124,-177.5 124,-147.5 0,-147.5"/>
<text text-anchor="start" x="8" y="-165.5" font-family="Helvetica,sans-Serif" font-size="10.00">shpxx::io::file_handler</text>
<text text-anchor="middle" x="62" y="-154.5" font-family="Helvetica,sans-Serif" font-size="10.00">_t::read</text>
</a>
</g>
</g>
<!-- Node1&#45;&gt;Node4 -->
<g id="edge3" class="edge">
<title>Node1&#45;&gt;Node4</title>
<path fill="none" stroke="midnightblue" d="M149.72,-148.42C141.16,-149.81 132.45,-151.23 124,-152.6"/>
<polygon fill="midnightblue" stroke="midnightblue" points="150.35,-151.87 159.66,-146.81 149.22,-144.96 150.35,-151.87"/>
</g>
<!-- Node5 -->
<g id="node5" class="node">
<title>Node5</title>
<g id="a_node5"><a xlink:href="classshpxx_1_1io_1_1file__handler__t.html#a1b3ee22cc59f45557bc0f7f7c465d741" target="_top" xlink:title=" ">
<polygon fill="white" stroke="black" points="0,-98.5 0,-128.5 124,-128.5 124,-98.5 0,-98.5"/>
<text text-anchor="start" x="8" y="-116.5" font-family="Helvetica,sans-Serif" font-size="10.00">shpxx::io::file_handler</text>
<text text-anchor="middle" x="62" y="-105.5" font-family="Helvetica,sans-Serif" font-size="10.00">_t::seek</text>
</a>
</g>
</g>
<!-- Node1&#45;&gt;Node5 -->
<g id="edge4" class="edge">
<title>Node1&#45;&gt;Node5</title>
<path fill="none" stroke="midnightblue" d="M149.72,-127.01C141.16,-125.68 132.45,-124.32 124,-123.01"/>
<polygon fill="midnightblue" stroke="midnightblue" points="149.24,-130.48 159.66,-128.56 150.31,-123.57 149.24,-130.48"/>
</g>
<!-- Node6 -->
<g id="node6" class="node">
<title>Node6</title>
<g id="a_node6"><a xlink:href="classshpxx_1_1io_1_1file__handler__t.html#a5d9bd3c6c60a17fdcc2dc1dab4b89796" target="_top" xlink:title=" ">
<polygon fill="white" stroke="black" points="0,-49.5 0,-79.5 124,-79.5 124,-49.5 0,-49.5"/>
<text text-anchor="start" x="8" y="-67.5" font-family="Helvetica,sans-Serif" font-size="10.00">shpxx::io::file_handler</text>
<text text-anchor="middle" x="62" y="-56.5" font-family="Helvetica,sans-Serif" font-size="10.00">_t::tell</text>
</a>
</g>
</g>
<!-- Node1&#45;&gt;Node6 -->
<g id="edge5" class="edge">
<title>Node1&#45;&gt;Node6</title>
<path fill="none" stroke="midnightblue" d="M190.43,-123C171.99,-113.13 146.76,-100.01 124,-89.5 116.73,-86.14 108.87,-82.75 101.29,-79.59"/>
<polygon fill="midnightblue" stroke="midnightblue" points="188.94,-126.17 199.4,-127.83 192.26,-120.01 188.94,-126.17"/>
</g>
<!-- Node7 -->
<g id="node7" class="node">
<title>Node7</title>
<g id="a_node7"><a xlink:href="classshpxx_1_1io_1_1file__handler__t.html#a39801ff37c5962de5732f2d14093b74b" target="_top" xlink:title=" ">
<polygon fill="white" stroke="black" points="0,-0.5 0,-30.5 124,-30.5 124,-0.5 0,-0.5"/>
<text text-anchor="start" x="8" y="-18.5" font-family="Helvetica,sans-Serif" font-size="10.00">shpxx::io::file_handler</text>
<text text-anchor="middle" x="62" y="-7.5" font-family="Helvetica,sans-Serif" font-size="10.00">_t::write</text>
</a>
</g>
</g>
<!-- Node1&#45;&gt;Node7 -->
<g id="edge6" class="edge">
<title>Node1&#45;&gt;Node7</title>
<path fill="none" stroke="midnightblue" d="M203.85,-119.81C187.26,-98.53 156.91,-62.9 124,-40.5 118.51,-36.76 112.38,-33.44 106.18,-30.53"/>
<polygon fill="midnightblue" stroke="midnightblue" points="201.23,-122.14 210.08,-127.96 206.79,-117.89 201.23,-122.14"/>
</g>
</g>
</svg>
