<?xml version="1.0" encoding="UTF-8" standalone="no"?>
<!DOCTYPE svg PUBLIC "-//W3C//DTD SVG 1.1//EN"
 "http://www.w3.org/Graphics/SVG/1.1/DTD/svg11.dtd">
<!-- Generated by graphviz version 2.43.0 (0)
 -->
<!-- Title: shpxx::cast_shp_info Pages: 1 -->
<svg width="303pt" height="116pt"
 viewBox="0.00 0.00 303.00 116.00" xmlns="http://www.w3.org/2000/svg" xmlns:xlink="http://www.w3.org/1999/xlink">
<g id="graph0" class="graph" transform="scale(1 1) rotate(0) translate(4 112)">
<title>shpxx::cast_shp_info</title>
<polygon fill="white" stroke="transparent" points="-4,4 -4,-112 299,-112 299,4 -4,4"/>
<!-- Node1 -->
<g id="node1" class="node">
<title>Node1</title>
<g id="a_node1"><a xlink:title="Cast shpxx::shp_info type to the SHPInfo struct.">
<polygon fill="#bfbfbf" stroke="black" points="176,-44.5 176,-63.5 295,-63.5 295,-44.5 176,-44.5"/>
<text text-anchor="middle" x="235.5" y="-51.5" font-family="Helvetica,sans-Serif" font-size="10.00">shpxx::cast_shp_info</text>
</a>
</g>
</g>
<!-- Node2 -->
<g id="node2" class="node">
<title>Node2</title>
<g id="a_node2"><a xlink:href="namespaceshpxx_1_1io_1_1file.html#adb0cfc1c29413ec0b58b7efc991e6867" target="_top" xlink:title="Open a shape file.">
<polygon fill="white" stroke="black" points="3,-88.5 3,-107.5 137,-107.5 137,-88.5 3,-88.5"/>
<text text-anchor="middle" x="70" y="-95.5" font-family="Helvetica,sans-Serif" font-size="10.00">shpxx::io::file::open_shp</text>
</a>
</g>
</g>
<!-- Node1&#45;&gt;Node2 -->
<g id="edge1" class="edge">
<title>Node1&#45;&gt;Node2</title>
<path fill="none" stroke="midnightblue" d="M189.33,-66.15C163.17,-73.2 130.71,-81.93 106.41,-88.47"/>
<polygon fill="midnightblue" stroke="midnightblue" points="190.28,-69.53 199.02,-63.55 188.46,-62.77 190.28,-69.53"/>
</g>
<!-- Node3 -->
<g id="node3" class="node">
<title>Node3</title>
<g id="a_node3"><a xlink:href="structshpxx_1_1shplib_1_1close__file__t.html#a8bb80ce9ed88b1f5d32635ef2d9651cb" target="_top" xlink:title=" ">
<polygon fill="white" stroke="black" points="13.5,-39 13.5,-69 126.5,-69 126.5,-39 13.5,-39"/>
<text text-anchor="start" x="21.5" y="-57" font-family="Helvetica,sans-Serif" font-size="10.00">shpxx::shplib::close</text>
<text text-anchor="middle" x="70" y="-46" font-family="Helvetica,sans-Serif" font-size="10.00">_file_t::operator()</text>
</a>
</g>
</g>
<!-- Node1&#45;&gt;Node3 -->
<g id="edge2" class="edge">
<title>Node1&#45;&gt;Node3</title>
<path fill="none" stroke="midnightblue" d="M165.64,-54C152.65,-54 139.22,-54 126.7,-54"/>
<polygon fill="midnightblue" stroke="midnightblue" points="165.93,-57.5 175.93,-54 165.93,-50.5 165.93,-57.5"/>
</g>
<!-- Node4 -->
<g id="node4" class="node">
<title>Node4</title>
<g id="a_node4"><a xlink:href="classshpxx_1_1shpfile__t.html#af78ae6771dff88bbee06c3ca2daf82f4" target="_top" xlink:title="Construct a shpfile_t for a specific file handle.">
<polygon fill="white" stroke="black" points="0,-0.5 0,-19.5 140,-19.5 140,-0.5 0,-0.5"/>
<text text-anchor="middle" x="70" y="-7.5" font-family="Helvetica,sans-Serif" font-size="10.00">shpxx::shpfile_t::shpfile_t</text>
</a>
</g>
</g>
<!-- Node1&#45;&gt;Node4 -->
<g id="edge3" class="edge">
<title>Node1&#45;&gt;Node4</title>
<path fill="none" stroke="midnightblue" d="M189.33,-41.85C163.17,-34.8 130.71,-26.07 106.41,-19.53"/>
<polygon fill="midnightblue" stroke="midnightblue" points="188.46,-45.23 199.02,-44.45 190.28,-38.47 188.46,-45.23"/>
</g>
</g>
</svg>
