<?xml version="1.0" encoding="UTF-8" standalone="no"?>
<!DOCTYPE svg PUBLIC "-//W3C//DTD SVG 1.1//EN"
 "http://www.w3.org/Graphics/SVG/1.1/DTD/svg11.dtd">
<!-- Generated by graphviz version 2.43.0 (0)
 -->
<!-- Title: /home/runner/work/shpxx/shpxx/include/shpxx/io/openmode.hpp Pages: 1 -->
<svg width="683pt" height="273pt"
 viewBox="0.00 0.00 682.52 273.00" xmlns="http://www.w3.org/2000/svg" xmlns:xlink="http://www.w3.org/1999/xlink">
<g id="graph0" class="graph" transform="scale(1 1) rotate(0) translate(4 269)">
<title>/home/runner/work/shpxx/shpxx/include/shpxx/io/openmode.hpp</title>
<polygon fill="white" stroke="transparent" points="-4,4 -4,-269 678.52,-269 678.52,4 -4,4"/>
<!-- Node1 -->
<g id="node1" class="node">
<title>Node1</title>
<g id="a_node1"><a xlink:title=" ">
<polygon fill="#bfbfbf" stroke="black" points="194.52,-223.5 194.52,-264.5 335.52,-264.5 335.52,-223.5 194.52,-223.5"/>
<text text-anchor="start" x="202.52" y="-252.5" font-family="Helvetica,sans-Serif" font-size="10.00">/home/runner/work/shpxx</text>
<text text-anchor="start" x="202.52" y="-241.5" font-family="Helvetica,sans-Serif" font-size="10.00">/shpxx/include/shpxx/io</text>
<text text-anchor="middle" x="265.02" y="-230.5" font-family="Helvetica,sans-Serif" font-size="10.00">/openmode.hpp</text>
</a>
</g>
</g>
<!-- Node2 -->
<g id="node2" class="node">
<title>Node2</title>
<g id="a_node2"><a xlink:href="file__handler_8cpp.html" target="_top" xlink:title=" ">
<polygon fill="white" stroke="black" points="81.02,-0.5 81.02,-30.5 239.02,-30.5 239.02,-0.5 81.02,-0.5"/>
<text text-anchor="start" x="89.02" y="-18.5" font-family="Helvetica,sans-Serif" font-size="10.00">/home/runner/work/shpxx</text>
<text text-anchor="middle" x="160.02" y="-7.5" font-family="Helvetica,sans-Serif" font-size="10.00">/shpxx/src/io/file_handler.cpp</text>
</a>
</g>
</g>
<!-- Node1&#45;&gt;Node2 -->
<g id="edge1" class="edge">
<title>Node1&#45;&gt;Node2</title>
<path fill="none" stroke="midnightblue" d="M184.52,-229.25C120.17,-213.17 36.09,-179.19 7.02,-109 -0.13,-91.75 -3.92,-82.13 7.02,-67 24.14,-43.31 52.78,-30.55 80.68,-23.74"/>
<polygon fill="midnightblue" stroke="midnightblue" points="183.72,-232.66 194.26,-231.59 185.36,-225.85 183.72,-232.66"/>
</g>
<!-- Node3 -->
<g id="node3" class="node">
<title>Node3</title>
<g id="a_node3"><a xlink:href="io__handler__concept_8hpp.html" target="_top" xlink:title=" ">
<polygon fill="white" stroke="black" points="274.52,-145.5 274.52,-186.5 415.52,-186.5 415.52,-145.5 274.52,-145.5"/>
<text text-anchor="start" x="282.52" y="-174.5" font-family="Helvetica,sans-Serif" font-size="10.00">/home/runner/work/shpxx</text>
<text text-anchor="start" x="282.52" y="-163.5" font-family="Helvetica,sans-Serif" font-size="10.00">/shpxx/src/io/io_handler</text>
<text text-anchor="middle" x="345.02" y="-152.5" font-family="Helvetica,sans-Serif" font-size="10.00">_concept.hpp</text>
</a>
</g>
</g>
<!-- Node1&#45;&gt;Node3 -->
<g id="edge2" class="edge">
<title>Node1&#45;&gt;Node3</title>
<path fill="none" stroke="midnightblue" d="M292.92,-216.49C303.3,-206.63 314.88,-195.63 324.49,-186.51"/>
<polygon fill="midnightblue" stroke="midnightblue" points="290.46,-214 285.62,-223.43 295.28,-219.08 290.46,-214"/>
</g>
<!-- Node7 -->
<g id="node7" class="node">
<title>Node7</title>
<g id="a_node7"><a xlink:href="safile__wrapper_8hpp.html" target="_top" xlink:title=" ">
<polygon fill="white" stroke="black" points="428.52,-73 428.52,-103 601.52,-103 601.52,-73 428.52,-73"/>
<text text-anchor="start" x="436.52" y="-91" font-family="Helvetica,sans-Serif" font-size="10.00">/home/runner/work/shpxx</text>
<text text-anchor="middle" x="515.02" y="-80" font-family="Helvetica,sans-Serif" font-size="10.00">/shpxx/src/io/safile_wrapper.hpp</text>
</a>
</g>
</g>
<!-- Node1&#45;&gt;Node7 -->
<g id="edge15" class="edge">
<title>Node1&#45;&gt;Node7</title>
<path fill="none" stroke="midnightblue" d="M345.3,-223.07C371.66,-214.4 400.26,-202.58 424.02,-187 459.35,-163.82 490.44,-124.07 505.46,-103.02"/>
<polygon fill="midnightblue" stroke="midnightblue" points="344.17,-219.75 335.7,-226.12 346.29,-226.42 344.17,-219.75"/>
</g>
<!-- Node8 -->
<g id="node8" class="node">
<title>Node8</title>
<g id="a_node8"><a xlink:href="openmode__internal_8cpp.html" target="_top" xlink:title=" ">
<polygon fill="white" stroke="black" points="16.52,-67.5 16.52,-108.5 157.52,-108.5 157.52,-67.5 16.52,-67.5"/>
<text text-anchor="start" x="24.52" y="-96.5" font-family="Helvetica,sans-Serif" font-size="10.00">/home/runner/work/shpxx</text>
<text text-anchor="start" x="24.52" y="-85.5" font-family="Helvetica,sans-Serif" font-size="10.00">/shpxx/src/io/openmode</text>
<text text-anchor="middle" x="87.02" y="-74.5" font-family="Helvetica,sans-Serif" font-size="10.00">_internal.cpp</text>
</a>
</g>
</g>
<!-- Node1&#45;&gt;Node8 -->
<g id="edge10" class="edge">
<title>Node1&#45;&gt;Node8</title>
<path fill="none" stroke="midnightblue" d="M184.25,-231.54C155.73,-223.55 125.85,-209.99 106.02,-187 87.22,-165.22 84.81,-130.48 85.44,-108.74"/>
<polygon fill="midnightblue" stroke="midnightblue" points="183.71,-235.01 194.27,-234.14 185.47,-228.24 183.71,-235.01"/>
</g>
<!-- Node9 -->
<g id="node9" class="node">
<title>Node9</title>
<g id="a_node9"><a xlink:href="openmode__internal_8hpp.html" target="_top" xlink:title=" ">
<polygon fill="white" stroke="black" points="115.52,-145.5 115.52,-186.5 256.52,-186.5 256.52,-145.5 115.52,-145.5"/>
<text text-anchor="start" x="123.52" y="-174.5" font-family="Helvetica,sans-Serif" font-size="10.00">/home/runner/work/shpxx</text>
<text text-anchor="start" x="123.52" y="-163.5" font-family="Helvetica,sans-Serif" font-size="10.00">/shpxx/src/io/openmode</text>
<text text-anchor="middle" x="186.02" y="-152.5" font-family="Helvetica,sans-Serif" font-size="10.00">_internal.hpp</text>
</a>
</g>
</g>
<!-- Node1&#45;&gt;Node9 -->
<g id="edge11" class="edge">
<title>Node1&#45;&gt;Node9</title>
<path fill="none" stroke="midnightblue" d="M237.46,-216.49C227.21,-206.63 215.77,-195.63 206.29,-186.51"/>
<polygon fill="midnightblue" stroke="midnightblue" points="235.04,-219.02 244.67,-223.43 239.89,-213.97 235.04,-219.02"/>
</g>
<!-- Node10 -->
<g id="node10" class="node">
<title>Node10</title>
<g id="a_node10"><a xlink:href="file_8hpp.html" target="_top" xlink:title=" ">
<polygon fill="white" stroke="black" points="533.52,-145.5 533.52,-186.5 674.52,-186.5 674.52,-145.5 533.52,-145.5"/>
<text text-anchor="start" x="541.52" y="-174.5" font-family="Helvetica,sans-Serif" font-size="10.00">/home/runner/work/shpxx</text>
<text text-anchor="start" x="541.52" y="-163.5" font-family="Helvetica,sans-Serif" font-size="10.00">/shpxx/include/shpxx/io</text>
<text text-anchor="middle" x="604.02" y="-152.5" font-family="Helvetica,sans-Serif" font-size="10.00">/file.hpp</text>
</a>
</g>
</g>
<!-- Node1&#45;&gt;Node10 -->
<g id="edge16" class="edge">
<title>Node1&#45;&gt;Node10</title>
<path fill="none" stroke="midnightblue" d="M345.75,-224.9C402.88,-212.09 478.75,-195.08 533.46,-182.82"/>
<polygon fill="midnightblue" stroke="midnightblue" points="344.66,-221.56 335.67,-227.16 346.19,-228.39 344.66,-221.56"/>
</g>
<!-- Node4 -->
<g id="node4" class="node">
<title>Node4</title>
<g id="a_node4"><a xlink:href="file__handler_8hpp.html" target="_top" xlink:title=" ">
<polygon fill="white" stroke="black" points="252.02,-73 252.02,-103 410.02,-103 410.02,-73 252.02,-73"/>
<text text-anchor="start" x="260.02" y="-91" font-family="Helvetica,sans-Serif" font-size="10.00">/home/runner/work/shpxx</text>
<text text-anchor="middle" x="331.02" y="-80" font-family="Helvetica,sans-Serif" font-size="10.00">/shpxx/src/io/file_handler.hpp</text>
</a>
</g>
</g>
<!-- Node3&#45;&gt;Node4 -->
<g id="edge3" class="edge">
<title>Node3&#45;&gt;Node4</title>
<path fill="none" stroke="midnightblue" d="M339.54,-135.28C337.51,-124.25 335.3,-112.25 333.64,-103.23"/>
<polygon fill="midnightblue" stroke="midnightblue" points="336.16,-136.23 341.41,-145.43 343.04,-134.96 336.16,-136.23"/>
</g>
<!-- Node6 -->
<g id="node6" class="node">
<title>Node6</title>
<g id="a_node6"><a xlink:href="test__fileio_8cpp.html" target="_top" xlink:title=" ">
<polygon fill="white" stroke="black" points="257.52,-0.5 257.52,-30.5 404.52,-30.5 404.52,-0.5 257.52,-0.5"/>
<text text-anchor="start" x="265.52" y="-18.5" font-family="Helvetica,sans-Serif" font-size="10.00">/home/runner/work/shpxx</text>
<text text-anchor="middle" x="331.02" y="-7.5" font-family="Helvetica,sans-Serif" font-size="10.00">/shpxx/tests/test_fileio.cpp</text>
</a>
</g>
</g>
<!-- Node3&#45;&gt;Node6 -->
<g id="edge9" class="edge">
<title>Node3&#45;&gt;Node6</title>
<path fill="none" stroke="midnightblue" d="M276.4,-140.56C263.1,-132.59 250.87,-122.26 243.02,-109 233.51,-92.94 233.66,-83.15 243.02,-67 252.73,-50.23 270.34,-38.55 287.27,-30.68"/>
<polygon fill="midnightblue" stroke="midnightblue" points="274.81,-143.69 285.26,-145.47 278.2,-137.56 274.81,-143.69"/>
</g>
<!-- Node3&#45;&gt;Node7 -->
<g id="edge7" class="edge">
<title>Node3&#45;&gt;Node7</title>
<path fill="none" stroke="midnightblue" d="M398.07,-141.28C426.09,-128.76 459.53,-113.81 483.46,-103.11"/>
<polygon fill="midnightblue" stroke="midnightblue" points="396.5,-138.15 388.8,-145.43 399.35,-144.54 396.5,-138.15"/>
</g>
<!-- Node4&#45;&gt;Node2 -->
<g id="edge5" class="edge">
<title>Node4&#45;&gt;Node2</title>
<path fill="none" stroke="midnightblue" d="M287.36,-69C258.39,-57.06 220.93,-41.61 194.15,-30.57"/>
<polygon fill="midnightblue" stroke="midnightblue" points="286.24,-72.33 296.82,-72.9 288.91,-65.86 286.24,-72.33"/>
</g>
<!-- Node5 -->
<g id="node5" class="node">
<title>Node5</title>
<g id="a_node5"><a xlink:href="file_8cpp.html" target="_top" xlink:title=" ">
<polygon fill="white" stroke="black" points="444.52,-0.5 444.52,-30.5 585.52,-30.5 585.52,-0.5 444.52,-0.5"/>
<text text-anchor="start" x="452.52" y="-18.5" font-family="Helvetica,sans-Serif" font-size="10.00">/home/runner/work/shpxx</text>
<text text-anchor="middle" x="515.02" y="-7.5" font-family="Helvetica,sans-Serif" font-size="10.00">/shpxx/src/io/file.cpp</text>
</a>
</g>
</g>
<!-- Node4&#45;&gt;Node5 -->
<g id="edge4" class="edge">
<title>Node4&#45;&gt;Node5</title>
<path fill="none" stroke="midnightblue" d="M377.19,-69.31C408.46,-57.33 449.22,-41.71 478.29,-30.57"/>
<polygon fill="midnightblue" stroke="midnightblue" points="375.9,-66.06 367.81,-72.9 378.4,-72.59 375.9,-66.06"/>
</g>
<!-- Node4&#45;&gt;Node6 -->
<g id="edge6" class="edge">
<title>Node4&#45;&gt;Node6</title>
<path fill="none" stroke="midnightblue" d="M331.02,-62.73C331.02,-52.07 331.02,-39.91 331.02,-30.75"/>
<polygon fill="midnightblue" stroke="midnightblue" points="327.52,-62.73 331.02,-72.73 334.52,-62.73 327.52,-62.73"/>
</g>
<!-- Node7&#45;&gt;Node5 -->
<g id="edge8" class="edge">
<title>Node7&#45;&gt;Node5</title>
<path fill="none" stroke="midnightblue" d="M515.02,-62.73C515.02,-52.07 515.02,-39.91 515.02,-30.75"/>
<polygon fill="midnightblue" stroke="midnightblue" points="511.52,-62.73 515.02,-72.73 518.52,-62.73 511.52,-62.73"/>
</g>
<!-- Node9&#45;&gt;Node2 -->
<g id="edge12" class="edge">
<title>Node9&#45;&gt;Node2</title>
<path fill="none" stroke="midnightblue" d="M180.8,-135.22C175.24,-103.42 166.65,-54.4 162.47,-30.53"/>
<polygon fill="midnightblue" stroke="midnightblue" points="177.39,-136.03 182.56,-145.28 184.29,-134.83 177.39,-136.03"/>
</g>
<!-- Node9&#45;&gt;Node7 -->
<g id="edge14" class="edge">
<title>Node9&#45;&gt;Node7</title>
<path fill="none" stroke="midnightblue" d="M266.63,-144.64C334.44,-128.55 401.99,-113.54 450.16,-103.01"/>
<polygon fill="midnightblue" stroke="midnightblue" points="265.55,-141.3 256.63,-147.02 267.17,-148.11 265.55,-141.3"/>
</g>
<!-- Node9&#45;&gt;Node8 -->
<g id="edge13" class="edge">
<title>Node9&#45;&gt;Node8</title>
<path fill="none" stroke="midnightblue" d="M152.23,-139.06C139.2,-129.06 124.54,-117.8 112.43,-108.51"/>
<polygon fill="midnightblue" stroke="midnightblue" points="150.46,-142.11 160.52,-145.43 154.72,-136.56 150.46,-142.11"/>
</g>
<!-- Node10&#45;&gt;Node5 -->
<g id="edge17" class="edge">
<title>Node10&#45;&gt;Node5</title>
<path fill="none" stroke="midnightblue" d="M614.6,-135.59C620.1,-114.95 623.39,-87.49 611.02,-67 600.7,-49.91 582.47,-38.32 564.64,-30.6"/>
<polygon fill="midnightblue" stroke="midnightblue" points="611.17,-134.82 611.68,-145.4 617.88,-136.81 611.17,-134.82"/>
</g>
</g>
</svg>
