<?xml version="1.0" encoding="UTF-8" standalone="no"?>
<!DOCTYPE svg PUBLIC "-//W3C//DTD SVG 1.1//EN"
 "http://www.w3.org/Graphics/SVG/1.1/DTD/svg11.dtd">
<!-- Generated by graphviz version 2.43.0 (0)
 -->
<!-- Title: /home/runner/work/shpxx/shpxx/src/io/openmode_internal.hpp Pages: 1 -->
<svg width="517pt" height="195pt"
 viewBox="0.00 0.00 516.50 195.00" xmlns="http://www.w3.org/2000/svg" xmlns:xlink="http://www.w3.org/1999/xlink">
<g id="graph0" class="graph" transform="scale(1 1) rotate(0) translate(4 191)">
<title>/home/runner/work/shpxx/shpxx/src/io/openmode_internal.hpp</title>
<polygon fill="white" stroke="transparent" points="-4,4 -4,-191 512.5,-191 512.5,4 -4,4"/>
<!-- Node1 -->
<g id="node1" class="node">
<title>Node1</title>
<g id="a_node1"><a xlink:title=" ">
<polygon fill="#bfbfbf" stroke="black" points="176.5,-145.5 176.5,-186.5 317.5,-186.5 317.5,-145.5 176.5,-145.5"/>
<text text-anchor="start" x="184.5" y="-174.5" font-family="Helvetica,sans-Serif" font-size="10.00">/home/runner/work/shpxx</text>
<text text-anchor="start" x="184.5" y="-163.5" font-family="Helvetica,sans-Serif" font-size="10.00">/shpxx/src/io/openmode</text>
<text text-anchor="middle" x="247" y="-152.5" font-family="Helvetica,sans-Serif" font-size="10.00">_internal.hpp</text>
</a>
</g>
</g>
<!-- Node2 -->
<g id="node2" class="node">
<title>Node2</title>
<g id="a_node2"><a xlink:href="file__handler_8cpp.html" target="_top" xlink:title=" ">
<polygon fill="white" stroke="black" points="0,-73 0,-103 158,-103 158,-73 0,-73"/>
<text text-anchor="start" x="8" y="-91" font-family="Helvetica,sans-Serif" font-size="10.00">/home/runner/work/shpxx</text>
<text text-anchor="middle" x="79" y="-80" font-family="Helvetica,sans-Serif" font-size="10.00">/shpxx/src/io/file_handler.cpp</text>
</a>
</g>
</g>
<!-- Node1&#45;&gt;Node2 -->
<g id="edge1" class="edge">
<title>Node1&#45;&gt;Node2</title>
<path fill="none" stroke="midnightblue" d="M194.57,-141.28C166.88,-128.76 133.83,-113.81 110.18,-103.11"/>
<polygon fill="midnightblue" stroke="midnightblue" points="193.18,-144.5 203.74,-145.43 196.07,-138.12 193.18,-144.5"/>
</g>
<!-- Node3 -->
<g id="node3" class="node">
<title>Node3</title>
<g id="a_node3"><a xlink:href="openmode__internal_8cpp.html" target="_top" xlink:title=" ">
<polygon fill="white" stroke="black" points="176.5,-67.5 176.5,-108.5 317.5,-108.5 317.5,-67.5 176.5,-67.5"/>
<text text-anchor="start" x="184.5" y="-96.5" font-family="Helvetica,sans-Serif" font-size="10.00">/home/runner/work/shpxx</text>
<text text-anchor="start" x="184.5" y="-85.5" font-family="Helvetica,sans-Serif" font-size="10.00">/shpxx/src/io/openmode</text>
<text text-anchor="middle" x="247" y="-74.5" font-family="Helvetica,sans-Serif" font-size="10.00">_internal.cpp</text>
</a>
</g>
</g>
<!-- Node1&#45;&gt;Node3 -->
<g id="edge2" class="edge">
<title>Node1&#45;&gt;Node3</title>
<path fill="none" stroke="midnightblue" d="M247,-135.3C247,-126.3 247,-116.65 247,-108.51"/>
<polygon fill="midnightblue" stroke="midnightblue" points="243.5,-135.43 247,-145.43 250.5,-135.43 243.5,-135.43"/>
</g>
<!-- Node4 -->
<g id="node4" class="node">
<title>Node4</title>
<g id="a_node4"><a xlink:href="safile__wrapper_8hpp.html" target="_top" xlink:title=" ">
<polygon fill="white" stroke="black" points="335.5,-73 335.5,-103 508.5,-103 508.5,-73 335.5,-73"/>
<text text-anchor="start" x="343.5" y="-91" font-family="Helvetica,sans-Serif" font-size="10.00">/home/runner/work/shpxx</text>
<text text-anchor="middle" x="422" y="-80" font-family="Helvetica,sans-Serif" font-size="10.00">/shpxx/src/io/safile_wrapper.hpp</text>
</a>
</g>
</g>
<!-- Node1&#45;&gt;Node4 -->
<g id="edge3" class="edge">
<title>Node1&#45;&gt;Node4</title>
<path fill="none" stroke="midnightblue" d="M301.61,-141.28C330.46,-128.76 364.88,-113.81 389.52,-103.11"/>
<polygon fill="midnightblue" stroke="midnightblue" points="299.85,-138.23 292.07,-145.43 302.63,-144.65 299.85,-138.23"/>
</g>
<!-- Node5 -->
<g id="node5" class="node">
<title>Node5</title>
<g id="a_node5"><a xlink:href="file_8cpp.html" target="_top" xlink:title=" ">
<polygon fill="white" stroke="black" points="351.5,-0.5 351.5,-30.5 492.5,-30.5 492.5,-0.5 351.5,-0.5"/>
<text text-anchor="start" x="359.5" y="-18.5" font-family="Helvetica,sans-Serif" font-size="10.00">/home/runner/work/shpxx</text>
<text text-anchor="middle" x="422" y="-7.5" font-family="Helvetica,sans-Serif" font-size="10.00">/shpxx/src/io/file.cpp</text>
</a>
</g>
</g>
<!-- Node4&#45;&gt;Node5 -->
<g id="edge4" class="edge">
<title>Node4&#45;&gt;Node5</title>
<path fill="none" stroke="midnightblue" d="M422,-62.73C422,-52.07 422,-39.91 422,-30.75"/>
<polygon fill="midnightblue" stroke="midnightblue" points="418.5,-62.73 422,-72.73 425.5,-62.73 418.5,-62.73"/>
</g>
</g>
</svg>
