<?xml version="1.0" encoding="UTF-8" standalone="no"?>
<!DOCTYPE svg PUBLIC "-//W3C//DTD SVG 1.1//EN"
 "http://www.w3.org/Graphics/SVG/1.1/DTD/svg11.dtd">
<!-- Generated by graphviz version 2.43.0 (0)
 -->
<!-- Title: /home/runner/work/shpxx/shpxx/include/shpxx/feature/point.hpp Pages: 1 -->
<svg width="510pt" height="408pt"
 viewBox="0.00 0.00 509.50 408.00" xmlns="http://www.w3.org/2000/svg" xmlns:xlink="http://www.w3.org/1999/xlink">
<g id="graph0" class="graph" transform="scale(1 1) rotate(0) translate(4 404)">
<title>/home/runner/work/shpxx/shpxx/include/shpxx/feature/point.hpp</title>
<polygon fill="white" stroke="transparent" points="-4,4 -4,-404 505.5,-404 505.5,4 -4,4"/>
<!-- Node1 -->
<g id="node1" class="node">
<title>Node1</title>
<g id="a_node1"><a xlink:title=" ">
<polygon fill="#bfbfbf" stroke="black" points="61,-358.5 61,-399.5 219,-399.5 219,-358.5 61,-358.5"/>
<text text-anchor="start" x="69" y="-387.5" font-family="Helvetica,sans-Serif" font-size="10.00">/home/runner/work/shpxx</text>
<text text-anchor="start" x="69" y="-376.5" font-family="Helvetica,sans-Serif" font-size="10.00">/shpxx/include/shpxx/feature</text>
<text text-anchor="middle" x="140" y="-365.5" font-family="Helvetica,sans-Serif" font-size="10.00">/point.hpp</text>
</a>
</g>
</g>
<!-- Node2 -->
<g id="node2" class="node">
<title>Node2</title>
<g id="a_node2"><a xlink:href="is__coordinate_8hpp.html" target="_top" xlink:title=" ">
<polygon fill="white" stroke="black" points="109,-112.5 109,-131.5 291,-131.5 291,-112.5 109,-112.5"/>
<text text-anchor="middle" x="200" y="-119.5" font-family="Helvetica,sans-Serif" font-size="10.00">shpxx/concepts/is_coordinate.hpp</text>
</a>
</g>
</g>
<!-- Node1&#45;&gt;Node2 -->
<g id="edge1" class="edge">
<title>Node1&#45;&gt;Node2</title>
<path fill="none" stroke="midnightblue" d="M94.63,-358.32C79.9,-349.49 65.24,-337.5 57,-322 52.83,-314.15 55.28,-310.72 57,-302 69.46,-238.84 68.41,-215.38 112,-168 125.5,-153.33 144.87,-142.7 162.01,-135.48"/>
<polygon fill="midnightblue" stroke="midnightblue" points="163.77,-138.54 171.78,-131.61 161.19,-132.04 163.77,-138.54"/>
</g>
<!-- Node3 -->
<g id="node3" class="node">
<title>Node3</title>
<g id="a_node3"><a xlink:href="coordinate_8hpp.html" target="_top" xlink:title=" ">
<polygon fill="white" stroke="black" points="20,-56.5 20,-75.5 142,-75.5 142,-56.5 20,-56.5"/>
<text text-anchor="middle" x="81" y="-63.5" font-family="Helvetica,sans-Serif" font-size="10.00">shpxx/coordinate.hpp</text>
</a>
</g>
</g>
<!-- Node1&#45;&gt;Node3 -->
<g id="edge5" class="edge">
<title>Node1&#45;&gt;Node3</title>
<path fill="none" stroke="midnightblue" d="M92.21,-358.37C51.65,-338.17 0,-302.44 0,-251.5 0,-251.5 0,-251.5 0,-182.5 0,-140 37.22,-102.04 61.2,-82"/>
<polygon fill="midnightblue" stroke="midnightblue" points="63.46,-84.68 69.05,-75.68 59.06,-79.23 63.46,-84.68"/>
</g>
<!-- Node6 -->
<g id="node6" class="node">
<title>Node6</title>
<g id="a_node6"><a xlink:href="coordinate__cast_8hpp.html" target="_top" xlink:title=" ">
<polygon fill="white" stroke="black" points="66.5,-302.5 66.5,-321.5 213.5,-321.5 213.5,-302.5 66.5,-302.5"/>
<text text-anchor="middle" x="140" y="-309.5" font-family="Helvetica,sans-Serif" font-size="10.00">shpxx/coordinate_cast.hpp</text>
</a>
</g>
</g>
<!-- Node1&#45;&gt;Node6 -->
<g id="edge6" class="edge">
<title>Node1&#45;&gt;Node6</title>
<path fill="none" stroke="midnightblue" d="M140,-358.5C140,-350.07 140,-340.24 140,-331.87"/>
<polygon fill="midnightblue" stroke="midnightblue" points="143.5,-331.65 140,-321.65 136.5,-331.65 143.5,-331.65"/>
</g>
<!-- Node9 -->
<g id="node9" class="node">
<title>Node9</title>
<g id="a_node9"><a xlink:href="shape__type_8hpp.html" target="_top" xlink:title=" ">
<polygon fill="white" stroke="black" points="232,-302.5 232,-321.5 358,-321.5 358,-302.5 232,-302.5"/>
<text text-anchor="middle" x="295" y="-309.5" font-family="Helvetica,sans-Serif" font-size="10.00">shpxx/shape_type.hpp</text>
</a>
</g>
</g>
<!-- Node1&#45;&gt;Node9 -->
<g id="edge15" class="edge">
<title>Node1&#45;&gt;Node9</title>
<path fill="none" stroke="midnightblue" d="M186.51,-358.5C211.98,-347.81 242.81,-334.89 265.09,-325.54"/>
<polygon fill="midnightblue" stroke="midnightblue" points="266.5,-328.75 274.37,-321.65 263.79,-322.29 266.5,-328.75"/>
</g>
<!-- Node11 -->
<g id="node11" class="node">
<title>Node11</title>
<g id="a_node11"><a xlink:href="shp__handle_8hpp.html" target="_top" xlink:title=" ">
<polygon fill="white" stroke="black" points="376.5,-302.5 376.5,-321.5 501.5,-321.5 501.5,-302.5 376.5,-302.5"/>
<text text-anchor="middle" x="439" y="-309.5" font-family="Helvetica,sans-Serif" font-size="10.00">shpxx/shp_handle.hpp</text>
</a>
</g>
</g>
<!-- Node1&#45;&gt;Node11 -->
<g id="edge17" class="edge">
<title>Node1&#45;&gt;Node11</title>
<path fill="none" stroke="midnightblue" d="M219.34,-360.75C273.5,-348.98 343.54,-333.75 389.8,-323.7"/>
<polygon fill="midnightblue" stroke="midnightblue" points="390.56,-327.11 399.58,-321.57 389.07,-320.27 390.56,-327.11"/>
</g>
<!-- Node2&#45;&gt;Node3 -->
<g id="edge2" class="edge">
<title>Node2&#45;&gt;Node3</title>
<path fill="none" stroke="midnightblue" d="M181.14,-112.44C161.73,-103.64 131.27,-89.81 109.04,-79.72"/>
<polygon fill="midnightblue" stroke="midnightblue" points="110.32,-76.46 99.77,-75.52 107.43,-82.84 110.32,-76.46"/>
</g>
<!-- Node5 -->
<g id="node5" class="node">
<title>Node5</title>
<g id="a_node5"><a xlink:title=" ">
<polygon fill="white" stroke="#bfbfbf" points="229,-56.5 229,-75.5 289,-75.5 289,-56.5 229,-56.5"/>
<text text-anchor="middle" x="259" y="-63.5" font-family="Helvetica,sans-Serif" font-size="10.00">concepts</text>
</a>
</g>
</g>
<!-- Node2&#45;&gt;Node5 -->
<g id="edge4" class="edge">
<title>Node2&#45;&gt;Node5</title>
<path fill="none" stroke="midnightblue" d="M209.48,-112.32C218.2,-104.34 231.34,-92.31 241.9,-82.65"/>
<polygon fill="midnightblue" stroke="midnightblue" points="244.33,-85.17 249.35,-75.83 239.61,-80 244.33,-85.17"/>
</g>
<!-- Node4 -->
<g id="node4" class="node">
<title>Node4</title>
<g id="a_node4"><a xlink:title=" ">
<polygon fill="white" stroke="#bfbfbf" points="57.5,-0.5 57.5,-19.5 104.5,-19.5 104.5,-0.5 57.5,-0.5"/>
<text text-anchor="middle" x="81" y="-7.5" font-family="Helvetica,sans-Serif" font-size="10.00">cmath</text>
</a>
</g>
</g>
<!-- Node3&#45;&gt;Node4 -->
<g id="edge3" class="edge">
<title>Node3&#45;&gt;Node4</title>
<path fill="none" stroke="midnightblue" d="M81,-56.08C81,-49.01 81,-38.86 81,-29.99"/>
<polygon fill="midnightblue" stroke="midnightblue" points="84.5,-29.75 81,-19.75 77.5,-29.75 84.5,-29.75"/>
</g>
<!-- Node6&#45;&gt;Node2 -->
<g id="edge7" class="edge">
<title>Node6&#45;&gt;Node2</title>
<path fill="none" stroke="midnightblue" d="M126.94,-302.44C116.09,-294.47 101.43,-281.52 95,-266 89.73,-253.27 89.93,-247.81 95,-235 111.83,-192.43 153.34,-156.57 178.84,-137.58"/>
<polygon fill="midnightblue" stroke="midnightblue" points="181.08,-140.28 187.12,-131.58 176.97,-134.61 181.08,-140.28"/>
</g>
<!-- Node7 -->
<g id="node7" class="node">
<title>Node7</title>
<g id="a_node7"><a xlink:href="coordinate__cast__impl_8hpp.html" target="_top" xlink:title=" ">
<polygon fill="white" stroke="black" points="104,-235.5 104,-265.5 230,-265.5 230,-235.5 104,-235.5"/>
<text text-anchor="start" x="112" y="-253.5" font-family="Helvetica,sans-Serif" font-size="10.00">shpxx/coordinate_cast</text>
<text text-anchor="middle" x="167" y="-242.5" font-family="Helvetica,sans-Serif" font-size="10.00">_impl.hpp</text>
</a>
</g>
</g>
<!-- Node6&#45;&gt;Node7 -->
<g id="edge8" class="edge">
<title>Node6&#45;&gt;Node7</title>
<path fill="none" stroke="midnightblue" d="M138.97,-302.48C140.69,-295.17 145.06,-284.3 149.98,-274.47"/>
<polygon fill="midnightblue" stroke="midnightblue" points="153.14,-275.99 154.81,-265.52 146.98,-272.67 153.14,-275.99"/>
</g>
<!-- Node7&#45;&gt;Node2 -->
<g id="edge12" class="edge">
<title>Node7&#45;&gt;Node2</title>
<path fill="none" stroke="midnightblue" d="M169.99,-235.29C173.49,-218.96 179.64,-191.41 186,-168 188.42,-159.11 191.42,-149.33 194.02,-141.16"/>
<polygon fill="midnightblue" stroke="midnightblue" points="197.37,-142.16 197.13,-131.57 190.72,-140.01 197.37,-142.16"/>
</g>
<!-- Node7&#45;&gt;Node3 -->
<g id="edge13" class="edge">
<title>Node7&#45;&gt;Node3</title>
<path fill="none" stroke="midnightblue" d="M157.39,-235.23C143.22,-213.66 116.6,-171.13 100,-132 93.54,-116.78 88.45,-98.67 85.16,-85.43"/>
<polygon fill="midnightblue" stroke="midnightblue" points="88.55,-84.56 82.84,-75.63 81.74,-86.17 88.55,-84.56"/>
</g>
<!-- Node7&#45;&gt;Node6 -->
<g id="edge14" class="edge">
<title>Node7&#45;&gt;Node6</title>
<path fill="none" stroke="midnightblue" d="M166.47,-265.52C163.73,-273.94 158.96,-284.73 154.06,-293.68"/>
<polygon fill="midnightblue" stroke="midnightblue" points="150.92,-292.1 148.77,-302.48 156.92,-295.71 150.92,-292.1"/>
</g>
<!-- Node8 -->
<g id="node8" class="node">
<title>Node8</title>
<g id="a_node8"><a xlink:href="has__zm_8hpp.html" target="_top" xlink:title=" ">
<polygon fill="white" stroke="black" points="195.5,-168.5 195.5,-198.5 308.5,-198.5 308.5,-168.5 195.5,-168.5"/>
<text text-anchor="start" x="203.5" y="-186.5" font-family="Helvetica,sans-Serif" font-size="10.00">shpxx/concepts/has</text>
<text text-anchor="middle" x="252" y="-175.5" font-family="Helvetica,sans-Serif" font-size="10.00">_zm.hpp</text>
</a>
</g>
</g>
<!-- Node7&#45;&gt;Node8 -->
<g id="edge9" class="edge">
<title>Node7&#45;&gt;Node8</title>
<path fill="none" stroke="midnightblue" d="M185.44,-235.4C197.14,-226.45 212.46,-214.74 225.45,-204.8"/>
<polygon fill="midnightblue" stroke="midnightblue" points="227.77,-207.43 233.59,-198.58 223.52,-201.87 227.77,-207.43"/>
</g>
<!-- Node8&#45;&gt;Node2 -->
<g id="edge10" class="edge">
<title>Node8&#45;&gt;Node2</title>
<path fill="none" stroke="midnightblue" d="M239.68,-168.4C232.04,-159.66 222.21,-148.41 214.24,-139.3"/>
<polygon fill="midnightblue" stroke="midnightblue" points="216.78,-136.88 207.57,-131.66 211.51,-141.49 216.78,-136.88"/>
</g>
<!-- Node8&#45;&gt;Node5 -->
<g id="edge11" class="edge">
<title>Node8&#45;&gt;Node5</title>
<path fill="none" stroke="midnightblue" d="M271.2,-168.45C281.88,-159.4 294.17,-146.6 300,-132 307.28,-113.77 292.65,-95.03 278.89,-82.38"/>
<polygon fill="midnightblue" stroke="midnightblue" points="280.94,-79.52 271.06,-75.69 276.39,-84.84 280.94,-79.52"/>
</g>
<!-- Node10 -->
<g id="node10" class="node">
<title>Node10</title>
<g id="a_node10"><a xlink:title=" ">
<polygon fill="white" stroke="#bfbfbf" points="273,-241 273,-260 317,-260 317,-241 273,-241"/>
<text text-anchor="middle" x="295" y="-248" font-family="Helvetica,sans-Serif" font-size="10.00">string</text>
</a>
</g>
</g>
<!-- Node9&#45;&gt;Node10 -->
<g id="edge16" class="edge">
<title>Node9&#45;&gt;Node10</title>
<path fill="none" stroke="midnightblue" d="M295,-302.48C295,-294.08 295,-280.98 295,-270.16"/>
<polygon fill="midnightblue" stroke="midnightblue" points="298.5,-270.01 295,-260.01 291.5,-270.01 298.5,-270.01"/>
</g>
<!-- Node12 -->
<g id="node12" class="node">
<title>Node12</title>
<g id="a_node12"><a xlink:title=" ">
<polygon fill="white" stroke="#bfbfbf" points="410,-241 410,-260 468,-260 468,-241 410,-241"/>
<text text-anchor="middle" x="439" y="-248" font-family="Helvetica,sans-Serif" font-size="10.00">memory</text>
</a>
</g>
</g>
<!-- Node11&#45;&gt;Node12 -->
<g id="edge18" class="edge">
<title>Node11&#45;&gt;Node12</title>
<path fill="none" stroke="midnightblue" d="M439,-302.48C439,-294.08 439,-280.98 439,-270.16"/>
<polygon fill="midnightblue" stroke="midnightblue" points="442.5,-270.01 439,-260.01 435.5,-270.01 442.5,-270.01"/>
</g>
</g>
</svg>
