<?xml version="1.0" encoding="UTF-8" standalone="no"?>
<!DOCTYPE svg PUBLIC "-//W3C//DTD SVG 1.1//EN"
 "http://www.w3.org/Graphics/SVG/1.1/DTD/svg11.dtd">
<!-- Generated by graphviz version 2.43.0 (0)
 -->
<!-- Title: /home/runner/work/shpxx/shpxx/src/feature/point.cpp Pages: 1 -->
<!--zoomable 453 -->
<svg id="main" version="1.1" xmlns="http://www.w3.org/2000/svg" xmlns:xlink="http://www.w3.org/1999/xlink" xml:space="preserve" onload="init(evt)">
<style type="text/css"><![CDATA[
.edge:hover path { stroke: red; }
.edge:hover polygon { stroke: red; fill: red; }
]]></style>
<script type="text/javascript"><![CDATA[
var edges = document.getElementsByTagName('g');
if (edges && edges.length) {
  for (var i=0;i<edges.length;i++) {
    if (edges[i].id.substr(0,4)=='edge') {
      edges[i].setAttribute('class','edge');
    }
  }
}
]]></script>
        <defs>
                <circle id="rim" cx="0" cy="0" r="7"/>
                <circle id="rim2" cx="0" cy="0" r="3.5"/>
                <g id="zoomPlus">
                        <use xlink:href="#rim" fill="#404040">
                                <set attributeName="fill" to="#808080" begin="zoomplus.mouseover" end="zoomplus.mouseout"/>
                        </use>
                        <path d="M-4,0h8M0,-4v8" fill="none" stroke="white" stroke-width="1.5" pointer-events="none"/>
                </g>
                <g id="zoomMin">
                        <use xlink:href="#rim" fill="#404040">
                                <set attributeName="fill" to="#808080" begin="zoomminus.mouseover" end="zoomminus.mouseout"/>
                        </use>
                        <path d="M-4,0h8" fill="none" stroke="white" stroke-width="1.5" pointer-events="none"/>
                </g>
                <g id="dirArrow">
                        <path fill="none" stroke="white" stroke-width="1.5" d="M0,-3.0v7 M-2.5,-0.5L0,-3.0L2.5,-0.5"/>
                </g>
               <g id="resetDef">
                       <use xlink:href="#rim2" fill="#404040">
                               <set attributeName="fill" to="#808080" begin="reset.mouseover" end="reset.mouseout"/>
                       </use>
               </g>
        </defs>

<script type="text/javascript">
var viewWidth = 638;
var viewHeight = 453;
var sectionId = 'dynsection-0';
</script>
<script xlink:href="svgpan.js"/>
<svg id="graph" class="graph">
<g id="viewport">
<title>/home/runner/work/shpxx/shpxx/src/feature/point.cpp</title>
<polygon fill="white" stroke="transparent" points="-4,4 -4,-449 634,-449 634,4 -4,4"/>
<!-- Node1 -->
<g id="node1" class="node">
<title>Node1</title>
<g id="a_node1"><a xlink:title=" ">
<polygon fill="#bfbfbf" stroke="black" points="208,-414.5 208,-444.5 360,-444.5 360,-414.5 208,-414.5"/>
<text text-anchor="start" x="216" y="-432.5" font-family="Helvetica,sans-Serif" font-size="10.00">/home/runner/work/shpxx</text>
<text text-anchor="middle" x="284" y="-421.5" font-family="Helvetica,sans-Serif" font-size="10.00">/shpxx/src/feature/point.cpp</text>
</a>
</g>
</g>
<!-- Node2 -->
<g id="node2" class="node">
<title>Node2</title>
<g id="a_node2"><a xlink:href="point_8hpp.html" target="_top" xlink:title=" ">
<polygon fill="white" stroke="black" points="217.5,-358.5 217.5,-377.5 350.5,-377.5 350.5,-358.5 217.5,-358.5"/>
<text text-anchor="middle" x="284" y="-365.5" font-family="Helvetica,sans-Serif" font-size="10.00">shpxx/feature/point.hpp</text>
</a>
</g>
</g>
<!-- Node1&#45;&gt;Node2 -->
<g id="edge1" class="edge">
<title>Node1&#45;&gt;Node2</title>
<path fill="none" stroke="midnightblue" d="M284,-414.4C284,-406.47 284,-396.46 284,-387.86"/>
<polygon fill="midnightblue" stroke="midnightblue" points="287.5,-387.66 284,-377.66 280.5,-387.66 287.5,-387.66"/>
</g>
<!-- Node4 -->
<g id="node4" class="node">
<title>Node4</title>
<g id="a_node4"><a xlink:href="coordinate_8hpp.html" target="_top" xlink:title=" ">
<polygon fill="white" stroke="black" points="65,-56.5 65,-75.5 187,-75.5 187,-56.5 65,-56.5"/>
<text text-anchor="middle" x="126" y="-63.5" font-family="Helvetica,sans-Serif" font-size="10.00">shpxx/coordinate.hpp</text>
</a>
</g>
</g>
<!-- Node1&#45;&gt;Node4 -->
<g id="edge23" class="edge">
<title>Node1&#45;&gt;Node4</title>
<path fill="none" stroke="midnightblue" d="M213.8,-414.47C129.7,-395.6 0,-359.04 0,-313 0,-313 0,-313 0,-182.5 0,-131.56 56.65,-97 93.98,-79.76"/>
<polygon fill="midnightblue" stroke="midnightblue" points="95.75,-82.81 103.47,-75.56 92.91,-76.41 95.75,-82.81"/>
</g>
<!-- Node10 -->
<g id="node10" class="node">
<title>Node10</title>
<g id="a_node10"><a xlink:href="shape__type_8hpp.html" target="_top" xlink:title=" ">
<polygon fill="white" stroke="black" points="28,-302.5 28,-321.5 154,-321.5 154,-302.5 28,-302.5"/>
<text text-anchor="middle" x="91" y="-309.5" font-family="Helvetica,sans-Serif" font-size="10.00">shpxx/shape_type.hpp</text>
</a>
</g>
</g>
<!-- Node1&#45;&gt;Node10 -->
<g id="edge24" class="edge">
<title>Node1&#45;&gt;Node10</title>
<path fill="none" stroke="midnightblue" d="M260.33,-414.34C223.03,-392.01 151.01,-348.91 114.08,-326.81"/>
<polygon fill="midnightblue" stroke="midnightblue" points="115.86,-323.8 105.49,-321.67 112.27,-329.81 115.86,-323.8"/>
</g>
<!-- Node14 -->
<g id="node14" class="node">
<title>Node14</title>
<g id="a_node14"><a xlink:href="shp__casts_8hpp.html" target="_top" xlink:title=" ">
<polygon fill="white" stroke="black" points="442,-358.5 442,-377.5 528,-377.5 528,-358.5 442,-358.5"/>
<text text-anchor="middle" x="485" y="-365.5" font-family="Helvetica,sans-Serif" font-size="10.00">shp_casts.hpp</text>
</a>
</g>
</g>
<!-- Node1&#45;&gt;Node14 -->
<g id="edge20" class="edge">
<title>Node1&#45;&gt;Node14</title>
<path fill="none" stroke="midnightblue" d="M331.38,-414.47C366.51,-404.08 413.79,-390.08 446.58,-380.37"/>
<polygon fill="midnightblue" stroke="midnightblue" points="447.67,-383.7 456.26,-377.51 445.68,-376.99 447.67,-383.7"/>
</g>
<!-- Node15 -->
<g id="node15" class="node">
<title>Node15</title>
<g id="a_node15"><a xlink:title=" ">
<polygon fill="white" stroke="#bfbfbf" points="566,-302.5 566,-321.5 630,-321.5 630,-302.5 566,-302.5"/>
<text text-anchor="middle" x="598" y="-309.5" font-family="Helvetica,sans-Serif" font-size="10.00">shapefil.h</text>
</a>
</g>
</g>
<!-- Node1&#45;&gt;Node15 -->
<g id="edge25" class="edge">
<title>Node1&#45;&gt;Node15</title>
<path fill="none" stroke="midnightblue" d="M360.13,-425.44C412.66,-420.52 482.58,-408.23 537,-378 557.84,-366.42 575.68,-345.25 586.59,-330.21"/>
<polygon fill="midnightblue" stroke="midnightblue" points="589.62,-331.99 592.46,-321.79 583.87,-328 589.62,-331.99"/>
</g>
<!-- Node3 -->
<g id="node3" class="node">
<title>Node3</title>
<g id="a_node3"><a xlink:href="is__coordinate_8hpp.html" target="_top" xlink:title=" ">
<polygon fill="white" stroke="black" points="251,-112.5 251,-131.5 433,-131.5 433,-112.5 251,-112.5"/>
<text text-anchor="middle" x="342" y="-119.5" font-family="Helvetica,sans-Serif" font-size="10.00">shpxx/concepts/is_coordinate.hpp</text>
</a>
</g>
</g>
<!-- Node2&#45;&gt;Node3 -->
<g id="edge2" class="edge">
<title>Node2&#45;&gt;Node3</title>
<path fill="none" stroke="midnightblue" d="M315.18,-358.41C333.33,-351.66 354.78,-340.27 366,-322 401.83,-263.65 388.81,-233.83 370,-168 367.1,-157.84 361.17,-147.75 355.51,-139.7"/>
<polygon fill="midnightblue" stroke="midnightblue" points="358.22,-137.48 349.41,-131.59 352.62,-141.69 358.22,-137.48"/>
</g>
<!-- Node2&#45;&gt;Node4 -->
<g id="edge6" class="edge">
<title>Node2&#45;&gt;Node4</title>
<path fill="none" stroke="midnightblue" d="M258.06,-358.41C239.92,-351.22 216.29,-339.33 201,-322 138.79,-251.51 128.1,-131.71 126.32,-85.73"/>
<polygon fill="midnightblue" stroke="midnightblue" points="129.82,-85.6 126.04,-75.71 122.82,-85.8 129.82,-85.6"/>
</g>
<!-- Node7 -->
<g id="node7" class="node">
<title>Node7</title>
<g id="a_node7"><a xlink:href="coordinate__cast_8hpp.html" target="_top" xlink:title=" ">
<polygon fill="white" stroke="black" points="210.5,-302.5 210.5,-321.5 357.5,-321.5 357.5,-302.5 210.5,-302.5"/>
<text text-anchor="middle" x="284" y="-309.5" font-family="Helvetica,sans-Serif" font-size="10.00">shpxx/coordinate_cast.hpp</text>
</a>
</g>
</g>
<!-- Node2&#45;&gt;Node7 -->
<g id="edge7" class="edge">
<title>Node2&#45;&gt;Node7</title>
<path fill="none" stroke="midnightblue" d="M284,-358.08C284,-351.01 284,-340.86 284,-331.99"/>
<polygon fill="midnightblue" stroke="midnightblue" points="287.5,-331.75 284,-321.75 280.5,-331.75 287.5,-331.75"/>
</g>
<!-- Node2&#45;&gt;Node10 -->
<g id="edge16" class="edge">
<title>Node2&#45;&gt;Node10</title>
<path fill="none" stroke="midnightblue" d="M253.42,-358.44C220.39,-349.2 167.61,-334.44 131.23,-324.26"/>
<polygon fill="midnightblue" stroke="midnightblue" points="132.01,-320.84 121.44,-321.52 130.13,-327.58 132.01,-320.84"/>
</g>
<!-- Node12 -->
<g id="node12" class="node">
<title>Node12</title>
<g id="a_node12"><a xlink:href="shp__handle_8hpp.html" target="_top" xlink:title=" ">
<polygon fill="white" stroke="black" points="422.5,-302.5 422.5,-321.5 547.5,-321.5 547.5,-302.5 422.5,-302.5"/>
<text text-anchor="middle" x="485" y="-309.5" font-family="Helvetica,sans-Serif" font-size="10.00">shpxx/shp_handle.hpp</text>
</a>
</g>
</g>
<!-- Node2&#45;&gt;Node12 -->
<g id="edge18" class="edge">
<title>Node2&#45;&gt;Node12</title>
<path fill="none" stroke="midnightblue" d="M315.85,-358.44C350.4,-349.16 405.68,-334.31 443.58,-324.13"/>
<polygon fill="midnightblue" stroke="midnightblue" points="444.55,-327.49 453.3,-321.52 442.73,-320.73 444.55,-327.49"/>
</g>
<!-- Node3&#45;&gt;Node4 -->
<g id="edge3" class="edge">
<title>Node3&#45;&gt;Node4</title>
<path fill="none" stroke="midnightblue" d="M307.77,-112.44C270.49,-103.12 210.73,-88.18 169.99,-78"/>
<polygon fill="midnightblue" stroke="midnightblue" points="170.62,-74.55 160.07,-75.52 168.92,-81.34 170.62,-74.55"/>
</g>
<!-- Node6 -->
<g id="node6" class="node">
<title>Node6</title>
<g id="a_node6"><a xlink:title=" ">
<polygon fill="white" stroke="#bfbfbf" points="208,-56.5 208,-75.5 268,-75.5 268,-56.5 208,-56.5"/>
<text text-anchor="middle" x="238" y="-63.5" font-family="Helvetica,sans-Serif" font-size="10.00">concepts</text>
</a>
</g>
</g>
<!-- Node3&#45;&gt;Node6 -->
<g id="edge5" class="edge">
<title>Node3&#45;&gt;Node6</title>
<path fill="none" stroke="midnightblue" d="M325.29,-112.32C308.69,-103.7 283,-90.36 263.78,-80.39"/>
<polygon fill="midnightblue" stroke="midnightblue" points="265.16,-77.16 254.67,-75.65 261.93,-83.37 265.16,-77.16"/>
</g>
<!-- Node5 -->
<g id="node5" class="node">
<title>Node5</title>
<g id="a_node5"><a xlink:title=" ">
<polygon fill="white" stroke="#bfbfbf" points="102.5,-0.5 102.5,-19.5 149.5,-19.5 149.5,-0.5 102.5,-0.5"/>
<text text-anchor="middle" x="126" y="-7.5" font-family="Helvetica,sans-Serif" font-size="10.00">cmath</text>
</a>
</g>
</g>
<!-- Node4&#45;&gt;Node5 -->
<g id="edge4" class="edge">
<title>Node4&#45;&gt;Node5</title>
<path fill="none" stroke="midnightblue" d="M126,-56.08C126,-49.01 126,-38.86 126,-29.99"/>
<polygon fill="midnightblue" stroke="midnightblue" points="129.5,-29.75 126,-19.75 122.5,-29.75 129.5,-29.75"/>
</g>
<!-- Node7&#45;&gt;Node3 -->
<g id="edge8" class="edge">
<title>Node7&#45;&gt;Node3</title>
<path fill="none" stroke="midnightblue" d="M304.22,-302.49C318.77,-295.17 337.3,-283.06 346,-266 366.61,-225.57 355.76,-169.99 347.86,-141.5"/>
<polygon fill="midnightblue" stroke="midnightblue" points="351.15,-140.27 344.95,-131.68 344.44,-142.26 351.15,-140.27"/>
</g>
<!-- Node8 -->
<g id="node8" class="node">
<title>Node8</title>
<g id="a_node8"><a xlink:href="coordinate__cast__impl_8hpp.html" target="_top" xlink:title=" ">
<polygon fill="white" stroke="black" points="211,-235.5 211,-265.5 337,-265.5 337,-235.5 211,-235.5"/>
<text text-anchor="start" x="219" y="-253.5" font-family="Helvetica,sans-Serif" font-size="10.00">shpxx/coordinate_cast</text>
<text text-anchor="middle" x="274" y="-242.5" font-family="Helvetica,sans-Serif" font-size="10.00">_impl.hpp</text>
</a>
</g>
</g>
<!-- Node7&#45;&gt;Node8 -->
<g id="edge9" class="edge">
<title>Node7&#45;&gt;Node8</title>
<path fill="none" stroke="midnightblue" d="M277.67,-302.48C274.96,-295.47 272.65,-285.19 271.42,-275.7"/>
<polygon fill="midnightblue" stroke="midnightblue" points="274.89,-275.18 270.53,-265.52 267.92,-275.79 274.89,-275.18"/>
</g>
<!-- Node8&#45;&gt;Node3 -->
<g id="edge13" class="edge">
<title>Node8&#45;&gt;Node3</title>
<path fill="none" stroke="midnightblue" d="M284.11,-235.26C290.96,-225.33 300.01,-211.65 307,-199 317.62,-179.79 327.9,-156.77 334.54,-141.14"/>
<polygon fill="midnightblue" stroke="midnightblue" points="337.89,-142.21 338.51,-131.64 331.43,-139.51 337.89,-142.21"/>
</g>
<!-- Node8&#45;&gt;Node4 -->
<g id="edge14" class="edge">
<title>Node8&#45;&gt;Node4</title>
<path fill="none" stroke="midnightblue" d="M230.9,-235.36C211.92,-227.28 190.65,-215.42 176,-199 146.46,-165.89 133.69,-113.59 128.75,-85.8"/>
<polygon fill="midnightblue" stroke="midnightblue" points="132.19,-85.14 127.13,-75.83 125.28,-86.26 132.19,-85.14"/>
</g>
<!-- Node8&#45;&gt;Node7 -->
<g id="edge15" class="edge">
<title>Node8&#45;&gt;Node7</title>
<path fill="none" stroke="midnightblue" d="M282.19,-265.52C284.56,-273.5 286.42,-283.59 287.17,-292.23"/>
<polygon fill="midnightblue" stroke="midnightblue" points="283.68,-292.58 287.47,-302.48 290.67,-292.38 283.68,-292.58"/>
</g>
<!-- Node9 -->
<g id="node9" class="node">
<title>Node9</title>
<g id="a_node9"><a xlink:href="has__zm_8hpp.html" target="_top" xlink:title=" ">
<polygon fill="white" stroke="black" points="185.5,-168.5 185.5,-198.5 298.5,-198.5 298.5,-168.5 185.5,-168.5"/>
<text text-anchor="start" x="193.5" y="-186.5" font-family="Helvetica,sans-Serif" font-size="10.00">shpxx/concepts/has</text>
<text text-anchor="middle" x="242" y="-175.5" font-family="Helvetica,sans-Serif" font-size="10.00">_zm.hpp</text>
</a>
</g>
</g>
<!-- Node8&#45;&gt;Node9 -->
<g id="edge10" class="edge">
<title>Node8&#45;&gt;Node9</title>
<path fill="none" stroke="midnightblue" d="M267.06,-235.4C263.07,-227.3 257.97,-216.94 253.41,-207.69"/>
<polygon fill="midnightblue" stroke="midnightblue" points="256.49,-206 248.93,-198.58 250.21,-209.09 256.49,-206"/>
</g>
<!-- Node9&#45;&gt;Node3 -->
<g id="edge11" class="edge">
<title>Node9&#45;&gt;Node3</title>
<path fill="none" stroke="midnightblue" d="M265.7,-168.4C281.73,-158.86 302.8,-146.32 318.74,-136.84"/>
<polygon fill="midnightblue" stroke="midnightblue" points="320.64,-139.78 327.45,-131.66 317.07,-133.76 320.64,-139.78"/>
</g>
<!-- Node9&#45;&gt;Node6 -->
<g id="edge12" class="edge">
<title>Node9&#45;&gt;Node6</title>
<path fill="none" stroke="midnightblue" d="M241.51,-168.34C240.79,-147.62 239.46,-109.02 238.65,-85.9"/>
<polygon fill="midnightblue" stroke="midnightblue" points="242.14,-85.54 238.3,-75.67 235.15,-85.78 242.14,-85.54"/>
</g>
<!-- Node11 -->
<g id="node11" class="node">
<title>Node11</title>
<g id="a_node11"><a xlink:title=" ">
<polygon fill="white" stroke="#bfbfbf" points="69,-241 69,-260 113,-260 113,-241 69,-241"/>
<text text-anchor="middle" x="91" y="-248" font-family="Helvetica,sans-Serif" font-size="10.00">string</text>
</a>
</g>
</g>
<!-- Node10&#45;&gt;Node11 -->
<g id="edge17" class="edge">
<title>Node10&#45;&gt;Node11</title>
<path fill="none" stroke="midnightblue" d="M91,-302.48C91,-294.08 91,-280.98 91,-270.16"/>
<polygon fill="midnightblue" stroke="midnightblue" points="94.5,-270.01 91,-260.01 87.5,-270.01 94.5,-270.01"/>
</g>
<!-- Node13 -->
<g id="node13" class="node">
<title>Node13</title>
<g id="a_node13"><a xlink:title=" ">
<polygon fill="white" stroke="#bfbfbf" points="456,-241 456,-260 514,-260 514,-241 456,-241"/>
<text text-anchor="middle" x="485" y="-248" font-family="Helvetica,sans-Serif" font-size="10.00">memory</text>
</a>
</g>
</g>
<!-- Node12&#45;&gt;Node13 -->
<g id="edge19" class="edge">
<title>Node12&#45;&gt;Node13</title>
<path fill="none" stroke="midnightblue" d="M485,-302.48C485,-294.08 485,-280.98 485,-270.16"/>
<polygon fill="midnightblue" stroke="midnightblue" points="488.5,-270.01 485,-260.01 481.5,-270.01 488.5,-270.01"/>
</g>
<!-- Node14&#45;&gt;Node12 -->
<g id="edge21" class="edge">
<title>Node14&#45;&gt;Node12</title>
<path fill="none" stroke="midnightblue" d="M485,-358.08C485,-351.01 485,-340.86 485,-331.99"/>
<polygon fill="midnightblue" stroke="midnightblue" points="488.5,-331.75 485,-321.75 481.5,-331.75 488.5,-331.75"/>
</g>
<!-- Node14&#45;&gt;Node15 -->
<g id="edge22" class="edge">
<title>Node14&#45;&gt;Node15</title>
<path fill="none" stroke="midnightblue" d="M502.91,-358.44C521.25,-349.68 550.01,-335.94 571.09,-325.86"/>
<polygon fill="midnightblue" stroke="midnightblue" points="572.67,-328.99 580.18,-321.52 569.65,-322.67 572.67,-328.99"/>
</g>
</g>
</svg>
        <g id="navigator" transform="translate(0 0)" fill="#404254">
                <rect fill="#f2f5e9" fill-opacity="0.5" stroke="#606060" stroke-width=".5" x="0" y="0" width="60" height="60"/>
                <use id="zoomplus" xlink:href="#zoomPlus" x="17" y="9" onmousedown="handleZoom(evt,'in')"/>
                <use id="zoomminus" xlink:href="#zoomMin" x="42" y="9" onmousedown="handleZoom(evt,'out')"/>
                <use id="reset" xlink:href="#resetDef" x="30" y="36" onmousedown="handleReset()"/>
                <g id="arrowUp" xlink:href="#dirArrow" transform="translate(30 24)" onmousedown="handlePan(0,-1)">
                  <use xlink:href="#rim" fill="#404040">
                        <set attributeName="fill" to="#808080" begin="arrowUp.mouseover" end="arrowUp.mouseout"/>
                  </use>
                  <path fill="none" stroke="white" stroke-width="1.5" d="M0,-3.0v7 M-2.5,-0.5L0,-3.0L2.5,-0.5"/>
                </g>
                <g id="arrowRight" xlink:href="#dirArrow" transform="rotate(90) translate(36 -43)" onmousedown="handlePan(1,0)">
                  <use xlink:href="#rim" fill="#404040">
                        <set attributeName="fill" to="#808080" begin="arrowRight.mouseover" end="arrowRight.mouseout"/>
                  </use>
                  <path fill="none" stroke="white" stroke-width="1.5" d="M0,-3.0v7 M-2.5,-0.5L0,-3.0L2.5,-0.5"/>
                </g>
                <g id="arrowDown" xlink:href="#dirArrow" transform="rotate(180) translate(-30 -48)" onmousedown="handlePan(0,1)">
                  <use xlink:href="#rim" fill="#404040">
                        <set attributeName="fill" to="#808080" begin="arrowDown.mouseover" end="arrowDown.mouseout"/>
                  </use>
                  <path fill="none" stroke="white" stroke-width="1.5" d="M0,-3.0v7 M-2.5,-0.5L0,-3.0L2.5,-0.5"/>
                </g>
                <g id="arrowLeft" xlink:href="#dirArrow" transform="rotate(270) translate(-36 17)" onmousedown="handlePan(-1,0)">
                  <use xlink:href="#rim" fill="#404040">
                        <set attributeName="fill" to="#808080" begin="arrowLeft.mouseover" end="arrowLeft.mouseout"/>
                  </use>
                  <path fill="none" stroke="white" stroke-width="1.5" d="M0,-3.0v7 M-2.5,-0.5L0,-3.0L2.5,-0.5"/>
                </g>
        </g>
        <svg viewBox="0 0 15 15" width="100%" height="30px" preserveAspectRatio="xMaxYMin meet">
         <g id="arrow_out" transform="scale(0.3 0.3)">
          <a xlink:href="point_8cpp__incl_org.svg" target="_base">
           <rect id="button" ry="5" rx="5" y="6" x="6" height="38" width="38"
                fill="#f2f5e9" fill-opacity="0.5" stroke="#606060" stroke-width="1.0"/>
           <path id="arrow"
             d="M 11.500037,31.436501 C 11.940474,20.09759 22.043105,11.32322 32.158766,21.979434 L 37.068811,17.246167 C 37.068811,17.246167 37.088388,32 37.088388,32 L 22.160133,31.978069 C 22.160133,31.978069 26.997745,27.140456 26.997745,27.140456 C 18.528582,18.264221 13.291696,25.230495 11.500037,31.436501 z"
             style="fill:#404040;"/>
          </a>
         </g>
        </svg>
</svg>
