<?xml version="1.0" encoding="UTF-8" standalone="no"?>
<!DOCTYPE svg PUBLIC "-//W3C//DTD SVG 1.1//EN"
 "http://www.w3.org/Graphics/SVG/1.1/DTD/svg11.dtd">
<!-- Generated by graphviz version 2.43.0 (0)
 -->
<!-- Title: /home/runner/work/shpxx/shpxx/src/io/safile_wrapper.hpp Pages: 1 -->
<!--zoomable 207 -->
<svg id="main" version="1.1" xmlns="http://www.w3.org/2000/svg" xmlns:xlink="http://www.w3.org/1999/xlink" xml:space="preserve" onload="init(evt)">
<style type="text/css"><![CDATA[
.edge:hover path { stroke: red; }
.edge:hover polygon { stroke: red; fill: red; }
]]></style>
<script type="text/javascript"><![CDATA[
var edges = document.getElementsByTagName('g');
if (edges && edges.length) {
  for (var i=0;i<edges.length;i++) {
    if (edges[i].id.substr(0,4)=='edge') {
      edges[i].setAttribute('class','edge');
    }
  }
}
]]></script>
        <defs>
                <circle id="rim" cx="0" cy="0" r="7"/>
                <circle id="rim2" cx="0" cy="0" r="3.5"/>
                <g id="zoomPlus">
                        <use xlink:href="#rim" fill="#404040">
                                <set attributeName="fill" to="#808080" begin="zoomplus.mouseover" end="zoomplus.mouseout"/>
                        </use>
                        <path d="M-4,0h8M0,-4v8" fill="none" stroke="white" stroke-width="1.5" pointer-events="none"/>
                </g>
                <g id="zoomMin">
                        <use xlink:href="#rim" fill="#404040">
                                <set attributeName="fill" to="#808080" begin="zoomminus.mouseover" end="zoomminus.mouseout"/>
                        </use>
                        <path d="M-4,0h8" fill="none" stroke="white" stroke-width="1.5" pointer-events="none"/>
                </g>
                <g id="dirArrow">
                        <path fill="none" stroke="white" stroke-width="1.5" d="M0,-3.0v7 M-2.5,-0.5L0,-3.0L2.5,-0.5"/>
                </g>
               <g id="resetDef">
                       <use xlink:href="#rim2" fill="#404040">
                               <set attributeName="fill" to="#808080" begin="reset.mouseover" end="reset.mouseout"/>
                       </use>
               </g>
        </defs>

<script type="text/javascript">
var viewWidth = 914;
var viewHeight = 207;
var sectionId = 'dynsection-0';
</script>
<script xlink:href="svgpan.js"/>
<svg id="graph" class="graph">
<g id="viewport">
<title>/home/runner/work/shpxx/shpxx/src/io/safile_wrapper.hpp</title>
<polygon fill="white" stroke="transparent" points="-4,4 -4,-203 910.07,-203 910.07,4 -4,4"/>
<!-- Node1 -->
<g id="node1" class="node">
<title>Node1</title>
<g id="a_node1"><a xlink:title=" ">
<polygon fill="#bfbfbf" stroke="black" points="407.07,-168.5 407.07,-198.5 580.07,-198.5 580.07,-168.5 407.07,-168.5"/>
<text text-anchor="start" x="415.07" y="-186.5" font-family="Helvetica,sans-Serif" font-size="10.00">/home/runner/work/shpxx</text>
<text text-anchor="middle" x="493.57" y="-175.5" font-family="Helvetica,sans-Serif" font-size="10.00">/shpxx/src/io/safile_wrapper.hpp</text>
</a>
</g>
</g>
<!-- Node2 -->
<g id="node2" class="node">
<title>Node2</title>
<g id="a_node2"><a xlink:href="io__handler__concept_8hpp.html" target="_top" xlink:title=" ">
<polygon fill="white" stroke="black" points="276.57,-112.5 276.57,-131.5 420.57,-131.5 420.57,-112.5 276.57,-112.5"/>
<text text-anchor="middle" x="348.57" y="-119.5" font-family="Helvetica,sans-Serif" font-size="10.00">io/io_handler_concept.hpp</text>
</a>
</g>
</g>
<!-- Node1&#45;&gt;Node2 -->
<g id="edge1" class="edge">
<title>Node1&#45;&gt;Node2</title>
<path fill="none" stroke="midnightblue" d="M459.21,-168.4C434.88,-158.42 402.54,-145.15 379.11,-135.53"/>
<polygon fill="midnightblue" stroke="midnightblue" points="380.25,-132.22 369.67,-131.66 377.59,-138.69 380.25,-132.22"/>
</g>
<!-- Node3 -->
<g id="node3" class="node">
<title>Node3</title>
<g id="a_node3"><a xlink:href="openmode_8hpp.html" target="_top" xlink:title=" ">
<polygon fill="white" stroke="black" points="74.57,-56.5 74.57,-75.5 208.57,-75.5 208.57,-56.5 74.57,-56.5"/>
<text text-anchor="middle" x="141.57" y="-63.5" font-family="Helvetica,sans-Serif" font-size="10.00">shpxx/io/openmode.hpp</text>
</a>
</g>
</g>
<!-- Node1&#45;&gt;Node3 -->
<g id="edge15" class="edge">
<title>Node1&#45;&gt;Node3</title>
<path fill="none" stroke="midnightblue" d="M407.04,-177.21C298.79,-169.69 125.15,-154.3 105.57,-132 92.43,-117.03 108.23,-96.48 122.85,-82.51"/>
<polygon fill="midnightblue" stroke="midnightblue" points="125.55,-84.8 130.66,-75.52 120.87,-79.59 125.55,-84.8"/>
</g>
<!-- Node4 -->
<g id="node4" class="node">
<title>Node4</title>
<g id="a_node4"><a xlink:title=" ">
<polygon fill="white" stroke="#bfbfbf" points="37.57,-0.5 37.57,-19.5 87.57,-19.5 87.57,-0.5 37.57,-0.5"/>
<text text-anchor="middle" x="62.57" y="-7.5" font-family="Helvetica,sans-Serif" font-size="10.00">cstdint</text>
</a>
</g>
</g>
<!-- Node1&#45;&gt;Node4 -->
<g id="edge18" class="edge">
<title>Node1&#45;&gt;Node4</title>
<path fill="none" stroke="midnightblue" d="M406.68,-181.55C324.87,-178.32 199.95,-167.3 97.57,-132 51.6,-116.15 27.6,-118.28 3.57,-76 -7.84,-55.92 14.94,-36.83 35.43,-24.6"/>
<polygon fill="midnightblue" stroke="midnightblue" points="37.25,-27.59 44.25,-19.64 33.82,-21.49 37.25,-27.59"/>
</g>
<!-- Node6 -->
<g id="node6" class="node">
<title>Node6</title>
<g id="a_node6"><a xlink:title=" ">
<polygon fill="white" stroke="#bfbfbf" points="397.07,-56.5 397.07,-75.5 428.07,-75.5 428.07,-56.5 397.07,-56.5"/>
<text text-anchor="middle" x="412.57" y="-63.5" font-family="Helvetica,sans-Serif" font-size="10.00">ios</text>
</a>
</g>
</g>
<!-- Node1&#45;&gt;Node6 -->
<g id="edge20" class="edge">
<title>Node1&#45;&gt;Node6</title>
<path fill="none" stroke="midnightblue" d="M483.64,-168.34C468.71,-147.05 440.54,-106.89 424.52,-84.03"/>
<polygon fill="midnightblue" stroke="midnightblue" points="427.26,-81.85 418.65,-75.67 421.53,-85.87 427.26,-81.85"/>
</g>
<!-- Node9 -->
<g id="node9" class="node">
<title>Node9</title>
<g id="a_node9"><a xlink:href="openmode__internal_8hpp.html" target="_top" xlink:title=" ">
<polygon fill="white" stroke="black" points="114.57,-112.5 114.57,-131.5 258.57,-131.5 258.57,-112.5 114.57,-112.5"/>
<text text-anchor="middle" x="186.57" y="-119.5" font-family="Helvetica,sans-Serif" font-size="10.00">io/openmode_internal.hpp</text>
</a>
</g>
</g>
<!-- Node1&#45;&gt;Node9 -->
<g id="edge8" class="edge">
<title>Node1&#45;&gt;Node9</title>
<path fill="none" stroke="midnightblue" d="M421.2,-168.47C365.81,-157.74 290.64,-143.17 240.46,-133.44"/>
<polygon fill="midnightblue" stroke="midnightblue" points="240.94,-129.97 230.46,-131.51 239.61,-136.85 240.94,-129.97"/>
</g>
<!-- Node11 -->
<g id="node11" class="node">
<title>Node11</title>
<g id="a_node11"><a xlink:href="exceptions_8hpp.html" target="_top" xlink:title=" ">
<polygon fill="white" stroke="black" points="477.07,-112.5 477.07,-131.5 600.07,-131.5 600.07,-112.5 477.07,-112.5"/>
<text text-anchor="middle" x="538.57" y="-119.5" font-family="Helvetica,sans-Serif" font-size="10.00">shpxx/exceptions.hpp</text>
</a>
</g>
</g>
<!-- Node1&#45;&gt;Node11 -->
<g id="edge13" class="edge">
<title>Node1&#45;&gt;Node11</title>
<path fill="none" stroke="midnightblue" d="M504.23,-168.4C510.71,-159.84 519,-148.87 525.82,-139.86"/>
<polygon fill="midnightblue" stroke="midnightblue" points="528.78,-141.74 532.02,-131.66 523.2,-137.52 528.78,-141.74"/>
</g>
<!-- Node13 -->
<g id="node13" class="node">
<title>Node13</title>
<g id="a_node13"><a xlink:title=" ">
<polygon fill="white" stroke="#bfbfbf" points="618.57,-112.5 618.57,-131.5 682.57,-131.5 682.57,-112.5 618.57,-112.5"/>
<text text-anchor="middle" x="650.57" y="-119.5" font-family="Helvetica,sans-Serif" font-size="10.00">shapefil.h</text>
</a>
</g>
</g>
<!-- Node1&#45;&gt;Node13 -->
<g id="edge16" class="edge">
<title>Node1&#45;&gt;Node13</title>
<path fill="none" stroke="midnightblue" d="M530.78,-168.4C557.35,-158.33 592.76,-144.91 618.17,-135.28"/>
<polygon fill="midnightblue" stroke="midnightblue" points="619.61,-138.47 627.72,-131.66 617.13,-131.93 619.61,-138.47"/>
</g>
<!-- Node14 -->
<g id="node14" class="node">
<title>Node14</title>
<g id="a_node14"><a xlink:title=" ">
<polygon fill="white" stroke="#bfbfbf" points="701.07,-112.5 701.07,-131.5 754.07,-131.5 754.07,-112.5 701.07,-112.5"/>
<text text-anchor="middle" x="727.57" y="-119.5" font-family="Helvetica,sans-Serif" font-size="10.00">cstddef</text>
</a>
</g>
</g>
<!-- Node1&#45;&gt;Node14 -->
<g id="edge17" class="edge">
<title>Node1&#45;&gt;Node14</title>
<path fill="none" stroke="midnightblue" d="M548.73,-168.47C592.57,-157.33 652.68,-142.04 690.82,-132.34"/>
<polygon fill="midnightblue" stroke="midnightblue" points="692.14,-135.62 700.96,-129.76 690.41,-128.84 692.14,-135.62"/>
</g>
<!-- Node15 -->
<g id="node15" class="node">
<title>Node15</title>
<g id="a_node15"><a xlink:title=" ">
<polygon fill="white" stroke="#bfbfbf" points="772.57,-112.5 772.57,-131.5 818.57,-131.5 818.57,-112.5 772.57,-112.5"/>
<text text-anchor="middle" x="795.57" y="-119.5" font-family="Helvetica,sans-Serif" font-size="10.00">cstdio</text>
</a>
</g>
</g>
<!-- Node1&#45;&gt;Node15 -->
<g id="edge19" class="edge">
<title>Node1&#45;&gt;Node15</title>
<path fill="none" stroke="midnightblue" d="M579.4,-168.46C630.17,-159.68 695.89,-147.5 762.7,-132.04"/>
<polygon fill="midnightblue" stroke="midnightblue" points="763.62,-135.42 772.56,-129.74 762.03,-128.6 763.62,-135.42"/>
</g>
<!-- Node16 -->
<g id="node16" class="node">
<title>Node16</title>
<g id="a_node16"><a xlink:title=" ">
<polygon fill="white" stroke="#bfbfbf" points="837.07,-112.5 837.07,-131.5 906.07,-131.5 906.07,-112.5 837.07,-112.5"/>
<text text-anchor="middle" x="871.57" y="-119.5" font-family="Helvetica,sans-Serif" font-size="10.00">type_traits</text>
</a>
</g>
</g>
<!-- Node1&#45;&gt;Node16 -->
<g id="edge21" class="edge">
<title>Node1&#45;&gt;Node16</title>
<path fill="none" stroke="midnightblue" d="M580.27,-170.64C645.37,-161.45 736.94,-147.9 826.91,-132.04"/>
<polygon fill="midnightblue" stroke="midnightblue" points="827.78,-135.44 837.01,-130.24 826.56,-128.55 827.78,-135.44"/>
</g>
<!-- Node2&#45;&gt;Node3 -->
<g id="edge2" class="edge">
<title>Node2&#45;&gt;Node3</title>
<path fill="none" stroke="midnightblue" d="M315.77,-112.44C280.19,-103.16 223.25,-88.31 184.22,-78.13"/>
<polygon fill="midnightblue" stroke="midnightblue" points="184.78,-74.65 174.22,-75.52 183.01,-81.43 184.78,-74.65"/>
</g>
<!-- Node5 -->
<g id="node5" class="node">
<title>Node5</title>
<g id="a_node5"><a xlink:title=" ">
<polygon fill="white" stroke="#bfbfbf" points="318.57,-56.5 318.57,-75.5 378.57,-75.5 378.57,-56.5 318.57,-56.5"/>
<text text-anchor="middle" x="348.57" y="-63.5" font-family="Helvetica,sans-Serif" font-size="10.00">concepts</text>
</a>
</g>
</g>
<!-- Node2&#45;&gt;Node5 -->
<g id="edge4" class="edge">
<title>Node2&#45;&gt;Node5</title>
<path fill="none" stroke="midnightblue" d="M348.57,-112.08C348.57,-105.01 348.57,-94.86 348.57,-85.99"/>
<polygon fill="midnightblue" stroke="midnightblue" points="352.07,-85.75 348.57,-75.75 345.07,-85.75 352.07,-85.75"/>
</g>
<!-- Node2&#45;&gt;Node6 -->
<g id="edge5" class="edge">
<title>Node2&#45;&gt;Node6</title>
<path fill="none" stroke="midnightblue" d="M358.85,-112.32C368.41,-104.26 382.85,-92.08 394.35,-82.37"/>
<polygon fill="midnightblue" stroke="midnightblue" points="396.71,-84.96 402.1,-75.83 392.2,-79.61 396.71,-84.96"/>
</g>
<!-- Node7 -->
<g id="node7" class="node">
<title>Node7</title>
<g id="a_node7"><a xlink:title=" ">
<polygon fill="white" stroke="#bfbfbf" points="227.07,-56.5 227.07,-75.5 300.07,-75.5 300.07,-56.5 227.07,-56.5"/>
<text text-anchor="middle" x="263.57" y="-63.5" font-family="Helvetica,sans-Serif" font-size="10.00">string_view</text>
</a>
</g>
</g>
<!-- Node2&#45;&gt;Node7 -->
<g id="edge6" class="edge">
<title>Node2&#45;&gt;Node7</title>
<path fill="none" stroke="midnightblue" d="M334.91,-112.32C321.65,-103.9 301.3,-90.97 285.72,-81.07"/>
<polygon fill="midnightblue" stroke="midnightblue" points="287.51,-78.06 277.19,-75.65 283.76,-83.97 287.51,-78.06"/>
</g>
<!-- Node8 -->
<g id="node8" class="node">
<title>Node8</title>
<g id="a_node8"><a xlink:title=" ">
<polygon fill="white" stroke="#bfbfbf" points="446.07,-56.5 446.07,-75.5 491.07,-75.5 491.07,-56.5 446.07,-56.5"/>
<text text-anchor="middle" x="468.57" y="-63.5" font-family="Helvetica,sans-Serif" font-size="10.00">utility</text>
</a>
</g>
</g>
<!-- Node2&#45;&gt;Node8 -->
<g id="edge7" class="edge">
<title>Node2&#45;&gt;Node8</title>
<path fill="none" stroke="midnightblue" d="M367.58,-112.44C387.16,-103.64 417.88,-89.81 440.3,-79.72"/>
<polygon fill="midnightblue" stroke="midnightblue" points="441.96,-82.81 449.64,-75.52 439.09,-76.43 441.96,-82.81"/>
</g>
<!-- Node3&#45;&gt;Node4 -->
<g id="edge3" class="edge">
<title>Node3&#45;&gt;Node4</title>
<path fill="none" stroke="midnightblue" d="M128.88,-56.32C116.67,-47.98 97.99,-35.21 83.57,-25.35"/>
<polygon fill="midnightblue" stroke="midnightblue" points="85.46,-22.41 75.23,-19.65 81.51,-28.19 85.46,-22.41"/>
</g>
<!-- Node9&#45;&gt;Node3 -->
<g id="edge9" class="edge">
<title>Node9&#45;&gt;Node3</title>
<path fill="none" stroke="midnightblue" d="M179.14,-112.08C172.72,-104.38 163.26,-93.03 155.45,-83.65"/>
<polygon fill="midnightblue" stroke="midnightblue" points="157.95,-81.19 148.86,-75.75 152.57,-85.67 157.95,-81.19"/>
</g>
<!-- Node9&#45;&gt;Node6 -->
<g id="edge10" class="edge">
<title>Node9&#45;&gt;Node6</title>
<path fill="none" stroke="midnightblue" d="M232.49,-112.42C271.33,-104.79 328.6,-92.64 387.26,-75.78"/>
<polygon fill="midnightblue" stroke="midnightblue" points="388.44,-79.08 397.06,-72.92 386.49,-72.36 388.44,-79.08"/>
</g>
<!-- Node9&#45;&gt;Node7 -->
<g id="edge12" class="edge">
<title>Node9&#45;&gt;Node7</title>
<path fill="none" stroke="midnightblue" d="M198.94,-112.32C210.73,-104.06 228.7,-91.45 242.7,-81.63"/>
<polygon fill="midnightblue" stroke="midnightblue" points="245.05,-84.26 251.23,-75.65 241.03,-78.53 245.05,-84.26"/>
</g>
<!-- Node10 -->
<g id="node10" class="node">
<title>Node10</title>
<g id="a_node10"><a xlink:title=" ">
<polygon fill="white" stroke="#bfbfbf" points="12.57,-56.5 12.57,-75.5 56.57,-75.5 56.57,-56.5 12.57,-56.5"/>
<text text-anchor="middle" x="34.57" y="-63.5" font-family="Helvetica,sans-Serif" font-size="10.00">string</text>
</a>
</g>
</g>
<!-- Node9&#45;&gt;Node10 -->
<g id="edge11" class="edge">
<title>Node9&#45;&gt;Node10</title>
<path fill="none" stroke="midnightblue" d="M162.48,-112.44C136.58,-103.24 95.25,-88.56 66.61,-78.38"/>
<polygon fill="midnightblue" stroke="midnightblue" points="67.65,-75.04 57.05,-74.99 65.31,-81.63 67.65,-75.04"/>
</g>
<!-- Node12 -->
<g id="node12" class="node">
<title>Node12</title>
<g id="a_node12"><a xlink:title=" ">
<polygon fill="white" stroke="#bfbfbf" points="509.07,-56.5 509.07,-75.5 574.07,-75.5 574.07,-56.5 509.07,-56.5"/>
<text text-anchor="middle" x="541.57" y="-63.5" font-family="Helvetica,sans-Serif" font-size="10.00">stdexcept</text>
</a>
</g>
</g>
<!-- Node11&#45;&gt;Node12 -->
<g id="edge14" class="edge">
<title>Node11&#45;&gt;Node12</title>
<path fill="none" stroke="midnightblue" d="M539.06,-112.08C539.46,-105.01 540.02,-94.86 540.51,-85.99"/>
<polygon fill="midnightblue" stroke="midnightblue" points="544.02,-85.93 541.08,-75.75 537.03,-85.54 544.02,-85.93"/>
</g>
</g>
</svg>
        <g id="navigator" transform="translate(0 0)" fill="#404254">
                <rect fill="#f2f5e9" fill-opacity="0.5" stroke="#606060" stroke-width=".5" x="0" y="0" width="60" height="60"/>
                <use id="zoomplus" xlink:href="#zoomPlus" x="17" y="9" onmousedown="handleZoom(evt,'in')"/>
                <use id="zoomminus" xlink:href="#zoomMin" x="42" y="9" onmousedown="handleZoom(evt,'out')"/>
                <use id="reset" xlink:href="#resetDef" x="30" y="36" onmousedown="handleReset()"/>
                <g id="arrowUp" xlink:href="#dirArrow" transform="translate(30 24)" onmousedown="handlePan(0,-1)">
                  <use xlink:href="#rim" fill="#404040">
                        <set attributeName="fill" to="#808080" begin="arrowUp.mouseover" end="arrowUp.mouseout"/>
                  </use>
                  <path fill="none" stroke="white" stroke-width="1.5" d="M0,-3.0v7 M-2.5,-0.5L0,-3.0L2.5,-0.5"/>
                </g>
                <g id="arrowRight" xlink:href="#dirArrow" transform="rotate(90) translate(36 -43)" onmousedown="handlePan(1,0)">
                  <use xlink:href="#rim" fill="#404040">
                        <set attributeName="fill" to="#808080" begin="arrowRight.mouseover" end="arrowRight.mouseout"/>
                  </use>
                  <path fill="none" stroke="white" stroke-width="1.5" d="M0,-3.0v7 M-2.5,-0.5L0,-3.0L2.5,-0.5"/>
                </g>
                <g id="arrowDown" xlink:href="#dirArrow" transform="rotate(180) translate(-30 -48)" onmousedown="handlePan(0,1)">
                  <use xlink:href="#rim" fill="#404040">
                        <set attributeName="fill" to="#808080" begin="arrowDown.mouseover" end="arrowDown.mouseout"/>
                  </use>
                  <path fill="none" stroke="white" stroke-width="1.5" d="M0,-3.0v7 M-2.5,-0.5L0,-3.0L2.5,-0.5"/>
                </g>
                <g id="arrowLeft" xlink:href="#dirArrow" transform="rotate(270) translate(-36 17)" onmousedown="handlePan(-1,0)">
                  <use xlink:href="#rim" fill="#404040">
                        <set attributeName="fill" to="#808080" begin="arrowLeft.mouseover" end="arrowLeft.mouseout"/>
                  </use>
                  <path fill="none" stroke="white" stroke-width="1.5" d="M0,-3.0v7 M-2.5,-0.5L0,-3.0L2.5,-0.5"/>
                </g>
        </g>
        <svg viewBox="0 0 15 15" width="100%" height="30px" preserveAspectRatio="xMaxYMin meet">
         <g id="arrow_out" transform="scale(0.3 0.3)">
          <a xlink:href="safile__wrapper_8hpp__incl_org.svg" target="_base">
           <rect id="button" ry="5" rx="5" y="6" x="6" height="38" width="38"
                fill="#f2f5e9" fill-opacity="0.5" stroke="#606060" stroke-width="1.0"/>
           <path id="arrow"
             d="M 11.500037,31.436501 C 11.940474,20.09759 22.043105,11.32322 32.158766,21.979434 L 37.068811,17.246167 C 37.068811,17.246167 37.088388,32 37.088388,32 L 22.160133,31.978069 C 22.160133,31.978069 26.997745,27.140456 26.997745,27.140456 C 18.528582,18.264221 13.291696,25.230495 11.500037,31.436501 z"
             style="fill:#404040;"/>
          </a>
         </g>
        </svg>
</svg>
