<?xml version="1.0" encoding="UTF-8" standalone="no"?>
<!DOCTYPE svg PUBLIC "-//W3C//DTD SVG 1.1//EN"
 "http://www.w3.org/Graphics/SVG/1.1/DTD/svg11.dtd">
<!-- Generated by graphviz version 2.43.0 (0)
 -->
<!-- Title: /home/runner/work/shpxx/shpxx/include/shpxx/shape_type.hpp Pages: 1 -->
<!--zoomable 418 -->
<svg id="main" version="1.1" xmlns="http://www.w3.org/2000/svg" xmlns:xlink="http://www.w3.org/1999/xlink" xml:space="preserve" onload="init(evt)">
<style type="text/css"><![CDATA[
.edge:hover path { stroke: red; }
.edge:hover polygon { stroke: red; fill: red; }
]]></style>
<script type="text/javascript"><![CDATA[
var edges = document.getElementsByTagName('g');
if (edges && edges.length) {
  for (var i=0;i<edges.length;i++) {
    if (edges[i].id.substr(0,4)=='edge') {
      edges[i].setAttribute('class','edge');
    }
  }
}
]]></script>
        <defs>
                <circle id="rim" cx="0" cy="0" r="7"/>
                <circle id="rim2" cx="0" cy="0" r="3.5"/>
                <g id="zoomPlus">
                        <use xlink:href="#rim" fill="#404040">
                                <set attributeName="fill" to="#808080" begin="zoomplus.mouseover" end="zoomplus.mouseout"/>
                        </use>
                        <path d="M-4,0h8M0,-4v8" fill="none" stroke="white" stroke-width="1.5" pointer-events="none"/>
                </g>
                <g id="zoomMin">
                        <use xlink:href="#rim" fill="#404040">
                                <set attributeName="fill" to="#808080" begin="zoomminus.mouseover" end="zoomminus.mouseout"/>
                        </use>
                        <path d="M-4,0h8" fill="none" stroke="white" stroke-width="1.5" pointer-events="none"/>
                </g>
                <g id="dirArrow">
                        <path fill="none" stroke="white" stroke-width="1.5" d="M0,-3.0v7 M-2.5,-0.5L0,-3.0L2.5,-0.5"/>
                </g>
               <g id="resetDef">
                       <use xlink:href="#rim2" fill="#404040">
                               <set attributeName="fill" to="#808080" begin="reset.mouseover" end="reset.mouseout"/>
                       </use>
               </g>
        </defs>

<script type="text/javascript">
var viewWidth = 1199;
var viewHeight = 418;
var sectionId = 'dynsection-1';
</script>
<script xlink:href="svgpan.js"/>
<svg id="graph" class="graph">
<g id="viewport">
<title>/home/runner/work/shpxx/shpxx/include/shpxx/shape_type.hpp</title>
<polygon fill="white" stroke="transparent" points="-4,4 -4,-414 1195.08,-414 1195.08,4 -4,4"/>
<!-- Node1 -->
<g id="node1" class="node">
<title>Node1</title>
<g id="a_node1"><a xlink:title=" ">
<polygon fill="#bfbfbf" stroke="black" points="547,-368.5 547,-409.5 699,-409.5 699,-368.5 547,-368.5"/>
<text text-anchor="start" x="555" y="-397.5" font-family="Helvetica,sans-Serif" font-size="10.00">/home/runner/work/shpxx</text>
<text text-anchor="start" x="555" y="-386.5" font-family="Helvetica,sans-Serif" font-size="10.00">/shpxx/include/shpxx/shape</text>
<text text-anchor="middle" x="623" y="-375.5" font-family="Helvetica,sans-Serif" font-size="10.00">_type.hpp</text>
</a>
</g>
</g>
<!-- Node2 -->
<g id="node2" class="node">
<title>Node2</title>
<g id="a_node2"><a xlink:href="point_8cpp.html" target="_top" xlink:title=" ">
<polygon fill="white" stroke="black" points="250,-218 250,-248 402,-248 402,-218 250,-218"/>
<text text-anchor="start" x="258" y="-236" font-family="Helvetica,sans-Serif" font-size="10.00">/home/runner/work/shpxx</text>
<text text-anchor="middle" x="326" y="-225" font-family="Helvetica,sans-Serif" font-size="10.00">/shpxx/src/feature/point.cpp</text>
</a>
</g>
</g>
<!-- Node1&#45;&gt;Node2 -->
<g id="edge1" class="edge">
<title>Node1&#45;&gt;Node2</title>
<path fill="none" stroke="midnightblue" d="M536.69,-386.64C443.7,-383.12 304.49,-371.24 271,-332 248.33,-305.44 284.25,-268.11 307.91,-248.05"/>
<polygon fill="midnightblue" stroke="midnightblue" points="536.83,-390.14 546.95,-387 537.08,-383.15 536.83,-390.14"/>
</g>
<!-- Node3 -->
<g id="node3" class="node">
<title>Node3</title>
<g id="a_node3"><a xlink:href="shape__type_8cpp.html" target="_top" xlink:title=" ">
<polygon fill="white" stroke="black" points="78,-296 78,-326 224,-326 224,-296 78,-296"/>
<text text-anchor="start" x="86" y="-314" font-family="Helvetica,sans-Serif" font-size="10.00">/home/runner/work/shpxx</text>
<text text-anchor="middle" x="151" y="-303" font-family="Helvetica,sans-Serif" font-size="10.00">/shpxx/src/shape_type.cpp</text>
</a>
</g>
</g>
<!-- Node1&#45;&gt;Node3 -->
<g id="edge2" class="edge">
<title>Node1&#45;&gt;Node3</title>
<path fill="none" stroke="midnightblue" d="M536.43,-377.46C458.18,-367.44 339.98,-351.1 238,-332 228.56,-330.23 218.58,-328.15 208.89,-326"/>
<polygon fill="midnightblue" stroke="midnightblue" points="536.36,-380.98 546.73,-378.77 537.25,-374.03 536.36,-380.98"/>
</g>
<!-- Node4 -->
<g id="node4" class="node">
<title>Node4</title>
<g id="a_node4"><a xlink:href="has__compatibility__check_8hpp.html" target="_top" xlink:title=" ">
<polygon fill="white" stroke="black" points="0,-212.5 0,-253.5 166,-253.5 166,-212.5 0,-212.5"/>
<text text-anchor="start" x="8" y="-241.5" font-family="Helvetica,sans-Serif" font-size="10.00">/home/runner/work/shpxx</text>
<text text-anchor="start" x="8" y="-230.5" font-family="Helvetica,sans-Serif" font-size="10.00">/shpxx/include/shpxx/concepts</text>
<text text-anchor="middle" x="83" y="-219.5" font-family="Helvetica,sans-Serif" font-size="10.00">/has_compatibility_check.hpp</text>
</a>
</g>
</g>
<!-- Node1&#45;&gt;Node4 -->
<g id="edge3" class="edge">
<title>Node1&#45;&gt;Node4</title>
<path fill="none" stroke="midnightblue" d="M536.38,-385.5C388.38,-380.33 99.7,-365.96 69,-332 49.75,-310.71 61.57,-275.49 72.12,-253.58"/>
<polygon fill="midnightblue" stroke="midnightblue" points="536.67,-389.01 546.79,-385.86 536.91,-382.02 536.67,-389.01"/>
</g>
<!-- Node5 -->
<g id="node5" class="node">
<title>Node5</title>
<g id="a_node5"><a xlink:href="shpfile_8hpp.html" target="_top" xlink:title=" ">
<polygon fill="white" stroke="black" points="789,-145.5 789,-175.5 965,-175.5 965,-145.5 789,-145.5"/>
<text text-anchor="start" x="797" y="-163.5" font-family="Helvetica,sans-Serif" font-size="10.00">/home/runner/work/shpxx</text>
<text text-anchor="middle" x="877" y="-152.5" font-family="Helvetica,sans-Serif" font-size="10.00">/shpxx/include/shpxx/shpfile.hpp</text>
</a>
</g>
</g>
<!-- Node1&#45;&gt;Node5 -->
<g id="edge22" class="edge">
<title>Node1&#45;&gt;Node5</title>
<path fill="none" stroke="midnightblue" d="M709.14,-385.05C851.24,-379.29 1122.05,-364.19 1151,-332 1220.51,-254.73 1045.42,-199.92 943.71,-175.59"/>
<polygon fill="midnightblue" stroke="midnightblue" points="708.99,-381.55 699.14,-385.45 709.27,-388.55 708.99,-381.55"/>
</g>
<!-- Node9 -->
<g id="node9" class="node">
<title>Node9</title>
<g id="a_node9"><a xlink:href="shpfile__impl_8hpp.html" target="_top" xlink:title=" ">
<polygon fill="white" stroke="black" points="965.5,-67.5 965.5,-108.5 1120.5,-108.5 1120.5,-67.5 965.5,-67.5"/>
<text text-anchor="start" x="973.5" y="-96.5" font-family="Helvetica,sans-Serif" font-size="10.00">/home/runner/work/shpxx</text>
<text text-anchor="start" x="973.5" y="-85.5" font-family="Helvetica,sans-Serif" font-size="10.00">/shpxx/include/shpxx/shpfile</text>
<text text-anchor="middle" x="1043" y="-74.5" font-family="Helvetica,sans-Serif" font-size="10.00">_impl.hpp</text>
</a>
</g>
</g>
<!-- Node1&#45;&gt;Node9 -->
<g id="edge23" class="edge">
<title>Node1&#45;&gt;Node9</title>
<path fill="none" stroke="midnightblue" d="M709.41,-385.42C856.25,-380.14 1141.62,-365.63 1172,-332 1236.03,-261.11 1121.28,-152.67 1068.01,-108.62"/>
<polygon fill="midnightblue" stroke="midnightblue" points="708.95,-381.94 699.08,-385.79 709.2,-388.93 708.95,-381.94"/>
</g>
<!-- Node10 -->
<g id="node10" class="node">
<title>Node10</title>
<g id="a_node10"><a xlink:href="linestring_8hpp.html" target="_top" xlink:title=" ">
<polygon fill="white" stroke="black" points="456,-290.5 456,-331.5 614,-331.5 614,-290.5 456,-290.5"/>
<text text-anchor="start" x="464" y="-319.5" font-family="Helvetica,sans-Serif" font-size="10.00">/home/runner/work/shpxx</text>
<text text-anchor="start" x="464" y="-308.5" font-family="Helvetica,sans-Serif" font-size="10.00">/shpxx/include/shpxx/feature</text>
<text text-anchor="middle" x="535" y="-297.5" font-family="Helvetica,sans-Serif" font-size="10.00">/linestring.hpp</text>
</a>
</g>
</g>
<!-- Node1&#45;&gt;Node10 -->
<g id="edge10" class="edge">
<title>Node1&#45;&gt;Node10</title>
<path fill="none" stroke="midnightblue" d="M592.64,-361.78C581.13,-351.84 568.25,-340.72 557.59,-331.51"/>
<polygon fill="midnightblue" stroke="midnightblue" points="590.48,-364.54 600.34,-368.43 595.06,-359.24 590.48,-364.54"/>
</g>
<!-- Node12 -->
<g id="node12" class="node">
<title>Node12</title>
<g id="a_node12"><a xlink:href="multi__patch_8hpp.html" target="_top" xlink:title=" ">
<polygon fill="white" stroke="black" points="632,-290.5 632,-331.5 790,-331.5 790,-290.5 632,-290.5"/>
<text text-anchor="start" x="640" y="-319.5" font-family="Helvetica,sans-Serif" font-size="10.00">/home/runner/work/shpxx</text>
<text text-anchor="start" x="640" y="-308.5" font-family="Helvetica,sans-Serif" font-size="10.00">/shpxx/include/shpxx/feature</text>
<text text-anchor="middle" x="711" y="-297.5" font-family="Helvetica,sans-Serif" font-size="10.00">/multi_patch.hpp</text>
</a>
</g>
</g>
<!-- Node1&#45;&gt;Node12 -->
<g id="edge13" class="edge">
<title>Node1&#45;&gt;Node12</title>
<path fill="none" stroke="midnightblue" d="M653.36,-361.78C664.87,-351.84 677.75,-340.72 688.41,-331.51"/>
<polygon fill="midnightblue" stroke="midnightblue" points="650.94,-359.24 645.66,-368.43 655.52,-364.54 650.94,-359.24"/>
</g>
<!-- Node13 -->
<g id="node13" class="node">
<title>Node13</title>
<g id="a_node13"><a xlink:href="multi__point_8hpp.html" target="_top" xlink:title=" ">
<polygon fill="white" stroke="black" points="808,-290.5 808,-331.5 966,-331.5 966,-290.5 808,-290.5"/>
<text text-anchor="start" x="816" y="-319.5" font-family="Helvetica,sans-Serif" font-size="10.00">/home/runner/work/shpxx</text>
<text text-anchor="start" x="816" y="-308.5" font-family="Helvetica,sans-Serif" font-size="10.00">/shpxx/include/shpxx/feature</text>
<text text-anchor="middle" x="887" y="-297.5" font-family="Helvetica,sans-Serif" font-size="10.00">/multi_point.hpp</text>
</a>
</g>
</g>
<!-- Node1&#45;&gt;Node13 -->
<g id="edge15" class="edge">
<title>Node1&#45;&gt;Node13</title>
<path fill="none" stroke="midnightblue" d="M700.88,-365.58C738.45,-354.76 783.1,-341.91 819.24,-331.51"/>
<polygon fill="midnightblue" stroke="midnightblue" points="699.63,-362.3 690.99,-368.43 701.56,-369.03 699.63,-362.3"/>
</g>
<!-- Node14 -->
<g id="node14" class="node">
<title>Node14</title>
<g id="a_node14"><a xlink:href="point_8hpp.html" target="_top" xlink:title=" ">
<polygon fill="white" stroke="black" points="280,-290.5 280,-331.5 438,-331.5 438,-290.5 280,-290.5"/>
<text text-anchor="start" x="288" y="-319.5" font-family="Helvetica,sans-Serif" font-size="10.00">/home/runner/work/shpxx</text>
<text text-anchor="start" x="288" y="-308.5" font-family="Helvetica,sans-Serif" font-size="10.00">/shpxx/include/shpxx/feature</text>
<text text-anchor="middle" x="359" y="-297.5" font-family="Helvetica,sans-Serif" font-size="10.00">/point.hpp</text>
</a>
</g>
</g>
<!-- Node1&#45;&gt;Node14 -->
<g id="edge17" class="edge">
<title>Node1&#45;&gt;Node14</title>
<path fill="none" stroke="midnightblue" d="M545.12,-365.58C507.55,-354.76 462.9,-341.91 426.76,-331.51"/>
<polygon fill="midnightblue" stroke="midnightblue" points="544.44,-369.03 555.01,-368.43 546.37,-362.3 544.44,-369.03"/>
</g>
<!-- Node15 -->
<g id="node15" class="node">
<title>Node15</title>
<g id="a_node15"><a xlink:href="polygon_8hpp.html" target="_top" xlink:title=" ">
<polygon fill="white" stroke="black" points="984,-290.5 984,-331.5 1142,-331.5 1142,-290.5 984,-290.5"/>
<text text-anchor="start" x="992" y="-319.5" font-family="Helvetica,sans-Serif" font-size="10.00">/home/runner/work/shpxx</text>
<text text-anchor="start" x="992" y="-308.5" font-family="Helvetica,sans-Serif" font-size="10.00">/shpxx/include/shpxx/feature</text>
<text text-anchor="middle" x="1063" y="-297.5" font-family="Helvetica,sans-Serif" font-size="10.00">/polygon.hpp</text>
</a>
</g>
</g>
<!-- Node1&#45;&gt;Node15 -->
<g id="edge20" class="edge">
<title>Node1&#45;&gt;Node15</title>
<path fill="none" stroke="midnightblue" d="M709.42,-375.87C780.85,-365.45 884.8,-349.4 975,-332 977.92,-331.44 980.9,-330.85 983.9,-330.24"/>
<polygon fill="midnightblue" stroke="midnightblue" points="708.52,-372.46 699.13,-377.36 709.53,-379.39 708.52,-372.46"/>
</g>
<!-- Node4&#45;&gt;Node5 -->
<g id="edge4" class="edge">
<title>Node4&#45;&gt;Node5</title>
<path fill="none" stroke="midnightblue" d="M176.15,-219.47C197.44,-216.82 219.99,-214.16 241,-212 436.3,-191.9 666.05,-175.42 788.92,-167.19"/>
<polygon fill="midnightblue" stroke="midnightblue" points="175.63,-216.01 166.15,-220.74 176.51,-222.96 175.63,-216.01"/>
</g>
<!-- Node6 -->
<g id="node6" class="node">
<title>Node6</title>
<g id="a_node6"><a xlink:href="shpfile_8cpp.html" target="_top" xlink:title=" ">
<polygon fill="white" stroke="black" points="806.5,-73 806.5,-103 947.5,-103 947.5,-73 806.5,-73"/>
<text text-anchor="start" x="814.5" y="-91" font-family="Helvetica,sans-Serif" font-size="10.00">/home/runner/work/shpxx</text>
<text text-anchor="middle" x="877" y="-80" font-family="Helvetica,sans-Serif" font-size="10.00">/shpxx/src/shpfile.cpp</text>
</a>
</g>
</g>
<!-- Node5&#45;&gt;Node6 -->
<g id="edge5" class="edge">
<title>Node5&#45;&gt;Node6</title>
<path fill="none" stroke="midnightblue" d="M877,-135.23C877,-124.57 877,-112.41 877,-103.25"/>
<polygon fill="midnightblue" stroke="midnightblue" points="873.5,-135.23 877,-145.23 880.5,-135.23 873.5,-135.23"/>
</g>
<!-- Node7 -->
<g id="node7" class="node">
<title>Node7</title>
<g id="a_node7"><a xlink:href="file_8hpp.html" target="_top" xlink:title=" ">
<polygon fill="white" stroke="black" points="647.5,-67.5 647.5,-108.5 788.5,-108.5 788.5,-67.5 647.5,-67.5"/>
<text text-anchor="start" x="655.5" y="-96.5" font-family="Helvetica,sans-Serif" font-size="10.00">/home/runner/work/shpxx</text>
<text text-anchor="start" x="655.5" y="-85.5" font-family="Helvetica,sans-Serif" font-size="10.00">/shpxx/include/shpxx/io</text>
<text text-anchor="middle" x="718" y="-74.5" font-family="Helvetica,sans-Serif" font-size="10.00">/file.hpp</text>
</a>
</g>
</g>
<!-- Node5&#45;&gt;Node7 -->
<g id="edge6" class="edge">
<title>Node5&#45;&gt;Node7</title>
<path fill="none" stroke="midnightblue" d="M835.87,-141.26C813.25,-131.23 785.16,-118.78 762.08,-108.55"/>
<polygon fill="midnightblue" stroke="midnightblue" points="834.65,-144.55 845.21,-145.4 837.48,-138.15 834.65,-144.55"/>
</g>
<!-- Node5&#45;&gt;Node9 -->
<g id="edge8" class="edge">
<title>Node5&#45;&gt;Node9</title>
<path fill="none" stroke="midnightblue" d="M913.94,-141.26C936.6,-131.23 965.88,-118.78 990.86,-108.55"/>
<polygon fill="midnightblue" stroke="midnightblue" points="912.37,-138.13 904.67,-145.4 915.23,-144.52 912.37,-138.13"/>
</g>
<!-- Node8 -->
<g id="node8" class="node">
<title>Node8</title>
<g id="a_node8"><a xlink:href="file_8cpp.html" target="_top" xlink:title=" ">
<polygon fill="white" stroke="black" points="647.5,-0.5 647.5,-30.5 788.5,-30.5 788.5,-0.5 647.5,-0.5"/>
<text text-anchor="start" x="655.5" y="-18.5" font-family="Helvetica,sans-Serif" font-size="10.00">/home/runner/work/shpxx</text>
<text text-anchor="middle" x="718" y="-7.5" font-family="Helvetica,sans-Serif" font-size="10.00">/shpxx/src/io/file.cpp</text>
</a>
</g>
</g>
<!-- Node7&#45;&gt;Node8 -->
<g id="edge7" class="edge">
<title>Node7&#45;&gt;Node8</title>
<path fill="none" stroke="midnightblue" d="M718,-57.08C718,-48.01 718,-38.45 718,-30.89"/>
<polygon fill="midnightblue" stroke="midnightblue" points="714.5,-57.36 718,-67.36 721.5,-57.36 714.5,-57.36"/>
</g>
<!-- Node9&#45;&gt;Node5 -->
<g id="edge9" class="edge">
<title>Node9&#45;&gt;Node5</title>
<path fill="none" stroke="midnightblue" d="M993.79,-112.62C968.84,-123.5 939.03,-136.03 915.72,-145.4"/>
<polygon fill="midnightblue" stroke="midnightblue" points="995.34,-115.77 1003.09,-108.55 992.53,-109.35 995.34,-115.77"/>
</g>
<!-- Node11 -->
<g id="node11" class="node">
<title>Node11</title>
<g id="a_node11"><a xlink:href="is__feature_8hpp.html" target="_top" xlink:title=" ">
<polygon fill="white" stroke="black" points="711,-212.5 711,-253.5 877,-253.5 877,-212.5 711,-212.5"/>
<text text-anchor="start" x="719" y="-241.5" font-family="Helvetica,sans-Serif" font-size="10.00">/home/runner/work/shpxx</text>
<text text-anchor="start" x="719" y="-230.5" font-family="Helvetica,sans-Serif" font-size="10.00">/shpxx/include/shpxx/concepts</text>
<text text-anchor="middle" x="794" y="-219.5" font-family="Helvetica,sans-Serif" font-size="10.00">/is_feature.hpp</text>
</a>
</g>
</g>
<!-- Node10&#45;&gt;Node11 -->
<g id="edge11" class="edge">
<title>Node10&#45;&gt;Node11</title>
<path fill="none" stroke="midnightblue" d="M611.4,-287.58C648.26,-276.76 692.06,-263.91 727.53,-253.51"/>
<polygon fill="midnightblue" stroke="midnightblue" points="610.31,-284.25 601.7,-290.43 612.28,-290.97 610.31,-284.25"/>
</g>
<!-- Node11&#45;&gt;Node5 -->
<g id="edge12" class="edge">
<title>Node11&#45;&gt;Node5</title>
<path fill="none" stroke="midnightblue" d="M824.79,-205.84C836.82,-195.62 850.14,-184.31 860.32,-175.67"/>
<polygon fill="midnightblue" stroke="midnightblue" points="822.48,-203.22 817.12,-212.36 827.01,-208.56 822.48,-203.22"/>
</g>
<!-- Node12&#45;&gt;Node11 -->
<g id="edge14" class="edge">
<title>Node12&#45;&gt;Node11</title>
<path fill="none" stroke="midnightblue" d="M739.95,-283.49C750.72,-273.63 762.74,-262.63 772.7,-253.51"/>
<polygon fill="midnightblue" stroke="midnightblue" points="737.39,-281.09 732.37,-290.43 742.11,-286.26 737.39,-281.09"/>
</g>
<!-- Node13&#45;&gt;Node11 -->
<g id="edge16" class="edge">
<title>Node13&#45;&gt;Node11</title>
<path fill="none" stroke="midnightblue" d="M855.26,-284.06C843.02,-274.06 829.25,-262.8 817.87,-253.51"/>
<polygon fill="midnightblue" stroke="midnightblue" points="853.09,-286.81 863.05,-290.43 857.52,-281.39 853.09,-286.81"/>
</g>
<!-- Node14&#45;&gt;Node2 -->
<g id="edge18" class="edge">
<title>Node14&#45;&gt;Node2</title>
<path fill="none" stroke="midnightblue" d="M346.39,-280.96C341.52,-269.75 336.17,-257.43 332.18,-248.23"/>
<polygon fill="midnightblue" stroke="midnightblue" points="343.31,-282.65 350.5,-290.43 349.73,-279.86 343.31,-282.65"/>
</g>
<!-- Node14&#45;&gt;Node11 -->
<g id="edge19" class="edge">
<title>Node14&#45;&gt;Node11</title>
<path fill="none" stroke="midnightblue" d="M447.94,-289.87C543.54,-271.52 642.54,-256.04 710.65,-245.93"/>
<polygon fill="midnightblue" stroke="midnightblue" points="447.26,-286.44 438.1,-291.77 448.59,-293.31 447.26,-286.44"/>
</g>
<!-- Node15&#45;&gt;Node11 -->
<g id="edge21" class="edge">
<title>Node15&#45;&gt;Node11</title>
<path fill="none" stroke="midnightblue" d="M983.65,-287.58C945.36,-276.76 899.87,-263.91 863.04,-253.51"/>
<polygon fill="midnightblue" stroke="midnightblue" points="983.15,-291.08 993.73,-290.43 985.05,-284.34 983.15,-291.08"/>
</g>
</g>
</svg>
        <g id="navigator" transform="translate(0 0)" fill="#404254">
                <rect fill="#f2f5e9" fill-opacity="0.5" stroke="#606060" stroke-width=".5" x="0" y="0" width="60" height="60"/>
                <use id="zoomplus" xlink:href="#zoomPlus" x="17" y="9" onmousedown="handleZoom(evt,'in')"/>
                <use id="zoomminus" xlink:href="#zoomMin" x="42" y="9" onmousedown="handleZoom(evt,'out')"/>
                <use id="reset" xlink:href="#resetDef" x="30" y="36" onmousedown="handleReset()"/>
                <g id="arrowUp" xlink:href="#dirArrow" transform="translate(30 24)" onmousedown="handlePan(0,-1)">
                  <use xlink:href="#rim" fill="#404040">
                        <set attributeName="fill" to="#808080" begin="arrowUp.mouseover" end="arrowUp.mouseout"/>
                  </use>
                  <path fill="none" stroke="white" stroke-width="1.5" d="M0,-3.0v7 M-2.5,-0.5L0,-3.0L2.5,-0.5"/>
                </g>
                <g id="arrowRight" xlink:href="#dirArrow" transform="rotate(90) translate(36 -43)" onmousedown="handlePan(1,0)">
                  <use xlink:href="#rim" fill="#404040">
                        <set attributeName="fill" to="#808080" begin="arrowRight.mouseover" end="arrowRight.mouseout"/>
                  </use>
                  <path fill="none" stroke="white" stroke-width="1.5" d="M0,-3.0v7 M-2.5,-0.5L0,-3.0L2.5,-0.5"/>
                </g>
                <g id="arrowDown" xlink:href="#dirArrow" transform="rotate(180) translate(-30 -48)" onmousedown="handlePan(0,1)">
                  <use xlink:href="#rim" fill="#404040">
                        <set attributeName="fill" to="#808080" begin="arrowDown.mouseover" end="arrowDown.mouseout"/>
                  </use>
                  <path fill="none" stroke="white" stroke-width="1.5" d="M0,-3.0v7 M-2.5,-0.5L0,-3.0L2.5,-0.5"/>
                </g>
                <g id="arrowLeft" xlink:href="#dirArrow" transform="rotate(270) translate(-36 17)" onmousedown="handlePan(-1,0)">
                  <use xlink:href="#rim" fill="#404040">
                        <set attributeName="fill" to="#808080" begin="arrowLeft.mouseover" end="arrowLeft.mouseout"/>
                  </use>
                  <path fill="none" stroke="white" stroke-width="1.5" d="M0,-3.0v7 M-2.5,-0.5L0,-3.0L2.5,-0.5"/>
                </g>
        </g>
        <svg viewBox="0 0 15 15" width="100%" height="30px" preserveAspectRatio="xMaxYMin meet">
         <g id="arrow_out" transform="scale(0.3 0.3)">
          <a xlink:href="shape__type_8hpp__dep__incl_org.svg" target="_base">
           <rect id="button" ry="5" rx="5" y="6" x="6" height="38" width="38"
                fill="#f2f5e9" fill-opacity="0.5" stroke="#606060" stroke-width="1.0"/>
           <path id="arrow"
             d="M 11.500037,31.436501 C 11.940474,20.09759 22.043105,11.32322 32.158766,21.979434 L 37.068811,17.246167 C 37.068811,17.246167 37.088388,32 37.088388,32 L 22.160133,31.978069 C 22.160133,31.978069 26.997745,27.140456 26.997745,27.140456 C 18.528582,18.264221 13.291696,25.230495 11.500037,31.436501 z"
             style="fill:#404040;"/>
          </a>
         </g>
        </svg>
</svg>
