<?xml version="1.0" encoding="UTF-8" standalone="no"?>
<!DOCTYPE svg PUBLIC "-//W3C//DTD SVG 1.1//EN"
 "http://www.w3.org/Graphics/SVG/1.1/DTD/svg11.dtd">
<!-- Generated by graphviz version 2.43.0 (0)
 -->
<!-- Title: /home/runner/work/shpxx/shpxx/examples/shp2csv/shp2csv.cpp Pages: 1 -->
<svg width="732pt" height="106pt"
 viewBox="0.00 0.00 731.50 106.00" xmlns="http://www.w3.org/2000/svg" xmlns:xlink="http://www.w3.org/1999/xlink">
<g id="graph0" class="graph" transform="scale(1 1) rotate(0) translate(4 102)">
<title>/home/runner/work/shpxx/shpxx/examples/shp2csv/shp2csv.cpp</title>
<polygon fill="white" stroke="transparent" points="-4,4 -4,-102 727.5,-102 727.5,4 -4,4"/>
<!-- Node1 -->
<g id="node1" class="node">
<title>Node1</title>
<g id="a_node1"><a xlink:title=" ">
<polygon fill="#bfbfbf" stroke="black" points="344.5,-56.5 344.5,-97.5 487.5,-97.5 487.5,-56.5 344.5,-56.5"/>
<text text-anchor="start" x="352.5" y="-85.5" font-family="Helvetica,sans-Serif" font-size="10.00">/home/runner/work/shpxx</text>
<text text-anchor="start" x="352.5" y="-74.5" font-family="Helvetica,sans-Serif" font-size="10.00">/shpxx/examples/shp2csv</text>
<text text-anchor="middle" x="416" y="-63.5" font-family="Helvetica,sans-Serif" font-size="10.00">/shp2csv.cpp</text>
</a>
</g>
</g>
<!-- Node2 -->
<g id="node2" class="node">
<title>Node2</title>
<g id="a_node2"><a xlink:title=" ">
<polygon fill="white" stroke="#bfbfbf" points="0,-0.5 0,-19.5 150,-19.5 150,-0.5 0,-0.5"/>
<text text-anchor="middle" x="75" y="-7.5" font-family="Helvetica,sans-Serif" font-size="10.00">boost/program_options.hpp</text>
</a>
</g>
</g>
<!-- Node1&#45;&gt;Node2 -->
<g id="edge1" class="edge">
<title>Node1&#45;&gt;Node2</title>
<path fill="none" stroke="midnightblue" d="M344.1,-62.29C280.14,-50.1 187.96,-32.53 129.8,-21.45"/>
<polygon fill="midnightblue" stroke="midnightblue" points="130.18,-17.96 119.7,-19.52 128.87,-24.83 130.18,-17.96"/>
</g>
<!-- Node3 -->
<g id="node3" class="node">
<title>Node3</title>
<g id="a_node3"><a xlink:title=" ">
<polygon fill="white" stroke="#bfbfbf" points="168,-0.5 168,-19.5 232,-19.5 232,-0.5 168,-0.5"/>
<text text-anchor="middle" x="200" y="-7.5" font-family="Helvetica,sans-Serif" font-size="10.00">shapefil.h</text>
</a>
</g>
</g>
<!-- Node1&#45;&gt;Node3 -->
<g id="edge2" class="edge">
<title>Node1&#45;&gt;Node3</title>
<path fill="none" stroke="midnightblue" d="M351.19,-56.5C314.3,-45.4 269.36,-31.87 238.11,-22.47"/>
<polygon fill="midnightblue" stroke="midnightblue" points="239.05,-19.1 228.47,-19.57 237.04,-25.8 239.05,-19.1"/>
</g>
<!-- Node4 -->
<g id="node4" class="node">
<title>Node4</title>
<g id="a_node4"><a xlink:title=" ">
<polygon fill="white" stroke="#bfbfbf" points="250,-0.5 250,-19.5 296,-19.5 296,-0.5 250,-0.5"/>
<text text-anchor="middle" x="273" y="-7.5" font-family="Helvetica,sans-Serif" font-size="10.00">cstdio</text>
</a>
</g>
</g>
<!-- Node1&#45;&gt;Node4 -->
<g id="edge3" class="edge">
<title>Node1&#45;&gt;Node4</title>
<path fill="none" stroke="midnightblue" d="M373.1,-56.5C349.8,-45.91 321.66,-33.12 301.15,-23.8"/>
<polygon fill="midnightblue" stroke="midnightblue" points="302.59,-20.6 292.04,-19.65 299.69,-26.98 302.59,-20.6"/>
</g>
<!-- Node5 -->
<g id="node5" class="node">
<title>Node5</title>
<g id="a_node5"><a xlink:title=" ">
<polygon fill="white" stroke="#bfbfbf" points="314.5,-0.5 314.5,-19.5 369.5,-19.5 369.5,-0.5 314.5,-0.5"/>
<text text-anchor="middle" x="342" y="-7.5" font-family="Helvetica,sans-Serif" font-size="10.00">fstream</text>
</a>
</g>
</g>
<!-- Node1&#45;&gt;Node5 -->
<g id="edge4" class="edge">
<title>Node1&#45;&gt;Node5</title>
<path fill="none" stroke="midnightblue" d="M393.8,-56.5C382.78,-46.82 369.66,-35.3 359.39,-26.27"/>
<polygon fill="midnightblue" stroke="midnightblue" points="361.67,-23.62 351.85,-19.65 357.05,-28.88 361.67,-23.62"/>
</g>
<!-- Node6 -->
<g id="node6" class="node">
<title>Node6</title>
<g id="a_node6"><a xlink:title=" ">
<polygon fill="white" stroke="#bfbfbf" points="388,-0.5 388,-19.5 444,-19.5 444,-0.5 388,-0.5"/>
<text text-anchor="middle" x="416" y="-7.5" font-family="Helvetica,sans-Serif" font-size="10.00">iomanip</text>
</a>
</g>
</g>
<!-- Node1&#45;&gt;Node6 -->
<g id="edge5" class="edge">
<title>Node1&#45;&gt;Node6</title>
<path fill="none" stroke="midnightblue" d="M416,-56.5C416,-48.07 416,-38.24 416,-29.87"/>
<polygon fill="midnightblue" stroke="midnightblue" points="419.5,-29.65 416,-19.65 412.5,-29.65 419.5,-29.65"/>
</g>
<!-- Node7 -->
<g id="node7" class="node">
<title>Node7</title>
<g id="a_node7"><a xlink:title=" ">
<polygon fill="white" stroke="#bfbfbf" points="462,-0.5 462,-19.5 522,-19.5 522,-0.5 462,-0.5"/>
<text text-anchor="middle" x="492" y="-7.5" font-family="Helvetica,sans-Serif" font-size="10.00">iostream</text>
</a>
</g>
</g>
<!-- Node1&#45;&gt;Node7 -->
<g id="edge6" class="edge">
<title>Node1&#45;&gt;Node7</title>
<path fill="none" stroke="midnightblue" d="M438.8,-56.5C450.12,-46.82 463.59,-35.3 474.14,-26.27"/>
<polygon fill="midnightblue" stroke="midnightblue" points="476.56,-28.81 481.88,-19.65 472.01,-23.49 476.56,-28.81"/>
</g>
<!-- Node8 -->
<g id="node8" class="node">
<title>Node8</title>
<g id="a_node8"><a xlink:title=" ">
<polygon fill="white" stroke="#bfbfbf" points="540,-0.5 540,-19.5 596,-19.5 596,-0.5 540,-0.5"/>
<text text-anchor="middle" x="568" y="-7.5" font-family="Helvetica,sans-Serif" font-size="10.00">sstream</text>
</a>
</g>
</g>
<!-- Node1&#45;&gt;Node8 -->
<g id="edge7" class="edge">
<title>Node1&#45;&gt;Node8</title>
<path fill="none" stroke="midnightblue" d="M461.61,-56.5C486.48,-45.86 516.55,-33 538.37,-23.67"/>
<polygon fill="midnightblue" stroke="midnightblue" points="539.95,-26.8 547.77,-19.65 537.2,-20.37 539.95,-26.8"/>
</g>
<!-- Node9 -->
<g id="node9" class="node">
<title>Node9</title>
<g id="a_node9"><a xlink:title=" ">
<polygon fill="white" stroke="#bfbfbf" points="614,-0.5 614,-19.5 658,-19.5 658,-0.5 614,-0.5"/>
<text text-anchor="middle" x="636" y="-7.5" font-family="Helvetica,sans-Serif" font-size="10.00">string</text>
</a>
</g>
</g>
<!-- Node1&#45;&gt;Node9 -->
<g id="edge8" class="edge">
<title>Node1&#45;&gt;Node9</title>
<path fill="none" stroke="midnightblue" d="M482.01,-56.5C522.44,-44.55 572.36,-29.8 604.19,-20.4"/>
<polygon fill="midnightblue" stroke="midnightblue" points="605.26,-23.73 613.86,-17.54 603.28,-17.02 605.26,-23.73"/>
</g>
<!-- Node10 -->
<g id="node10" class="node">
<title>Node10</title>
<g id="a_node10"><a xlink:title=" ">
<polygon fill="white" stroke="#bfbfbf" points="676.5,-0.5 676.5,-19.5 723.5,-19.5 723.5,-0.5 676.5,-0.5"/>
<text text-anchor="middle" x="700" y="-7.5" font-family="Helvetica,sans-Serif" font-size="10.00">vector</text>
</a>
</g>
</g>
<!-- Node1&#45;&gt;Node10 -->
<g id="edge9" class="edge">
<title>Node1&#45;&gt;Node10</title>
<path fill="none" stroke="midnightblue" d="M487.61,-60.95C535.58,-50.66 600.35,-36.34 666.48,-20.04"/>
<polygon fill="midnightblue" stroke="midnightblue" points="667.38,-23.42 676.24,-17.62 665.69,-16.63 667.38,-23.42"/>
</g>
</g>
</svg>
