<?xml version="1.0" encoding="UTF-8" standalone="no"?>
<!DOCTYPE svg PUBLIC "-//W3C//DTD SVG 1.1//EN"
 "http://www.w3.org/Graphics/SVG/1.1/DTD/svg11.dtd">
<!-- Generated by graphviz version 2.43.0 (0)
 -->
<!-- Title: /home/runner/work/shpxx/shpxx/src/shp_casts.hpp Pages: 1 -->
<svg width="642pt" height="106pt"
 viewBox="0.00 0.00 641.50 106.00" xmlns="http://www.w3.org/2000/svg" xmlns:xlink="http://www.w3.org/1999/xlink">
<g id="graph0" class="graph" transform="scale(1 1) rotate(0) translate(4 102)">
<title>/home/runner/work/shpxx/shpxx/src/shp_casts.hpp</title>
<polygon fill="white" stroke="transparent" points="-4,4 -4,-102 637.5,-102 637.5,4 -4,4"/>
<!-- Node1 -->
<g id="node1" class="node">
<title>Node1</title>
<g id="a_node1"><a xlink:title=" ">
<polygon fill="#bfbfbf" stroke="black" points="250.5,-67.5 250.5,-97.5 391.5,-97.5 391.5,-67.5 250.5,-67.5"/>
<text text-anchor="start" x="258.5" y="-85.5" font-family="Helvetica,sans-Serif" font-size="10.00">/home/runner/work/shpxx</text>
<text text-anchor="middle" x="321" y="-74.5" font-family="Helvetica,sans-Serif" font-size="10.00">/shpxx/src/shp_casts.hpp</text>
</a>
</g>
</g>
<!-- Node2 -->
<g id="node2" class="node">
<title>Node2</title>
<g id="a_node2"><a xlink:href="point_8cpp.html" target="_top" xlink:title=" ">
<polygon fill="white" stroke="black" points="0,-0.5 0,-30.5 152,-30.5 152,-0.5 0,-0.5"/>
<text text-anchor="start" x="8" y="-18.5" font-family="Helvetica,sans-Serif" font-size="10.00">/home/runner/work/shpxx</text>
<text text-anchor="middle" x="76" y="-7.5" font-family="Helvetica,sans-Serif" font-size="10.00">/shpxx/src/feature/point.cpp</text>
</a>
</g>
</g>
<!-- Node1&#45;&gt;Node2 -->
<g id="edge1" class="edge">
<title>Node1&#45;&gt;Node2</title>
<path fill="none" stroke="midnightblue" d="M258.24,-64.85C218.3,-54.25 167.13,-40.68 129.19,-30.61"/>
<polygon fill="midnightblue" stroke="midnightblue" points="257.58,-68.29 268.14,-67.48 259.37,-61.53 257.58,-68.29"/>
</g>
<!-- Node3 -->
<g id="node3" class="node">
<title>Node3</title>
<g id="a_node3"><a xlink:href="file_8cpp.html" target="_top" xlink:title=" ">
<polygon fill="white" stroke="black" points="170.5,-0.5 170.5,-30.5 311.5,-30.5 311.5,-0.5 170.5,-0.5"/>
<text text-anchor="start" x="178.5" y="-18.5" font-family="Helvetica,sans-Serif" font-size="10.00">/home/runner/work/shpxx</text>
<text text-anchor="middle" x="241" y="-7.5" font-family="Helvetica,sans-Serif" font-size="10.00">/shpxx/src/io/file.cpp</text>
</a>
</g>
</g>
<!-- Node1&#45;&gt;Node3 -->
<g id="edge2" class="edge">
<title>Node1&#45;&gt;Node3</title>
<path fill="none" stroke="midnightblue" d="M295.63,-60.88C283.47,-51.01 269.22,-39.43 258.32,-30.58"/>
<polygon fill="midnightblue" stroke="midnightblue" points="293.67,-63.81 303.64,-67.4 298.09,-58.37 293.67,-63.81"/>
</g>
<!-- Node4 -->
<g id="node4" class="node">
<title>Node4</title>
<g id="a_node4"><a xlink:href="shp__handle_8cpp.html" target="_top" xlink:title=" ">
<polygon fill="white" stroke="black" points="329.5,-0.5 329.5,-30.5 474.5,-30.5 474.5,-0.5 329.5,-0.5"/>
<text text-anchor="start" x="337.5" y="-18.5" font-family="Helvetica,sans-Serif" font-size="10.00">/home/runner/work/shpxx</text>
<text text-anchor="middle" x="402" y="-7.5" font-family="Helvetica,sans-Serif" font-size="10.00">/shpxx/src/shp_handle.cpp</text>
</a>
</g>
</g>
<!-- Node1&#45;&gt;Node4 -->
<g id="edge3" class="edge">
<title>Node1&#45;&gt;Node4</title>
<path fill="none" stroke="midnightblue" d="M346.69,-60.88C359,-51.01 373.43,-39.43 384.46,-30.58"/>
<polygon fill="midnightblue" stroke="midnightblue" points="344.18,-58.41 338.58,-67.4 348.57,-63.87 344.18,-58.41"/>
</g>
<!-- Node5 -->
<g id="node5" class="node">
<title>Node5</title>
<g id="a_node5"><a xlink:href="shpfile_8cpp.html" target="_top" xlink:title=" ">
<polygon fill="white" stroke="black" points="492.5,-0.5 492.5,-30.5 633.5,-30.5 633.5,-0.5 492.5,-0.5"/>
<text text-anchor="start" x="500.5" y="-18.5" font-family="Helvetica,sans-Serif" font-size="10.00">/home/runner/work/shpxx</text>
<text text-anchor="middle" x="563" y="-7.5" font-family="Helvetica,sans-Serif" font-size="10.00">/shpxx/src/shpfile.cpp</text>
</a>
</g>
</g>
<!-- Node1&#45;&gt;Node5 -->
<g id="edge4" class="edge">
<title>Node1&#45;&gt;Node5</title>
<path fill="none" stroke="midnightblue" d="M382.99,-64.85C422.45,-54.25 472.99,-40.68 510.46,-30.61"/>
<polygon fill="midnightblue" stroke="midnightblue" points="381.96,-61.5 373.21,-67.48 383.78,-68.26 381.96,-61.5"/>
</g>
</g>
</svg>
