<?xml version="1.0" encoding="UTF-8" standalone="no"?>
<!DOCTYPE svg PUBLIC "-//W3C//DTD SVG 1.1//EN"
 "http://www.w3.org/Graphics/SVG/1.1/DTD/svg11.dtd">
<!-- Generated by graphviz version 2.43.0 (0)
 -->
<!-- Title: /home/runner/work/shpxx/shpxx/include/shpxx/shp_handle.hpp Pages: 1 -->
<svg width="1240pt" height="418pt"
 viewBox="0.00 0.00 1239.94 418.00" xmlns="http://www.w3.org/2000/svg" xmlns:xlink="http://www.w3.org/1999/xlink">
<g id="graph0" class="graph" transform="scale(1 1) rotate(0) translate(4 414)">
<title>/home/runner/work/shpxx/shpxx/include/shpxx/shp_handle.hpp</title>
<polygon fill="white" stroke="transparent" points="-4,4 -4,-414 1235.94,-414 1235.94,4 -4,4"/>
<!-- Node1 -->
<g id="node1" class="node">
<title>Node1</title>
<g id="a_node1"><a xlink:title=" ">
<polygon fill="#bfbfbf" stroke="black" points="464.5,-368.5 464.5,-409.5 605.5,-409.5 605.5,-368.5 464.5,-368.5"/>
<text text-anchor="start" x="472.5" y="-397.5" font-family="Helvetica,sans-Serif" font-size="10.00">/home/runner/work/shpxx</text>
<text text-anchor="start" x="472.5" y="-386.5" font-family="Helvetica,sans-Serif" font-size="10.00">/shpxx/include/shpxx/shp</text>
<text text-anchor="middle" x="535" y="-375.5" font-family="Helvetica,sans-Serif" font-size="10.00">_handle.hpp</text>
</a>
</g>
</g>
<!-- Node2 -->
<g id="node2" class="node">
<title>Node2</title>
<g id="a_node2"><a xlink:href="file_8cpp.html" target="_top" xlink:title=" ">
<polygon fill="white" stroke="black" points="244.5,-0.5 244.5,-30.5 385.5,-30.5 385.5,-0.5 244.5,-0.5"/>
<text text-anchor="start" x="252.5" y="-18.5" font-family="Helvetica,sans-Serif" font-size="10.00">/home/runner/work/shpxx</text>
<text text-anchor="middle" x="315" y="-7.5" font-family="Helvetica,sans-Serif" font-size="10.00">/shpxx/src/io/file.cpp</text>
</a>
</g>
</g>
<!-- Node1&#45;&gt;Node2 -->
<g id="edge1" class="edge">
<title>Node1&#45;&gt;Node2</title>
<path fill="none" stroke="midnightblue" d="M453.9,-387.2C334.72,-384.59 119.54,-374 56,-332 14.15,-304.34 0,-284.17 0,-234 0,-234 0,-234 0,-159.5 0,-52.9 151.44,-25.37 244.31,-18.52"/>
<polygon fill="midnightblue" stroke="midnightblue" points="454,-390.7 464.07,-387.4 454.14,-383.7 454,-390.7"/>
</g>
<!-- Node3 -->
<g id="node3" class="node">
<title>Node3</title>
<g id="a_node3"><a xlink:href="shp__casts_8hpp.html" target="_top" xlink:title=" ">
<polygon fill="white" stroke="black" points="984.5,-296 984.5,-326 1125.5,-326 1125.5,-296 984.5,-296"/>
<text text-anchor="start" x="992.5" y="-314" font-family="Helvetica,sans-Serif" font-size="10.00">/home/runner/work/shpxx</text>
<text text-anchor="middle" x="1055" y="-303" font-family="Helvetica,sans-Serif" font-size="10.00">/shpxx/src/shp_casts.hpp</text>
</a>
</g>
</g>
<!-- Node1&#45;&gt;Node3 -->
<g id="edge2" class="edge">
<title>Node1&#45;&gt;Node3</title>
<path fill="none" stroke="midnightblue" d="M615.49,-380.64C704.05,-371.88 850.39,-355.42 975,-332 984,-330.31 993.51,-328.21 1002.7,-326.02"/>
<polygon fill="midnightblue" stroke="midnightblue" points="615.12,-377.16 605.51,-381.62 615.8,-384.13 615.12,-377.16"/>
</g>
<!-- Node5 -->
<g id="node5" class="node">
<title>Node5</title>
<g id="a_node5"><a xlink:href="shp__handle_8cpp.html" target="_top" xlink:title=" ">
<polygon fill="white" stroke="black" points="1069.5,-218 1069.5,-248 1214.5,-248 1214.5,-218 1069.5,-218"/>
<text text-anchor="start" x="1077.5" y="-236" font-family="Helvetica,sans-Serif" font-size="10.00">/home/runner/work/shpxx</text>
<text text-anchor="middle" x="1142" y="-225" font-family="Helvetica,sans-Serif" font-size="10.00">/shpxx/src/shp_handle.cpp</text>
</a>
</g>
</g>
<!-- Node1&#45;&gt;Node5 -->
<g id="edge7" class="edge">
<title>Node1&#45;&gt;Node5</title>
<path fill="none" stroke="midnightblue" d="M616.01,-386.15C771.46,-381.8 1099.42,-368.37 1135,-332 1156.71,-309.81 1151.09,-269.64 1146.03,-248.27"/>
<polygon fill="midnightblue" stroke="midnightblue" points="615.48,-382.67 605.58,-386.44 615.67,-389.67 615.48,-382.67"/>
</g>
<!-- Node6 -->
<g id="node6" class="node">
<title>Node6</title>
<g id="a_node6"><a xlink:href="shpfile_8cpp.html" target="_top" xlink:title=" ">
<polygon fill="white" stroke="black" points="1019.5,-73 1019.5,-103 1160.5,-103 1160.5,-73 1019.5,-73"/>
<text text-anchor="start" x="1027.5" y="-91" font-family="Helvetica,sans-Serif" font-size="10.00">/home/runner/work/shpxx</text>
<text text-anchor="middle" x="1090" y="-80" font-family="Helvetica,sans-Serif" font-size="10.00">/shpxx/src/shpfile.cpp</text>
</a>
</g>
</g>
<!-- Node1&#45;&gt;Node6 -->
<g id="edge8" class="edge">
<title>Node1&#45;&gt;Node6</title>
<path fill="none" stroke="midnightblue" d="M615.75,-388.1C761.89,-387.08 1063.66,-379.12 1156,-332 1210.6,-304.14 1248.66,-268.12 1224,-212 1201.83,-161.55 1147.62,-122.73 1115.35,-103.12"/>
<polygon fill="midnightblue" stroke="midnightblue" points="615.48,-384.6 605.5,-388.16 615.53,-391.6 615.48,-384.6"/>
</g>
<!-- Node7 -->
<g id="node7" class="node">
<title>Node7</title>
<g id="a_node7"><a xlink:href="linestring_8hpp.html" target="_top" xlink:title=" ">
<polygon fill="white" stroke="black" points="456,-290.5 456,-331.5 614,-331.5 614,-290.5 456,-290.5"/>
<text text-anchor="start" x="464" y="-319.5" font-family="Helvetica,sans-Serif" font-size="10.00">/home/runner/work/shpxx</text>
<text text-anchor="start" x="464" y="-308.5" font-family="Helvetica,sans-Serif" font-size="10.00">/shpxx/include/shpxx/feature</text>
<text text-anchor="middle" x="535" y="-297.5" font-family="Helvetica,sans-Serif" font-size="10.00">/linestring.hpp</text>
</a>
</g>
</g>
<!-- Node1&#45;&gt;Node7 -->
<g id="edge9" class="edge">
<title>Node1&#45;&gt;Node7</title>
<path fill="none" stroke="midnightblue" d="M535,-358.3C535,-349.3 535,-339.65 535,-331.51"/>
<polygon fill="midnightblue" stroke="midnightblue" points="531.5,-358.43 535,-368.43 538.5,-358.43 531.5,-358.43"/>
</g>
<!-- Node9 -->
<g id="node9" class="node">
<title>Node9</title>
<g id="a_node9"><a xlink:href="shpfile_8hpp.html" target="_top" xlink:title=" ">
<polygon fill="white" stroke="black" points="147,-145.5 147,-175.5 323,-175.5 323,-145.5 147,-145.5"/>
<text text-anchor="start" x="155" y="-163.5" font-family="Helvetica,sans-Serif" font-size="10.00">/home/runner/work/shpxx</text>
<text text-anchor="middle" x="235" y="-152.5" font-family="Helvetica,sans-Serif" font-size="10.00">/shpxx/include/shpxx/shpfile.hpp</text>
</a>
</g>
</g>
<!-- Node1&#45;&gt;Node9 -->
<g id="edge26" class="edge">
<title>Node1&#45;&gt;Node9</title>
<path fill="none" stroke="midnightblue" d="M454.07,-383.41C333.5,-375.72 118.31,-358.46 95,-332 45.26,-275.52 154.36,-205.29 207.77,-175.7"/>
<polygon fill="midnightblue" stroke="midnightblue" points="454.16,-386.92 464.36,-384.05 454.6,-379.93 454.16,-386.92"/>
</g>
<!-- Node11 -->
<g id="node11" class="node">
<title>Node11</title>
<g id="a_node11"><a xlink:href="shpfile__impl_8hpp.html" target="_top" xlink:title=" ">
<polygon fill="white" stroke="black" points="71.5,-67.5 71.5,-108.5 226.5,-108.5 226.5,-67.5 71.5,-67.5"/>
<text text-anchor="start" x="79.5" y="-96.5" font-family="Helvetica,sans-Serif" font-size="10.00">/home/runner/work/shpxx</text>
<text text-anchor="start" x="79.5" y="-85.5" font-family="Helvetica,sans-Serif" font-size="10.00">/shpxx/include/shpxx/shpfile</text>
<text text-anchor="middle" x="149" y="-74.5" font-family="Helvetica,sans-Serif" font-size="10.00">_impl.hpp</text>
</a>
</g>
</g>
<!-- Node1&#45;&gt;Node11 -->
<g id="edge27" class="edge">
<title>Node1&#45;&gt;Node11</title>
<path fill="none" stroke="midnightblue" d="M453.99,-383.79C329.62,-376.49 103.39,-359.56 79,-332 20.53,-265.91 97.03,-153.8 132.6,-108.68"/>
<polygon fill="midnightblue" stroke="midnightblue" points="454.04,-387.3 464.23,-384.38 454.45,-380.31 454.04,-387.3"/>
</g>
<!-- Node12 -->
<g id="node12" class="node">
<title>Node12</title>
<g id="a_node12"><a xlink:href="multi__patch_8hpp.html" target="_top" xlink:title=" ">
<polygon fill="white" stroke="black" points="632,-290.5 632,-331.5 790,-331.5 790,-290.5 632,-290.5"/>
<text text-anchor="start" x="640" y="-319.5" font-family="Helvetica,sans-Serif" font-size="10.00">/home/runner/work/shpxx</text>
<text text-anchor="start" x="640" y="-308.5" font-family="Helvetica,sans-Serif" font-size="10.00">/shpxx/include/shpxx/feature</text>
<text text-anchor="middle" x="711" y="-297.5" font-family="Helvetica,sans-Serif" font-size="10.00">/multi_patch.hpp</text>
</a>
</g>
</g>
<!-- Node1&#45;&gt;Node12 -->
<g id="edge17" class="edge">
<title>Node1&#45;&gt;Node12</title>
<path fill="none" stroke="midnightblue" d="M589.82,-364.33C614.24,-353.78 642.65,-341.51 665.83,-331.51"/>
<polygon fill="midnightblue" stroke="midnightblue" points="588.12,-361.25 580.32,-368.43 590.89,-367.68 588.12,-361.25"/>
</g>
<!-- Node13 -->
<g id="node13" class="node">
<title>Node13</title>
<g id="a_node13"><a xlink:href="multi__point_8hpp.html" target="_top" xlink:title=" ">
<polygon fill="white" stroke="black" points="104,-290.5 104,-331.5 262,-331.5 262,-290.5 104,-290.5"/>
<text text-anchor="start" x="112" y="-319.5" font-family="Helvetica,sans-Serif" font-size="10.00">/home/runner/work/shpxx</text>
<text text-anchor="start" x="112" y="-308.5" font-family="Helvetica,sans-Serif" font-size="10.00">/shpxx/include/shpxx/feature</text>
<text text-anchor="middle" x="183" y="-297.5" font-family="Helvetica,sans-Serif" font-size="10.00">/multi_point.hpp</text>
</a>
</g>
</g>
<!-- Node1&#45;&gt;Node13 -->
<g id="edge19" class="edge">
<title>Node1&#45;&gt;Node13</title>
<path fill="none" stroke="midnightblue" d="M454.45,-371.23C402.13,-360.26 332.48,-345.51 271,-332 268.09,-331.36 265.13,-330.71 262.14,-330.04"/>
<polygon fill="midnightblue" stroke="midnightblue" points="453.84,-374.68 464.35,-373.3 455.28,-367.83 453.84,-374.68"/>
</g>
<!-- Node14 -->
<g id="node14" class="node">
<title>Node14</title>
<g id="a_node14"><a xlink:href="point_8hpp.html" target="_top" xlink:title=" ">
<polygon fill="white" stroke="black" points="808,-290.5 808,-331.5 966,-331.5 966,-290.5 808,-290.5"/>
<text text-anchor="start" x="816" y="-319.5" font-family="Helvetica,sans-Serif" font-size="10.00">/home/runner/work/shpxx</text>
<text text-anchor="start" x="816" y="-308.5" font-family="Helvetica,sans-Serif" font-size="10.00">/shpxx/include/shpxx/feature</text>
<text text-anchor="middle" x="887" y="-297.5" font-family="Helvetica,sans-Serif" font-size="10.00">/point.hpp</text>
</a>
</g>
</g>
<!-- Node1&#45;&gt;Node14 -->
<g id="edge21" class="edge">
<title>Node1&#45;&gt;Node14</title>
<path fill="none" stroke="midnightblue" d="M615.55,-371.23C667.87,-360.26 737.52,-345.51 799,-332 801.91,-331.36 804.87,-330.71 807.86,-330.04"/>
<polygon fill="midnightblue" stroke="midnightblue" points="614.72,-367.83 605.65,-373.3 616.16,-374.68 614.72,-367.83"/>
</g>
<!-- Node15 -->
<g id="node15" class="node">
<title>Node15</title>
<g id="a_node15"><a xlink:href="polygon_8hpp.html" target="_top" xlink:title=" ">
<polygon fill="white" stroke="black" points="280,-290.5 280,-331.5 438,-331.5 438,-290.5 280,-290.5"/>
<text text-anchor="start" x="288" y="-319.5" font-family="Helvetica,sans-Serif" font-size="10.00">/home/runner/work/shpxx</text>
<text text-anchor="start" x="288" y="-308.5" font-family="Helvetica,sans-Serif" font-size="10.00">/shpxx/include/shpxx/feature</text>
<text text-anchor="middle" x="359" y="-297.5" font-family="Helvetica,sans-Serif" font-size="10.00">/polygon.hpp</text>
</a>
</g>
</g>
<!-- Node1&#45;&gt;Node15 -->
<g id="edge24" class="edge">
<title>Node1&#45;&gt;Node15</title>
<path fill="none" stroke="midnightblue" d="M480.18,-364.33C455.76,-353.78 427.35,-341.51 404.17,-331.51"/>
<polygon fill="midnightblue" stroke="midnightblue" points="479.11,-367.68 489.68,-368.43 481.88,-361.25 479.11,-367.68"/>
</g>
<!-- Node3&#45;&gt;Node2 -->
<g id="edge4" class="edge">
<title>Node3&#45;&gt;Node2</title>
<path fill="none" stroke="midnightblue" d="M1041.33,-287.21C1026.81,-264.9 1001.86,-231.5 972,-212 782.7,-88.34 512.49,-40.55 385.74,-24.13"/>
<polygon fill="midnightblue" stroke="midnightblue" points="1038.42,-289.15 1046.72,-295.73 1044.33,-285.41 1038.42,-289.15"/>
</g>
<!-- Node4 -->
<g id="node4" class="node">
<title>Node4</title>
<g id="a_node4"><a xlink:href="point_8cpp.html" target="_top" xlink:title=" ">
<polygon fill="white" stroke="black" points="811,-218 811,-248 963,-248 963,-218 811,-218"/>
<text text-anchor="start" x="819" y="-236" font-family="Helvetica,sans-Serif" font-size="10.00">/home/runner/work/shpxx</text>
<text text-anchor="middle" x="887" y="-225" font-family="Helvetica,sans-Serif" font-size="10.00">/shpxx/src/feature/point.cpp</text>
</a>
</g>
</g>
<!-- Node3&#45;&gt;Node4 -->
<g id="edge3" class="edge">
<title>Node3&#45;&gt;Node4</title>
<path fill="none" stroke="midnightblue" d="M1014.54,-291.7C984.89,-278.28 945.22,-260.34 918.04,-248.04"/>
<polygon fill="midnightblue" stroke="midnightblue" points="1013.24,-294.95 1023.79,-295.88 1016.13,-288.57 1013.24,-294.95"/>
</g>
<!-- Node3&#45;&gt;Node5 -->
<g id="edge5" class="edge">
<title>Node3&#45;&gt;Node5</title>
<path fill="none" stroke="midnightblue" d="M1079.16,-288.89C1094,-275.93 1112.61,-259.68 1125.71,-248.23"/>
<polygon fill="midnightblue" stroke="midnightblue" points="1076.59,-286.49 1071.36,-295.7 1081.2,-291.76 1076.59,-286.49"/>
</g>
<!-- Node3&#45;&gt;Node6 -->
<g id="edge6" class="edge">
<title>Node3&#45;&gt;Node6</title>
<path fill="none" stroke="midnightblue" d="M1055.33,-285.92C1055.88,-266.01 1057.31,-237.04 1061,-212 1066.89,-172.06 1079.29,-125.99 1085.81,-103.24"/>
<polygon fill="midnightblue" stroke="midnightblue" points="1051.83,-285.89 1055.11,-295.97 1058.83,-286.05 1051.83,-285.89"/>
</g>
<!-- Node8 -->
<g id="node8" class="node">
<title>Node8</title>
<g id="a_node8"><a xlink:href="is__feature_8hpp.html" target="_top" xlink:title=" ">
<polygon fill="white" stroke="black" points="364,-212.5 364,-253.5 530,-253.5 530,-212.5 364,-212.5"/>
<text text-anchor="start" x="372" y="-241.5" font-family="Helvetica,sans-Serif" font-size="10.00">/home/runner/work/shpxx</text>
<text text-anchor="start" x="372" y="-230.5" font-family="Helvetica,sans-Serif" font-size="10.00">/shpxx/include/shpxx/concepts</text>
<text text-anchor="middle" x="447" y="-219.5" font-family="Helvetica,sans-Serif" font-size="10.00">/is_feature.hpp</text>
</a>
</g>
</g>
<!-- Node7&#45;&gt;Node8 -->
<g id="edge10" class="edge">
<title>Node7&#45;&gt;Node8</title>
<path fill="none" stroke="midnightblue" d="M504.64,-283.78C493.13,-273.84 480.25,-262.72 469.59,-253.51"/>
<polygon fill="midnightblue" stroke="midnightblue" points="502.48,-286.54 512.34,-290.43 507.06,-281.24 502.48,-286.54"/>
</g>
<!-- Node8&#45;&gt;Node9 -->
<g id="edge11" class="edge">
<title>Node8&#45;&gt;Node9</title>
<path fill="none" stroke="midnightblue" d="M378.55,-209.24C345.27,-198.17 306.32,-185.22 277.39,-175.6"/>
<polygon fill="midnightblue" stroke="midnightblue" points="377.63,-212.62 388.23,-212.46 379.84,-205.98 377.63,-212.62"/>
</g>
<!-- Node9&#45;&gt;Node6 -->
<g id="edge12" class="edge">
<title>Node9&#45;&gt;Node6</title>
<path fill="none" stroke="midnightblue" d="M333.48,-151.38C507.91,-137 867.09,-107.38 1019.32,-94.83"/>
<polygon fill="midnightblue" stroke="midnightblue" points="332.96,-147.91 323.28,-152.22 333.53,-154.89 332.96,-147.91"/>
</g>
<!-- Node10 -->
<g id="node10" class="node">
<title>Node10</title>
<g id="a_node10"><a xlink:href="file_8hpp.html" target="_top" xlink:title=" ">
<polygon fill="white" stroke="black" points="244.5,-67.5 244.5,-108.5 385.5,-108.5 385.5,-67.5 244.5,-67.5"/>
<text text-anchor="start" x="252.5" y="-96.5" font-family="Helvetica,sans-Serif" font-size="10.00">/home/runner/work/shpxx</text>
<text text-anchor="start" x="252.5" y="-85.5" font-family="Helvetica,sans-Serif" font-size="10.00">/shpxx/include/shpxx/io</text>
<text text-anchor="middle" x="315" y="-74.5" font-family="Helvetica,sans-Serif" font-size="10.00">/file.hpp</text>
</a>
</g>
</g>
<!-- Node9&#45;&gt;Node10 -->
<g id="edge13" class="edge">
<title>Node9&#45;&gt;Node10</title>
<path fill="none" stroke="midnightblue" d="M258.97,-138.38C269.69,-128.93 282.26,-117.85 292.77,-108.59"/>
<polygon fill="midnightblue" stroke="midnightblue" points="256.38,-136 251.19,-145.23 261.01,-141.25 256.38,-136"/>
</g>
<!-- Node9&#45;&gt;Node11 -->
<g id="edge15" class="edge">
<title>Node9&#45;&gt;Node11</title>
<path fill="none" stroke="midnightblue" d="M203.71,-138.93C191.28,-129.36 177.48,-118.03 166.78,-108.59"/>
<polygon fill="midnightblue" stroke="midnightblue" points="201.96,-142 212.05,-145.23 206.18,-136.41 201.96,-142"/>
</g>
<!-- Node10&#45;&gt;Node2 -->
<g id="edge14" class="edge">
<title>Node10&#45;&gt;Node2</title>
<path fill="none" stroke="midnightblue" d="M315,-57.08C315,-48.01 315,-38.45 315,-30.89"/>
<polygon fill="midnightblue" stroke="midnightblue" points="311.5,-57.36 315,-67.36 318.5,-57.36 311.5,-57.36"/>
</g>
<!-- Node11&#45;&gt;Node9 -->
<g id="edge16" class="edge">
<title>Node11&#45;&gt;Node9</title>
<path fill="none" stroke="midnightblue" d="M187,-114.8C200.03,-125.07 213.64,-136.5 223.15,-145.23"/>
<polygon fill="midnightblue" stroke="midnightblue" points="189.06,-111.96 179.01,-108.59 184.76,-117.49 189.06,-111.96"/>
</g>
<!-- Node12&#45;&gt;Node8 -->
<g id="edge18" class="edge">
<title>Node12&#45;&gt;Node8</title>
<path fill="none" stroke="midnightblue" d="M633.12,-287.58C595.55,-276.76 550.9,-263.91 514.76,-253.51"/>
<polygon fill="midnightblue" stroke="midnightblue" points="632.44,-291.03 643.01,-290.43 634.37,-284.3 632.44,-291.03"/>
</g>
<!-- Node13&#45;&gt;Node8 -->
<g id="edge20" class="edge">
<title>Node13&#45;&gt;Node8</title>
<path fill="none" stroke="midnightblue" d="M260.88,-287.58C298.45,-276.76 343.1,-263.91 379.24,-253.51"/>
<polygon fill="midnightblue" stroke="midnightblue" points="259.63,-284.3 250.99,-290.43 261.56,-291.03 259.63,-284.3"/>
</g>
<!-- Node14&#45;&gt;Node4 -->
<g id="edge22" class="edge">
<title>Node14&#45;&gt;Node4</title>
<path fill="none" stroke="midnightblue" d="M887,-280.28C887,-269.25 887,-257.25 887,-248.23"/>
<polygon fill="midnightblue" stroke="midnightblue" points="883.5,-280.43 887,-290.43 890.5,-280.43 883.5,-280.43"/>
</g>
<!-- Node14&#45;&gt;Node8 -->
<g id="edge23" class="edge">
<title>Node14&#45;&gt;Node8</title>
<path fill="none" stroke="midnightblue" d="M797.87,-289.84C700.42,-271.25 599.25,-255.7 530.13,-245.65"/>
<polygon fill="midnightblue" stroke="midnightblue" points="797.42,-293.32 807.9,-291.76 798.74,-286.44 797.42,-293.32"/>
</g>
<!-- Node15&#45;&gt;Node8 -->
<g id="edge25" class="edge">
<title>Node15&#45;&gt;Node8</title>
<path fill="none" stroke="midnightblue" d="M389.36,-283.78C400.87,-273.84 413.75,-262.72 424.41,-253.51"/>
<polygon fill="midnightblue" stroke="midnightblue" points="386.94,-281.24 381.66,-290.43 391.52,-286.54 386.94,-281.24"/>
</g>
</g>
</svg>
