<?xml version="1.0" encoding="UTF-8" standalone="no"?>
<!DOCTYPE svg PUBLIC "-//W3C//DTD SVG 1.1//EN"
 "http://www.w3.org/Graphics/SVG/1.1/DTD/svg11.dtd">
<!-- Generated by graphviz version 2.43.0 (0)
 -->
<!-- Title: /home/runner/work/shpxx/shpxx/src/shp_handle.cpp Pages: 1 -->
<svg width="223pt" height="207pt"
 viewBox="0.00 0.00 222.50 207.00" xmlns="http://www.w3.org/2000/svg" xmlns:xlink="http://www.w3.org/1999/xlink">
<g id="graph0" class="graph" transform="scale(1 1) rotate(0) translate(4 203)">
<title>/home/runner/work/shpxx/shpxx/src/shp_handle.cpp</title>
<polygon fill="white" stroke="transparent" points="-4,4 -4,-203 218.5,-203 218.5,4 -4,4"/>
<!-- Node1 -->
<g id="node1" class="node">
<title>Node1</title>
<g id="a_node1"><a xlink:title=" ">
<polygon fill="#bfbfbf" stroke="black" points="47,-168.5 47,-198.5 192,-198.5 192,-168.5 47,-168.5"/>
<text text-anchor="start" x="55" y="-186.5" font-family="Helvetica,sans-Serif" font-size="10.00">/home/runner/work/shpxx</text>
<text text-anchor="middle" x="119.5" y="-175.5" font-family="Helvetica,sans-Serif" font-size="10.00">/shpxx/src/shp_handle.cpp</text>
</a>
</g>
</g>
<!-- Node2 -->
<g id="node2" class="node">
<title>Node2</title>
<g id="a_node2"><a xlink:href="shp__handle_8hpp.html" target="_top" xlink:title=" ">
<polygon fill="white" stroke="black" points="0,-56.5 0,-75.5 125,-75.5 125,-56.5 0,-56.5"/>
<text text-anchor="middle" x="62.5" y="-63.5" font-family="Helvetica,sans-Serif" font-size="10.00">shpxx/shp_handle.hpp</text>
</a>
</g>
</g>
<!-- Node1&#45;&gt;Node2 -->
<g id="edge1" class="edge">
<title>Node1&#45;&gt;Node2</title>
<path fill="none" stroke="midnightblue" d="M98.89,-168.4C87.54,-159.41 74.39,-146.7 67.5,-132 60.74,-117.59 59.9,-99.4 60.51,-85.93"/>
<polygon fill="midnightblue" stroke="midnightblue" points="64.01,-86.14 61.27,-75.91 57.03,-85.61 64.01,-86.14"/>
</g>
<!-- Node4 -->
<g id="node4" class="node">
<title>Node4</title>
<g id="a_node4"><a xlink:href="shp__casts_8hpp.html" target="_top" xlink:title=" ">
<polygon fill="white" stroke="black" points="76.5,-112.5 76.5,-131.5 162.5,-131.5 162.5,-112.5 76.5,-112.5"/>
<text text-anchor="middle" x="119.5" y="-119.5" font-family="Helvetica,sans-Serif" font-size="10.00">shp_casts.hpp</text>
</a>
</g>
</g>
<!-- Node1&#45;&gt;Node4 -->
<g id="edge3" class="edge">
<title>Node1&#45;&gt;Node4</title>
<path fill="none" stroke="midnightblue" d="M119.5,-168.4C119.5,-160.47 119.5,-150.46 119.5,-141.86"/>
<polygon fill="midnightblue" stroke="midnightblue" points="123,-141.66 119.5,-131.66 116,-141.66 123,-141.66"/>
</g>
<!-- Node5 -->
<g id="node5" class="node">
<title>Node5</title>
<g id="a_node5"><a xlink:title=" ">
<polygon fill="white" stroke="#bfbfbf" points="150.5,-56.5 150.5,-75.5 214.5,-75.5 214.5,-56.5 150.5,-56.5"/>
<text text-anchor="middle" x="182.5" y="-63.5" font-family="Helvetica,sans-Serif" font-size="10.00">shapefil.h</text>
</a>
</g>
</g>
<!-- Node1&#45;&gt;Node5 -->
<g id="edge6" class="edge">
<title>Node1&#45;&gt;Node5</title>
<path fill="none" stroke="midnightblue" d="M139.36,-168.37C150.6,-159.28 163.89,-146.48 171.5,-132 179.07,-117.59 181.62,-99.14 182.4,-85.58"/>
<polygon fill="midnightblue" stroke="midnightblue" points="185.9,-85.63 182.7,-75.53 178.9,-85.42 185.9,-85.63"/>
</g>
<!-- Node3 -->
<g id="node3" class="node">
<title>Node3</title>
<g id="a_node3"><a xlink:title=" ">
<polygon fill="white" stroke="#bfbfbf" points="33.5,-0.5 33.5,-19.5 91.5,-19.5 91.5,-0.5 33.5,-0.5"/>
<text text-anchor="middle" x="62.5" y="-7.5" font-family="Helvetica,sans-Serif" font-size="10.00">memory</text>
</a>
</g>
</g>
<!-- Node2&#45;&gt;Node3 -->
<g id="edge2" class="edge">
<title>Node2&#45;&gt;Node3</title>
<path fill="none" stroke="midnightblue" d="M62.5,-56.08C62.5,-49.01 62.5,-38.86 62.5,-29.99"/>
<polygon fill="midnightblue" stroke="midnightblue" points="66,-29.75 62.5,-19.75 59,-29.75 66,-29.75"/>
</g>
<!-- Node4&#45;&gt;Node2 -->
<g id="edge4" class="edge">
<title>Node4&#45;&gt;Node2</title>
<path fill="none" stroke="midnightblue" d="M110.34,-112.32C102,-104.42 89.47,-92.55 79.32,-82.94"/>
<polygon fill="midnightblue" stroke="midnightblue" points="81.49,-80.17 71.82,-75.83 76.68,-85.25 81.49,-80.17"/>
</g>
<!-- Node4&#45;&gt;Node5 -->
<g id="edge5" class="edge">
<title>Node4&#45;&gt;Node5</title>
<path fill="none" stroke="midnightblue" d="M129.62,-112.32C139.03,-104.26 153.24,-92.08 164.57,-82.37"/>
<polygon fill="midnightblue" stroke="midnightblue" points="166.88,-85 172.19,-75.83 162.32,-79.68 166.88,-85"/>
</g>
</g>
</svg>
