<?xml version="1.0" encoding="UTF-8" standalone="no"?>
<!DOCTYPE svg PUBLIC "-//W3C//DTD SVG 1.1//EN"
 "http://www.w3.org/Graphics/SVG/1.1/DTD/svg11.dtd">
<!-- Generated by graphviz version 2.43.0 (0)
 -->
<!-- Title: /home/runner/work/shpxx/shpxx/include/shpxx/shpfile_impl.hpp Pages: 1 -->
<svg width="308pt" height="262pt"
 viewBox="0.00 0.00 308.00 262.00" xmlns="http://www.w3.org/2000/svg" xmlns:xlink="http://www.w3.org/1999/xlink">
<g id="graph0" class="graph" transform="scale(1 1) rotate(0) translate(4 258)">
<title>/home/runner/work/shpxx/shpxx/include/shpxx/shpfile_impl.hpp</title>
<polygon fill="white" stroke="transparent" points="-4,4 -4,-258 304,-258 304,4 -4,4"/>
<!-- Node1 -->
<g id="node1" class="node">
<title>Node1</title>
<g id="a_node1"><a xlink:title=" ">
<polygon fill="#bfbfbf" stroke="black" points="72,-212.5 72,-253.5 227,-253.5 227,-212.5 72,-212.5"/>
<text text-anchor="start" x="80" y="-241.5" font-family="Helvetica,sans-Serif" font-size="10.00">/home/runner/work/shpxx</text>
<text text-anchor="start" x="80" y="-230.5" font-family="Helvetica,sans-Serif" font-size="10.00">/shpxx/include/shpxx/shpfile</text>
<text text-anchor="middle" x="149.5" y="-219.5" font-family="Helvetica,sans-Serif" font-size="10.00">_impl.hpp</text>
</a>
</g>
</g>
<!-- Node2 -->
<g id="node2" class="node">
<title>Node2</title>
<g id="a_node2"><a xlink:href="shpfile_8hpp.html" target="_top" xlink:title=" ">
<polygon fill="white" stroke="black" points="61.5,-145.5 61.5,-175.5 237.5,-175.5 237.5,-145.5 61.5,-145.5"/>
<text text-anchor="start" x="69.5" y="-163.5" font-family="Helvetica,sans-Serif" font-size="10.00">/home/runner/work/shpxx</text>
<text text-anchor="middle" x="149.5" y="-152.5" font-family="Helvetica,sans-Serif" font-size="10.00">/shpxx/include/shpxx/shpfile.hpp</text>
</a>
</g>
</g>
<!-- Node1&#45;&gt;Node2 -->
<g id="edge1" class="edge">
<title>Node1&#45;&gt;Node2</title>
<path fill="none" stroke="midnightblue" d="M142.83,-202.38C142.57,-193.21 142.94,-183.53 143.94,-175.89"/>
<polygon fill="midnightblue" stroke="midnightblue" points="139.33,-202.57 143.38,-212.36 146.32,-202.18 139.33,-202.57"/>
</g>
<!-- Node2&#45;&gt;Node1 -->
<g id="edge5" class="edge">
<title>Node2&#45;&gt;Node1</title>
<path fill="none" stroke="midnightblue" d="M155.97,-186.11C156.44,-194.7 156.32,-204.23 155.62,-212.36"/>
<polygon fill="midnightblue" stroke="midnightblue" points="159.43,-185.54 155.06,-175.89 152.46,-186.16 159.43,-185.54"/>
</g>
<!-- Node3 -->
<g id="node3" class="node">
<title>Node3</title>
<g id="a_node3"><a xlink:href="shpfile_8cpp.html" target="_top" xlink:title=" ">
<polygon fill="white" stroke="black" points="0,-73 0,-103 141,-103 141,-73 0,-73"/>
<text text-anchor="start" x="8" y="-91" font-family="Helvetica,sans-Serif" font-size="10.00">/home/runner/work/shpxx</text>
<text text-anchor="middle" x="70.5" y="-80" font-family="Helvetica,sans-Serif" font-size="10.00">/shpxx/src/shpfile.cpp</text>
</a>
</g>
</g>
<!-- Node2&#45;&gt;Node3 -->
<g id="edge2" class="edge">
<title>Node2&#45;&gt;Node3</title>
<path fill="none" stroke="midnightblue" d="M125.93,-138.46C113.09,-127 97.55,-113.14 86.19,-103"/>
<polygon fill="midnightblue" stroke="midnightblue" points="123.72,-141.19 133.51,-145.23 128.38,-135.96 123.72,-141.19"/>
</g>
<!-- Node4 -->
<g id="node4" class="node">
<title>Node4</title>
<g id="a_node4"><a xlink:href="file_8hpp.html" target="_top" xlink:title=" ">
<polygon fill="white" stroke="black" points="159,-67.5 159,-108.5 300,-108.5 300,-67.5 159,-67.5"/>
<text text-anchor="start" x="167" y="-96.5" font-family="Helvetica,sans-Serif" font-size="10.00">/home/runner/work/shpxx</text>
<text text-anchor="start" x="167" y="-85.5" font-family="Helvetica,sans-Serif" font-size="10.00">/shpxx/include/shpxx/io</text>
<text text-anchor="middle" x="229.5" y="-74.5" font-family="Helvetica,sans-Serif" font-size="10.00">/file.hpp</text>
</a>
</g>
</g>
<!-- Node2&#45;&gt;Node4 -->
<g id="edge3" class="edge">
<title>Node2&#45;&gt;Node4</title>
<path fill="none" stroke="midnightblue" d="M173.47,-138.38C184.19,-128.93 196.76,-117.85 207.27,-108.59"/>
<polygon fill="midnightblue" stroke="midnightblue" points="170.88,-136 165.69,-145.23 175.51,-141.25 170.88,-136"/>
</g>
<!-- Node5 -->
<g id="node5" class="node">
<title>Node5</title>
<g id="a_node5"><a xlink:href="file_8cpp.html" target="_top" xlink:title=" ">
<polygon fill="white" stroke="black" points="159,-0.5 159,-30.5 300,-30.5 300,-0.5 159,-0.5"/>
<text text-anchor="start" x="167" y="-18.5" font-family="Helvetica,sans-Serif" font-size="10.00">/home/runner/work/shpxx</text>
<text text-anchor="middle" x="229.5" y="-7.5" font-family="Helvetica,sans-Serif" font-size="10.00">/shpxx/src/io/file.cpp</text>
</a>
</g>
</g>
<!-- Node4&#45;&gt;Node5 -->
<g id="edge4" class="edge">
<title>Node4&#45;&gt;Node5</title>
<path fill="none" stroke="midnightblue" d="M229.5,-57.08C229.5,-48.01 229.5,-38.45 229.5,-30.89"/>
<polygon fill="midnightblue" stroke="midnightblue" points="226,-57.36 229.5,-67.36 233,-57.36 226,-57.36"/>
</g>
</g>
</svg>
