<?xml version="1.0" encoding="UTF-8" standalone="no"?>
<!DOCTYPE svg PUBLIC "-//W3C//DTD SVG 1.1//EN"
 "http://www.w3.org/Graphics/SVG/1.1/DTD/svg11.dtd">
<!-- Generated by graphviz version 2.43.0 (0)
 -->
<!-- Title: /home/runner/work/shpxx/shpxx/include/shpxx/shpfile_impl.hpp Pages: 1 -->
<!--zoomable 598 -->
<svg id="main" version="1.1" xmlns="http://www.w3.org/2000/svg" xmlns:xlink="http://www.w3.org/1999/xlink" xml:space="preserve" onload="init(evt)">
<style type="text/css"><![CDATA[
.edge:hover path { stroke: red; }
.edge:hover polygon { stroke: red; fill: red; }
]]></style>
<script type="text/javascript"><![CDATA[
var edges = document.getElementsByTagName('g');
if (edges && edges.length) {
  for (var i=0;i<edges.length;i++) {
    if (edges[i].id.substr(0,4)=='edge') {
      edges[i].setAttribute('class','edge');
    }
  }
}
]]></script>
        <defs>
                <circle id="rim" cx="0" cy="0" r="7"/>
                <circle id="rim2" cx="0" cy="0" r="3.5"/>
                <g id="zoomPlus">
                        <use xlink:href="#rim" fill="#404040">
                                <set attributeName="fill" to="#808080" begin="zoomplus.mouseover" end="zoomplus.mouseout"/>
                        </use>
                        <path d="M-4,0h8M0,-4v8" fill="none" stroke="white" stroke-width="1.5" pointer-events="none"/>
                </g>
                <g id="zoomMin">
                        <use xlink:href="#rim" fill="#404040">
                                <set attributeName="fill" to="#808080" begin="zoomminus.mouseover" end="zoomminus.mouseout"/>
                        </use>
                        <path d="M-4,0h8" fill="none" stroke="white" stroke-width="1.5" pointer-events="none"/>
                </g>
                <g id="dirArrow">
                        <path fill="none" stroke="white" stroke-width="1.5" d="M0,-3.0v7 M-2.5,-0.5L0,-3.0L2.5,-0.5"/>
                </g>
               <g id="resetDef">
                       <use xlink:href="#rim2" fill="#404040">
                               <set attributeName="fill" to="#808080" begin="reset.mouseover" end="reset.mouseout"/>
                       </use>
               </g>
        </defs>

<script type="text/javascript">
var viewWidth = 1381;
var viewHeight = 598;
var sectionId = 'dynsection-0';
</script>
<script xlink:href="svgpan.js"/>
<svg id="graph" class="graph">
<g id="viewport">
<title>/home/runner/work/shpxx/shpxx/include/shpxx/shpfile_impl.hpp</title>
<polygon fill="white" stroke="transparent" points="-4,4 -4,-594 1376.5,-594 1376.5,4 -4,4"/>
<!-- Node1 -->
<g id="node1" class="node">
<title>Node1</title>
<g id="a_node1"><a xlink:title=" ">
<polygon fill="#bfbfbf" stroke="black" points="671,-548.5 671,-589.5 826,-589.5 826,-548.5 671,-548.5"/>
<text text-anchor="start" x="679" y="-577.5" font-family="Helvetica,sans-Serif" font-size="10.00">/home/runner/work/shpxx</text>
<text text-anchor="start" x="679" y="-566.5" font-family="Helvetica,sans-Serif" font-size="10.00">/shpxx/include/shpxx/shpfile</text>
<text text-anchor="middle" x="748.5" y="-555.5" font-family="Helvetica,sans-Serif" font-size="10.00">_impl.hpp</text>
</a>
</g>
</g>
<!-- Node2 -->
<g id="node2" class="node">
<title>Node2</title>
<g id="a_node2"><a xlink:href="has__class__name_8hpp.html" target="_top" xlink:title=" ">
<polygon fill="white" stroke="black" points="183,-302.5 183,-332.5 296,-332.5 296,-302.5 183,-302.5"/>
<text text-anchor="start" x="191" y="-320.5" font-family="Helvetica,sans-Serif" font-size="10.00">shpxx/concepts/has</text>
<text text-anchor="middle" x="239.5" y="-309.5" font-family="Helvetica,sans-Serif" font-size="10.00">_class_name.hpp</text>
</a>
</g>
</g>
<!-- Node1&#45;&gt;Node2 -->
<g id="edge1" class="edge">
<title>Node1&#45;&gt;Node2</title>
<path fill="none" stroke="midnightblue" d="M670.85,-559.03C578.58,-546.06 421.88,-516.65 300.5,-456 265.17,-438.35 248.48,-435.66 231.5,-400 222.89,-381.93 226.17,-359.09 230.87,-342.19"/>
<polygon fill="midnightblue" stroke="midnightblue" points="234.24,-343.11 233.88,-332.53 227.56,-341.03 234.24,-343.11"/>
</g>
<!-- Node5 -->
<g id="node5" class="node">
<title>Node5</title>
<g id="a_node5"><a xlink:href="exceptions_8hpp.html" target="_top" xlink:title=" ">
<polygon fill="white" stroke="black" points="0,-492.5 0,-511.5 123,-511.5 123,-492.5 0,-492.5"/>
<text text-anchor="middle" x="61.5" y="-499.5" font-family="Helvetica,sans-Serif" font-size="10.00">shpxx/exceptions.hpp</text>
</a>
</g>
</g>
<!-- Node1&#45;&gt;Node5 -->
<g id="edge4" class="edge">
<title>Node1&#45;&gt;Node5</title>
<path fill="none" stroke="midnightblue" d="M670.79,-561.54C554.66,-551.74 328.98,-532.11 137.5,-512 136.2,-511.86 134.89,-511.72 133.56,-511.58"/>
<polygon fill="midnightblue" stroke="midnightblue" points="133.61,-508.07 123.29,-510.46 132.85,-515.02 133.61,-508.07"/>
</g>
<!-- Node6 -->
<g id="node6" class="node">
<title>Node6</title>
<g id="a_node6"><a xlink:title=" ">
<polygon fill="white" stroke="#bfbfbf" points="62,-436.5 62,-455.5 127,-455.5 127,-436.5 62,-436.5"/>
<text text-anchor="middle" x="94.5" y="-443.5" font-family="Helvetica,sans-Serif" font-size="10.00">stdexcept</text>
</a>
</g>
</g>
<!-- Node1&#45;&gt;Node6 -->
<g id="edge55" class="edge">
<title>Node1&#45;&gt;Node6</title>
<path fill="none" stroke="midnightblue" d="M670.88,-565.88C535.76,-561.28 263.32,-547.78 175.5,-512 148.77,-501.11 123.79,-478.42 108.83,-462.95"/>
<polygon fill="midnightblue" stroke="midnightblue" points="111.35,-460.52 101.96,-455.62 106.25,-465.31 111.35,-460.52"/>
</g>
<!-- Node7 -->
<g id="node7" class="node">
<title>Node7</title>
<g id="a_node7"><a xlink:href="shape__type_8hpp.html" target="_top" xlink:title=" ">
<polygon fill="white" stroke="black" points="529.5,-308 529.5,-327 655.5,-327 655.5,-308 529.5,-308"/>
<text text-anchor="middle" x="592.5" y="-315" font-family="Helvetica,sans-Serif" font-size="10.00">shpxx/shape_type.hpp</text>
</a>
</g>
</g>
<!-- Node1&#45;&gt;Node7 -->
<g id="edge6" class="edge">
<title>Node1&#45;&gt;Node7</title>
<path fill="none" stroke="midnightblue" d="M687.22,-548.42C625.87,-524.74 537.01,-478.02 511.5,-400 507.22,-386.9 504.81,-381.05 511.5,-369 521.27,-351.39 540.01,-339.13 557.01,-331.09"/>
<polygon fill="midnightblue" stroke="midnightblue" points="558.45,-334.28 566.2,-327.06 555.64,-327.87 558.45,-334.28"/>
</g>
<!-- Node8 -->
<g id="node8" class="node">
<title>Node8</title>
<g id="a_node8"><a xlink:href="shp__handle_8hpp.html" target="_top" xlink:title=" ">
<polygon fill="white" stroke="black" points="893,-308 893,-327 1018,-327 1018,-308 893,-308"/>
<text text-anchor="middle" x="955.5" y="-315" font-family="Helvetica,sans-Serif" font-size="10.00">shpxx/shp_handle.hpp</text>
</a>
</g>
</g>
<!-- Node1&#45;&gt;Node8 -->
<g id="edge8" class="edge">
<title>Node1&#45;&gt;Node8</title>
<path fill="none" stroke="midnightblue" d="M826.43,-558.12C934.11,-542.67 1119.66,-508.97 1159.5,-456 1176.25,-433.73 1166.64,-396.19 1138.5,-369 1109.25,-340.74 1065.68,-327.99 1028.39,-322.37"/>
<polygon fill="midnightblue" stroke="midnightblue" points="1028.44,-318.84 1018.06,-320.96 1027.49,-325.78 1028.44,-318.84"/>
</g>
<!-- Node10 -->
<g id="node10" class="node">
<title>Node10</title>
<g id="a_node10"><a xlink:href="shpfile_8hpp.html" target="_top" xlink:title=" ">
<polygon fill="white" stroke="black" points="697.5,-492.5 697.5,-511.5 799.5,-511.5 799.5,-492.5 697.5,-492.5"/>
<text text-anchor="middle" x="748.5" y="-499.5" font-family="Helvetica,sans-Serif" font-size="10.00">shpxx/shpfile.hpp</text>
</a>
</g>
</g>
<!-- Node1&#45;&gt;Node10 -->
<g id="edge10" class="edge">
<title>Node1&#45;&gt;Node10</title>
<path fill="none" stroke="midnightblue" d="M742.25,-548.5C741.56,-539.97 741.58,-530.01 742.33,-521.59"/>
<polygon fill="midnightblue" stroke="midnightblue" points="745.8,-522.04 743.74,-511.65 738.87,-521.06 745.8,-522.04"/>
</g>
<!-- Node25 -->
<g id="node25" class="node">
<title>Node25</title>
<g id="a_node25"><a xlink:title=" ">
<polygon fill="white" stroke="#bfbfbf" points="1094.5,-436.5 1094.5,-455.5 1150.5,-455.5 1150.5,-436.5 1094.5,-436.5"/>
<text text-anchor="middle" x="1122.5" y="-443.5" font-family="Helvetica,sans-Serif" font-size="10.00">optional</text>
</a>
</g>
</g>
<!-- Node1&#45;&gt;Node25 -->
<g id="edge54" class="edge">
<title>Node1&#45;&gt;Node25</title>
<path fill="none" stroke="midnightblue" d="M809.01,-548.42C887.5,-523.03 1021.98,-479.52 1086.24,-458.73"/>
<polygon fill="midnightblue" stroke="midnightblue" points="1087.49,-462 1095.93,-455.6 1085.34,-455.34 1087.49,-462"/>
</g>
<!-- Node26 -->
<g id="node26" class="node">
<title>Node26</title>
<g id="a_node26"><a xlink:title=" ">
<polygon fill="white" stroke="#bfbfbf" points="1207,-492.5 1207,-511.5 1260,-511.5 1260,-492.5 1207,-492.5"/>
<text text-anchor="middle" x="1233.5" y="-499.5" font-family="Helvetica,sans-Serif" font-size="10.00">cstddef</text>
</a>
</g>
</g>
<!-- Node1&#45;&gt;Node26 -->
<g id="edge52" class="edge">
<title>Node1&#45;&gt;Node26</title>
<path fill="none" stroke="midnightblue" d="M826.22,-560.35C915.1,-551.11 1064.83,-534.02 1192.5,-512 1193.79,-511.78 1195.11,-511.54 1196.43,-511.29"/>
<polygon fill="midnightblue" stroke="midnightblue" points="1197.54,-514.64 1206.66,-509.26 1196.17,-507.78 1197.54,-514.64"/>
</g>
<!-- Node27 -->
<g id="node27" class="node">
<title>Node27</title>
<g id="a_node27"><a xlink:title=" ">
<polygon fill="white" stroke="#bfbfbf" points="1278.5,-492.5 1278.5,-511.5 1322.5,-511.5 1322.5,-492.5 1278.5,-492.5"/>
<text text-anchor="middle" x="1300.5" y="-499.5" font-family="Helvetica,sans-Serif" font-size="10.00">limits</text>
</a>
</g>
</g>
<!-- Node1&#45;&gt;Node27 -->
<g id="edge53" class="edge">
<title>Node1&#45;&gt;Node27</title>
<path fill="none" stroke="midnightblue" d="M826.38,-563.9C926.69,-557.67 1106.42,-543.29 1268.13,-511.95"/>
<polygon fill="midnightblue" stroke="midnightblue" points="1269.13,-515.32 1278.26,-509.96 1267.78,-508.46 1269.13,-515.32"/>
</g>
<!-- Node3 -->
<g id="node3" class="node">
<title>Node3</title>
<g id="a_node3"><a xlink:title=" ">
<polygon fill="white" stroke="#bfbfbf" points="471.5,-56.5 471.5,-75.5 531.5,-75.5 531.5,-56.5 471.5,-56.5"/>
<text text-anchor="middle" x="501.5" y="-63.5" font-family="Helvetica,sans-Serif" font-size="10.00">concepts</text>
</a>
</g>
</g>
<!-- Node2&#45;&gt;Node3 -->
<g id="edge2" class="edge">
<title>Node2&#45;&gt;Node3</title>
<path fill="none" stroke="midnightblue" d="M243.39,-302.44C254.34,-265.46 288.98,-164.74 354.5,-112 385.13,-87.34 429.2,-76.16 461.09,-71.11"/>
<polygon fill="midnightblue" stroke="midnightblue" points="462,-74.52 471.4,-69.62 461,-67.59 462,-74.52"/>
</g>
<!-- Node4 -->
<g id="node4" class="node">
<title>Node4</title>
<g id="a_node4"><a xlink:title=" ">
<polygon fill="white" stroke="#bfbfbf" points="418.5,-241 418.5,-260 462.5,-260 462.5,-241 418.5,-241"/>
<text text-anchor="middle" x="440.5" y="-248" font-family="Helvetica,sans-Serif" font-size="10.00">string</text>
</a>
</g>
</g>
<!-- Node2&#45;&gt;Node4 -->
<g id="edge3" class="edge">
<title>Node2&#45;&gt;Node4</title>
<path fill="none" stroke="midnightblue" d="M283.11,-302.4C320.89,-290.18 374.65,-272.8 408.54,-261.83"/>
<polygon fill="midnightblue" stroke="midnightblue" points="409.94,-265.06 418.38,-258.65 407.79,-258.4 409.94,-265.06"/>
</g>
<!-- Node5&#45;&gt;Node6 -->
<g id="edge5" class="edge">
<title>Node5&#45;&gt;Node6</title>
<path fill="none" stroke="midnightblue" d="M66.95,-492.08C71.51,-484.61 78.17,-473.72 83.79,-464.52"/>
<polygon fill="midnightblue" stroke="midnightblue" points="86.92,-466.11 89.15,-455.75 80.95,-462.46 86.92,-466.11"/>
</g>
<!-- Node7&#45;&gt;Node4 -->
<g id="edge7" class="edge">
<title>Node7&#45;&gt;Node4</title>
<path fill="none" stroke="midnightblue" d="M572.32,-307.87C546.2,-296.7 500.47,-277.15 470.34,-264.26"/>
<polygon fill="midnightblue" stroke="midnightblue" points="471.34,-260.88 460.77,-260.17 468.59,-267.32 471.34,-260.88"/>
</g>
<!-- Node9 -->
<g id="node9" class="node">
<title>Node9</title>
<g id="a_node9"><a xlink:title=" ">
<polygon fill="white" stroke="#bfbfbf" points="926.5,-241 926.5,-260 984.5,-260 984.5,-241 926.5,-241"/>
<text text-anchor="middle" x="955.5" y="-248" font-family="Helvetica,sans-Serif" font-size="10.00">memory</text>
</a>
</g>
</g>
<!-- Node8&#45;&gt;Node9 -->
<g id="edge9" class="edge">
<title>Node8&#45;&gt;Node9</title>
<path fill="none" stroke="midnightblue" d="M955.5,-307.73C955.5,-298.18 955.5,-282.62 955.5,-270.28"/>
<polygon fill="midnightblue" stroke="midnightblue" points="959,-270.13 955.5,-260.13 952,-270.13 959,-270.13"/>
</g>
<!-- Node10&#45;&gt;Node1 -->
<g id="edge51" class="edge">
<title>Node10&#45;&gt;Node1</title>
<path fill="none" stroke="midnightblue" d="M753.26,-511.65C754.73,-518.52 755.38,-528.56 755.23,-538.26"/>
<polygon fill="midnightblue" stroke="midnightblue" points="751.72,-538.34 754.75,-548.5 758.71,-538.67 751.72,-538.34"/>
</g>
<!-- Node10&#45;&gt;Node2 -->
<g id="edge11" class="edge">
<title>Node10&#45;&gt;Node2</title>
<path fill="none" stroke="midnightblue" d="M697.15,-498.67C580.77,-492.2 302.68,-469.61 246.5,-400 233.66,-384.09 233.05,-360.31 234.97,-342.53"/>
<polygon fill="midnightblue" stroke="midnightblue" points="238.44,-343.01 236.36,-332.62 231.51,-342.03 238.44,-343.01"/>
</g>
<!-- Node10&#45;&gt;Node7 -->
<g id="edge47" class="edge">
<title>Node10&#45;&gt;Node7</title>
<path fill="none" stroke="midnightblue" d="M697.05,-494.32C642.86,-484.24 560.15,-459.5 521.5,-400 513.99,-388.45 515.18,-381.24 521.5,-369 530.06,-352.41 546.86,-340.08 561.97,-331.76"/>
<polygon fill="midnightblue" stroke="midnightblue" points="563.77,-334.77 571.07,-327.09 560.58,-328.54 563.77,-334.77"/>
</g>
<!-- Node10&#45;&gt;Node8 -->
<g id="edge48" class="edge">
<title>Node10&#45;&gt;Node8</title>
<path fill="none" stroke="midnightblue" d="M791.31,-492.44C884.92,-473.3 1101.11,-426.64 1121.5,-400 1129.87,-389.06 1129.7,-380.07 1121.5,-369 1114.15,-359.08 1048.11,-341.15 1001.59,-329.54"/>
<polygon fill="midnightblue" stroke="midnightblue" points="1002.24,-326.1 991.69,-327.09 1000.56,-332.89 1002.24,-326.1"/>
</g>
<!-- Node11 -->
<g id="node11" class="node">
<title>Node11</title>
<g id="a_node11"><a xlink:href="has__compatibility__check_8hpp.html" target="_top" xlink:title=" ">
<polygon fill="white" stroke="black" points="256,-369.5 256,-399.5 397,-399.5 397,-369.5 256,-369.5"/>
<text text-anchor="start" x="264" y="-387.5" font-family="Helvetica,sans-Serif" font-size="10.00">shpxx/concepts/has</text>
<text text-anchor="middle" x="326.5" y="-376.5" font-family="Helvetica,sans-Serif" font-size="10.00">_compatibility_check.hpp</text>
</a>
</g>
</g>
<!-- Node10&#45;&gt;Node11 -->
<g id="edge12" class="edge">
<title>Node10&#45;&gt;Node11</title>
<path fill="none" stroke="midnightblue" d="M697.14,-495.86C643.88,-489.68 558.62,-477.36 487.5,-456 442.81,-442.58 394.07,-420.04 362.06,-404.06"/>
<polygon fill="midnightblue" stroke="midnightblue" points="363.59,-400.92 353.09,-399.54 360.44,-407.17 363.59,-400.92"/>
</g>
<!-- Node12 -->
<g id="node12" class="node">
<title>Node12</title>
<g id="a_node12"><a xlink:href="is__feature_8hpp.html" target="_top" xlink:title=" ">
<polygon fill="white" stroke="black" points="729,-436.5 729,-455.5 894,-455.5 894,-436.5 729,-436.5"/>
<text text-anchor="middle" x="811.5" y="-443.5" font-family="Helvetica,sans-Serif" font-size="10.00">shpxx/concepts/is_feature.hpp</text>
</a>
</g>
</g>
<!-- Node10&#45;&gt;Node12 -->
<g id="edge15" class="edge">
<title>Node10&#45;&gt;Node12</title>
<path fill="none" stroke="midnightblue" d="M758.62,-492.32C768.03,-484.26 782.24,-472.08 793.57,-462.37"/>
<polygon fill="midnightblue" stroke="midnightblue" points="795.88,-465 801.19,-455.83 791.32,-459.68 795.88,-465"/>
</g>
<!-- Node18 -->
<g id="node18" class="node">
<title>Node18</title>
<g id="a_node18"><a xlink:href="coordinate_8hpp.html" target="_top" xlink:title=" ">
<polygon fill="white" stroke="black" points="1250.5,-56.5 1250.5,-75.5 1372.5,-75.5 1372.5,-56.5 1250.5,-56.5"/>
<text text-anchor="middle" x="1311.5" y="-63.5" font-family="Helvetica,sans-Serif" font-size="10.00">shpxx/coordinate.hpp</text>
</a>
</g>
</g>
<!-- Node10&#45;&gt;Node18 -->
<g id="edge46" class="edge">
<title>Node10&#45;&gt;Node18</title>
<path fill="none" stroke="midnightblue" d="M799.63,-493.25C851.84,-485.06 935.13,-471.24 1006.5,-456 1041.92,-448.44 1049.94,-442.9 1085.5,-436 1143.62,-424.72 1305.72,-439.86 1349.5,-400 1377,-374.96 1368.5,-355.69 1368.5,-318.5 1368.5,-318.5 1368.5,-318.5 1368.5,-182.5 1368.5,-143.78 1342.43,-104.6 1325.55,-83.3"/>
<polygon fill="midnightblue" stroke="midnightblue" points="1328.24,-81.06 1319.19,-75.56 1322.83,-85.51 1328.24,-81.06"/>
</g>
<!-- Node24 -->
<g id="node24" class="node">
<title>Node24</title>
<g id="a_node24"><a xlink:title=" ">
<polygon fill="white" stroke="#bfbfbf" points="660.5,-436.5 660.5,-455.5 710.5,-455.5 710.5,-436.5 660.5,-436.5"/>
<text text-anchor="middle" x="685.5" y="-443.5" font-family="Helvetica,sans-Serif" font-size="10.00">cstdint</text>
</a>
</g>
</g>
<!-- Node10&#45;&gt;Node24 -->
<g id="edge49" class="edge">
<title>Node10&#45;&gt;Node24</title>
<path fill="none" stroke="midnightblue" d="M738.38,-492.32C728.97,-484.26 714.76,-472.08 703.43,-462.37"/>
<polygon fill="midnightblue" stroke="midnightblue" points="705.68,-459.68 695.81,-455.83 701.12,-465 705.68,-459.68"/>
</g>
<!-- Node10&#45;&gt;Node25 -->
<g id="edge50" class="edge">
<title>Node10&#45;&gt;Node25</title>
<path fill="none" stroke="midnightblue" d="M799.59,-495.3C864.94,-487.73 981.52,-473.29 1080.5,-456 1081.74,-455.78 1083,-455.56 1084.27,-455.32"/>
<polygon fill="midnightblue" stroke="midnightblue" points="1084.95,-458.75 1094.09,-453.39 1083.6,-451.88 1084.95,-458.75"/>
</g>
<!-- Node11&#45;&gt;Node3 -->
<g id="edge14" class="edge">
<title>Node11&#45;&gt;Node3</title>
<path fill="none" stroke="midnightblue" d="M334.2,-369.32C346.33,-345.64 368.5,-296.23 368.5,-251.5 368.5,-251.5 368.5,-251.5 368.5,-182.5 368.5,-130.2 427.85,-96.24 467.25,-79.45"/>
<polygon fill="midnightblue" stroke="midnightblue" points="468.86,-82.57 476.8,-75.55 466.21,-76.09 468.86,-82.57"/>
</g>
<!-- Node11&#45;&gt;Node7 -->
<g id="edge13" class="edge">
<title>Node11&#45;&gt;Node7</title>
<path fill="none" stroke="midnightblue" d="M383.89,-369.48C433.02,-357.47 502.76,-340.43 547.82,-329.42"/>
<polygon fill="midnightblue" stroke="midnightblue" points="548.71,-332.8 557.6,-327.03 547.05,-326 548.71,-332.8"/>
</g>
<!-- Node12&#45;&gt;Node3 -->
<g id="edge45" class="edge">
<title>Node12&#45;&gt;Node3</title>
<path fill="none" stroke="midnightblue" d="M728.69,-436.85C648.45,-428.22 536.69,-413.92 521.5,-400 494.01,-374.79 501.5,-355.8 501.5,-318.5 501.5,-318.5 501.5,-318.5 501.5,-182.5 501.5,-148.36 501.5,-108.55 501.5,-85.71"/>
<polygon fill="midnightblue" stroke="midnightblue" points="505,-85.69 501.5,-75.69 498,-85.69 505,-85.69"/>
</g>
<!-- Node13 -->
<g id="node13" class="node">
<title>Node13</title>
<g id="a_node13"><a xlink:href="linestring_8hpp.html" target="_top" xlink:title=" ">
<polygon fill="white" stroke="black" points="826.5,-375 826.5,-394 980.5,-394 980.5,-375 826.5,-375"/>
<text text-anchor="middle" x="903.5" y="-382" font-family="Helvetica,sans-Serif" font-size="10.00">shpxx/feature/linestring.hpp</text>
</a>
</g>
</g>
<!-- Node12&#45;&gt;Node13 -->
<g id="edge16" class="edge">
<title>Node12&#45;&gt;Node13</title>
<path fill="none" stroke="midnightblue" d="M824.68,-436.48C839.57,-426.84 864.04,-411.02 881.77,-399.55"/>
<polygon fill="midnightblue" stroke="midnightblue" points="883.85,-402.38 890.34,-394.01 880.05,-396.5 883.85,-402.38"/>
</g>
<!-- Node14 -->
<g id="node14" class="node">
<title>Node14</title>
<g id="a_node14"><a xlink:href="multi__patch_8hpp.html" target="_top" xlink:title=" ">
<polygon fill="white" stroke="black" points="999,-369.5 999,-399.5 1112,-399.5 1112,-369.5 999,-369.5"/>
<text text-anchor="start" x="1007" y="-387.5" font-family="Helvetica,sans-Serif" font-size="10.00">shpxx/feature/multi</text>
<text text-anchor="middle" x="1055.5" y="-376.5" font-family="Helvetica,sans-Serif" font-size="10.00">_patch.hpp</text>
</a>
</g>
</g>
<!-- Node12&#45;&gt;Node14 -->
<g id="edge19" class="edge">
<title>Node12&#45;&gt;Node14</title>
<path fill="none" stroke="midnightblue" d="M846.46,-436.48C883.53,-427.43 942.99,-412.94 989.03,-401.71"/>
<polygon fill="midnightblue" stroke="midnightblue" points="990.05,-405.06 998.93,-399.29 988.39,-398.26 990.05,-405.06"/>
</g>
<!-- Node15 -->
<g id="node15" class="node">
<title>Node15</title>
<g id="a_node15"><a xlink:href="multi__point_8hpp.html" target="_top" xlink:title=" ">
<polygon fill="white" stroke="black" points="530,-369.5 530,-399.5 643,-399.5 643,-369.5 530,-369.5"/>
<text text-anchor="start" x="538" y="-387.5" font-family="Helvetica,sans-Serif" font-size="10.00">shpxx/feature/multi</text>
<text text-anchor="middle" x="586.5" y="-376.5" font-family="Helvetica,sans-Serif" font-size="10.00">_point.hpp</text>
</a>
</g>
</g>
<!-- Node12&#45;&gt;Node15 -->
<g id="edge22" class="edge">
<title>Node12&#45;&gt;Node15</title>
<path fill="none" stroke="midnightblue" d="M779.26,-436.48C745.51,-427.55 691.66,-413.31 649.44,-402.14"/>
<polygon fill="midnightblue" stroke="midnightblue" points="650.09,-398.7 639.53,-399.52 648.3,-405.46 650.09,-398.7"/>
</g>
<!-- Node16 -->
<g id="node16" class="node">
<title>Node16</title>
<g id="a_node16"><a xlink:href="point_8hpp.html" target="_top" xlink:title=" ">
<polygon fill="white" stroke="black" points="1207,-375 1207,-394 1340,-394 1340,-375 1207,-375"/>
<text text-anchor="middle" x="1273.5" y="-382" font-family="Helvetica,sans-Serif" font-size="10.00">shpxx/feature/point.hpp</text>
</a>
</g>
</g>
<!-- Node12&#45;&gt;Node16 -->
<g id="edge25" class="edge">
<title>Node12&#45;&gt;Node16</title>
<path fill="none" stroke="midnightblue" d="M877.69,-436.48C962.26,-425.58 1108.32,-406.77 1197.39,-395.3"/>
<polygon fill="midnightblue" stroke="midnightblue" points="1197.96,-398.76 1207.43,-394.01 1197.06,-391.82 1197.96,-398.76"/>
</g>
<!-- Node23 -->
<g id="node23" class="node">
<title>Node23</title>
<g id="a_node23"><a xlink:href="polygon_8hpp.html" target="_top" xlink:title=" ">
<polygon fill="white" stroke="black" points="661,-375 661,-394 808,-394 808,-375 661,-375"/>
<text text-anchor="middle" x="734.5" y="-382" font-family="Helvetica,sans-Serif" font-size="10.00">shpxx/feature/polygon.hpp</text>
</a>
</g>
</g>
<!-- Node12&#45;&gt;Node23 -->
<g id="edge42" class="edge">
<title>Node12&#45;&gt;Node23</title>
<path fill="none" stroke="midnightblue" d="M800.47,-436.48C788.23,-427.02 768.27,-411.6 753.51,-400.19"/>
<polygon fill="midnightblue" stroke="midnightblue" points="755.56,-397.35 745.51,-394.01 751.28,-402.89 755.56,-397.35"/>
</g>
<!-- Node13&#45;&gt;Node7 -->
<g id="edge17" class="edge">
<title>Node13&#45;&gt;Node7</title>
<path fill="none" stroke="midnightblue" d="M862.52,-374.94C806.12,-363.15 704.61,-341.93 643.4,-329.14"/>
<polygon fill="midnightblue" stroke="midnightblue" points="644.07,-325.7 633.57,-327.08 642.64,-332.56 644.07,-325.7"/>
</g>
<!-- Node13&#45;&gt;Node8 -->
<g id="edge18" class="edge">
<title>Node13&#45;&gt;Node8</title>
<path fill="none" stroke="midnightblue" d="M910.51,-374.73C918.62,-364.6 932.15,-347.69 942.26,-335.06"/>
<polygon fill="midnightblue" stroke="midnightblue" points="945.08,-337.12 948.6,-327.13 939.62,-332.75 945.08,-337.12"/>
</g>
<!-- Node14&#45;&gt;Node7 -->
<g id="edge20" class="edge">
<title>Node14&#45;&gt;Node7</title>
<path fill="none" stroke="midnightblue" d="M998.68,-370.68C995.58,-370.08 992.51,-369.52 989.5,-369 877.07,-349.54 745.51,-334.26 665.63,-325.81"/>
<polygon fill="midnightblue" stroke="midnightblue" points="665.99,-322.33 655.67,-324.77 665.25,-329.29 665.99,-322.33"/>
</g>
<!-- Node14&#45;&gt;Node8 -->
<g id="edge21" class="edge">
<title>Node14&#45;&gt;Node8</title>
<path fill="none" stroke="midnightblue" d="M1033.8,-369.4C1017.03,-358.5 993.93,-343.48 977.17,-332.58"/>
<polygon fill="midnightblue" stroke="midnightblue" points="978.88,-329.52 968.59,-327.01 975.06,-335.39 978.88,-329.52"/>
</g>
<!-- Node15&#45;&gt;Node7 -->
<g id="edge23" class="edge">
<title>Node15&#45;&gt;Node7</title>
<path fill="none" stroke="midnightblue" d="M587.8,-369.4C588.67,-359.96 589.83,-347.45 590.77,-337.19"/>
<polygon fill="midnightblue" stroke="midnightblue" points="594.26,-337.47 591.7,-327.19 587.29,-336.83 594.26,-337.47"/>
</g>
<!-- Node15&#45;&gt;Node8 -->
<g id="edge24" class="edge">
<title>Node15&#45;&gt;Node8</title>
<path fill="none" stroke="midnightblue" d="M643.34,-370.82C646.44,-370.19 649.51,-369.58 652.5,-369 733.6,-353.34 827.47,-338.15 888.98,-328.59"/>
<polygon fill="midnightblue" stroke="midnightblue" points="889.6,-332.03 898.94,-327.04 888.52,-325.11 889.6,-332.03"/>
</g>
<!-- Node16&#45;&gt;Node7 -->
<g id="edge40" class="edge">
<title>Node16&#45;&gt;Node7</title>
<path fill="none" stroke="midnightblue" d="M1206.96,-377.15C1078.94,-364.93 799.21,-338.23 665.94,-325.51"/>
<polygon fill="midnightblue" stroke="midnightblue" points="666.11,-322.01 655.83,-324.54 665.45,-328.98 666.11,-322.01"/>
</g>
<!-- Node16&#45;&gt;Node8 -->
<g id="edge41" class="edge">
<title>Node16&#45;&gt;Node8</title>
<path fill="none" stroke="midnightblue" d="M1231.6,-374.94C1173.85,-363.13 1069.84,-341.87 1007.29,-329.09"/>
<polygon fill="midnightblue" stroke="midnightblue" points="1007.74,-325.61 997.24,-327.03 1006.34,-332.46 1007.74,-325.61"/>
</g>
<!-- Node17 -->
<g id="node17" class="node">
<title>Node17</title>
<g id="a_node17"><a xlink:href="is__coordinate_8hpp.html" target="_top" xlink:title=" ">
<polygon fill="white" stroke="black" points="994.5,-112.5 994.5,-131.5 1176.5,-131.5 1176.5,-112.5 994.5,-112.5"/>
<text text-anchor="middle" x="1085.5" y="-119.5" font-family="Helvetica,sans-Serif" font-size="10.00">shpxx/concepts/is_coordinate.hpp</text>
</a>
</g>
</g>
<!-- Node16&#45;&gt;Node17 -->
<g id="edge26" class="edge">
<title>Node16&#45;&gt;Node17</title>
<path fill="none" stroke="midnightblue" d="M1235.79,-374.92C1197.17,-365.41 1140.71,-349.26 1125.5,-333 1075.08,-279.12 1078.85,-182.25 1083.05,-141.67"/>
<polygon fill="midnightblue" stroke="midnightblue" points="1086.54,-141.94 1084.23,-131.6 1079.59,-141.13 1086.54,-141.94"/>
</g>
<!-- Node16&#45;&gt;Node18 -->
<g id="edge30" class="edge">
<title>Node16&#45;&gt;Node18</title>
<path fill="none" stroke="midnightblue" d="M1280.26,-374.79C1295.36,-354.43 1330.5,-301.67 1330.5,-251.5 1330.5,-251.5 1330.5,-251.5 1330.5,-182.5 1330.5,-147.9 1322.1,-108.24 1316.47,-85.55"/>
<polygon fill="midnightblue" stroke="midnightblue" points="1319.79,-84.42 1313.91,-75.61 1313.01,-86.17 1319.79,-84.42"/>
</g>
<!-- Node20 -->
<g id="node20" class="node">
<title>Node20</title>
<g id="a_node20"><a xlink:href="coordinate__cast_8hpp.html" target="_top" xlink:title=" ">
<polygon fill="white" stroke="black" points="1134,-308 1134,-327 1281,-327 1281,-308 1134,-308"/>
<text text-anchor="middle" x="1207.5" y="-315" font-family="Helvetica,sans-Serif" font-size="10.00">shpxx/coordinate_cast.hpp</text>
</a>
</g>
</g>
<!-- Node16&#45;&gt;Node20 -->
<g id="edge31" class="edge">
<title>Node16&#45;&gt;Node20</title>
<path fill="none" stroke="midnightblue" d="M1264.6,-374.73C1254.11,-364.4 1236.48,-347.04 1223.58,-334.33"/>
<polygon fill="midnightblue" stroke="midnightblue" points="1225.84,-331.65 1216.26,-327.13 1220.93,-336.64 1225.84,-331.65"/>
</g>
<!-- Node17&#45;&gt;Node3 -->
<g id="edge29" class="edge">
<title>Node17&#45;&gt;Node3</title>
<path fill="none" stroke="midnightblue" d="M994.25,-112.56C865.13,-100.62 634.51,-79.3 541.76,-70.72"/>
<polygon fill="midnightblue" stroke="midnightblue" points="541.95,-67.23 531.67,-69.79 541.3,-74.2 541.95,-67.23"/>
</g>
<!-- Node17&#45;&gt;Node18 -->
<g id="edge27" class="edge">
<title>Node17&#45;&gt;Node18</title>
<path fill="none" stroke="midnightblue" d="M1121.31,-112.44C1160.49,-103.08 1223.38,-88.06 1266.02,-77.87"/>
<polygon fill="midnightblue" stroke="midnightblue" points="1266.94,-81.24 1275.86,-75.52 1265.32,-74.44 1266.94,-81.24"/>
</g>
<!-- Node19 -->
<g id="node19" class="node">
<title>Node19</title>
<g id="a_node19"><a xlink:title=" ">
<polygon fill="white" stroke="#bfbfbf" points="1288,-0.5 1288,-19.5 1335,-19.5 1335,-0.5 1288,-0.5"/>
<text text-anchor="middle" x="1311.5" y="-7.5" font-family="Helvetica,sans-Serif" font-size="10.00">cmath</text>
</a>
</g>
</g>
<!-- Node18&#45;&gt;Node19 -->
<g id="edge28" class="edge">
<title>Node18&#45;&gt;Node19</title>
<path fill="none" stroke="midnightblue" d="M1311.5,-56.08C1311.5,-49.01 1311.5,-38.86 1311.5,-29.99"/>
<polygon fill="midnightblue" stroke="midnightblue" points="1315,-29.75 1311.5,-19.75 1308,-29.75 1315,-29.75"/>
</g>
<!-- Node20&#45;&gt;Node17 -->
<g id="edge32" class="edge">
<title>Node20&#45;&gt;Node17</title>
<path fill="none" stroke="midnightblue" d="M1189.39,-307.93C1173.16,-299.4 1149.78,-284.87 1135.5,-266 1106.36,-227.49 1093.3,-170.65 1088.24,-141.59"/>
<polygon fill="midnightblue" stroke="midnightblue" points="1091.68,-140.91 1086.63,-131.6 1084.77,-142.03 1091.68,-140.91"/>
</g>
<!-- Node21 -->
<g id="node21" class="node">
<title>Node21</title>
<g id="a_node21"><a xlink:href="coordinate__cast__impl_8hpp.html" target="_top" xlink:title=" ">
<polygon fill="white" stroke="black" points="1144.5,-235.5 1144.5,-265.5 1270.5,-265.5 1270.5,-235.5 1144.5,-235.5"/>
<text text-anchor="start" x="1152.5" y="-253.5" font-family="Helvetica,sans-Serif" font-size="10.00">shpxx/coordinate_cast</text>
<text text-anchor="middle" x="1207.5" y="-242.5" font-family="Helvetica,sans-Serif" font-size="10.00">_impl.hpp</text>
</a>
</g>
</g>
<!-- Node20&#45;&gt;Node21 -->
<g id="edge33" class="edge">
<title>Node20&#45;&gt;Node21</title>
<path fill="none" stroke="midnightblue" d="M1202.71,-307.73C1200.99,-299.54 1200.4,-286.92 1200.95,-275.71"/>
<polygon fill="midnightblue" stroke="midnightblue" points="1204.45,-275.85 1201.82,-265.59 1197.48,-275.25 1204.45,-275.85"/>
</g>
<!-- Node21&#45;&gt;Node17 -->
<g id="edge37" class="edge">
<title>Node21&#45;&gt;Node17</title>
<path fill="none" stroke="midnightblue" d="M1186.43,-235.33C1173.1,-225.85 1155.92,-212.66 1142.5,-199 1124.33,-180.52 1106.99,-156.09 1096.3,-139.97"/>
<polygon fill="midnightblue" stroke="midnightblue" points="1099.21,-138.03 1090.83,-131.56 1093.35,-141.85 1099.21,-138.03"/>
</g>
<!-- Node21&#45;&gt;Node18 -->
<g id="edge38" class="edge">
<title>Node21&#45;&gt;Node18</title>
<path fill="none" stroke="midnightblue" d="M1233.02,-235.48C1246.85,-226.68 1263.17,-214.13 1273.5,-199 1297.62,-163.67 1306.59,-113.04 1309.81,-85.9"/>
<polygon fill="midnightblue" stroke="midnightblue" points="1313.3,-86.13 1310.86,-75.82 1306.34,-85.4 1313.3,-86.13"/>
</g>
<!-- Node21&#45;&gt;Node20 -->
<g id="edge39" class="edge">
<title>Node21&#45;&gt;Node20</title>
<path fill="none" stroke="midnightblue" d="M1213.18,-265.59C1214.41,-275 1214.58,-287.49 1213.68,-297.74"/>
<polygon fill="midnightblue" stroke="midnightblue" points="1210.2,-297.35 1212.29,-307.73 1217.14,-298.31 1210.2,-297.35"/>
</g>
<!-- Node22 -->
<g id="node22" class="node">
<title>Node22</title>
<g id="a_node22"><a xlink:href="has__zm_8hpp.html" target="_top" xlink:title=" ">
<polygon fill="white" stroke="black" points="1151,-168.5 1151,-198.5 1264,-198.5 1264,-168.5 1151,-168.5"/>
<text text-anchor="start" x="1159" y="-186.5" font-family="Helvetica,sans-Serif" font-size="10.00">shpxx/concepts/has</text>
<text text-anchor="middle" x="1207.5" y="-175.5" font-family="Helvetica,sans-Serif" font-size="10.00">_zm.hpp</text>
</a>
</g>
</g>
<!-- Node21&#45;&gt;Node22 -->
<g id="edge34" class="edge">
<title>Node21&#45;&gt;Node22</title>
<path fill="none" stroke="midnightblue" d="M1207.5,-235.4C1207.5,-227.64 1207.5,-217.81 1207.5,-208.86"/>
<polygon fill="midnightblue" stroke="midnightblue" points="1211,-208.58 1207.5,-198.58 1204,-208.58 1211,-208.58"/>
</g>
<!-- Node22&#45;&gt;Node3 -->
<g id="edge36" class="edge">
<title>Node22&#45;&gt;Node3</title>
<path fill="none" stroke="midnightblue" d="M1207.5,-168.25C1206.66,-151.84 1202.52,-125.4 1185.5,-112 1134.92,-72.18 681.25,-67.52 541.98,-67.04"/>
<polygon fill="midnightblue" stroke="midnightblue" points="541.75,-63.54 531.74,-67.01 541.73,-70.54 541.75,-63.54"/>
</g>
<!-- Node22&#45;&gt;Node17 -->
<g id="edge35" class="edge">
<title>Node22&#45;&gt;Node17</title>
<path fill="none" stroke="midnightblue" d="M1178.59,-168.4C1158.48,-158.59 1131.88,-145.62 1112.26,-136.05"/>
<polygon fill="midnightblue" stroke="midnightblue" points="1113.77,-132.9 1103.25,-131.66 1110.71,-139.19 1113.77,-132.9"/>
</g>
<!-- Node23&#45;&gt;Node7 -->
<g id="edge43" class="edge">
<title>Node23&#45;&gt;Node7</title>
<path fill="none" stroke="midnightblue" d="M715.64,-374.87C691.35,-363.75 648.9,-344.32 620.74,-331.43"/>
<polygon fill="midnightblue" stroke="midnightblue" points="621.98,-328.15 611.43,-327.17 619.07,-334.51 621.98,-328.15"/>
</g>
<!-- Node23&#45;&gt;Node8 -->
<g id="edge44" class="edge">
<title>Node23&#45;&gt;Node8</title>
<path fill="none" stroke="midnightblue" d="M763.85,-374.87C803.17,-363.3 873.05,-342.75 916.69,-329.91"/>
<polygon fill="midnightblue" stroke="midnightblue" points="917.78,-333.24 926.38,-327.06 915.8,-326.53 917.78,-333.24"/>
</g>
</g>
</svg>
        <g id="navigator" transform="translate(0 0)" fill="#404254">
                <rect fill="#f2f5e9" fill-opacity="0.5" stroke="#606060" stroke-width=".5" x="0" y="0" width="60" height="60"/>
                <use id="zoomplus" xlink:href="#zoomPlus" x="17" y="9" onmousedown="handleZoom(evt,'in')"/>
                <use id="zoomminus" xlink:href="#zoomMin" x="42" y="9" onmousedown="handleZoom(evt,'out')"/>
                <use id="reset" xlink:href="#resetDef" x="30" y="36" onmousedown="handleReset()"/>
                <g id="arrowUp" xlink:href="#dirArrow" transform="translate(30 24)" onmousedown="handlePan(0,-1)">
                  <use xlink:href="#rim" fill="#404040">
                        <set attributeName="fill" to="#808080" begin="arrowUp.mouseover" end="arrowUp.mouseout"/>
                  </use>
                  <path fill="none" stroke="white" stroke-width="1.5" d="M0,-3.0v7 M-2.5,-0.5L0,-3.0L2.5,-0.5"/>
                </g>
                <g id="arrowRight" xlink:href="#dirArrow" transform="rotate(90) translate(36 -43)" onmousedown="handlePan(1,0)">
                  <use xlink:href="#rim" fill="#404040">
                        <set attributeName="fill" to="#808080" begin="arrowRight.mouseover" end="arrowRight.mouseout"/>
                  </use>
                  <path fill="none" stroke="white" stroke-width="1.5" d="M0,-3.0v7 M-2.5,-0.5L0,-3.0L2.5,-0.5"/>
                </g>
                <g id="arrowDown" xlink:href="#dirArrow" transform="rotate(180) translate(-30 -48)" onmousedown="handlePan(0,1)">
                  <use xlink:href="#rim" fill="#404040">
                        <set attributeName="fill" to="#808080" begin="arrowDown.mouseover" end="arrowDown.mouseout"/>
                  </use>
                  <path fill="none" stroke="white" stroke-width="1.5" d="M0,-3.0v7 M-2.5,-0.5L0,-3.0L2.5,-0.5"/>
                </g>
                <g id="arrowLeft" xlink:href="#dirArrow" transform="rotate(270) translate(-36 17)" onmousedown="handlePan(-1,0)">
                  <use xlink:href="#rim" fill="#404040">
                        <set attributeName="fill" to="#808080" begin="arrowLeft.mouseover" end="arrowLeft.mouseout"/>
                  </use>
                  <path fill="none" stroke="white" stroke-width="1.5" d="M0,-3.0v7 M-2.5,-0.5L0,-3.0L2.5,-0.5"/>
                </g>
        </g>
        <svg viewBox="0 0 15 15" width="100%" height="30px" preserveAspectRatio="xMaxYMin meet">
         <g id="arrow_out" transform="scale(0.3 0.3)">
          <a xlink:href="shpfile__impl_8hpp__incl_org.svg" target="_base">
           <rect id="button" ry="5" rx="5" y="6" x="6" height="38" width="38"
                fill="#f2f5e9" fill-opacity="0.5" stroke="#606060" stroke-width="1.0"/>
           <path id="arrow"
             d="M 11.500037,31.436501 C 11.940474,20.09759 22.043105,11.32322 32.158766,21.979434 L 37.068811,17.246167 C 37.068811,17.246167 37.088388,32 37.088388,32 L 22.160133,31.978069 C 22.160133,31.978069 26.997745,27.140456 26.997745,27.140456 C 18.528582,18.264221 13.291696,25.230495 11.500037,31.436501 z"
             style="fill:#404040;"/>
          </a>
         </g>
        </svg>
</svg>
