<?xml version="1.0" encoding="UTF-8" standalone="no"?>
<!DOCTYPE svg PUBLIC "-//W3C//DTD SVG 1.1//EN"
 "http://www.w3.org/Graphics/SVG/1.1/DTD/svg11.dtd">
<!-- Generated by graphviz version 2.43.0 (0)
 -->
<!-- Title: /home/runner/work/shpxx/shpxx/src/shpfile.cpp Pages: 1 -->
<svg width="1747pt" height="587pt"
 viewBox="0.00 0.00 1747.00 587.00" xmlns="http://www.w3.org/2000/svg" xmlns:xlink="http://www.w3.org/1999/xlink">
<g id="graph0" class="graph" transform="scale(1 1) rotate(0) translate(4 583)">
<title>/home/runner/work/shpxx/shpxx/src/shpfile.cpp</title>
<polygon fill="white" stroke="transparent" points="-4,4 -4,-583 1743,-583 1743,4 -4,4"/>
<!-- Node1 -->
<g id="node1" class="node">
<title>Node1</title>
<g id="a_node1"><a xlink:title=" ">
<polygon fill="#bfbfbf" stroke="black" points="1088.5,-548.5 1088.5,-578.5 1229.5,-578.5 1229.5,-548.5 1088.5,-548.5"/>
<text text-anchor="start" x="1096.5" y="-566.5" font-family="Helvetica,sans-Serif" font-size="10.00">/home/runner/work/shpxx</text>
<text text-anchor="middle" x="1159" y="-555.5" font-family="Helvetica,sans-Serif" font-size="10.00">/shpxx/src/shpfile.cpp</text>
</a>
</g>
</g>
<!-- Node2 -->
<g id="node2" class="node">
<title>Node2</title>
<g id="a_node2"><a xlink:href="shpfile_8hpp.html" target="_top" xlink:title=" ">
<polygon fill="white" stroke="black" points="961,-492.5 961,-511.5 1063,-511.5 1063,-492.5 961,-492.5"/>
<text text-anchor="middle" x="1012" y="-499.5" font-family="Helvetica,sans-Serif" font-size="10.00">shpxx/shpfile.hpp</text>
</a>
</g>
</g>
<!-- Node1&#45;&gt;Node2 -->
<g id="edge1" class="edge">
<title>Node1&#45;&gt;Node2</title>
<path fill="none" stroke="midnightblue" d="M1124.16,-548.4C1099.5,-538.42 1066.71,-525.15 1042.97,-515.53"/>
<polygon fill="midnightblue" stroke="midnightblue" points="1043.97,-512.17 1033.39,-511.66 1041.35,-518.65 1043.97,-512.17"/>
</g>
<!-- Node10 -->
<g id="node10" class="node">
<title>Node10</title>
<g id="a_node10"><a xlink:href="shp__handle_8hpp.html" target="_top" xlink:title=" ">
<polygon fill="white" stroke="black" points="311.5,-308 311.5,-327 436.5,-327 436.5,-308 311.5,-308"/>
<text text-anchor="middle" x="374" y="-315" font-family="Helvetica,sans-Serif" font-size="10.00">shpxx/shp_handle.hpp</text>
</a>
</g>
</g>
<!-- Node1&#45;&gt;Node10 -->
<g id="edge60" class="edge">
<title>Node1&#45;&gt;Node10</title>
<path fill="none" stroke="midnightblue" d="M1088.27,-559.66C881.93,-550.67 291.64,-519.55 235,-456 224.03,-443.7 200.72,-418.68 236,-369 246.97,-353.55 291.67,-339.03 327.26,-329.56"/>
<polygon fill="midnightblue" stroke="midnightblue" points="328.22,-332.93 337.02,-327.03 326.47,-326.15 328.22,-332.93"/>
</g>
<!-- Node29 -->
<g id="node29" class="node">
<title>Node29</title>
<g id="a_node29"><a xlink:href="shp__casts_8hpp.html" target="_top" xlink:title=" ">
<polygon fill="white" stroke="black" points="1081,-492.5 1081,-511.5 1167,-511.5 1167,-492.5 1081,-492.5"/>
<text text-anchor="middle" x="1124" y="-499.5" font-family="Helvetica,sans-Serif" font-size="10.00">shp_casts.hpp</text>
</a>
</g>
</g>
<!-- Node1&#45;&gt;Node29 -->
<g id="edge57" class="edge">
<title>Node1&#45;&gt;Node29</title>
<path fill="none" stroke="midnightblue" d="M1150.71,-548.4C1145.78,-540.02 1139.49,-529.33 1134.25,-520.42"/>
<polygon fill="midnightblue" stroke="midnightblue" points="1137.18,-518.5 1129.09,-511.66 1131.15,-522.05 1137.18,-518.5"/>
</g>
<!-- Node30 -->
<g id="node30" class="node">
<title>Node30</title>
<g id="a_node30"><a xlink:title=" ">
<polygon fill="white" stroke="#bfbfbf" points="1675,-436.5 1675,-455.5 1739,-455.5 1739,-436.5 1675,-436.5"/>
<text text-anchor="middle" x="1707" y="-443.5" font-family="Helvetica,sans-Serif" font-size="10.00">shapefil.h</text>
</a>
</g>
</g>
<!-- Node1&#45;&gt;Node30 -->
<g id="edge61" class="edge">
<title>Node1&#45;&gt;Node30</title>
<path fill="none" stroke="midnightblue" d="M1165.59,-548.22C1174.14,-531.5 1190.77,-504.52 1214,-492 1301.73,-444.72 1562.28,-469.59 1661,-456 1662.27,-455.83 1663.56,-455.64 1664.86,-455.44"/>
<polygon fill="midnightblue" stroke="midnightblue" points="1665.62,-458.86 1674.91,-453.76 1664.47,-451.96 1665.62,-458.86"/>
</g>
<!-- Node31 -->
<g id="node31" class="node">
<title>Node31</title>
<g id="a_node31"><a xlink:title=" ">
<polygon fill="white" stroke="#bfbfbf" points="1223,-492.5 1223,-511.5 1265,-511.5 1265,-492.5 1223,-492.5"/>
<text text-anchor="middle" x="1244" y="-499.5" font-family="Helvetica,sans-Serif" font-size="10.00">array</text>
</a>
</g>
</g>
<!-- Node1&#45;&gt;Node31 -->
<g id="edge62" class="edge">
<title>Node1&#45;&gt;Node31</title>
<path fill="none" stroke="midnightblue" d="M1179.14,-548.4C1192.39,-539.13 1209.68,-527.03 1223.08,-517.65"/>
<polygon fill="midnightblue" stroke="midnightblue" points="1225.45,-520.26 1231.63,-511.66 1221.43,-514.53 1225.45,-520.26"/>
</g>
<!-- Node32 -->
<g id="node32" class="node">
<title>Node32</title>
<g id="a_node32"><a xlink:title=" ">
<polygon fill="white" stroke="#bfbfbf" points="1283,-492.5 1283,-511.5 1335,-511.5 1335,-492.5 1283,-492.5"/>
<text text-anchor="middle" x="1309" y="-499.5" font-family="Helvetica,sans-Serif" font-size="10.00">cassert</text>
</a>
</g>
</g>
<!-- Node1&#45;&gt;Node32 -->
<g id="edge63" class="edge">
<title>Node1&#45;&gt;Node32</title>
<path fill="none" stroke="midnightblue" d="M1194.55,-548.4C1219.83,-538.37 1253.47,-525.03 1277.73,-515.4"/>
<polygon fill="midnightblue" stroke="midnightblue" points="1279.17,-518.6 1287.17,-511.66 1276.59,-512.09 1279.17,-518.6"/>
</g>
<!-- Node3 -->
<g id="node3" class="node">
<title>Node3</title>
<g id="a_node3"><a xlink:href="has__class__name_8hpp.html" target="_top" xlink:title=" ">
<polygon fill="white" stroke="black" points="1299.5,-302.5 1299.5,-332.5 1412.5,-332.5 1412.5,-302.5 1299.5,-302.5"/>
<text text-anchor="start" x="1307.5" y="-320.5" font-family="Helvetica,sans-Serif" font-size="10.00">shpxx/concepts/has</text>
<text text-anchor="middle" x="1356" y="-309.5" font-family="Helvetica,sans-Serif" font-size="10.00">_class_name.hpp</text>
</a>
</g>
</g>
<!-- Node2&#45;&gt;Node3 -->
<g id="edge2" class="edge">
<title>Node2&#45;&gt;Node3</title>
<path fill="none" stroke="midnightblue" d="M1063.02,-493.08C1209.87,-470.22 1623.39,-405.44 1628,-400 1686.6,-330.93 1520.95,-319.02 1422.77,-317.81"/>
<polygon fill="midnightblue" stroke="midnightblue" points="1422.65,-314.3 1412.62,-317.71 1422.59,-321.3 1422.65,-314.3"/>
</g>
<!-- Node6 -->
<g id="node6" class="node">
<title>Node6</title>
<g id="a_node6"><a xlink:href="has__compatibility__check_8hpp.html" target="_top" xlink:title=" ">
<polygon fill="white" stroke="black" points="1477.5,-369.5 1477.5,-399.5 1618.5,-399.5 1618.5,-369.5 1477.5,-369.5"/>
<text text-anchor="start" x="1485.5" y="-387.5" font-family="Helvetica,sans-Serif" font-size="10.00">shpxx/concepts/has</text>
<text text-anchor="middle" x="1548" y="-376.5" font-family="Helvetica,sans-Serif" font-size="10.00">_compatibility_check.hpp</text>
</a>
</g>
</g>
<!-- Node2&#45;&gt;Node6 -->
<g id="edge5" class="edge">
<title>Node2&#45;&gt;Node6</title>
<path fill="none" stroke="midnightblue" d="M1055.05,-492.43C1099.43,-483.54 1170.62,-469.12 1232,-456 1316.13,-438.01 1412.63,-416.33 1476.62,-401.8"/>
<polygon fill="midnightblue" stroke="midnightblue" points="1477.63,-405.16 1486.61,-399.54 1476.08,-398.34 1477.63,-405.16"/>
</g>
<!-- Node7 -->
<g id="node7" class="node">
<title>Node7</title>
<g id="a_node7"><a xlink:href="shape__type_8hpp.html" target="_top" xlink:title=" ">
<polygon fill="white" stroke="black" points="799,-308 799,-327 925,-327 925,-308 799,-308"/>
<text text-anchor="middle" x="862" y="-315" font-family="Helvetica,sans-Serif" font-size="10.00">shpxx/shape_type.hpp</text>
</a>
</g>
</g>
<!-- Node2&#45;&gt;Node7 -->
<g id="edge42" class="edge">
<title>Node2&#45;&gt;Node7</title>
<path fill="none" stroke="midnightblue" d="M1007.72,-492.28C996.54,-470.07 964.73,-410.22 927,-369 914.3,-355.12 897.48,-342.17 884.13,-332.85"/>
<polygon fill="midnightblue" stroke="midnightblue" points="885.77,-329.74 875.53,-327.02 881.84,-335.53 885.77,-329.74"/>
</g>
<!-- Node8 -->
<g id="node8" class="node">
<title>Node8</title>
<g id="a_node8"><a xlink:href="is__feature_8hpp.html" target="_top" xlink:title=" ">
<polygon fill="white" stroke="black" points="589.5,-436.5 589.5,-455.5 754.5,-455.5 754.5,-436.5 589.5,-436.5"/>
<text text-anchor="middle" x="672" y="-443.5" font-family="Helvetica,sans-Serif" font-size="10.00">shpxx/concepts/is_feature.hpp</text>
</a>
</g>
</g>
<!-- Node2&#45;&gt;Node8 -->
<g id="edge9" class="edge">
<title>Node2&#45;&gt;Node8</title>
<path fill="none" stroke="midnightblue" d="M960.73,-492.86C900.6,-483.31 800.87,-467.47 735.79,-457.13"/>
<polygon fill="midnightblue" stroke="midnightblue" points="736.08,-453.63 725.65,-455.52 734.98,-460.55 736.08,-453.63"/>
</g>
<!-- Node2&#45;&gt;Node10 -->
<g id="edge43" class="edge">
<title>Node2&#45;&gt;Node10</title>
<path fill="none" stroke="midnightblue" d="M960.99,-499.89C794.37,-496 275.37,-481.85 251,-456 238.66,-442.91 221.89,-416.73 256,-369 269.99,-349.42 293.19,-337.37 315.32,-329.98"/>
<polygon fill="midnightblue" stroke="midnightblue" points="316.51,-333.28 325.05,-327 314.46,-326.59 316.51,-333.28"/>
</g>
<!-- Node16 -->
<g id="node16" class="node">
<title>Node16</title>
<g id="a_node16"><a xlink:href="coordinate_8hpp.html" target="_top" xlink:title=" ">
<polygon fill="white" stroke="black" points="0,-56.5 0,-75.5 122,-75.5 122,-56.5 0,-56.5"/>
<text text-anchor="middle" x="61" y="-63.5" font-family="Helvetica,sans-Serif" font-size="10.00">shpxx/coordinate.hpp</text>
</a>
</g>
</g>
<!-- Node2&#45;&gt;Node16 -->
<g id="edge41" class="edge">
<title>Node2&#45;&gt;Node16</title>
<path fill="none" stroke="midnightblue" d="M960.71,-501.56C835.74,-502.17 505.88,-499.17 235,-456 138.76,-440.66 90.9,-469.91 23,-400 -2.91,-373.32 4,-355.69 4,-318.5 4,-318.5 4,-318.5 4,-182.5 4,-143.78 30.07,-104.6 46.95,-83.3"/>
<polygon fill="midnightblue" stroke="midnightblue" points="49.67,-85.51 53.31,-75.56 44.26,-81.06 49.67,-85.51"/>
</g>
<!-- Node22 -->
<g id="node22" class="node">
<title>Node22</title>
<g id="a_node22"><a xlink:title=" ">
<polygon fill="white" stroke="#bfbfbf" points="260,-436.5 260,-455.5 310,-455.5 310,-436.5 260,-436.5"/>
<text text-anchor="middle" x="285" y="-443.5" font-family="Helvetica,sans-Serif" font-size="10.00">cstdint</text>
</a>
</g>
</g>
<!-- Node2&#45;&gt;Node22 -->
<g id="edge44" class="edge">
<title>Node2&#45;&gt;Node22</title>
<path fill="none" stroke="midnightblue" d="M960.78,-500.47C846.11,-498.67 560.26,-490.75 324,-456 322.72,-455.81 321.43,-455.6 320.12,-455.38"/>
<polygon fill="midnightblue" stroke="midnightblue" points="320.55,-451.9 310.06,-453.41 319.2,-458.77 320.55,-451.9"/>
</g>
<!-- Node23 -->
<g id="node23" class="node">
<title>Node23</title>
<g id="a_node23"><a xlink:title=" ">
<polygon fill="white" stroke="#bfbfbf" points="1403,-375 1403,-394 1459,-394 1459,-375 1403,-375"/>
<text text-anchor="middle" x="1431" y="-382" font-family="Helvetica,sans-Serif" font-size="10.00">optional</text>
</a>
</g>
</g>
<!-- Node2&#45;&gt;Node23 -->
<g id="edge45" class="edge">
<title>Node2&#45;&gt;Node23</title>
<path fill="none" stroke="midnightblue" d="M1045.88,-492.45C1080.8,-483.58 1136.8,-469.17 1185,-456 1258.82,-435.83 1344.67,-410.88 1392.94,-396.72"/>
<polygon fill="midnightblue" stroke="midnightblue" points="1394.05,-400.05 1402.65,-393.87 1392.07,-393.33 1394.05,-400.05"/>
</g>
<!-- Node24 -->
<g id="node24" class="node">
<title>Node24</title>
<g id="a_node24"><a xlink:href="shpfile__impl_8hpp.html" target="_top" xlink:title=" ">
<polygon fill="white" stroke="black" points="1046.5,-436.5 1046.5,-455.5 1175.5,-455.5 1175.5,-436.5 1046.5,-436.5"/>
<text text-anchor="middle" x="1111" y="-443.5" font-family="Helvetica,sans-Serif" font-size="10.00">shpxx/shpfile_impl.hpp</text>
</a>
</g>
</g>
<!-- Node2&#45;&gt;Node24 -->
<g id="edge46" class="edge">
<title>Node2&#45;&gt;Node24</title>
<path fill="none" stroke="midnightblue" d="M1022.79,-492.32C1036.79,-483.66 1061.14,-470.24 1080.81,-460.25"/>
<polygon fill="midnightblue" stroke="midnightblue" points="1082.64,-463.25 1090.02,-455.65 1079.51,-456.98 1082.64,-463.25"/>
</g>
<!-- Node4 -->
<g id="node4" class="node">
<title>Node4</title>
<g id="a_node4"><a xlink:title=" ">
<polygon fill="white" stroke="#bfbfbf" points="955,-56.5 955,-75.5 1015,-75.5 1015,-56.5 955,-56.5"/>
<text text-anchor="middle" x="985" y="-63.5" font-family="Helvetica,sans-Serif" font-size="10.00">concepts</text>
</a>
</g>
</g>
<!-- Node3&#45;&gt;Node4 -->
<g id="edge3" class="edge">
<title>Node3&#45;&gt;Node4</title>
<path fill="none" stroke="midnightblue" d="M1334.99,-302.37C1269.84,-258.56 1071.69,-125.3 1006.23,-81.28"/>
<polygon fill="midnightblue" stroke="midnightblue" points="1008.16,-78.36 997.91,-75.68 1004.25,-84.16 1008.16,-78.36"/>
</g>
<!-- Node5 -->
<g id="node5" class="node">
<title>Node5</title>
<g id="a_node5"><a xlink:title=" ">
<polygon fill="white" stroke="#bfbfbf" points="1095,-241 1095,-260 1139,-260 1139,-241 1095,-241"/>
<text text-anchor="middle" x="1117" y="-248" font-family="Helvetica,sans-Serif" font-size="10.00">string</text>
</a>
</g>
</g>
<!-- Node3&#45;&gt;Node5 -->
<g id="edge4" class="edge">
<title>Node3&#45;&gt;Node5</title>
<path fill="none" stroke="midnightblue" d="M1304.43,-302.48C1257.1,-289.6 1188.46,-270.93 1148.71,-260.13"/>
<polygon fill="midnightblue" stroke="midnightblue" points="1149.59,-256.74 1139.02,-257.49 1147.76,-263.49 1149.59,-256.74"/>
</g>
<!-- Node6&#45;&gt;Node4 -->
<g id="edge8" class="edge">
<title>Node6&#45;&gt;Node4</title>
<path fill="none" stroke="midnightblue" d="M1539.75,-369.39C1526.76,-345.81 1503,-296.53 1503,-251.5 1503,-251.5 1503,-251.5 1503,-182.5 1503,-84.69 1146.71,-69.67 1025.11,-67.4"/>
<polygon fill="midnightblue" stroke="midnightblue" points="1025.15,-63.9 1015.09,-67.23 1025.03,-70.9 1025.15,-63.9"/>
</g>
<!-- Node6&#45;&gt;Node7 -->
<g id="edge6" class="edge">
<title>Node6&#45;&gt;Node7</title>
<path fill="none" stroke="midnightblue" d="M1477.39,-370.32C1474.22,-369.85 1471.08,-369.41 1468,-369 1276.49,-343.72 1049.15,-328.78 935.04,-322.31"/>
<polygon fill="midnightblue" stroke="midnightblue" points="935.21,-318.82 925.03,-321.75 934.81,-325.81 935.21,-318.82"/>
</g>
<!-- Node7&#45;&gt;Node5 -->
<g id="edge7" class="edge">
<title>Node7&#45;&gt;Node5</title>
<path fill="none" stroke="midnightblue" d="M895.6,-307.94C944.99,-295.35 1036.56,-272 1085.02,-259.65"/>
<polygon fill="midnightblue" stroke="midnightblue" points="1086.13,-262.98 1094.95,-257.12 1084.4,-256.2 1086.13,-262.98"/>
</g>
<!-- Node8&#45;&gt;Node4 -->
<g id="edge40" class="edge">
<title>Node8&#45;&gt;Node4</title>
<path fill="none" stroke="midnightblue" d="M754.52,-437.25C817.77,-430.07 898.83,-417.8 927,-400 964.59,-376.25 985,-362.96 985,-318.5 985,-318.5 985,-318.5 985,-182.5 985,-148.36 985,-108.55 985,-85.71"/>
<polygon fill="midnightblue" stroke="midnightblue" points="988.5,-85.69 985,-75.69 981.5,-85.69 988.5,-85.69"/>
</g>
<!-- Node9 -->
<g id="node9" class="node">
<title>Node9</title>
<g id="a_node9"><a xlink:href="linestring_8hpp.html" target="_top" xlink:title=" ">
<polygon fill="white" stroke="black" points="595,-375 595,-394 749,-394 749,-375 595,-375"/>
<text text-anchor="middle" x="672" y="-382" font-family="Helvetica,sans-Serif" font-size="10.00">shpxx/feature/linestring.hpp</text>
</a>
</g>
</g>
<!-- Node8&#45;&gt;Node9 -->
<g id="edge10" class="edge">
<title>Node8&#45;&gt;Node9</title>
<path fill="none" stroke="midnightblue" d="M672,-436.48C672,-428.08 672,-414.98 672,-404.16"/>
<polygon fill="midnightblue" stroke="midnightblue" points="675.5,-404.01 672,-394.01 668.5,-404.01 675.5,-404.01"/>
</g>
<!-- Node12 -->
<g id="node12" class="node">
<title>Node12</title>
<g id="a_node12"><a xlink:href="multi__patch_8hpp.html" target="_top" xlink:title=" ">
<polygon fill="white" stroke="black" points="805.5,-369.5 805.5,-399.5 918.5,-399.5 918.5,-369.5 805.5,-369.5"/>
<text text-anchor="start" x="813.5" y="-387.5" font-family="Helvetica,sans-Serif" font-size="10.00">shpxx/feature/multi</text>
<text text-anchor="middle" x="862" y="-376.5" font-family="Helvetica,sans-Serif" font-size="10.00">_patch.hpp</text>
</a>
</g>
</g>
<!-- Node8&#45;&gt;Node12 -->
<g id="edge14" class="edge">
<title>Node8&#45;&gt;Node12</title>
<path fill="none" stroke="midnightblue" d="M699.22,-436.48C727.36,-427.66 772.05,-413.67 807.49,-402.57"/>
<polygon fill="midnightblue" stroke="midnightblue" points="808.72,-405.85 817.22,-399.52 806.63,-399.17 808.72,-405.85"/>
</g>
<!-- Node13 -->
<g id="node13" class="node">
<title>Node13</title>
<g id="a_node13"><a xlink:href="multi__point_8hpp.html" target="_top" xlink:title=" ">
<polygon fill="white" stroke="black" points="298.5,-369.5 298.5,-399.5 411.5,-399.5 411.5,-369.5 298.5,-369.5"/>
<text text-anchor="start" x="306.5" y="-387.5" font-family="Helvetica,sans-Serif" font-size="10.00">shpxx/feature/multi</text>
<text text-anchor="middle" x="355" y="-376.5" font-family="Helvetica,sans-Serif" font-size="10.00">_point.hpp</text>
</a>
</g>
</g>
<!-- Node8&#45;&gt;Node13 -->
<g id="edge17" class="edge">
<title>Node8&#45;&gt;Node13</title>
<path fill="none" stroke="midnightblue" d="M620.24,-436.42C571.4,-428.18 495.9,-415.05 421.68,-400.29"/>
<polygon fill="midnightblue" stroke="midnightblue" points="422.18,-396.83 411.69,-398.3 420.81,-403.69 422.18,-396.83"/>
</g>
<!-- Node14 -->
<g id="node14" class="node">
<title>Node14</title>
<g id="a_node14"><a xlink:href="point_8hpp.html" target="_top" xlink:title=" ">
<polygon fill="white" stroke="black" points="32.5,-375 32.5,-394 165.5,-394 165.5,-375 32.5,-375"/>
<text text-anchor="middle" x="99" y="-382" font-family="Helvetica,sans-Serif" font-size="10.00">shpxx/feature/point.hpp</text>
</a>
</g>
</g>
<!-- Node8&#45;&gt;Node14 -->
<g id="edge20" class="edge">
<title>Node8&#45;&gt;Node14</title>
<path fill="none" stroke="midnightblue" d="M589.9,-436.48C479.28,-424.99 283.83,-404.69 175.93,-393.49"/>
<polygon fill="midnightblue" stroke="midnightblue" points="176.08,-389.98 165.77,-392.43 175.35,-396.95 176.08,-389.98"/>
</g>
<!-- Node21 -->
<g id="node21" class="node">
<title>Node21</title>
<g id="a_node21"><a xlink:href="polygon_8hpp.html" target="_top" xlink:title=" ">
<polygon fill="white" stroke="black" points="429.5,-375 429.5,-394 576.5,-394 576.5,-375 429.5,-375"/>
<text text-anchor="middle" x="503" y="-382" font-family="Helvetica,sans-Serif" font-size="10.00">shpxx/feature/polygon.hpp</text>
</a>
</g>
</g>
<!-- Node8&#45;&gt;Node21 -->
<g id="edge37" class="edge">
<title>Node8&#45;&gt;Node21</title>
<path fill="none" stroke="midnightblue" d="M647.79,-436.48C618.67,-426.22 569.63,-408.96 536.8,-397.4"/>
<polygon fill="midnightblue" stroke="midnightblue" points="537.76,-394.03 527.17,-394.01 535.44,-400.63 537.76,-394.03"/>
</g>
<!-- Node9&#45;&gt;Node7 -->
<g id="edge11" class="edge">
<title>Node9&#45;&gt;Node7</title>
<path fill="none" stroke="midnightblue" d="M697.23,-374.87C730.68,-363.42 789.86,-343.18 827.44,-330.32"/>
<polygon fill="midnightblue" stroke="midnightblue" points="828.64,-333.61 836.97,-327.06 826.37,-326.99 828.64,-333.61"/>
</g>
<!-- Node9&#45;&gt;Node10 -->
<g id="edge12" class="edge">
<title>Node9&#45;&gt;Node10</title>
<path fill="none" stroke="midnightblue" d="M632.74,-374.94C578.8,-363.17 481.82,-342.02 423.14,-329.22"/>
<polygon fill="midnightblue" stroke="midnightblue" points="423.87,-325.8 413.35,-327.08 422.38,-332.63 423.87,-325.8"/>
</g>
<!-- Node11 -->
<g id="node11" class="node">
<title>Node11</title>
<g id="a_node11"><a xlink:title=" ">
<polygon fill="white" stroke="#bfbfbf" points="345,-241 345,-260 403,-260 403,-241 345,-241"/>
<text text-anchor="middle" x="374" y="-248" font-family="Helvetica,sans-Serif" font-size="10.00">memory</text>
</a>
</g>
</g>
<!-- Node10&#45;&gt;Node11 -->
<g id="edge13" class="edge">
<title>Node10&#45;&gt;Node11</title>
<path fill="none" stroke="midnightblue" d="M374,-307.73C374,-298.18 374,-282.62 374,-270.28"/>
<polygon fill="midnightblue" stroke="midnightblue" points="377.5,-270.13 374,-260.13 370.5,-270.13 377.5,-270.13"/>
</g>
<!-- Node12&#45;&gt;Node7 -->
<g id="edge15" class="edge">
<title>Node12&#45;&gt;Node7</title>
<path fill="none" stroke="midnightblue" d="M862,-369.4C862,-360.06 862,-347.71 862,-337.52"/>
<polygon fill="midnightblue" stroke="midnightblue" points="865.5,-337.19 862,-327.19 858.5,-337.19 865.5,-337.19"/>
</g>
<!-- Node12&#45;&gt;Node10 -->
<g id="edge16" class="edge">
<title>Node12&#45;&gt;Node10</title>
<path fill="none" stroke="midnightblue" d="M805.49,-371.53C800.6,-370.62 795.72,-369.77 791,-369 670.94,-349.5 530.31,-333.97 446.88,-325.52"/>
<polygon fill="midnightblue" stroke="midnightblue" points="447.05,-322.02 436.75,-324.5 446.34,-328.98 447.05,-322.02"/>
</g>
<!-- Node13&#45;&gt;Node7 -->
<g id="edge18" class="edge">
<title>Node13&#45;&gt;Node7</title>
<path fill="none" stroke="midnightblue" d="M411.65,-370.49C414.47,-369.96 417.26,-369.46 420,-369 548.95,-347.31 700.65,-332.22 788.61,-324.49"/>
<polygon fill="midnightblue" stroke="midnightblue" points="789.1,-327.96 798.76,-323.61 788.49,-320.99 789.1,-327.96"/>
</g>
<!-- Node13&#45;&gt;Node10 -->
<g id="edge19" class="edge">
<title>Node13&#45;&gt;Node10</title>
<path fill="none" stroke="midnightblue" d="M359.12,-369.4C361.91,-359.86 365.62,-347.18 368.63,-336.86"/>
<polygon fill="midnightblue" stroke="midnightblue" points="372.01,-337.77 371.46,-327.19 365.29,-335.81 372.01,-337.77"/>
</g>
<!-- Node14&#45;&gt;Node7 -->
<g id="edge35" class="edge">
<title>Node14&#45;&gt;Node7</title>
<path fill="none" stroke="midnightblue" d="M165.71,-377.82C307.99,-365.7 640.32,-337.38 788.47,-324.76"/>
<polygon fill="midnightblue" stroke="midnightblue" points="789.14,-328.22 798.81,-323.88 788.55,-321.24 789.14,-328.22"/>
</g>
<!-- Node14&#45;&gt;Node10 -->
<g id="edge36" class="edge">
<title>Node14&#45;&gt;Node10</title>
<path fill="none" stroke="midnightblue" d="M135.23,-374.94C184.7,-363.24 273.39,-342.28 327.65,-329.46"/>
<polygon fill="midnightblue" stroke="midnightblue" points="328.76,-332.79 337.69,-327.08 327.15,-325.98 328.76,-332.79"/>
</g>
<!-- Node15 -->
<g id="node15" class="node">
<title>Node15</title>
<g id="a_node15"><a xlink:href="is__coordinate_8hpp.html" target="_top" xlink:title=" ">
<polygon fill="white" stroke="black" points="108,-112.5 108,-131.5 290,-131.5 290,-112.5 108,-112.5"/>
<text text-anchor="middle" x="199" y="-119.5" font-family="Helvetica,sans-Serif" font-size="10.00">shpxx/concepts/is_coordinate.hpp</text>
</a>
</g>
</g>
<!-- Node14&#45;&gt;Node15 -->
<g id="edge21" class="edge">
<title>Node14&#45;&gt;Node15</title>
<path fill="none" stroke="midnightblue" d="M100.79,-374.94C107.19,-345.22 130.59,-244.16 168,-168 172.85,-158.12 179.67,-147.95 185.68,-139.79"/>
<polygon fill="midnightblue" stroke="midnightblue" points="188.48,-141.9 191.75,-131.82 182.91,-137.65 188.48,-141.9"/>
</g>
<!-- Node14&#45;&gt;Node16 -->
<g id="edge25" class="edge">
<title>Node14&#45;&gt;Node16</title>
<path fill="none" stroke="midnightblue" d="M92.24,-374.79C77.14,-354.43 42,-301.67 42,-251.5 42,-251.5 42,-251.5 42,-182.5 42,-147.9 50.4,-108.24 56.03,-85.55"/>
<polygon fill="midnightblue" stroke="midnightblue" points="59.49,-86.17 58.59,-75.61 52.71,-84.42 59.49,-86.17"/>
</g>
<!-- Node18 -->
<g id="node18" class="node">
<title>Node18</title>
<g id="a_node18"><a xlink:href="coordinate__cast_8hpp.html" target="_top" xlink:title=" ">
<polygon fill="white" stroke="black" points="146.5,-308 146.5,-327 293.5,-327 293.5,-308 146.5,-308"/>
<text text-anchor="middle" x="220" y="-315" font-family="Helvetica,sans-Serif" font-size="10.00">shpxx/coordinate_cast.hpp</text>
</a>
</g>
</g>
<!-- Node14&#45;&gt;Node18 -->
<g id="edge26" class="edge">
<title>Node14&#45;&gt;Node18</title>
<path fill="none" stroke="midnightblue" d="M115.32,-374.73C135.82,-363.72 171.2,-344.71 195.09,-331.88"/>
<polygon fill="midnightblue" stroke="midnightblue" points="196.79,-334.94 203.94,-327.13 193.47,-328.78 196.79,-334.94"/>
</g>
<!-- Node15&#45;&gt;Node4 -->
<g id="edge24" class="edge">
<title>Node15&#45;&gt;Node4</title>
<path fill="none" stroke="midnightblue" d="M290.32,-114.73C461.33,-102.98 823.53,-78.09 944.61,-69.77"/>
<polygon fill="midnightblue" stroke="midnightblue" points="945.17,-73.24 954.91,-69.07 944.69,-66.26 945.17,-73.24"/>
</g>
<!-- Node15&#45;&gt;Node16 -->
<g id="edge22" class="edge">
<title>Node15&#45;&gt;Node16</title>
<path fill="none" stroke="midnightblue" d="M177.13,-112.44C154.22,-103.48 118.02,-89.31 92.13,-79.18"/>
<polygon fill="midnightblue" stroke="midnightblue" points="93.35,-75.9 82.76,-75.52 90.8,-82.42 93.35,-75.9"/>
</g>
<!-- Node17 -->
<g id="node17" class="node">
<title>Node17</title>
<g id="a_node17"><a xlink:title=" ">
<polygon fill="white" stroke="#bfbfbf" points="37.5,-0.5 37.5,-19.5 84.5,-19.5 84.5,-0.5 37.5,-0.5"/>
<text text-anchor="middle" x="61" y="-7.5" font-family="Helvetica,sans-Serif" font-size="10.00">cmath</text>
</a>
</g>
</g>
<!-- Node16&#45;&gt;Node17 -->
<g id="edge23" class="edge">
<title>Node16&#45;&gt;Node17</title>
<path fill="none" stroke="midnightblue" d="M61,-56.08C61,-49.01 61,-38.86 61,-29.99"/>
<polygon fill="midnightblue" stroke="midnightblue" points="64.5,-29.75 61,-19.75 57.5,-29.75 64.5,-29.75"/>
</g>
<!-- Node18&#45;&gt;Node15 -->
<g id="edge27" class="edge">
<title>Node18&#45;&gt;Node15</title>
<path fill="none" stroke="midnightblue" d="M208.58,-307.93C197.59,-298.9 181.69,-283.56 175,-266 158.63,-223.03 177.84,-168.57 190.19,-140.9"/>
<polygon fill="midnightblue" stroke="midnightblue" points="193.43,-142.23 194.5,-131.69 187.09,-139.26 193.43,-142.23"/>
</g>
<!-- Node19 -->
<g id="node19" class="node">
<title>Node19</title>
<g id="a_node19"><a xlink:href="coordinate__cast__impl_8hpp.html" target="_top" xlink:title=" ">
<polygon fill="white" stroke="black" points="184,-235.5 184,-265.5 310,-265.5 310,-235.5 184,-235.5"/>
<text text-anchor="start" x="192" y="-253.5" font-family="Helvetica,sans-Serif" font-size="10.00">shpxx/coordinate_cast</text>
<text text-anchor="middle" x="247" y="-242.5" font-family="Helvetica,sans-Serif" font-size="10.00">_impl.hpp</text>
</a>
</g>
</g>
<!-- Node18&#45;&gt;Node19 -->
<g id="edge28" class="edge">
<title>Node18&#45;&gt;Node19</title>
<path fill="none" stroke="midnightblue" d="M218.85,-307.73C220.58,-299.29 225.48,-286.14 230.88,-274.68"/>
<polygon fill="midnightblue" stroke="midnightblue" points="234.08,-276.09 235.47,-265.59 227.84,-272.93 234.08,-276.09"/>
</g>
<!-- Node19&#45;&gt;Node15 -->
<g id="edge32" class="edge">
<title>Node19&#45;&gt;Node15</title>
<path fill="none" stroke="midnightblue" d="M237.52,-235.45C231.24,-225.6 223.22,-211.94 218,-199 210.39,-180.12 205.18,-157.34 202.17,-141.67"/>
<polygon fill="midnightblue" stroke="midnightblue" points="205.59,-140.89 200.36,-131.68 198.7,-142.14 205.59,-140.89"/>
</g>
<!-- Node19&#45;&gt;Node16 -->
<g id="edge33" class="edge">
<title>Node19&#45;&gt;Node16</title>
<path fill="none" stroke="midnightblue" d="M224.29,-235.37C193.23,-215.25 137.05,-175.87 99,-132 86.58,-117.68 76.04,-98.72 69.23,-84.98"/>
<polygon fill="midnightblue" stroke="midnightblue" points="72.24,-83.17 64.78,-75.65 65.93,-86.18 72.24,-83.17"/>
</g>
<!-- Node19&#45;&gt;Node18 -->
<g id="edge34" class="edge">
<title>Node19&#45;&gt;Node18</title>
<path fill="none" stroke="midnightblue" d="M246.82,-265.59C244.07,-275.3 238.81,-288.29 233.48,-298.71"/>
<polygon fill="midnightblue" stroke="midnightblue" points="230.26,-297.3 228.43,-307.73 236.37,-300.72 230.26,-297.3"/>
</g>
<!-- Node20 -->
<g id="node20" class="node">
<title>Node20</title>
<g id="a_node20"><a xlink:href="has__zm_8hpp.html" target="_top" xlink:title=" ">
<polygon fill="white" stroke="black" points="227.5,-168.5 227.5,-198.5 340.5,-198.5 340.5,-168.5 227.5,-168.5"/>
<text text-anchor="start" x="235.5" y="-186.5" font-family="Helvetica,sans-Serif" font-size="10.00">shpxx/concepts/has</text>
<text text-anchor="middle" x="284" y="-175.5" font-family="Helvetica,sans-Serif" font-size="10.00">_zm.hpp</text>
</a>
</g>
</g>
<!-- Node19&#45;&gt;Node20 -->
<g id="edge29" class="edge">
<title>Node19&#45;&gt;Node20</title>
<path fill="none" stroke="midnightblue" d="M255.03,-235.4C259.68,-227.22 265.66,-216.73 270.97,-207.39"/>
<polygon fill="midnightblue" stroke="midnightblue" points="274.08,-209 275.99,-198.58 268,-205.54 274.08,-209"/>
</g>
<!-- Node20&#45;&gt;Node4 -->
<g id="edge31" class="edge">
<title>Node20&#45;&gt;Node4</title>
<path fill="none" stroke="midnightblue" d="M340.77,-173.15C478.25,-150.5 826.4,-93.13 944.84,-73.62"/>
<polygon fill="midnightblue" stroke="midnightblue" points="945.62,-77.04 954.92,-71.96 944.49,-70.13 945.62,-77.04"/>
</g>
<!-- Node20&#45;&gt;Node15 -->
<g id="edge30" class="edge">
<title>Node20&#45;&gt;Node15</title>
<path fill="none" stroke="midnightblue" d="M263.86,-168.4C250.61,-159.13 233.32,-147.03 219.92,-137.65"/>
<polygon fill="midnightblue" stroke="midnightblue" points="221.57,-134.53 211.37,-131.66 217.55,-140.26 221.57,-134.53"/>
</g>
<!-- Node21&#45;&gt;Node7 -->
<g id="edge38" class="edge">
<title>Node21&#45;&gt;Node7</title>
<path fill="none" stroke="midnightblue" d="M550.3,-374.94C615.9,-363.06 734.37,-341.61 804.84,-328.85"/>
<polygon fill="midnightblue" stroke="midnightblue" points="805.66,-332.26 814.88,-327.03 804.42,-325.37 805.66,-332.26"/>
</g>
<!-- Node21&#45;&gt;Node10 -->
<g id="edge39" class="edge">
<title>Node21&#45;&gt;Node10</title>
<path fill="none" stroke="midnightblue" d="M485.87,-374.87C463.99,-363.84 425.91,-344.66 400.33,-331.77"/>
<polygon fill="midnightblue" stroke="midnightblue" points="401.71,-328.54 391.2,-327.17 398.56,-334.79 401.71,-328.54"/>
</g>
<!-- Node24&#45;&gt;Node2 -->
<g id="edge52" class="edge">
<title>Node24&#45;&gt;Node2</title>
<path fill="none" stroke="midnightblue" d="M1100.24,-455.65C1086.2,-464.35 1061.7,-477.85 1041.97,-487.86"/>
<polygon fill="midnightblue" stroke="midnightblue" points="1040.41,-484.73 1033.02,-492.32 1043.53,-491 1040.41,-484.73"/>
</g>
<!-- Node24&#45;&gt;Node3 -->
<g id="edge47" class="edge">
<title>Node24&#45;&gt;Node3</title>
<path fill="none" stroke="midnightblue" d="M1175.58,-442.22C1240.28,-437.92 1333.44,-427.08 1356,-400 1369.1,-384.28 1367.4,-360.31 1363.44,-342.43"/>
<polygon fill="midnightblue" stroke="midnightblue" points="1366.82,-341.53 1360.94,-332.72 1360.04,-343.27 1366.82,-341.53"/>
</g>
<!-- Node24&#45;&gt;Node7 -->
<g id="edge50" class="edge">
<title>Node24&#45;&gt;Node7</title>
<path fill="none" stroke="midnightblue" d="M1093.89,-436.31C1051.05,-414.54 938.99,-357.62 887.97,-331.7"/>
<polygon fill="midnightblue" stroke="midnightblue" points="889.41,-328.5 878.91,-327.09 886.24,-334.74 889.41,-328.5"/>
</g>
<!-- Node24&#45;&gt;Node10 -->
<g id="edge51" class="edge">
<title>Node24&#45;&gt;Node10</title>
<path fill="none" stroke="midnightblue" d="M1046.25,-439.87C967.49,-432.91 839.64,-419.13 796,-400 776.04,-391.25 778.01,-377.64 758,-369 703.65,-345.54 542.39,-330.46 447.01,-323.33"/>
<polygon fill="midnightblue" stroke="midnightblue" points="447.08,-319.83 436.85,-322.58 446.57,-326.81 447.08,-319.83"/>
</g>
<!-- Node24&#45;&gt;Node23 -->
<g id="edge55" class="edge">
<title>Node24&#45;&gt;Node23</title>
<path fill="none" stroke="midnightblue" d="M1175.68,-437.73C1232.44,-430.6 1316.93,-418.13 1389,-400 1392.22,-399.19 1395.54,-398.24 1398.84,-397.23"/>
<polygon fill="midnightblue" stroke="midnightblue" points="1400.13,-400.49 1408.55,-394.05 1397.95,-393.84 1400.13,-400.49"/>
</g>
<!-- Node25 -->
<g id="node25" class="node">
<title>Node25</title>
<g id="a_node25"><a xlink:href="exceptions_8hpp.html" target="_top" xlink:title=" ">
<polygon fill="white" stroke="black" points="1223.5,-375 1223.5,-394 1346.5,-394 1346.5,-375 1223.5,-375"/>
<text text-anchor="middle" x="1285" y="-382" font-family="Helvetica,sans-Serif" font-size="10.00">shpxx/exceptions.hpp</text>
</a>
</g>
</g>
<!-- Node24&#45;&gt;Node25 -->
<g id="edge48" class="edge">
<title>Node24&#45;&gt;Node25</title>
<path fill="none" stroke="midnightblue" d="M1135.93,-436.48C1166.04,-426.18 1216.83,-408.81 1250.64,-397.25"/>
<polygon fill="midnightblue" stroke="midnightblue" points="1251.79,-400.56 1260.12,-394.01 1249.52,-393.93 1251.79,-400.56"/>
</g>
<!-- Node26 -->
<g id="node26" class="node">
<title>Node26</title>
<g id="a_node26"><a xlink:title=" ">
<polygon fill="white" stroke="#bfbfbf" points="1180.5,-308 1180.5,-327 1245.5,-327 1245.5,-308 1180.5,-308"/>
<text text-anchor="middle" x="1213" y="-315" font-family="Helvetica,sans-Serif" font-size="10.00">stdexcept</text>
</a>
</g>
</g>
<!-- Node24&#45;&gt;Node26 -->
<g id="edge56" class="edge">
<title>Node24&#45;&gt;Node26</title>
<path fill="none" stroke="midnightblue" d="M1128.42,-436.37C1142.76,-428.54 1162.8,-415.8 1176,-400 1191.75,-381.13 1202.16,-354.47 1207.82,-336.84"/>
<polygon fill="midnightblue" stroke="midnightblue" points="1211.2,-337.77 1210.73,-327.19 1204.5,-335.75 1211.2,-337.77"/>
</g>
<!-- Node27 -->
<g id="node27" class="node">
<title>Node27</title>
<g id="a_node27"><a xlink:title=" ">
<polygon fill="white" stroke="#bfbfbf" points="1051.5,-375 1051.5,-394 1104.5,-394 1104.5,-375 1051.5,-375"/>
<text text-anchor="middle" x="1078" y="-382" font-family="Helvetica,sans-Serif" font-size="10.00">cstddef</text>
</a>
</g>
</g>
<!-- Node24&#45;&gt;Node27 -->
<g id="edge53" class="edge">
<title>Node24&#45;&gt;Node27</title>
<path fill="none" stroke="midnightblue" d="M1106.27,-436.48C1101.42,-427.73 1093.73,-413.87 1087.6,-402.81"/>
<polygon fill="midnightblue" stroke="midnightblue" points="1090.63,-401.06 1082.72,-394.01 1084.51,-404.45 1090.63,-401.06"/>
</g>
<!-- Node28 -->
<g id="node28" class="node">
<title>Node28</title>
<g id="a_node28"><a xlink:title=" ">
<polygon fill="white" stroke="#bfbfbf" points="1123,-375 1123,-394 1167,-394 1167,-375 1123,-375"/>
<text text-anchor="middle" x="1145" y="-382" font-family="Helvetica,sans-Serif" font-size="10.00">limits</text>
</a>
</g>
</g>
<!-- Node24&#45;&gt;Node28 -->
<g id="edge54" class="edge">
<title>Node24&#45;&gt;Node28</title>
<path fill="none" stroke="midnightblue" d="M1115.87,-436.48C1120.87,-427.73 1128.79,-413.87 1135.11,-402.81"/>
<polygon fill="midnightblue" stroke="midnightblue" points="1138.22,-404.43 1140.14,-394.01 1132.14,-400.96 1138.22,-404.43"/>
</g>
<!-- Node25&#45;&gt;Node26 -->
<g id="edge49" class="edge">
<title>Node25&#45;&gt;Node26</title>
<path fill="none" stroke="midnightblue" d="M1275.29,-374.73C1263.74,-364.31 1244.25,-346.71 1230.14,-333.97"/>
<polygon fill="midnightblue" stroke="midnightblue" points="1232.32,-331.23 1222.56,-327.13 1227.63,-336.43 1232.32,-331.23"/>
</g>
<!-- Node29&#45;&gt;Node10 -->
<g id="edge58" class="edge">
<title>Node29&#45;&gt;Node10</title>
<path fill="none" stroke="midnightblue" d="M1080.92,-493.21C1077.9,-492.77 1074.91,-492.36 1072,-492 898.11,-470.64 400.57,-535.08 289,-400 280.23,-389.38 282.19,-380.97 289,-369 299.17,-351.13 318.44,-338.92 336.06,-330.99"/>
<polygon fill="midnightblue" stroke="midnightblue" points="337.73,-334.09 345.62,-327.02 335.04,-327.63 337.73,-334.09"/>
</g>
<!-- Node29&#45;&gt;Node30 -->
<g id="edge59" class="edge">
<title>Node29&#45;&gt;Node30</title>
<path fill="none" stroke="midnightblue" d="M1167.21,-493.8C1171.86,-493.14 1176.52,-492.52 1181,-492 1393.5,-467.3 1448.99,-484.59 1661,-456 1662.27,-455.83 1663.56,-455.64 1664.86,-455.45"/>
<polygon fill="midnightblue" stroke="midnightblue" points="1665.62,-458.87 1674.91,-453.78 1664.47,-451.97 1665.62,-458.87"/>
</g>
</g>
</svg>
