<?xml version="1.0" encoding="UTF-8" standalone="no"?>
<!DOCTYPE svg PUBLIC "-//W3C//DTD SVG 1.1//EN"
 "http://www.w3.org/Graphics/SVG/1.1/DTD/svg11.dtd">
<!-- Generated by graphviz version 2.43.0 (0)
 -->
<!-- Title: /home/runner/work/shpxx/shpxx/include/shpxx/shpfile.hpp Pages: 1 -->
<svg width="1633pt" height="531pt"
 viewBox="0.00 0.00 1633.00 531.00" xmlns="http://www.w3.org/2000/svg" xmlns:xlink="http://www.w3.org/1999/xlink">
<g id="graph0" class="graph" transform="scale(1 1) rotate(0) translate(4 527)">
<title>/home/runner/work/shpxx/shpxx/include/shpxx/shpfile.hpp</title>
<polygon fill="white" stroke="transparent" points="-4,4 -4,-527 1629,-527 1629,4 -4,4"/>
<!-- Node1 -->
<g id="node1" class="node">
<title>Node1</title>
<g id="a_node1"><a xlink:title=" ">
<polygon fill="#bfbfbf" stroke="black" points="1015,-492.5 1015,-522.5 1191,-522.5 1191,-492.5 1015,-492.5"/>
<text text-anchor="start" x="1023" y="-510.5" font-family="Helvetica,sans-Serif" font-size="10.00">/home/runner/work/shpxx</text>
<text text-anchor="middle" x="1103" y="-499.5" font-family="Helvetica,sans-Serif" font-size="10.00">/shpxx/include/shpxx/shpfile.hpp</text>
</a>
</g>
</g>
<!-- Node2 -->
<g id="node2" class="node">
<title>Node2</title>
<g id="a_node2"><a xlink:href="has__class__name_8hpp.html" target="_top" xlink:title=" ">
<polygon fill="white" stroke="black" points="1035.5,-302.5 1035.5,-332.5 1148.5,-332.5 1148.5,-302.5 1035.5,-302.5"/>
<text text-anchor="start" x="1043.5" y="-320.5" font-family="Helvetica,sans-Serif" font-size="10.00">shpxx/concepts/has</text>
<text text-anchor="middle" x="1092" y="-309.5" font-family="Helvetica,sans-Serif" font-size="10.00">_class_name.hpp</text>
</a>
</g>
</g>
<!-- Node1&#45;&gt;Node2 -->
<g id="edge1" class="edge">
<title>Node1&#45;&gt;Node2</title>
<path fill="none" stroke="midnightblue" d="M1118.87,-492.21C1144.91,-466.97 1191.58,-412.98 1168,-369 1160.88,-355.73 1148.57,-345.35 1135.91,-337.54"/>
<polygon fill="midnightblue" stroke="midnightblue" points="1137.56,-334.46 1127.14,-332.55 1134.1,-340.54 1137.56,-334.46"/>
</g>
<!-- Node5 -->
<g id="node5" class="node">
<title>Node5</title>
<g id="a_node5"><a xlink:href="has__compatibility__check_8hpp.html" target="_top" xlink:title=" ">
<polygon fill="white" stroke="black" points="228.5,-369.5 228.5,-399.5 369.5,-399.5 369.5,-369.5 228.5,-369.5"/>
<text text-anchor="start" x="236.5" y="-387.5" font-family="Helvetica,sans-Serif" font-size="10.00">shpxx/concepts/has</text>
<text text-anchor="middle" x="299" y="-376.5" font-family="Helvetica,sans-Serif" font-size="10.00">_compatibility_check.hpp</text>
</a>
</g>
</g>
<!-- Node1&#45;&gt;Node5 -->
<g id="edge4" class="edge">
<title>Node1&#45;&gt;Node5</title>
<path fill="none" stroke="midnightblue" d="M1014.83,-504.81C856.48,-500.97 530.32,-489.18 422,-456 386.16,-445.02 349.43,-422.15 325.55,-405.43"/>
<polygon fill="midnightblue" stroke="midnightblue" points="327.54,-402.54 317.37,-399.58 323.47,-408.24 327.54,-402.54"/>
</g>
<!-- Node6 -->
<g id="node6" class="node">
<title>Node6</title>
<g id="a_node6"><a xlink:href="shape__type_8hpp.html" target="_top" xlink:title=" ">
<polygon fill="white" stroke="black" points="644,-308 644,-327 770,-327 770,-308 644,-308"/>
<text text-anchor="middle" x="707" y="-315" font-family="Helvetica,sans-Serif" font-size="10.00">shpxx/shape_type.hpp</text>
</a>
</g>
</g>
<!-- Node1&#45;&gt;Node6 -->
<g id="edge41" class="edge">
<title>Node1&#45;&gt;Node6</title>
<path fill="none" stroke="midnightblue" d="M1014.89,-506.61C852.9,-504.62 518.5,-489.5 455,-400 408.37,-334.28 543.67,-320.35 633.67,-318.09"/>
<polygon fill="midnightblue" stroke="midnightblue" points="633.94,-321.59 643.87,-317.88 633.8,-314.59 633.94,-321.59"/>
</g>
<!-- Node7 -->
<g id="node7" class="node">
<title>Node7</title>
<g id="a_node7"><a xlink:href="is__feature_8hpp.html" target="_top" xlink:title=" ">
<polygon fill="white" stroke="black" points="624.5,-436.5 624.5,-455.5 789.5,-455.5 789.5,-436.5 624.5,-436.5"/>
<text text-anchor="middle" x="707" y="-443.5" font-family="Helvetica,sans-Serif" font-size="10.00">shpxx/concepts/is_feature.hpp</text>
</a>
</g>
</g>
<!-- Node1&#45;&gt;Node7 -->
<g id="edge8" class="edge">
<title>Node1&#45;&gt;Node7</title>
<path fill="none" stroke="midnightblue" d="M1014.62,-493.22C941.66,-482.26 839.71,-466.94 773.52,-456.99"/>
<polygon fill="midnightblue" stroke="midnightblue" points="774.02,-453.53 763.62,-455.51 772.98,-460.45 774.02,-453.53"/>
</g>
<!-- Node9 -->
<g id="node9" class="node">
<title>Node9</title>
<g id="a_node9"><a xlink:href="shp__handle_8hpp.html" target="_top" xlink:title=" ">
<polygon fill="white" stroke="black" points="796.5,-308 796.5,-327 921.5,-327 921.5,-308 796.5,-308"/>
<text text-anchor="middle" x="859" y="-315" font-family="Helvetica,sans-Serif" font-size="10.00">shpxx/shp_handle.hpp</text>
</a>
</g>
</g>
<!-- Node1&#45;&gt;Node9 -->
<g id="edge42" class="edge">
<title>Node1&#45;&gt;Node9</title>
<path fill="none" stroke="midnightblue" d="M1102.3,-492.48C1100.15,-464.68 1091.29,-402.37 1055,-369 1021.86,-338.52 972.79,-325.9 932.04,-320.9"/>
<polygon fill="midnightblue" stroke="midnightblue" points="932.19,-317.4 921.87,-319.79 931.43,-324.35 932.19,-317.4"/>
</g>
<!-- Node15 -->
<g id="node15" class="node">
<title>Node15</title>
<g id="a_node15"><a xlink:href="coordinate_8hpp.html" target="_top" xlink:title=" ">
<polygon fill="white" stroke="black" points="0,-56.5 0,-75.5 122,-75.5 122,-56.5 0,-56.5"/>
<text text-anchor="middle" x="61" y="-63.5" font-family="Helvetica,sans-Serif" font-size="10.00">shpxx/coordinate.hpp</text>
</a>
</g>
</g>
<!-- Node1&#45;&gt;Node15 -->
<g id="edge40" class="edge">
<title>Node1&#45;&gt;Node15</title>
<path fill="none" stroke="midnightblue" d="M1014.6,-506.04C752.86,-503.5 0,-487.36 0,-385.5 0,-385.5 0,-385.5 0,-182.5 0,-143.44 27.62,-104.65 45.69,-83.45"/>
<polygon fill="midnightblue" stroke="midnightblue" points="48.51,-85.54 52.52,-75.74 43.27,-80.9 48.51,-85.54"/>
</g>
<!-- Node21 -->
<g id="node21" class="node">
<title>Node21</title>
<g id="a_node21"><a xlink:title=" ">
<polygon fill="white" stroke="#bfbfbf" points="1363,-436.5 1363,-455.5 1413,-455.5 1413,-436.5 1363,-436.5"/>
<text text-anchor="middle" x="1388" y="-443.5" font-family="Helvetica,sans-Serif" font-size="10.00">cstdint</text>
</a>
</g>
</g>
<!-- Node1&#45;&gt;Node21 -->
<g id="edge43" class="edge">
<title>Node1&#45;&gt;Node21</title>
<path fill="none" stroke="midnightblue" d="M1178.77,-492.49C1226.27,-483.42 1288.97,-470.92 1352.93,-456.15"/>
<polygon fill="midnightblue" stroke="midnightblue" points="1353.84,-459.53 1362.79,-453.85 1352.26,-452.71 1353.84,-459.53"/>
</g>
<!-- Node22 -->
<g id="node22" class="node">
<title>Node22</title>
<g id="a_node22"><a xlink:title=" ">
<polygon fill="white" stroke="#bfbfbf" points="1103,-375 1103,-394 1159,-394 1159,-375 1103,-375"/>
<text text-anchor="middle" x="1131" y="-382" font-family="Helvetica,sans-Serif" font-size="10.00">optional</text>
</a>
</g>
</g>
<!-- Node1&#45;&gt;Node22 -->
<g id="edge44" class="edge">
<title>Node1&#45;&gt;Node22</title>
<path fill="none" stroke="midnightblue" d="M1106.32,-492.14C1111.4,-470.2 1121.09,-428.33 1126.7,-404.09"/>
<polygon fill="midnightblue" stroke="midnightblue" points="1130.18,-404.58 1129.02,-394.05 1123.36,-403.01 1130.18,-404.58"/>
</g>
<!-- Node23 -->
<g id="node23" class="node">
<title>Node23</title>
<g id="a_node23"><a xlink:href="shpfile__impl_8hpp.html" target="_top" xlink:title=" ">
<polygon fill="white" stroke="black" points="1215.5,-436.5 1215.5,-455.5 1344.5,-455.5 1344.5,-436.5 1215.5,-436.5"/>
<text text-anchor="middle" x="1280" y="-443.5" font-family="Helvetica,sans-Serif" font-size="10.00">shpxx/shpfile_impl.hpp</text>
</a>
</g>
</g>
<!-- Node1&#45;&gt;Node23 -->
<g id="edge45" class="edge">
<title>Node1&#45;&gt;Node23</title>
<path fill="none" stroke="midnightblue" d="M1139.11,-492.4C1168.37,-482.12 1209.44,-468.35 1239.76,-458.68"/>
<polygon fill="midnightblue" stroke="midnightblue" points="1241.11,-461.92 1249.59,-455.57 1239,-455.25 1241.11,-461.92"/>
</g>
<!-- Node3 -->
<g id="node3" class="node">
<title>Node3</title>
<g id="a_node3"><a xlink:title=" ">
<polygon fill="white" stroke="#bfbfbf" points="330,-56.5 330,-75.5 390,-75.5 390,-56.5 330,-56.5"/>
<text text-anchor="middle" x="360" y="-63.5" font-family="Helvetica,sans-Serif" font-size="10.00">concepts</text>
</a>
</g>
</g>
<!-- Node2&#45;&gt;Node3 -->
<g id="edge2" class="edge">
<title>Node2&#45;&gt;Node3</title>
<path fill="none" stroke="midnightblue" d="M1060.94,-302.47C1022.76,-285.46 955.78,-256.42 897,-235 713.63,-168.16 489.38,-103.32 399.77,-78.07"/>
<polygon fill="midnightblue" stroke="midnightblue" points="400.59,-74.67 390.01,-75.33 398.69,-81.41 400.59,-74.67"/>
</g>
<!-- Node4 -->
<g id="node4" class="node">
<title>Node4</title>
<g id="a_node4"><a xlink:title=" ">
<polygon fill="white" stroke="#bfbfbf" points="727,-241 727,-260 771,-260 771,-241 727,-241"/>
<text text-anchor="middle" x="749" y="-248" font-family="Helvetica,sans-Serif" font-size="10.00">string</text>
</a>
</g>
</g>
<!-- Node2&#45;&gt;Node4 -->
<g id="edge3" class="edge">
<title>Node2&#45;&gt;Node4</title>
<path fill="none" stroke="midnightblue" d="M1035.38,-306.2C980.52,-296.15 895,-280.35 821,-266 807.9,-263.46 793.47,-260.57 780.99,-258.05"/>
<polygon fill="midnightblue" stroke="midnightblue" points="781.54,-254.59 771.04,-256.03 780.14,-261.45 781.54,-254.59"/>
</g>
<!-- Node5&#45;&gt;Node3 -->
<g id="edge7" class="edge">
<title>Node5&#45;&gt;Node3</title>
<path fill="none" stroke="midnightblue" d="M310.47,-369.45C328.14,-346.34 360,-298.2 360,-251.5 360,-251.5 360,-251.5 360,-182.5 360,-148.36 360,-108.55 360,-85.71"/>
<polygon fill="midnightblue" stroke="midnightblue" points="363.5,-85.69 360,-75.69 356.5,-85.69 363.5,-85.69"/>
</g>
<!-- Node5&#45;&gt;Node6 -->
<g id="edge5" class="edge">
<title>Node5&#45;&gt;Node6</title>
<path fill="none" stroke="midnightblue" d="M369.6,-372.25C446.71,-359.97 569.11,-340.47 643.36,-328.64"/>
<polygon fill="midnightblue" stroke="midnightblue" points="644.18,-332.05 653.51,-327.02 643.08,-325.14 644.18,-332.05"/>
</g>
<!-- Node6&#45;&gt;Node4 -->
<g id="edge6" class="edge">
<title>Node6&#45;&gt;Node4</title>
<path fill="none" stroke="midnightblue" d="M712.66,-307.73C719.09,-297.79 729.72,-281.34 737.83,-268.79"/>
<polygon fill="midnightblue" stroke="midnightblue" points="740.94,-270.43 743.43,-260.13 735.06,-266.63 740.94,-270.43"/>
</g>
<!-- Node7&#45;&gt;Node3 -->
<g id="edge39" class="edge">
<title>Node7&#45;&gt;Node3</title>
<path fill="none" stroke="midnightblue" d="M624.45,-437.11C562.07,-429.9 482.62,-417.65 455,-400 417.75,-376.2 398,-362.7 398,-318.5 398,-318.5 398,-318.5 398,-182.5 398,-146.25 380.91,-106.67 369.65,-84.53"/>
<polygon fill="midnightblue" stroke="midnightblue" points="372.73,-82.87 364.97,-75.66 366.54,-86.14 372.73,-82.87"/>
</g>
<!-- Node8 -->
<g id="node8" class="node">
<title>Node8</title>
<g id="a_node8"><a xlink:href="linestring_8hpp.html" target="_top" xlink:title=" ">
<polygon fill="white" stroke="black" points="630,-375 630,-394 784,-394 784,-375 630,-375"/>
<text text-anchor="middle" x="707" y="-382" font-family="Helvetica,sans-Serif" font-size="10.00">shpxx/feature/linestring.hpp</text>
</a>
</g>
</g>
<!-- Node7&#45;&gt;Node8 -->
<g id="edge9" class="edge">
<title>Node7&#45;&gt;Node8</title>
<path fill="none" stroke="midnightblue" d="M707,-436.48C707,-428.08 707,-414.98 707,-404.16"/>
<polygon fill="midnightblue" stroke="midnightblue" points="710.5,-404.01 707,-394.01 703.5,-404.01 710.5,-404.01"/>
</g>
<!-- Node11 -->
<g id="node11" class="node">
<title>Node11</title>
<g id="a_node11"><a xlink:href="multi__patch_8hpp.html" target="_top" xlink:title=" ">
<polygon fill="white" stroke="black" points="802.5,-369.5 802.5,-399.5 915.5,-399.5 915.5,-369.5 802.5,-369.5"/>
<text text-anchor="start" x="810.5" y="-387.5" font-family="Helvetica,sans-Serif" font-size="10.00">shpxx/feature/multi</text>
<text text-anchor="middle" x="859" y="-376.5" font-family="Helvetica,sans-Serif" font-size="10.00">_patch.hpp</text>
</a>
</g>
</g>
<!-- Node7&#45;&gt;Node11 -->
<g id="edge13" class="edge">
<title>Node7&#45;&gt;Node11</title>
<path fill="none" stroke="midnightblue" d="M728.78,-436.48C750.81,-427.85 785.52,-414.26 813.57,-403.29"/>
<polygon fill="midnightblue" stroke="midnightblue" points="815.14,-406.43 823.18,-399.52 812.59,-399.91 815.14,-406.43"/>
</g>
<!-- Node12 -->
<g id="node12" class="node">
<title>Node12</title>
<g id="a_node12"><a xlink:href="multi__point_8hpp.html" target="_top" xlink:title=" ">
<polygon fill="white" stroke="black" points="933.5,-369.5 933.5,-399.5 1046.5,-399.5 1046.5,-369.5 933.5,-369.5"/>
<text text-anchor="start" x="941.5" y="-387.5" font-family="Helvetica,sans-Serif" font-size="10.00">shpxx/feature/multi</text>
<text text-anchor="middle" x="990" y="-376.5" font-family="Helvetica,sans-Serif" font-size="10.00">_point.hpp</text>
</a>
</g>
</g>
<!-- Node7&#45;&gt;Node12 -->
<g id="edge16" class="edge">
<title>Node7&#45;&gt;Node12</title>
<path fill="none" stroke="midnightblue" d="M749.04,-436.44C790.72,-427.91 856.69,-414.32 923.61,-400.07"/>
<polygon fill="midnightblue" stroke="midnightblue" points="924.43,-403.47 933.48,-397.96 922.97,-396.63 924.43,-403.47"/>
</g>
<!-- Node13 -->
<g id="node13" class="node">
<title>Node13</title>
<g id="a_node13"><a xlink:href="point_8hpp.html" target="_top" xlink:title=" ">
<polygon fill="white" stroke="black" points="77.5,-375 77.5,-394 210.5,-394 210.5,-375 77.5,-375"/>
<text text-anchor="middle" x="144" y="-382" font-family="Helvetica,sans-Serif" font-size="10.00">shpxx/feature/point.hpp</text>
</a>
</g>
</g>
<!-- Node7&#45;&gt;Node13 -->
<g id="edge19" class="edge">
<title>Node7&#45;&gt;Node13</title>
<path fill="none" stroke="midnightblue" d="M624.25,-439.88C526.95,-433.27 360.72,-420.18 219,-400 210.97,-398.86 202.5,-397.43 194.26,-395.93"/>
<polygon fill="midnightblue" stroke="midnightblue" points="194.83,-392.47 184.36,-394.06 193.54,-399.35 194.83,-392.47"/>
</g>
<!-- Node20 -->
<g id="node20" class="node">
<title>Node20</title>
<g id="a_node20"><a xlink:href="polygon_8hpp.html" target="_top" xlink:title=" ">
<polygon fill="white" stroke="black" points="464.5,-375 464.5,-394 611.5,-394 611.5,-375 464.5,-375"/>
<text text-anchor="middle" x="538" y="-382" font-family="Helvetica,sans-Serif" font-size="10.00">shpxx/feature/polygon.hpp</text>
</a>
</g>
</g>
<!-- Node7&#45;&gt;Node20 -->
<g id="edge36" class="edge">
<title>Node7&#45;&gt;Node20</title>
<path fill="none" stroke="midnightblue" d="M682.79,-436.48C653.67,-426.22 604.63,-408.96 571.8,-397.4"/>
<polygon fill="midnightblue" stroke="midnightblue" points="572.76,-394.03 562.17,-394.01 570.44,-400.63 572.76,-394.03"/>
</g>
<!-- Node8&#45;&gt;Node6 -->
<g id="edge10" class="edge">
<title>Node8&#45;&gt;Node6</title>
<path fill="none" stroke="midnightblue" d="M707,-374.73C707,-365.18 707,-349.62 707,-337.28"/>
<polygon fill="midnightblue" stroke="midnightblue" points="710.5,-337.13 707,-327.13 703.5,-337.13 710.5,-337.13"/>
</g>
<!-- Node8&#45;&gt;Node9 -->
<g id="edge11" class="edge">
<title>Node8&#45;&gt;Node9</title>
<path fill="none" stroke="midnightblue" d="M727.18,-374.87C753.3,-363.7 799.03,-344.15 829.16,-331.26"/>
<polygon fill="midnightblue" stroke="midnightblue" points="830.91,-334.32 838.73,-327.17 828.16,-327.88 830.91,-334.32"/>
</g>
<!-- Node10 -->
<g id="node10" class="node">
<title>Node10</title>
<g id="a_node10"><a xlink:title=" ">
<polygon fill="white" stroke="#bfbfbf" points="830,-241 830,-260 888,-260 888,-241 830,-241"/>
<text text-anchor="middle" x="859" y="-248" font-family="Helvetica,sans-Serif" font-size="10.00">memory</text>
</a>
</g>
</g>
<!-- Node9&#45;&gt;Node10 -->
<g id="edge12" class="edge">
<title>Node9&#45;&gt;Node10</title>
<path fill="none" stroke="midnightblue" d="M859,-307.73C859,-298.18 859,-282.62 859,-270.28"/>
<polygon fill="midnightblue" stroke="midnightblue" points="862.5,-270.13 859,-260.13 855.5,-270.13 862.5,-270.13"/>
</g>
<!-- Node11&#45;&gt;Node6 -->
<g id="edge14" class="edge">
<title>Node11&#45;&gt;Node6</title>
<path fill="none" stroke="midnightblue" d="M826.02,-369.4C799.23,-357.94 761.81,-341.94 736.12,-330.95"/>
<polygon fill="midnightblue" stroke="midnightblue" points="737.46,-327.72 726.89,-327.01 734.71,-334.16 737.46,-327.72"/>
</g>
<!-- Node11&#45;&gt;Node9 -->
<g id="edge15" class="edge">
<title>Node11&#45;&gt;Node9</title>
<path fill="none" stroke="midnightblue" d="M859,-369.4C859,-360.06 859,-347.71 859,-337.52"/>
<polygon fill="midnightblue" stroke="midnightblue" points="862.5,-337.19 859,-327.19 855.5,-337.19 862.5,-337.19"/>
</g>
<!-- Node12&#45;&gt;Node6 -->
<g id="edge17" class="edge">
<title>Node12&#45;&gt;Node6</title>
<path fill="none" stroke="midnightblue" d="M933.41,-370.5C880.74,-358.41 803.18,-340.59 753.88,-329.27"/>
<polygon fill="midnightblue" stroke="midnightblue" points="754.64,-325.85 744.11,-327.02 753.08,-332.67 754.64,-325.85"/>
</g>
<!-- Node12&#45;&gt;Node9 -->
<g id="edge18" class="edge">
<title>Node12&#45;&gt;Node9</title>
<path fill="none" stroke="midnightblue" d="M961.57,-369.4C938.89,-358.14 907.37,-342.5 885.28,-331.54"/>
<polygon fill="midnightblue" stroke="midnightblue" points="886.66,-328.32 876.14,-327.01 883.55,-334.59 886.66,-328.32"/>
</g>
<!-- Node13&#45;&gt;Node6 -->
<g id="edge34" class="edge">
<title>Node13&#45;&gt;Node6</title>
<path fill="none" stroke="midnightblue" d="M184.76,-374.94C195.83,-372.81 207.85,-370.65 219,-369 365.53,-347.3 538.19,-331.77 633.85,-324.05"/>
<polygon fill="midnightblue" stroke="midnightblue" points="634.31,-327.53 644,-323.24 633.75,-320.55 634.31,-327.53"/>
</g>
<!-- Node13&#45;&gt;Node9 -->
<g id="edge35" class="edge">
<title>Node13&#45;&gt;Node9</title>
<path fill="none" stroke="midnightblue" d="M183.16,-374.96C194.66,-372.71 207.29,-370.5 219,-369 466.38,-337.27 531.44,-363.29 779,-333 788.16,-331.88 797.85,-330.39 807.22,-328.78"/>
<polygon fill="midnightblue" stroke="midnightblue" points="807.97,-332.2 817.2,-327.01 806.75,-325.31 807.97,-332.2"/>
</g>
<!-- Node14 -->
<g id="node14" class="node">
<title>Node14</title>
<g id="a_node14"><a xlink:href="is__coordinate_8hpp.html" target="_top" xlink:title=" ">
<polygon fill="white" stroke="black" points="112,-112.5 112,-131.5 294,-131.5 294,-112.5 112,-112.5"/>
<text text-anchor="middle" x="203" y="-119.5" font-family="Helvetica,sans-Serif" font-size="10.00">shpxx/concepts/is_coordinate.hpp</text>
</a>
</g>
</g>
<!-- Node13&#45;&gt;Node14 -->
<g id="edge20" class="edge">
<title>Node13&#45;&gt;Node14</title>
<path fill="none" stroke="midnightblue" d="M140.32,-374.76C136.37,-364.84 130.33,-348.09 128,-333 125.89,-319.38 126.06,-315.64 128,-302 136.75,-240.59 138.41,-223.05 167,-168 172.41,-157.59 180.41,-147.27 187.51,-139.15"/>
<polygon fill="midnightblue" stroke="midnightblue" points="190.27,-141.32 194.42,-131.57 185.09,-136.6 190.27,-141.32"/>
</g>
<!-- Node13&#45;&gt;Node15 -->
<g id="edge24" class="edge">
<title>Node13&#45;&gt;Node15</title>
<path fill="none" stroke="midnightblue" d="M129.7,-374.92C100.77,-356.36 38,-309.4 38,-251.5 38,-251.5 38,-251.5 38,-182.5 38,-147.53 48.26,-107.74 55.08,-85.17"/>
<polygon fill="midnightblue" stroke="midnightblue" points="58.44,-86.17 58.09,-75.58 51.76,-84.07 58.44,-86.17"/>
</g>
<!-- Node17 -->
<g id="node17" class="node">
<title>Node17</title>
<g id="a_node17"><a xlink:href="coordinate__cast_8hpp.html" target="_top" xlink:title=" ">
<polygon fill="white" stroke="black" points="137.5,-308 137.5,-327 284.5,-327 284.5,-308 137.5,-308"/>
<text text-anchor="middle" x="211" y="-315" font-family="Helvetica,sans-Serif" font-size="10.00">shpxx/coordinate_cast.hpp</text>
</a>
</g>
</g>
<!-- Node13&#45;&gt;Node17 -->
<g id="edge25" class="edge">
<title>Node13&#45;&gt;Node17</title>
<path fill="none" stroke="midnightblue" d="M153.04,-374.73C163.68,-364.4 181.58,-347.04 194.68,-334.33"/>
<polygon fill="midnightblue" stroke="midnightblue" points="197.37,-336.6 202.11,-327.13 192.49,-331.58 197.37,-336.6"/>
</g>
<!-- Node14&#45;&gt;Node3 -->
<g id="edge23" class="edge">
<title>Node14&#45;&gt;Node3</title>
<path fill="none" stroke="midnightblue" d="M227.88,-112.44C254.29,-103.36 296.22,-88.94 325.74,-78.78"/>
<polygon fill="midnightblue" stroke="midnightblue" points="326.92,-82.08 335.24,-75.52 324.64,-75.46 326.92,-82.08"/>
</g>
<!-- Node14&#45;&gt;Node15 -->
<g id="edge21" class="edge">
<title>Node14&#45;&gt;Node15</title>
<path fill="none" stroke="midnightblue" d="M180.5,-112.44C156.92,-103.48 119.68,-89.31 93.04,-79.18"/>
<polygon fill="midnightblue" stroke="midnightblue" points="93.99,-75.8 83.4,-75.52 91.5,-82.34 93.99,-75.8"/>
</g>
<!-- Node16 -->
<g id="node16" class="node">
<title>Node16</title>
<g id="a_node16"><a xlink:title=" ">
<polygon fill="white" stroke="#bfbfbf" points="37.5,-0.5 37.5,-19.5 84.5,-19.5 84.5,-0.5 37.5,-0.5"/>
<text text-anchor="middle" x="61" y="-7.5" font-family="Helvetica,sans-Serif" font-size="10.00">cmath</text>
</a>
</g>
</g>
<!-- Node15&#45;&gt;Node16 -->
<g id="edge22" class="edge">
<title>Node15&#45;&gt;Node16</title>
<path fill="none" stroke="midnightblue" d="M61,-56.08C61,-49.01 61,-38.86 61,-29.99"/>
<polygon fill="midnightblue" stroke="midnightblue" points="64.5,-29.75 61,-19.75 57.5,-29.75 64.5,-29.75"/>
</g>
<!-- Node17&#45;&gt;Node14 -->
<g id="edge26" class="edge">
<title>Node17&#45;&gt;Node14</title>
<path fill="none" stroke="midnightblue" d="M201.19,-308C191.39,-298.79 176.96,-283.11 171,-266 155.72,-222.11 178.54,-168.05 192.87,-140.68"/>
<polygon fill="midnightblue" stroke="midnightblue" points="196.12,-142.02 197.84,-131.57 189.98,-138.67 196.12,-142.02"/>
</g>
<!-- Node18 -->
<g id="node18" class="node">
<title>Node18</title>
<g id="a_node18"><a xlink:href="coordinate__cast__impl_8hpp.html" target="_top" xlink:title=" ">
<polygon fill="white" stroke="black" points="180,-235.5 180,-265.5 306,-265.5 306,-235.5 180,-235.5"/>
<text text-anchor="start" x="188" y="-253.5" font-family="Helvetica,sans-Serif" font-size="10.00">shpxx/coordinate_cast</text>
<text text-anchor="middle" x="243" y="-242.5" font-family="Helvetica,sans-Serif" font-size="10.00">_impl.hpp</text>
</a>
</g>
</g>
<!-- Node17&#45;&gt;Node18 -->
<g id="edge27" class="edge">
<title>Node17&#45;&gt;Node18</title>
<path fill="none" stroke="midnightblue" d="M210.53,-307.73C212.93,-299.2 218.93,-285.87 225.28,-274.33"/>
<polygon fill="midnightblue" stroke="midnightblue" points="228.37,-275.99 230.39,-265.59 222.32,-272.46 228.37,-275.99"/>
</g>
<!-- Node18&#45;&gt;Node14 -->
<g id="edge31" class="edge">
<title>Node18&#45;&gt;Node14</title>
<path fill="none" stroke="midnightblue" d="M230.37,-235.14C222.76,-225.58 213.67,-212.37 209,-199 202.47,-180.3 201.53,-157.48 201.87,-141.76"/>
<polygon fill="midnightblue" stroke="midnightblue" points="205.37,-141.86 202.28,-131.73 198.37,-141.57 205.37,-141.86"/>
</g>
<!-- Node18&#45;&gt;Node15 -->
<g id="edge32" class="edge">
<title>Node18&#45;&gt;Node15</title>
<path fill="none" stroke="midnightblue" d="M222.34,-235.22C193.46,-214.61 140.38,-174.35 103,-132 89.98,-117.25 78.11,-98.1 70.34,-84.42"/>
<polygon fill="midnightblue" stroke="midnightblue" points="73.34,-82.62 65.44,-75.56 67.22,-86 73.34,-82.62"/>
</g>
<!-- Node18&#45;&gt;Node17 -->
<g id="edge33" class="edge">
<title>Node18&#45;&gt;Node17</title>
<path fill="none" stroke="midnightblue" d="M241.74,-265.59C238.2,-275.4 231.85,-288.56 225.66,-299.03"/>
<polygon fill="midnightblue" stroke="midnightblue" points="222.54,-297.42 220.1,-307.73 228.44,-301.19 222.54,-297.42"/>
</g>
<!-- Node19 -->
<g id="node19" class="node">
<title>Node19</title>
<g id="a_node19"><a xlink:href="has__zm_8hpp.html" target="_top" xlink:title=" ">
<polygon fill="white" stroke="black" points="218.5,-168.5 218.5,-198.5 331.5,-198.5 331.5,-168.5 218.5,-168.5"/>
<text text-anchor="start" x="226.5" y="-186.5" font-family="Helvetica,sans-Serif" font-size="10.00">shpxx/concepts/has</text>
<text text-anchor="middle" x="275" y="-175.5" font-family="Helvetica,sans-Serif" font-size="10.00">_zm.hpp</text>
</a>
</g>
</g>
<!-- Node18&#45;&gt;Node19 -->
<g id="edge28" class="edge">
<title>Node18&#45;&gt;Node19</title>
<path fill="none" stroke="midnightblue" d="M249.94,-235.4C253.93,-227.3 259.03,-216.94 263.59,-207.69"/>
<polygon fill="midnightblue" stroke="midnightblue" points="266.79,-209.09 268.07,-198.58 260.51,-206 266.79,-209.09"/>
</g>
<!-- Node19&#45;&gt;Node3 -->
<g id="edge30" class="edge">
<title>Node19&#45;&gt;Node3</title>
<path fill="none" stroke="midnightblue" d="M285.42,-168.34C301.16,-146.96 330.91,-106.53 347.69,-83.73"/>
<polygon fill="midnightblue" stroke="midnightblue" points="350.51,-85.8 353.62,-75.67 344.87,-81.65 350.51,-85.8"/>
</g>
<!-- Node19&#45;&gt;Node14 -->
<g id="edge29" class="edge">
<title>Node19&#45;&gt;Node14</title>
<path fill="none" stroke="midnightblue" d="M257.94,-168.4C246.94,-159.31 232.63,-147.49 221.38,-138.19"/>
<polygon fill="midnightblue" stroke="midnightblue" points="223.41,-135.33 213.48,-131.66 218.96,-140.73 223.41,-135.33"/>
</g>
<!-- Node20&#45;&gt;Node6 -->
<g id="edge37" class="edge">
<title>Node20&#45;&gt;Node6</title>
<path fill="none" stroke="midnightblue" d="M560.44,-374.87C589.82,-363.57 641.49,-343.7 674.97,-330.82"/>
<polygon fill="midnightblue" stroke="midnightblue" points="676.66,-333.92 684.73,-327.06 674.14,-327.39 676.66,-333.92"/>
</g>
<!-- Node20&#45;&gt;Node9 -->
<g id="edge38" class="edge">
<title>Node20&#45;&gt;Node9</title>
<path fill="none" stroke="midnightblue" d="M580.3,-374.94C638.59,-363.13 743.58,-341.87 806.72,-329.09"/>
<polygon fill="midnightblue" stroke="midnightblue" points="807.76,-332.45 816.87,-327.03 806.37,-325.59 807.76,-332.45"/>
</g>
<!-- Node23&#45;&gt;Node1 -->
<g id="edge51" class="edge">
<title>Node23&#45;&gt;Node1</title>
<path fill="none" stroke="midnightblue" d="M1259.17,-455.66C1234.99,-464.42 1194.37,-478.22 1160.57,-489.23"/>
<polygon fill="midnightblue" stroke="midnightblue" points="1159.22,-485.99 1150.79,-492.4 1161.38,-492.65 1159.22,-485.99"/>
</g>
<!-- Node23&#45;&gt;Node2 -->
<g id="edge46" class="edge">
<title>Node23&#45;&gt;Node2</title>
<path fill="none" stroke="midnightblue" d="M1282.62,-436.37C1286.71,-420.99 1292.62,-388.64 1277,-369 1262.09,-350.25 1205.46,-336.62 1158.74,-328.28"/>
<polygon fill="midnightblue" stroke="midnightblue" points="1159.09,-324.79 1148.63,-326.53 1157.89,-331.68 1159.09,-324.79"/>
</g>
<!-- Node23&#45;&gt;Node6 -->
<g id="edge49" class="edge">
<title>Node23&#45;&gt;Node6</title>
<path fill="none" stroke="midnightblue" d="M1270.74,-436.25C1252.66,-419.75 1210.68,-384.35 1168,-369 1007.95,-311.44 955.5,-356.19 787,-333 778.26,-331.8 769.02,-330.32 760.05,-328.77"/>
<polygon fill="midnightblue" stroke="midnightblue" points="760.53,-325.3 750.07,-327 759.31,-332.19 760.53,-325.3"/>
</g>
<!-- Node23&#45;&gt;Node9 -->
<g id="edge50" class="edge">
<title>Node23&#45;&gt;Node9</title>
<path fill="none" stroke="midnightblue" d="M1278.04,-436.19C1273.91,-419.93 1262.69,-385.35 1239,-369 1214.25,-351.92 1035.05,-333.79 931.81,-324.6"/>
<polygon fill="midnightblue" stroke="midnightblue" points="932.03,-321.11 921.76,-323.71 931.41,-328.08 932.03,-321.11"/>
</g>
<!-- Node23&#45;&gt;Node22 -->
<g id="edge54" class="edge">
<title>Node23&#45;&gt;Node22</title>
<path fill="none" stroke="midnightblue" d="M1258.65,-436.48C1233.31,-426.36 1190.86,-409.4 1161.93,-397.85"/>
<polygon fill="midnightblue" stroke="midnightblue" points="1162.89,-394.47 1152.31,-394.01 1160.3,-400.97 1162.89,-394.47"/>
</g>
<!-- Node24 -->
<g id="node24" class="node">
<title>Node24</title>
<g id="a_node24"><a xlink:href="exceptions_8hpp.html" target="_top" xlink:title=" ">
<polygon fill="white" stroke="black" points="1329.5,-375 1329.5,-394 1452.5,-394 1452.5,-375 1329.5,-375"/>
<text text-anchor="middle" x="1391" y="-382" font-family="Helvetica,sans-Serif" font-size="10.00">shpxx/exceptions.hpp</text>
</a>
</g>
</g>
<!-- Node23&#45;&gt;Node24 -->
<g id="edge47" class="edge">
<title>Node23&#45;&gt;Node24</title>
<path fill="none" stroke="midnightblue" d="M1295.9,-436.48C1314.28,-426.62 1344.76,-410.29 1366.24,-398.77"/>
<polygon fill="midnightblue" stroke="midnightblue" points="1367.97,-401.82 1375.13,-394.01 1364.66,-395.65 1367.97,-401.82"/>
</g>
<!-- Node25 -->
<g id="node25" class="node">
<title>Node25</title>
<g id="a_node25"><a xlink:title=" ">
<polygon fill="white" stroke="#bfbfbf" points="1403.5,-308 1403.5,-327 1468.5,-327 1468.5,-308 1403.5,-308"/>
<text text-anchor="middle" x="1436" y="-315" font-family="Helvetica,sans-Serif" font-size="10.00">stdexcept</text>
</a>
</g>
</g>
<!-- Node23&#45;&gt;Node25 -->
<g id="edge55" class="edge">
<title>Node23&#45;&gt;Node25</title>
<path fill="none" stroke="midnightblue" d="M1327.2,-436.43C1378.28,-426.69 1453.6,-410.73 1462,-400 1476.97,-380.88 1462.21,-352.94 1449.59,-335.24"/>
<polygon fill="midnightblue" stroke="midnightblue" points="1452.19,-332.88 1443.36,-327.02 1446.61,-337.11 1452.19,-332.88"/>
</g>
<!-- Node26 -->
<g id="node26" class="node">
<title>Node26</title>
<g id="a_node26"><a xlink:title=" ">
<polygon fill="white" stroke="#bfbfbf" points="1509.5,-375 1509.5,-394 1562.5,-394 1562.5,-375 1509.5,-375"/>
<text text-anchor="middle" x="1536" y="-382" font-family="Helvetica,sans-Serif" font-size="10.00">cstddef</text>
</a>
</g>
</g>
<!-- Node23&#45;&gt;Node26 -->
<g id="edge52" class="edge">
<title>Node23&#45;&gt;Node26</title>
<path fill="none" stroke="midnightblue" d="M1329.98,-436.5C1373.85,-428.57 1439.18,-415.64 1495,-400 1497.96,-399.17 1501.01,-398.24 1504.06,-397.26"/>
<polygon fill="midnightblue" stroke="midnightblue" points="1505.27,-400.54 1513.62,-394.02 1503.02,-393.91 1505.27,-400.54"/>
</g>
<!-- Node27 -->
<g id="node27" class="node">
<title>Node27</title>
<g id="a_node27"><a xlink:title=" ">
<polygon fill="white" stroke="#bfbfbf" points="1581,-375 1581,-394 1625,-394 1625,-375 1581,-375"/>
<text text-anchor="middle" x="1603" y="-382" font-family="Helvetica,sans-Serif" font-size="10.00">limits</text>
</a>
</g>
</g>
<!-- Node23&#45;&gt;Node27 -->
<g id="edge53" class="edge">
<title>Node23&#45;&gt;Node27</title>
<path fill="none" stroke="midnightblue" d="M1341.4,-436.49C1420.49,-425.37 1550.41,-406.57 1572,-400 1573.88,-399.43 1575.78,-398.77 1577.68,-398.04"/>
<polygon fill="midnightblue" stroke="midnightblue" points="1579.12,-401.23 1586.93,-394.07 1576.36,-394.8 1579.12,-401.23"/>
</g>
<!-- Node24&#45;&gt;Node25 -->
<g id="edge48" class="edge">
<title>Node24&#45;&gt;Node25</title>
<path fill="none" stroke="midnightblue" d="M1397.07,-374.73C1404.02,-364.7 1415.57,-348.01 1424.29,-335.42"/>
<polygon fill="midnightblue" stroke="midnightblue" points="1427.21,-337.34 1430.03,-327.13 1421.46,-333.36 1427.21,-337.34"/>
</g>
</g>
</svg>
