<?xml version="1.0" encoding="UTF-8" standalone="no"?>
<!DOCTYPE svg PUBLIC "-//W3C//DTD SVG 1.1//EN"
 "http://www.w3.org/Graphics/SVG/1.1/DTD/svg11.dtd">
<!-- Generated by graphviz version 2.43.0 (0)
 -->
<!-- Title: /home/runner/work/shpxx/shpxx/include/shpxx/version.hpp Pages: 1 -->
<svg width="187pt" height="95pt"
 viewBox="0.00 0.00 187.00 95.00" xmlns="http://www.w3.org/2000/svg" xmlns:xlink="http://www.w3.org/1999/xlink">
<g id="graph0" class="graph" transform="scale(1 1) rotate(0) translate(4 91)">
<title>/home/runner/work/shpxx/shpxx/include/shpxx/version.hpp</title>
<polygon fill="white" stroke="transparent" points="-4,4 -4,-91 183,-91 183,4 -4,4"/>
<!-- Node1 -->
<g id="node1" class="node">
<title>Node1</title>
<g id="a_node1"><a xlink:title=" ">
<polygon fill="#bfbfbf" stroke="black" points="0,-56.5 0,-86.5 179,-86.5 179,-56.5 0,-56.5"/>
<text text-anchor="start" x="8" y="-74.5" font-family="Helvetica,sans-Serif" font-size="10.00">/home/runner/work/shpxx</text>
<text text-anchor="middle" x="89.5" y="-63.5" font-family="Helvetica,sans-Serif" font-size="10.00">/shpxx/include/shpxx/version.hpp</text>
</a>
</g>
</g>
<!-- Node2 -->
<g id="node2" class="node">
<title>Node2</title>
<g id="a_node2"><a xlink:title=" ">
<polygon fill="white" stroke="#bfbfbf" points="30,-0.5 30,-19.5 83,-19.5 83,-0.5 30,-0.5"/>
<text text-anchor="middle" x="56.5" y="-7.5" font-family="Helvetica,sans-Serif" font-size="10.00">cstddef</text>
</a>
</g>
</g>
<!-- Node1&#45;&gt;Node2 -->
<g id="edge1" class="edge">
<title>Node1&#45;&gt;Node2</title>
<path fill="none" stroke="midnightblue" d="M81.68,-56.4C77.03,-48.02 71.1,-37.33 66.16,-28.42"/>
<polygon fill="midnightblue" stroke="midnightblue" points="69.21,-26.71 61.3,-19.66 63.09,-30.1 69.21,-26.71"/>
</g>
<!-- Node3 -->
<g id="node3" class="node">
<title>Node3</title>
<g id="a_node3"><a xlink:title=" ">
<polygon fill="white" stroke="#bfbfbf" points="101.5,-0.5 101.5,-19.5 145.5,-19.5 145.5,-0.5 101.5,-0.5"/>
<text text-anchor="middle" x="123.5" y="-7.5" font-family="Helvetica,sans-Serif" font-size="10.00">string</text>
</a>
</g>
</g>
<!-- Node1&#45;&gt;Node3 -->
<g id="edge2" class="edge">
<title>Node1&#45;&gt;Node3</title>
<path fill="none" stroke="midnightblue" d="M97.56,-56.4C102.35,-48.02 108.46,-37.33 113.54,-28.42"/>
<polygon fill="midnightblue" stroke="midnightblue" points="116.63,-30.08 118.55,-19.66 110.55,-26.6 116.63,-30.08"/>
</g>
</g>
</svg>
